<svg width="70" height="63" viewBox="0 0 70 63" fill="none" xmlns="http://www.w3.org/2000/svg">
<path fill-rule="evenodd" clip-rule="evenodd" d="M22.4323 55.7096C26.5369 55.682 25.577 56.1819 27.557 52.52C37.0036 35.0467 44.5987 20.824 54.0453 3.35075C56.1128 -0.473355 55.1074 0.0336581 59.3885 0.0336581C64.0507 0.0336581 63.5605 -0.595767 61.3313 3.58917C51.0663 22.8625 42.651 38.886 32.3853 58.1597C29.8154 62.9845 31.1265 62.6843 25.8792 62.6631C19.0655 62.636 12.2523 62.6089 5.43862 62.5818C3.96693 62.5759 4.22494 62.7944 3.51701 61.595C2.98634 60.7818 2.45616 59.7912 1.92549 58.978C-0.0772315 55.9082 -0.618774 55.7155 1.53347 55.7249C8.46224 55.7549 15.554 55.7549 22.4324 55.7096H22.4323Z" fill="url(#paint0_linear)"/>
<path fill-rule="evenodd" clip-rule="evenodd" d="M40.0839 8.48586C49.2477 25.2621 58.6855 41.7633 67.8486 58.539C70.2643 62.9615 71.047 62.5079 66.2407 62.5079C61.5869 62.5079 62.6431 63.1259 60.3547 59.0391C52.936 45.7927 45.1002 32.4616 38.1799 19.0386C34.9344 12.7427 32.8056 8.07712 32.2913 9.94914C32.4875 6.43723 31.9956 4.13405 34.8154 3.86681C35.6191 3.79107 36.8345 3.6859 37.4396 4.27087C38.1022 4.91212 39.0088 6.31654 40.0839 8.48586V8.48586Z" fill="url(#paint1_linear)"/>
<path fill-rule="evenodd" clip-rule="evenodd" d="M34.1284 7.83353C34.7721 6.76112 35.2913 5.94586 35.648 5.33897C36.3256 4.18652 36.4219 3.78332 35.6892 3.79514L29.3738 3.89847C28.625 3.91029 28.3343 4.14502 27.8344 5.00511C18.3517 21.3543 9.94748 38.4667 0.336525 54.885C-0.00626066 55.4716 -0.11132 55.8194 0.134469 56.223L3.73128 62.138C4.21186 62.9279 4.45228 61.9965 5.84749 59.4482L32.8841 10.0659L34.1285 7.8334L34.1284 7.83353Z" fill="#F5B938"/>
<defs>
<linearGradient id="paint0_linear" x1="14.7837" y1="60.4019" x2="64.9249" y2="-5.91689" gradientUnits="userSpaceOnUse">
<stop stop-color="#BE9010"/>
<stop offset="0.529412" stop-color="#D9A424"/>
<stop offset="1" stop-color="#F5B938"/>
</linearGradient>
<linearGradient id="paint1_linear" x1="39.1446" y1="13.825" x2="68.5259" y2="67.0102" gradientUnits="userSpaceOnUse">
<stop stop-color="#BE910F"/>
<stop offset="0.760784" stop-color="#D9A523"/>
<stop offset="1" stop-color="#F5B938"/>
</linearGradient>
</defs>
</svg>
