<svg width="38" height="18" viewBox="0 0 38 18" fill="none" xmlns="http://www.w3.org/2000/svg">
<path fill-rule="evenodd" clip-rule="evenodd" d="M36.7875 0.587376C37.0046 0.773096 37.1768 0.993723 37.2943 1.23662C37.4118 1.47952 37.4723 1.73992 37.4723 2.0029C37.4723 2.26588 37.4118 2.52627 37.2943 2.76917C37.1768 3.01207 37.0046 3.2327 36.7875 3.41842L20.4723 17.4137C20.0346 17.7891 19.441 18 18.8221 18C18.2031 18 17.6095 17.7891 17.1718 17.4137C16.7342 17.0383 16.4883 16.5291 16.4883 15.9982C16.4883 15.4672 16.7342 14.9581 17.1718 14.5826L33.4871 0.587376C33.7036 0.401186 33.9608 0.253464 34.244 0.152673C34.5271 0.0518809 34.8307 0 35.1373 0C35.4439 0 35.7475 0.0518809 36.0306 0.152673C36.3138 0.253464 36.571 0.401186 36.7875 0.587376Z" fill="white"/>
<path fill-rule="evenodd" clip-rule="evenodd" d="M0.674832 0.578868C0.46092 0.761898 0.291203 0.97933 0.175404 1.21871C0.0596056 1.45809 0 1.71472 0 1.97389C0 2.23306 0.0596056 2.48968 0.175404 2.72906C0.291203 2.96844 0.46092 3.18587 0.674832 3.3689L17.0578 17.4222C17.4891 17.7921 18.0741 18 18.6841 18C19.2941 18 19.8791 17.7921 20.3104 17.4222C20.7417 17.0522 20.984 16.5504 20.984 16.0271C20.984 15.5039 20.7417 15.0021 20.3104 14.6321L3.9274 0.578868C3.71402 0.395375 3.46055 0.249793 3.18148 0.150461C2.90242 0.0511294 2.60325 0 2.30111 0C1.99898 0 1.69981 0.0511294 1.42075 0.150461C1.14168 0.249793 0.888204 0.395375 0.674832 0.578868Z" fill="white"/>
</svg>
