<svg width="37" height="28" viewBox="0 0 37 28" fill="none" xmlns="http://www.w3.org/2000/svg">
<path fill-rule="evenodd" clip-rule="evenodd" d="M1.1911 25.855C2.15643 27.0991 1.89394 26.8084 3.04094 25.5584C4.91537 23.5157 6.78988 21.4729 8.66423 19.4302C9.68999 18.3123 9.42161 18.2509 10.5615 19.4553C12.0278 21.0047 13.489 22.8991 14.9559 24.4477C16.0157 25.5665 15.6805 25.5218 16.7347 24.3456C21.3299 19.2187 25.9252 14.0916 30.5205 8.96469C31.341 8.04906 31.2304 8.48111 32.168 9.49293C32.6673 10.0316 33.1666 10.5704 33.6658 11.1091C34.8945 12.4351 34.0256 12.3507 34.3428 10.3479C34.7869 7.5441 35.4131 4.82644 36.2468 1.59838C36.5237 0.52605 36.7866 1.15004 35.0095 1.51474C31.2315 2.29009 29.8025 2.62827 27.2626 2.89427C25.5784 3.19413 25.7347 2.2633 26.941 3.72251C27.4001 4.27782 27.8591 4.83322 28.3182 5.38854C29.0293 6.24885 29.6496 6.51141 28.9991 7.24332C25.0573 11.6774 21.1157 16.45 17.1737 20.8838C15.8508 22.3717 15.7075 21.9794 14.3493 20.4774C13.0488 19.0392 12.034 17.6011 10.7335 16.163C9.44552 14.7388 10.1053 14.5718 8.89151 15.9325C6.48353 18.6317 4.10505 21.0275 1.69746 23.7271C0.583997 24.9757 0.201406 24.5798 1.1911 25.855Z" fill="white" stroke="white" stroke-miterlimit="2.61313"/>
</svg>
