<svg width="16" height="18" viewBox="0 0 16 18" fill="none" xmlns="http://www.w3.org/2000/svg">
<path d="M15.1579 14.5267V15.3688H0V14.5267L1.68421 12.8425V7.78988C1.68421 5.17936 3.39368 2.88041 5.89474 2.13936V1.89515C5.89474 1.44847 6.07218 1.02008 6.38803 0.704231C6.70388 0.388381 7.13227 0.210938 7.57895 0.210938C8.02563 0.210938 8.45401 0.388381 8.76986 0.704231C9.08571 1.02008 9.26316 1.44847 9.26316 1.89515V2.13936C11.7642 2.88041 13.4737 5.17936 13.4737 7.78988V12.8425L15.1579 14.5267ZM9.26316 16.2109C9.26316 16.6576 9.08571 17.086 8.76986 17.4019C8.45401 17.7177 8.02563 17.8951 7.57895 17.8951C7.13227 17.8951 6.70388 17.7177 6.38803 17.4019C6.07218 17.086 5.89474 16.6576 5.89474 16.2109H9.26316Z" fill="white"/>
</svg>
