<svg width="24" height="24" viewBox="0 0 24 24" fill="none" xmlns="http://www.w3.org/2000/svg">
<path fill-rule="evenodd" clip-rule="evenodd" d="M23.5594 0.440597C23.6991 0.579908 23.8099 0.745403 23.8855 0.927603C23.9611 1.1098 24 1.30513 24 1.5024C24 1.69966 23.9611 1.89499 23.8855 2.07719C23.8099 2.25939 23.6991 2.42488 23.5594 2.56419L2.56341 23.5602C2.2818 23.8418 1.89986 24 1.50161 24C1.10336 24 0.721417 23.8418 0.439811 23.5602C0.158204 23.2786 2.9672e-09 22.8966 0 22.4984C-2.9672e-09 22.1001 0.158204 21.7182 0.439811 21.4366L21.4358 0.440597C21.5751 0.300934 21.7406 0.190126 21.9228 0.114521C22.105 0.0389164 22.3003 0 22.4976 0C22.6949 0 22.8902 0.0389164 23.0724 0.114521C23.2546 0.190126 23.4201 0.300934 23.5594 0.440597Z" fill="#646A7C"/>
<path fill-rule="evenodd" clip-rule="evenodd" d="M0.440597 0.440597C0.300934 0.579908 0.190126 0.745403 0.114521 0.927603C0.0389164 1.1098 0 1.30513 0 1.5024C0 1.69966 0.0389164 1.89499 0.114521 2.07719C0.190126 2.25939 0.300934 2.42488 0.440597 2.56419L21.4366 23.5602C21.7182 23.8418 22.1001 24 22.4984 24C22.8966 24 23.2786 23.8418 23.5602 23.5602C23.8418 23.2786 24 22.8966 24 22.4984C24 22.1001 23.8418 21.7182 23.5602 21.4366L2.56419 0.440597C2.42488 0.300934 2.25939 0.190126 2.07719 0.114521C1.89499 0.0389164 1.69966 0 1.5024 0C1.30513 0 1.1098 0.0389164 0.927603 0.114521C0.745403 0.190126 0.579908 0.300934 0.440597 0.440597Z" fill="#646A7C"/>
</svg>
