<svg width="20" height="20" viewBox="0 0 20 20" fill="none" xmlns="http://www.w3.org/2000/svg">
<path fill-rule="evenodd" clip-rule="evenodd" d="M18.6547 0.348873C18.7653 0.459181 18.8531 0.590223 18.9129 0.734493C18.9728 0.878762 19.0036 1.03343 19.0036 1.18962C19.0036 1.34582 18.9728 1.50048 18.9129 1.64475C18.8531 1.78902 18.7653 1.92006 18.6547 2.03037L2.02975 18.6554C1.80677 18.8784 1.50434 19.0036 1.189 19.0036C0.873658 19.0036 0.571231 18.8784 0.34825 18.6554C0.125269 18.4324 2.34948e-09 18.13 0 17.8146C-2.34948e-09 17.4993 0.125269 17.1969 0.34825 16.9739L16.9732 0.348873C17.0836 0.238285 17.2146 0.150545 17.3589 0.09068C17.5031 0.0308147 17.6578 0 17.814 0C17.9702 0 18.1249 0.0308147 18.2691 0.09068C18.4134 0.150545 18.5444 0.238285 18.6547 0.348873Z" fill="white"/>
<path fill-rule="evenodd" clip-rule="evenodd" d="M0.348873 0.348873C0.238285 0.459181 0.150545 0.590223 0.09068 0.734493C0.0308147 0.878762 0 1.03343 0 1.18962C0 1.34582 0.0308147 1.50048 0.09068 1.64475C0.150545 1.78902 0.238285 1.92006 0.348873 2.03037L16.9739 18.6554C17.1969 18.8784 17.4993 19.0036 17.8146 19.0036C18.13 19.0036 18.4324 18.8784 18.6554 18.6554C18.8784 18.4324 19.0036 18.13 19.0036 17.8146C19.0036 17.4993 18.8784 17.1969 18.6554 16.9739L2.03037 0.348873C1.92006 0.238285 1.78902 0.150545 1.64475 0.09068C1.50048 0.0308147 1.34582 0 1.18962 0C1.03343 0 0.878762 0.0308147 0.734493 0.09068C0.590223 0.150545 0.459181 0.238285 0.348873 0.348873Z" fill="white"/>
</svg>
