<svg width="22" height="11" viewBox="0 0 22 11" fill="none" xmlns="http://www.w3.org/2000/svg">
<path fill-rule="evenodd" clip-rule="evenodd" d="M21.6084 10.641C21.7325 10.5276 21.831 10.3927 21.8982 10.2443C21.9654 10.0958 22 9.93672 22 9.77601C22 9.6153 21.9654 9.45617 21.8982 9.30773C21.831 9.15929 21.7325 9.02446 21.6084 8.91097L12.2783 0.358311C12.028 0.128887 11.6886 -9.53674e-07 11.3346 -9.53674e-07C10.9806 -9.53674e-07 10.6412 0.128887 10.3909 0.358311C10.1406 0.587733 10 0.898897 10 1.22335C10 1.5478 10.1406 1.85897 10.3909 2.08839L19.721 10.641C19.8448 10.7548 19.9919 10.8451 20.1538 10.9067C20.3158 10.9683 20.4894 11 20.6647 11C20.84 11 21.0136 10.9683 21.1756 10.9067C21.3375 10.8451 21.4846 10.7548 21.6084 10.641Z" fill="#CEA71D"/>
<path fill-rule="evenodd" clip-rule="evenodd" d="M0.385912 10.6462C0.263583 10.5344 0.166529 10.4015 0.100307 10.2552C0.0340863 10.1089 0 9.95212 0 9.79374C0 9.63535 0.0340863 9.47853 0.100307 9.33224C0.166529 9.18595 0.263583 9.05308 0.385912 8.94123L9.75475 0.353121C10.0014 0.127021 10.3359 0 10.6848 0C11.0336 0 11.3681 0.127021 11.6148 0.353121C11.8614 0.579221 12 0.885878 12 1.20563C12 1.52538 11.8614 1.83204 11.6148 2.05814L2.24594 10.6462C2.12392 10.7584 1.97896 10.8473 1.81937 10.9081C1.65979 10.9688 1.4887 11 1.31592 11C1.14314 11 0.97206 10.9688 0.812473 10.9081C0.652887 10.8473 0.507932 10.7584 0.385912 10.6462Z" fill="#CEA71D"/>
</svg>
