<svg width="24" height="12" viewBox="0 0 24 12" fill="none" xmlns="http://www.w3.org/2000/svg">
<path fill-rule="evenodd" clip-rule="evenodd" d="M23.5758 0.391584C23.7102 0.515397 23.8169 0.662482 23.8897 0.824414C23.9625 0.986346 24 1.15994 24 1.33526C24 1.51058 23.9625 1.68418 23.8897 1.84611C23.8169 2.00805 23.7102 2.15513 23.5758 2.27894L13.4682 11.6091C13.197 11.8594 12.8293 12 12.4458 12C12.0624 12 11.6946 11.8594 11.4235 11.6091C11.1523 11.3588 11 11.0194 11 10.6654C11 10.3115 11.1523 9.97204 11.4235 9.72176L21.5311 0.391584C21.6652 0.267457 21.8246 0.168976 22 0.101782C22.1754 0.0345873 22.3635 0 22.5534 0C22.7434 0 22.9314 0.0345873 23.1069 0.101782C23.2823 0.168976 23.4416 0.267457 23.5758 0.391584Z" fill="#CEA71D"/>
<path fill-rule="evenodd" clip-rule="evenodd" d="M0.450231 0.385912C0.307514 0.507932 0.194283 0.652887 0.117025 0.812473C0.0397673 0.97206 0 1.14314 0 1.31592C0 1.4887 0.0397673 1.65979 0.117025 1.81937C0.194283 1.97896 0.307514 2.12392 0.450231 2.24594L11.3805 11.6148C11.6683 11.8614 12.0586 12 12.4656 12C12.8725 12 13.2628 11.8614 13.5506 11.6148C13.8383 11.3681 14 11.0336 14 10.6848C14 10.3359 13.8383 10.0014 13.5506 9.75475L2.62026 0.385912C2.4779 0.263583 2.30879 0.166529 2.1226 0.100307C1.93642 0.0340863 1.73682 0 1.53524 0C1.33367 0 1.13407 0.0340863 0.947885 0.100307C0.761701 0.166529 0.592587 0.263583 0.450231 0.385912Z" fill="#CEA71D"/>
</svg>
