<svg id="eWo6GUxkugT1" xmlns="http://www.w3.org/2000/svg" xmlns:xlink="http://www.w3.org/1999/xlink" viewBox="-240 -315 1640 1590" shape-rendering="geometricPrecision" text-rendering="geometricPrecision">
<style><![CDATA[
#eWo6GUxkugT14 {animation: eWo6GUxkugT14_c_o 10000ms linear infinite normal forwards}@keyframes eWo6GUxkugT14_c_o { 0% {opacity: 1} 21% {opacity: 1} 25% {opacity: 0} 41% {opacity: 0} 45% {opacity: 1} 81% {opacity: 1} 85% {opacity: 0} 92% {opacity: 0} 96% {opacity: 1} 100% {opacity: 1}} #eWo6GUxkugT16 {animation: eWo6GUxkugT16_c_o 10000ms linear infinite normal forwards}@keyframes eWo6GUxkugT16_c_o { 0% {opacity: 0} 1% {opacity: 0} 5% {opacity: 1} 21% {opacity: 1} 25% {opacity: 0} 61% {opacity: 0} 65% {opacity: 1} 81% {opacity: 1} 85% {opacity: 0} 100% {opacity: 0}} #eWo6GUxkugT18 {animation: eWo6GUxkugT18_c_o 10000ms linear infinite normal forwards}@keyframes eWo6GUxkugT18_c_o { 0% {opacity: 1} 1% {opacity: 1} 5% {opacity: 0} 41% {opacity: 0} 45% {opacity: 1} 61% {opacity: 1} 65% {opacity: 0} 81% {opacity: 0} 85% {opacity: 1} 100% {opacity: 1}} #eWo6GUxkugT20 {animation: eWo6GUxkugT20_c_o 10000ms linear infinite normal forwards}@keyframes eWo6GUxkugT20_c_o { 0% {opacity: 0} 1% {opacity: 0} 5% {opacity: 1} 41% {opacity: 1} 45% {opacity: 0} 81% {opacity: 0} 85% {opacity: 1} 92% {opacity: 1} 96% {opacity: 0} 100% {opacity: 0}}
]]></style>
<g transform="matrix(1.434489 0 0 1.43448-175.658022 410.96103)"><path d="M433.74,556.79q0,31.63-22.81,46.57c-8.853475,5.849012-19.249277,8.926671-29.86,8.84h-33.31q-22.1,0-36.78-16.84-14.1-16.12-14.09-38.57v-44.42h20.18v46.81q0,14.33,10.51,23.4q10,8.59,24.48,8.6h27.7c8.304077.047703,16.351643-2.874816,22.69-8.24q10.74-8.6,10.75-21q0-10.62-14.69-14c-1.762555-.431812-3.559324-.709525-5.37-.83h-29.86v-36.9q0-16.61,10.63-27.41t27.35-10.8h25.79l.83,20.19h-25.79q-11.58,0-16,10.26-2,5-2.63,24.48q25.44,0,33.92,3.11q16.35,6.21,16.36,26.75Z" transform="translate(-58.78-418.98)" fill="#cea82c"/><path d="M554.1,529.76q0,12.91-9.67,20.81-9,7.29-22.09,7.29h-66.63l-3-21.37h68.19q11.94,0,11.94-8.43c-.014382-2.926457-1.169571-5.731916-3.22-7.82L481.24,468.8l14.47-14.59l48.45,51.15q9.95,10.64,9.94,24.4Z" transform="translate(-58.78-418.98)" fill="#cea82c"/><path d="M652.5,560.61q0,21.5-16.18,36.54t-37.79,15.05h-27.83L568,590.82h27.1q15.29,0,25.32-8.85t10.58-23.97q-26.88,0-39-7.17-16.25-9.57-16.24-34.43q0-27,12.78-37.89q7.88-6.69,26.27-6.69q24.47,0,32.72,20.53q5,12.78,5,41.32ZM631,536.37v-22.16q0-21.06-16.84-21.07-10.27,0-13.85,6.94-2.51,5-2.51,16.65q0,13.65,10.87,17.48q5.86,2.16,22.33,2.16Z" transform="translate(-58.78-418.98)" fill="#cea82c"/><path d="M756.75,554.16q0,23.64-14.81,40.48Q726.42,612.19,703,612.2h-28.41L671,590.1h24.12q15.52,0,26.75-7.4q12.78-8.6,12.78-23.52v-68.79h22.09ZM755.91,432c.08931,4.001513-1.464715,7.864891-4.3,10.69-2.772549,2.871329-6.61963,4.452221-10.61,4.36q-16.49,0-16.48-15.05q0-13,15.76-13t15.63,13Z" transform="translate(-58.78-418.98)" fill="#cea82c"/><path d="M953.18,557.86q-14.08,0-20.54-3.7-3.23-1.9-22.45-19.7-12.19,25.78-39.28,25.79-17.8,0-29.38-11.58t-11.53-29.38q0-18.63,25-43.58l-6.09-6.93l14.44-14.57l64.37,68.43q8.48,9,10.87,10.38q4.53,2.76,14.68,3.35Zm-61.5-37.14q0-7.87-4.06-11.82l-17.31-17.19q-10,9.44-12.54,12.66-6.33,8.11-6.33,16.35c-.192074,5.120957,1.856077,10.071568,5.61,13.56c3.846856,3.496766,8.904102,5.358263,14.1,5.19c5.28866.072672,10.416201-1.819423,14.39-5.31c3.988423-3.3098,6.249105-8.258264,6.14-13.44Z" transform="translate(-58.78-418.98)" fill="#cea82c"/><path d="M1011,522.87c.148146,8.819074-2.907468,17.39256-8.6,24.13q-9.07,10.86-22.57,10.86h-35.25v-21.37q33.79,0,37.62-1.32q7.17-2.62,7.17-19.4q0-4.18-.18-12.68t-.18-12.7h22ZM985.66,598c.102027,3.980483-1.481325,7.819022-4.36,10.57-2.799095,2.787303-6.610575,4.317669-10.56,4.24q-16,0-16-14.81q0-12.88,15.4-12.89t15.52,12.89Z" transform="translate(-58.78-418.98)" fill="#cea82c"/><path d="M92.23,556.33q0,15.78-17.29,15.78-16.17,0-16.16-15.78q0-14.87,17.42-14.86q16.04,0,16.03,14.86Z" transform="translate(-58.78-418.98)" fill="#cea82c"/><path d="M163.44,556.33q0,15.78-17.3,15.78-16.15,0-16.16-15.78q0-14.87,17.42-14.86q16.04,0,16.04,14.86Z" transform="translate(-58.78-418.98)" fill="#cea82c"/><path d="M234.64,556.33q0,15.78-17.3,15.78-16.15,0-16.16-15.78q0-14.87,17.43-14.86q16.02,0,16.03,14.86Z" transform="translate(-58.78-418.98)" fill="#cea82c"/></g><rect width="441.912553" height="438.530266" rx="0" ry="0" transform="matrix(.977333 0 0 0.977337 676.069821-146.685883)" fill="#fff" stroke-width="0"/><rect id="eWo6GUxkugT14" width="441.912553" height="438.530266" rx="0" ry="0" transform="matrix(.977333 0 0 0.977337 675.582322-146.685883)" fill="#cea82c" stroke-width="0"/><rect width="441.912553" height="438.530266" rx="0" ry="0" transform="matrix(.777803 0 0 0.777804-221.383859 906.852038)" fill="#fff" stroke-width="0"/><rect id="eWo6GUxkugT16" width="441.912553" height="438.530266" rx="0" ry="0" transform="matrix(.777803 0 0 0.777804-221.383859 906.852038)" opacity="0" fill="#cea82c" stroke-width="0"/><rect width="201.91217" height="201.91217" rx="0" ry="0" transform="translate(76.611213-309.035906)" fill="#fff" stroke-width="0"/><rect id="eWo6GUxkugT18" width="201.91217" height="201.91217" rx="0" ry="0" transform="translate(76.611213-309.035906)" fill="#cea82c" stroke-width="0"/><rect width="163.508814" height="163.508814" rx="0" ry="0" transform="translate(1221.075997 1084.43382)" fill="#fff" stroke-width="0"/><rect id="eWo6GUxkugT20" width="163.508814" height="163.508814" rx="0" ry="0" transform="translate(1221.075997 1084.43382)" opacity="0" fill="#cea82c" stroke-width="0"/></svg>
