<svg id="ehl4ZArHcN51" xmlns="http://www.w3.org/2000/svg" xmlns:xlink="http://www.w3.org/1999/xlink" viewBox="-380 0 6000 6000" shape-rendering="geometricPrecision" text-rendering="geometricPrecision">
<style><![CDATA[
#ehl4ZArHcN5361_ts {animation: ehl4ZArHcN5361_ts__ts 4000ms linear infinite normal forwards}@keyframes ehl4ZArHcN5361_ts__ts { 0% {transform: translate(2685.074998px,2657.614333px) scale(1.042104,1.042104)} 50% {transform: translate(2685.074998px,2657.614333px) scale(2.268552,2.268552)} 100% {transform: translate(2685.074998px,2657.614333px) scale(1.042104,1.042104)}} #ehl4ZArHcN5373 {animation: ehl4ZArHcN5373_c_o 4000ms linear infinite normal forwards}@keyframes ehl4ZArHcN5373_c_o { 0% {opacity: 0} 0.25% {opacity: 1} 12.5% {opacity: 1} 12.75% {opacity: 0} 25% {opacity: 0} 25.25% {opacity: 1} 37.5% {opacity: 1} 37.75% {opacity: 0} 50% {opacity: 0} 50.25% {opacity: 1} 62.5% {opacity: 1} 62.75% {opacity: 0} 75% {opacity: 0} 75.25% {opacity: 1} 87.5% {opacity: 1} 87.75% {opacity: 0} 100% {opacity: 0}}
]]></style>
<defs><radialGradient id="ehl4ZArHcN5361-fill" cx="0" cy="0" r="0.495911" spreadMethod="pad" gradientUnits="objectBoundingBox" gradientTransform="translate(0.502123 0.532182)"><stop id="ehl4ZArHcN5361-fill-0" offset="0%" stop-color="rgba(50,53,62,0)"/><stop id="ehl4ZArHcN5361-fill-1" offset="22.2943%" stop-color="rgba(50,53,62,0)"/><stop id="ehl4ZArHcN5361-fill-2" offset="34.58%" stop-color="rgba(50,53,62,0.94)"/><stop id="ehl4ZArHcN5361-fill-3" offset="49.1222%" stop-color="#32353e"/><stop id="ehl4ZArHcN5361-fill-4" offset="100%" stop-color="#32353e"/></radialGradient></defs><rect width="5347.8" height="5360" rx="0" ry="0" transform="matrix(1.128651 0 0 1.121099-387.999893 0.000406)" fill="#32353e"/><line x1="2015.9" y1="2459" x2="1700" y2="2459" fill="none" stroke="#ebc429" stroke-width="8.48342" stroke-miterlimit="1.06425"/><line x1="2015.4" y1="2347.5" x2="1808.7" y2="2347.5" fill="none" stroke="#ebc429" stroke-width="8.48342" stroke-miterlimit="1.06425"/><polyline points="2016.1,2569.3 1816.1,2569.3 1755.1,2508.1 1501.7,2508.1" fill="none" stroke="#ebc429" stroke-width="8.48342" stroke-miterlimit="1.06425"/><polyline points="3743.4,2285.3 3543.3,2285.3 3482.3,2346.5 3228.9,2346.5" fill="none" stroke="#ebc429" stroke-width="8.48342" stroke-miterlimit="1.06425"/><polyline points="3840.5,2397.2 3530.2,2397.2 3469.1,2458.4 3215.7,2458.4" fill="none" stroke="#ebc429" stroke-width="8.48342" stroke-miterlimit="1.06425"/><polyline points="2016.4,2679.8 1793.3,2678.4 1729.7,2611.1 1516.6,2611.1" fill="none" stroke="#ebc429" stroke-width="8.48342" stroke-miterlimit="1.06425"/><polyline points="2017.5,3120.1 1866.5,3120.3 1797.5,3184.5 1584.5,3184.5" fill="none" stroke="#ebc429" stroke-width="8.48342" stroke-miterlimit="1.06425"/><polyline points="3280.6,3118.9 3431.7,3119.1 3503.8,3183.2 3848,3183.2" fill="none" stroke="#ebc429" stroke-width="8.48342" stroke-miterlimit="1.06425"/><polyline points="3285.6,3006.6 3414,3008.3 3486.1,3072.4 3580.7,3072.1 3624.5,3110 3978.8,3109.2" fill="none" stroke="#ebc429" stroke-width="8.48342" stroke-miterlimit="1.06425"/><polyline points="3833.5,2669.2 3705.1,2667.5 3633,2603.4 3538.4,2603.7 3494.6,2565.8 3195.4,2566.5" fill="none" stroke="#ebc429" stroke-width="8.48342" stroke-miterlimit="1.06425"/><line x1="2016.7" y1="2790.1" x2="1798.6" y2="2790.1" fill="none" stroke="#ebc429" stroke-width="8.48342" stroke-miterlimit="1.06425"/><line x1="2016.3" y1="2899.6" x2="1683" y2="2899.6" fill="none" stroke="#ebc429" stroke-width="8.48342" stroke-miterlimit="1.06425"/><line x1="3603.2" y1="2898.5" x2="3270" y2="2898.5" fill="none" stroke="#ebc429" stroke-width="8.48342" stroke-miterlimit="1.06425"/><line x1="3733.4" y1="2788.6" x2="3242.7" y2="2788.6" fill="none" stroke="#ebc429" stroke-width="8.48342" stroke-miterlimit="1.06425"/><line x1="3563.7" y1="2677.9" x2="3249.3" y2="2677.9" fill="none" stroke="#ebc429" stroke-width="8.48342" stroke-miterlimit="1.06425"/><polyline points="2017.8,3231.5 1824.5,3231.9 1772.1,3281.4 1771.5,3490.3" fill="none" stroke="#ebc429" stroke-width="8.48342" stroke-miterlimit="1.06425"/><polyline points="2017.2,3012.5 1926.9,3012.5 1863.3,3075.1 1596,3075.1" fill="none" stroke="#ebc429" stroke-width="8.48342" stroke-miterlimit="1.06425"/><polyline points="2017.5,3329 1871.9,3329.7 1831,3368.6 1828.1,3575.6" fill="none" stroke="#ebc429" stroke-width="8.48342" stroke-miterlimit="1.06425"/><polyline points="3285.4,3328.2 3431.9,3328.9 3471.8,3366.8 3470.7,3664.5" fill="none" stroke="#ebc429" stroke-width="8.48342" stroke-miterlimit="1.06425"/><circle r="11.8" transform="translate(1798.5 2347.1)" fill="none" stroke="#ebc429" stroke-width="5.65697" stroke-miterlimit="1.06425"/><circle r="11.8" transform="translate(1690.3 2457.1)" fill="none" stroke="#ebc429" stroke-width="5.65697" stroke-miterlimit="1.06425"/><circle r="11.8" transform="translate(1492.4 2507.3)" fill="none" stroke="#ebc429" stroke-width="5.65697" stroke-miterlimit="1.06425"/><circle r="11.8" transform="translate(1507 2611.1)" fill="none" stroke="#ebc429" stroke-width="5.65697" stroke-miterlimit="1.06425"/><circle r="11.8" transform="translate(1786.8 2789.7)" fill="none" stroke="#ebc429" stroke-width="5.65697" stroke-miterlimit="1.06425"/><circle r="11.8" transform="translate(1672.4 2899.6)" fill="none" stroke="#ebc429" stroke-width="5.65697" stroke-miterlimit="1.06425"/><circle r="11.8" transform="translate(1574.9 3184.7)" fill="none" stroke="#ebc429" stroke-width="5.65697" stroke-miterlimit="1.06425"/><circle r="11.8" transform="translate(1585.5 3076.6)" fill="none" stroke="#ebc429" stroke-width="5.65697" stroke-miterlimit="1.06425"/><circle r="11.8" transform="translate(1828.4 3586.1)" fill="none" stroke="#ebc429" stroke-width="5.65697" stroke-miterlimit="1.06425"/><circle r="11.8" transform="translate(2152.7 3785)" fill="none" stroke="#ebc429" stroke-width="5.65697" stroke-miterlimit="1.06425"/><circle r="11.8" transform="translate(2153.1 1862)" fill="none" stroke="#ebc429" stroke-width="5.65697" stroke-miterlimit="1.06425"/><circle r="11.8" transform="translate(2232.6 3885.7)" fill="none" stroke="#ebc429" stroke-width="5.65697" stroke-miterlimit="1.06425"/><circle r="11.8" transform="translate(2231.7 1742.3)" fill="none" stroke="#ebc429" stroke-width="5.65697" stroke-miterlimit="1.06425"/><circle r="11.8" transform="translate(2398.7 3928.2)" fill="none" stroke="#ebc429" stroke-width="5.65697" stroke-miterlimit="1.06425"/><circle r="11.8" transform="translate(2397.8 1800.6)" fill="none" stroke="#ebc429" stroke-width="5.65697" stroke-miterlimit="1.06425"/><circle r="11.8" transform="translate(2501.1 3787.3)" fill="none" stroke="#ebc429" stroke-width="5.65697" stroke-miterlimit="1.06425"/><circle r="11.8" transform="translate(2500.2 1941.5)" fill="none" stroke="#ebc429" stroke-width="5.65697" stroke-miterlimit="1.06425"/><circle r="11.8" transform="translate(2644.1 3868.3)" fill="none" stroke="#ebc429" stroke-width="5.65697" stroke-miterlimit="1.06425"/><circle r="11.8" transform="translate(2645 1860.5)" fill="none" stroke="#ebc429" stroke-width="5.65697" stroke-miterlimit="1.06425"/><circle r="11.8" transform="translate(2801 1757.1)" fill="none" stroke="#ebc429" stroke-width="5.65697" stroke-miterlimit="1.06425"/><circle r="11.8" transform="translate(2850.9 4050.3)" fill="none" stroke="#ebc429" stroke-width="5.65697" stroke-miterlimit="1.06425"/><circle r="11.8" transform="translate(2743.8 4134.9)" fill="none" stroke="#ebc429" stroke-width="5.65697" stroke-miterlimit="1.06425"/><circle r="11.8" transform="translate(2851.8 1678.5)" fill="none" stroke="#ebc429" stroke-width="5.65697" stroke-miterlimit="1.06425"/><circle r="11.8" transform="translate(2918.5 3926.8)" fill="none" stroke="#ebc429" stroke-width="5.65697" stroke-miterlimit="1.06425"/><circle r="11.8" transform="translate(2919.4 1802.1)" fill="none" stroke="#ebc429" stroke-width="5.65697" stroke-miterlimit="1.06425"/><circle r="11.8" transform="translate(3086 3986.1)" fill="none" stroke="#ebc429" stroke-width="5.65697" stroke-miterlimit="1.06425"/><circle r="11.8" transform="translate(3086.8 1742.7)" fill="none" stroke="#ebc429" stroke-width="5.65697" stroke-miterlimit="1.06425"/><circle r="11.8" transform="translate(3218.7 3969.9)" fill="none" stroke="#ebc429" stroke-width="5.65697" stroke-miterlimit="1.06425"/><circle r="11.8" transform="translate(3471.4 3673.9)" fill="none" stroke="#ebc429" stroke-width="5.65697" stroke-miterlimit="1.06425"/><circle r="11.8" transform="translate(3549.4 3491)" fill="none" stroke="#ebc429" stroke-width="5.65697" stroke-miterlimit="1.06425"/><circle r="11.8" transform="translate(3219.5 1758.9)" fill="none" stroke="#ebc429" stroke-width="5.65697" stroke-miterlimit="1.06425"/><circle r="11.8" transform="translate(3752.7 2285.8)" fill="none" stroke="#ebc429" stroke-width="5.65697" stroke-miterlimit="1.06425"/><circle r="11.8" transform="translate(3842.7 2668.2)" fill="none" stroke="#ebc429" stroke-width="5.65697" stroke-miterlimit="1.06425"/><circle r="11.8" transform="translate(3574.3 2678.8)" fill="none" stroke="#ebc429" stroke-width="5.65697" stroke-miterlimit="1.06425"/><circle r="11.8" transform="translate(3744 2789.1)" fill="none" stroke="#ebc429" stroke-width="5.65697" stroke-miterlimit="1.06425"/><circle r="11.8" transform="translate(3614.3 2898.6)" fill="none" stroke="#ebc429" stroke-width="5.65697" stroke-miterlimit="1.06425"/><circle r="11.8" transform="translate(3988 3110.9)" fill="none" stroke="#ebc429" stroke-width="5.65697" stroke-miterlimit="1.06425"/><circle r="11.8" transform="translate(3860 3183.7)" fill="none" stroke="#ebc429" stroke-width="5.65697" stroke-miterlimit="1.06425"/><circle r="11.8" transform="translate(3851.4 2397.6)" fill="none" stroke="#ebc429" stroke-width="5.65697" stroke-miterlimit="1.06425"/><circle r="11.8" transform="translate(1770 3501.2)" fill="none" stroke="#ebc429" stroke-width="5.65697" stroke-miterlimit="1.06425"/><polyline points="2192.3,3468.8 2192.3,3636.4 2151.9,3673.5 2152.9,3775.1" fill="none" stroke="#ebc429" stroke-width="8.48342" stroke-miterlimit="1.06425"/><polyline points="2191.4,2260 2191.4,2092.4 2151,2055.3 2152.1,1871.9" fill="none" stroke="#ebc429" stroke-width="8.48342" stroke-miterlimit="1.06425"/><polyline points="2604.3,3468.9 2604.3,3636.5 2644.8,3673.7 2643.7,3857" fill="none" stroke="#ebc429" stroke-width="8.48342" stroke-miterlimit="1.06425"/><polyline points="2603.4,2259.9 2603.4,2092.3 2643.9,2055.1 2642.8,1871.8" fill="none" stroke="#ebc429" stroke-width="8.48342" stroke-miterlimit="1.06425"/><polyline points="2812.1,3467.7 2812.1,3635.3 2852.6,3672.4 2851.5,4039.6" fill="none" stroke="#ebc429" stroke-width="8.48342" stroke-miterlimit="1.06425"/><polyline points="2813,2261.1 2813,2093.5 2853.4,2056.4 2852.4,1689.2" fill="none" stroke="#ebc429" stroke-width="8.48342" stroke-miterlimit="1.06425"/><polyline points="2295.5,3470 2295.5,3574 2232.5,3636.6 2232.5,3875.2" fill="none" stroke="#ebc429" stroke-width="8.48342" stroke-miterlimit="1.06425"/><polyline points="2294.6,2258.8 2294.6,2055.4 2231.6,1992.8 2231.6,1754.2" fill="none" stroke="#ebc429" stroke-width="8.48342" stroke-miterlimit="1.06425"/><polyline points="3022.3,3469 3022.3,3672.4 3085.2,3735.1 3085.2,3973.6" fill="none" stroke="#ebc429" stroke-width="8.48342" stroke-miterlimit="1.06425"/><polyline points="3023.1,2259.8 3023.1,2056.4 3086.1,1993.7 3086.1,1755.2" fill="none" stroke="#ebc429" stroke-width="8.48342" stroke-miterlimit="1.06425"/><line x1="2398.6" y1="3469.5" x2="2398.6" y2="3916.9" fill="none" stroke="#ebc429" stroke-width="8.48342" stroke-miterlimit="1.06425"/><line x1="2397.7" y1="2259.3" x2="2397.7" y2="1811.9" fill="none" stroke="#ebc429" stroke-width="8.48342" stroke-miterlimit="1.06425"/><line x1="2917.6" y1="3468.6" x2="2917.6" y2="3915.9" fill="none" stroke="#ebc429" stroke-width="8.48342" stroke-miterlimit="1.06425"/><line x1="2918.5" y1="2260.2" x2="2918.5" y2="1812.9" fill="none" stroke="#ebc429" stroke-width="8.48342" stroke-miterlimit="1.06425"/><line x1="2501.7" y1="3469.1" x2="2501.7" y2="3775.5" fill="none" stroke="#ebc429" stroke-width="8.48342" stroke-miterlimit="1.06425"/><line x1="2500.8" y1="2259.7" x2="2500.8" y2="1953.3" fill="none" stroke="#ebc429" stroke-width="8.48342" stroke-miterlimit="1.06425"/><polyline points="2708,3469.9 2708.1,3587.4 2747.7,3622.8 2744.2,4124.7" fill="none" stroke="#ebc429" stroke-width="8.48342" stroke-miterlimit="1.06425"/><polyline points="2708.8,2258.9 2709,2141.4 2748.6,2106 2750,2028.3 2800.9,1980.2 2800.9,1768.1" fill="none" stroke="#ebc429" stroke-width="8.48342" stroke-miterlimit="1.06425"/><polyline points="3126.2,3468.1 3126.4,3585.6 3166,3621 3167.4,3698.8 3218.3,3746.8 3218.3,3959" fill="none" stroke="#ebc429" stroke-width="8.48342" stroke-miterlimit="1.06425"/><polyline points="3127.1,2260.7 3127.2,2143.2 3166.8,2107.8 3168.2,2030 3219.2,1982 3219.2,1769.8" fill="none" stroke="#ebc429" stroke-width="8.48342" stroke-miterlimit="1.06425"/><path d="M3110,3489.9l.2-137.5c-.049514-.251908.024877-.512274.2-.7.135941-.19556.361987-.308583.6-.3h28.7c.457645.051157.80285.439514.8.9l-.3,137.6c.032635.220433-.041632.443234-.2.6-.085071.196891-.28624.317592-.5.3h-28.7c-.457645-.051157-.80285-.439514-.8-.9Z" fill="#d9b01f" fill-rule="evenodd"/><path d="M3007.7,3489.2l-.4-135.9c-.054232-.42348.052864-.851862.3-1.2.307069-.293875.686673-.500932,1.1-.6h27.4c.413327.099068.792931.306125,1.1.6.247136.348138.354232.77652.3,1.2l.5,135.9c.056493.424941-.059898.854779-.323082,1.193158s-.651146.556996-1.076918.606842h-27.5c-.425772-.049846-.813734-.268462-1.076918-.606842s-.379575-.768217-.323082-1.193158Z" fill="#d9b01f" fill-rule="evenodd"/><path d="M2902.8,3490.7l-.5-138c-.003594-.350692.252884-.649917.6-.7h29.1c.347116.050083.603594.349308.6.7l.4,138c.003594.350692-.252884.649917-.6.7h-29c-.4,0-.6-.3-.6-.7Z" fill="#d9b01f" fill-rule="evenodd"/><path d="M2797.8,3489.6l-.4-134.9c0-1.2.8-2.3,1.7-2.3h26.7c1.095757.200406,1.868809,1.188195,1.8,2.3l.4,134.9c0,1.3-.8,2.3-1.7,2.3h-26.7c-1.095757-.200406-1.868809-1.188195-1.8-2.3Z" fill="#d9b01f" fill-rule="evenodd"/><path d="M2692.8,3491l-.4-136.7c-.057706-.31886.015994-.647505.204338-.911187s.475322-.439986.795662-.488813h28.2c.5,0,1,.6,1,1.4l.5,136.7c0,.7-.5,1.4-1.1,1.4h-28.1c-.6,0-1.1-.7-1.1-1.4Z" fill="#d9b01f" fill-rule="evenodd"/><path d="M2589.7,3489.4l-.4-135.8c0-1,.6-1.9,1.4-1.9h27.4c.8,0,1.4.9,1.4,1.9l.4,135.8c.054232.42348-.052864.851862-.3,1.2-.307069.293875-.686673.500932-1.1.6h-27.3c-.89967-.104611-1.55934-.896215-1.5-1.8Z" fill="#d9b01f" fill-rule="evenodd"/><path d="M2486.6,3489.2l-.4-134.6c-.069042-.564443.07346-1.134453.4-1.6.348603-.434237.848905-.720124,1.4-.8h26.5c1.177302.156042,2.01826,1.218305,1.9,2.4l.4,134.6c.11826,1.181695-.722698,2.243958-1.9,2.4h-26.4c-1.177302-.156042-2.01826-1.218305-1.9-2.4Z" fill="#d9b01f" fill-rule="evenodd"/><path d="M2383.5,3490.1l-.5-135.5c-.082084-.472357.066573-.955493.4-1.3.261328-.415667.709543-.677125,1.2-.7h27.1c.474022.073488.902704.323553,1.2.7.333427.344507.482084.827643.4,1.3l.4,135.5c0,1.1-.7,2-1.5,2h-27.2c-.452187-.050028-.865455-.279215-1.14736-.636295s-.408922-.812254-.35264-1.263705Z" fill="#d9b01f" fill-rule="evenodd"/><path d="M2280.3,3491.8l-.4-138.1c0-.4.2-.7.5-.7h29.2c.3,0,.5.3.5.7l.5,138.1c-.016361.310712-.21139.583752-.5.7h-29.3c-.28861-.116248-.483639-.389288-.5-.7Z" fill="#d9b01f" fill-rule="evenodd"/><path d="M2177.2,3489.7l-.4-136.2c0-.9.5-1.6,1.2-1.6h27.7c.789243.103885,1.359878.806204,1.3,1.6l.4,136.2c0,.9-.5,1.6-1.2,1.6h-27.7c-.789243-.103885-1.359878-.806204-1.3-1.6Z" fill="#d9b01f" fill-rule="evenodd"/><path d="M2018.1,3315h138.3c.276142,0,.5.223858.5.5v29.3c0,.2-.3.4-.5.4h-138.3c-.4,0-.6-.2-.6-.4v-29.3c0-.3.2-.5.6-.5Z" fill="#d9b01f" fill-rule="evenodd"/><path d="M2019.4,3216.6h136.2c.793796-.059878,1.496115.510757,1.6,1.3v27.7c-.103885.789243-.806204,1.359878-1.6,1.3h-136.2c-.793796.059878-1.496115-.510757-1.6-1.3v-27.7c.103885-.789243.806204-1.359878,1.6-1.3Z" fill="#d9b01f" fill-rule="evenodd"/><path d="M2019.2,3106.2h136l1.2.3c.304034.287221.483513.682076.5,1.1v27.5c-.016487.417924-.195966.812779-.5,1.1-.371396.191512-.782174.294206-1.2.3h-136c-.848778.059592-1.595731-.555546-1.7-1.4v-27.5c.104269-.844454.851222-1.459592,1.7-1.4Z" fill="#d9b01f" fill-rule="evenodd"/><path d="M2018.7,2995.8h136.5c.738844-.060203,1.39655.465961,1.5,1.2v27.9c-.10345.734039-.761156,1.260203-1.5,1.2h-136.5c-.738844.060203-1.39655-.465961-1.5-1.2v-27.9c.10345-.734039.761156-1.260203,1.5-1.2Z" fill="#d9b01f" fill-rule="evenodd"/><path d="M2018.8,2885.4h135.8c.424941-.056493.854779.059898,1.193158.323082s.556996.651146.606842,1.076918v0v27.5c-.049846.425772-.268462.813734-.606842,1.076918s-.768217.379575-1.193158.323082h-135.8c-.424941.056493-.854779-.059898-1.193158-.323082s-.556996-.651146-.606842-1.076918v0-27.5c.049846-.425772.268462-.813734.606842-1.076918s.768217-.379575,1.193158-.323082Z" fill="#d9b01f" fill-rule="evenodd"/><path d="M2018.3,2775h136.3c.356549-.007365.706385.097586,1,.3.321254.230588.508282.604644.5,1v27.7c.008282.395356-.178746.769412-.5,1-.293615.202414-.643451.307365-1,.3h-136.3c-.793796.059878-1.496115-.510757-1.6-1.3v-27.7c.103885-.789243.806204-1.359878,1.6-1.3Z" fill="#d9b01f" fill-rule="evenodd"/><path d="M2018.6,2664.6h135.1c1.071703-.11905,2.044848.632925,2.2,1.7v26.9c-.155152,1.067075-1.128297,1.81905-2.2,1.7h-135.1c-1.071703.11905-2.044848-.632925-2.2-1.7v-26.9c.155152-1.067075,1.128297-1.81905,2.2-1.7Z" fill="#d9b01f" fill-rule="evenodd"/><path d="M2017.6,2554.2h136.5c.738844-.060203,1.39655.465961,1.5,1.2v27.9c-.10345.734039-.761156,1.260203-1.5,1.2h-136.5c-.738844.060203-1.39655-.465961-1.5-1.2v-27.9c.10345-.734039.761156-1.260203,1.5-1.2Z" fill="#d9b01f" fill-rule="evenodd"/><path d="M2017.7,2443.8h135.9c.833205-.01306,1.553048.579752,1.7,1.4v27.5c-.146952.820248-.866795,1.41306-1.7,1.4h-135.9c-.424941.056493-.854779-.059898-1.193158-.323082s-.556996-.651146-.606842-1.076918v0-27.5c.049846-.425772.268462-.813734.606842-1.076918s.768217-.379575,1.193158-.323082Z" fill="#d9b01f" fill-rule="evenodd"/><path d="M2017.5,2333.4h135.7c.925182-.064121,1.747652.585197,1.9,1.5v27.3c-.152348.914803-.974818,1.564121-1.9,1.5h-135.7c-.925182.064121-1.747652-.585197-1.9-1.5v-27.3c.152348-.914803.974818-1.564121,1.9-1.5Z" fill="#d9b01f" fill-rule="evenodd"/><rect width="160.5" height="29.27" rx="0" ry="0" transform="translate(1646.3 3060.5)" fill="#ebc429"/><rect width="160.5" height="29.27" rx="0" ry="0" transform="translate(3438.9 2774.5)" fill="#d9b01f"/><rect width="29.3" height="105.56" rx="0" ry="0" transform="translate(3203.8 1825.3)" fill="#ebc429"/><rect width="29.3" height="105.56" rx="0" ry="0" transform="translate(3071.3 1394)" fill="#ebc429"/><rect width="30.4" height="105.56" rx="0" ry="0" transform="translate(2485.9 2084.9)" fill="#d9b01f"/><rect width="29.3" height="180.93" rx="0" ry="0" transform="translate(2731.3 3821)" fill="#d9b01f"/><rect width="30.2" height="180.93" rx="0" ry="0" transform="translate(2383.5 3490.3)" fill="#d9b01f"/><rect width="29.3" height="105.56" rx="0" ry="0" transform="translate(2217.6 1778.4)" fill="#ebc429"/><rect width="79.6" height="30.3" rx="0" ry="0" transform="translate(3300.8 3312.9)" fill="#d9b01f"/><rect width="85.9" height="29.27" rx="0" ry="0" transform="translate(3609.7 2270.7)" fill="#ebc429"/><rect width="80.3" height="29.27" rx="0" ry="0" transform="translate(1793.9 2444.1)" fill="#d9b01f"/><rect width="96.2" height="29.2" rx="0" ry="0" transform="translate(1922.5 2776.1)" fill="#d9b01f"/><polyline points="3285.6,3229.7 3461.5,3229.7 3548.5,3312.2 3548.5,3479.4" fill="none" stroke="#ebc429" stroke-width="8.48342" stroke-miterlimit="1.06425"/><rect width="139.5" height="30.23" rx="0" ry="0" transform="matrix(.001745-.999998 0.999998 0.001745 3109.728077 2325.815189)" fill="#d9b01f"/><rect width="30.2" height="139.45" rx="0" ry="0" transform="translate(3001.3 2195.5)" fill="#d9b01f"/><rect width="30.2" height="139.45" rx="0" ry="0" transform="translate(2896.4 2195.7)" fill="#d9b01f"/><rect width="30.2" height="139.45" rx="0" ry="0" transform="translate(2791.4 2195.6)" fill="#d9b01f"/><rect width="30.2" height="139.45" rx="0" ry="0" transform="translate(2681.5 2201.1)" fill="#d9b01f"/><rect width="30.2" height="139.45" rx="0" ry="0" transform="translate(2583.3 2194.4)" fill="#d9b01f"/><rect width="30.2" height="139.45" rx="0" ry="0" transform="translate(2480.2 2194.3)" fill="#d9b01f"/><rect width="30.2" height="139.45" rx="0" ry="0" transform="translate(2376.9 2194.6)" fill="#d9b01f"/><rect width="30.2" height="139.45" rx="0" ry="0" transform="translate(2269 2199.9)" fill="#d9b01f"/><rect width="30.2" height="139.45" rx="0" ry="0" transform="translate(2170.7 2193.1)" fill="#d9b01f"/><path d="M3164.9,3312.9h136.7c.31886-.057706.647505.015994.911187.204338s.439986.475322.488813.795662v0v28.1c0,.6-.6,1-1.4,1h-136.7c-.8,0-1.4-.4-1.4-1v-28c-.005509-.329945.1374-.644933.38931-.858088s.586208-.301956.91069-.241912Z" fill="#d9b01f" fill-rule="evenodd"/><path d="M3165.1,3214.5h136.9l.9.3c.231445.205155.374743.49175.4.8v28.2c-.102383.623662-.670942,1.061015-1.3,1h-136.9c-.629058.061015-1.197617-.376338-1.3-1v-28.2c.025257-.30825.168555-.594845.4-.8Z" fill="#d9b01f" fill-rule="evenodd"/><path d="M3165.1,3104.1h136.3c.793796-.059878,1.496115.510757,1.6,1.3v27.7c-.103885.789243-.806204,1.359878-1.6,1.3h-136.3c-.793796.059878-1.496115-.510757-1.6-1.3v-27.7c.103885-.789243.806204-1.359878,1.6-1.3Z" fill="#d9b01f" fill-rule="evenodd"/><path d="M3165.7,2993.7h134.7c.5518-.090142,1.112645.096806,1.5.5.499512.288363.805163.823252.8,1.4v26.5c.005163.576748-.300488,1.111637-.8,1.4-.387355.403194-.9482.590142-1.5.5h-134.7c-1.181695.11826-2.243958-.722698-2.4-1.9v-26.5c.156042-1.177302,1.218305-2.01826,2.4-1.9Z" fill="#d9b01f" fill-rule="evenodd"/><path d="M3163.5,2883.3h138.5c.2,0,.5.2.5.4v29.5c0,.2-.3.4-.5.4h-138.5c-.2,0-.5-.2-.5-.4v-29.5c0-.2.3-.4.5-.4Z" fill="#d9b01f" fill-rule="evenodd"/><path d="M3165.8,2772.9h133.4c1.6,0,3,1.1,3,2.4v25.5c0,1.3-1.4,2.4-3,2.4h-133.4c-1.7,0-3.1-1.1-3.1-2.4v-25.5c0-1.3,1.4-2.4,3.1-2.4Z" fill="#d9b01f" fill-rule="evenodd"/><path d="M3164.7,2662.5h135c.533463-.074073,1.074254.070138,1.5.4.36645.387312.610021.874453.7,1.4v26.7c-.089979.525547-.33355,1.012688-.7,1.4-.425746.329862-.966537.474073-1.5.4h-135c-.533463.074073-1.074254-.070138-1.5-.4-.36645-.387312-.610021-.874453-.7-1.4v-26.7c.089979-.525547.33355-1.012688.7-1.4.425746-.329862.966537-.474073,1.5-.4Z" fill="#d9b01f" fill-rule="evenodd"/><path d="M3164.1,2552.1h135.7c.925182-.064121,1.747652.585197,1.9,1.5v27.3c-.152348.914803-.974818,1.564121-1.9,1.5h-135.7c-.471258.066658-.947729-.079949-1.3-.4-.362078-.251709-.584401-.659302-.6-1.1v-27.3c.015599-.440698.237922-.848291.6-1.1.352271-.320051.828742-.466658,1.3-.4Z" fill="#d9b01f" fill-rule="evenodd"/><path d="M3163.2,2441.8h136.9c.7,0,1.3.4,1.3.9v28.3c-.102383.623662-.670942,1.061015-1.3,1h-136.9c-.629058.061015-1.197617-.376338-1.3-1v-28.3c0-.5.6-.9,1.3-.9Z" fill="#d9b01f" fill-rule="evenodd"/><path d="M3162.4,2331.4h138c.4,0,.7.2.7.5v29.1c-.050083.347116-.349308.603594-.7.6h-138c-.350692.003594-.649917-.252884-.7-.6v-29.1c0-.3.3-.5.7-.5Z" fill="#d9b01f" fill-rule="evenodd"/><rect width="8.5" height="235.62" rx="0" ry="0" transform="translate(3082 1497.7)" fill="#ebc429"/><rect width="231" height="8.55" rx="0" ry="0" transform="matrix(.730162-.683274 0.683274 0.730162 3761.707672 2282.824336)" fill="#ebc429"/><rect width="116.4" height="8.55" rx="0" ry="0" transform="matrix(.730162-.683274 0.683274 0.730162 3859.915291 2391.81442)" fill="#ebc429"/><rect width="116.4" height="8.55" rx="0" ry="0" transform="matrix(.730162-.683274 0.683274 0.730162 4038.9834 2795.041375)" fill="#ebc429"/><rect width="267.3" height="8.55" rx="0" ry="0" transform="matrix(.730162-.683274 0.683274 0.730162 4224.211673 2544.952617)" fill="#ebc429"/><rect width="267.3" height="8.55" rx="0" ry="0" transform="matrix(.730162-.683274 0.683274 0.730162 4044.374026 2317.315719)" fill="#ebc429"/><rect width="267.3" height="8.55" rx="0" ry="0" transform="matrix(.730162-.683274 0.683274 0.730162 4117.05894 2056.515438)" fill="#ebc429"/><rect width="267.3" height="8.55" rx="0" ry="0" transform="matrix(.730162-.683274 0.683274 0.730162 4524.228251 1876.703119)" fill="#ebc429"/><rect width="267.3" height="8.55" rx="0" ry="0" transform="matrix(.730162-.683274 0.683274 0.730162 4837.366542 2137.104215)" fill="#ebc429"/><rect width="8.5" height="267.31" rx="0" ry="0" transform="matrix(.819152-.573576 0.573576 0.819152 4626.83626 2359.034042)" fill="#ebc429"/><rect width="8.5" height="267.31" rx="0" ry="0" transform="matrix(.819152-.573576 0.573576 0.819152 4480.793535 3188.808686)" fill="#ebc429"/><rect width="8.5" height="138.82" rx="0" ry="0" transform="matrix(.819152-.573576 0.573576 0.819152 4298.69425 3354.557557)" fill="#ebc429"/><rect width="8.5" height="138.82" rx="0" ry="0" transform="matrix(.819152-.573576 0.573576 0.819152 4413.898052 3558.142893)" fill="#ebc429"/><rect width="8.5" height="267.31" rx="0" ry="0" transform="translate(3420.1 1309.6)" fill="#ebc429"/><rect width="267.3" height="8.55" rx="0" ry="0" transform="matrix(.730162-.683274 0.683274 0.730162 3228.152421 1755.398948)" fill="#ebc429"/><rect width="267.3" height="8.55" rx="0" ry="0" transform="matrix(.730162-.683274 0.683274 0.730162 3101.232927 382.886009)" fill="#ebc429"/><rect width="8.5" height="116.42" rx="0" ry="0" transform="translate(3840.6 2543.9)" fill="#ebc429"/><rect width="285.1" height="8.55" rx="0" ry="0" transform="translate(3944.5 2540.3)" fill="#ebc429"/><rect width="285.1" height="8.55" rx="0" ry="0" transform="translate(3759.5 2790)" fill="#ebc429"/><rect width="285.1" height="8.55" rx="0" ry="0" transform="translate(3628.3 2899.4)" fill="#ebc429"/><rect width="8.5" height="107.63" rx="0" ry="0" transform="matrix(.667833-.744312 0.744312 0.667833 3907.65783 2906.620124)" fill="#ebc429"/><rect width="8.5" height="107.63" rx="0" ry="0" transform="matrix(.667833-.744312 0.744312 0.667833 3997.44556 3127.87238)" fill="#ebc429"/><rect width="275.9" height="8.55" rx="0" ry="0" transform="translate(3564.8 3492.5)" fill="#ebc429"/><rect width="275.9" height="8.55" rx="0" ry="0" transform="translate(3939.4 3491.7)" fill="#ebc429"/><rect width="178.1" height="8.55" rx="0" ry="0" transform="translate(4143.8 3558.5)" fill="#ebc429"/><rect width="275.9" height="8.55" rx="0" ry="0" transform="translate(4119.4 3188.8)" fill="#ebc429"/><rect width="275.9" height="8.55" rx="0" ry="0" transform="translate(3987.5 2969.1)" fill="#ebc429"/><rect width="119.4" height="8.55" rx="0" ry="0" transform="translate(4125.5 2712.7)" fill="#ebc429"/><rect width="119.4" height="8.55" rx="0" ry="0" transform="translate(4418.8 2359.8)" fill="#ebc429"/><rect width="119.4" height="8.55" rx="0" ry="0" transform="translate(4239.1 2132.1)" fill="#ebc429"/><rect width="119.4" height="8.55" rx="0" ry="0" transform="translate(4311.6 1871.4)" fill="#ebc429"/><rect width="385.3" height="8.55" rx="0" ry="0" transform="translate(4457.1 2132.1)" fill="#ebc429"/><rect width="385.3" height="8.55" rx="0" ry="0" transform="translate(4780.3 2569.5)" fill="#ebc429"/><rect width="548.5" height="8.55" rx="0" ry="0" transform="translate(4342.1 2712.7)" fill="#ebc429"/><rect width="713.6" height="8.55" rx="0" ry="0" transform="translate(4358.5 2969.1)" fill="#ebc429"/><rect width="713.6" height="8.55" rx="0" ry="0" transform="translate(4634.2 3399.1)" fill="#ebc429"/><rect width="713.6" height="8.55" rx="0" ry="0" transform="translate(4378.4 3459.7)" fill="#ebc429"/><rect width="713.6" height="8.55" rx="0" ry="0" transform="translate(4493.5 3663.4)" fill="#ebc429"/><rect width="385.3" height="8.55" rx="0" ry="0" transform="translate(4718.7 1691.5)" fill="#ebc429"/><rect width="119.4" height="8.55" rx="0" ry="0" transform="translate(4003 2051.8)" fill="#ebc429"/><rect width="163.3" height="8.55" rx="0" ry="0" transform="translate(4048.4 3352)" fill="#ebc429"/><rect width="275.9" height="8.55" rx="0" ry="0" transform="translate(3485.4 3675.2)" fill="#ebc429"/><rect width="167.3" height="8.55" rx="0" ry="0" transform="matrix(.707107-.707107 0.707107 0.707107 4025.436515 3676.825412)" fill="#ebc429"/><rect width="172" height="8.55" rx="0" ry="0" transform="translate(3859.5 3674.3)" fill="#ebc429"/><rect width="8.5" height="135.99" rx="0" ry="0" transform="matrix(.66262-.748956 0.748956 0.66262 3229.15714 3984.786593)" fill="#ebc429"/><rect width="8.5" height="135.99" rx="0" ry="0" transform="matrix(.66262-.748956 0.748956 0.66262 2373.034129 4563.359576)" fill="#ebc429"/><rect width="8.5" height="135.99" rx="0" ry="0" transform="matrix(.66262-.748956 0.748956 0.66262 2604.744125 4597.248157)" fill="#ebc429"/><rect width="8.5" height="135.99" rx="0" ry="0" transform="matrix(.66262-.748956 0.748956 0.66262 2798.413697 4466.612144)" fill="#ebc429"/><rect width="8.5" height="352.74" rx="0" ry="0" transform="matrix(.66262-.748956 0.748956 0.66262 3407.482756 4395.377483)" fill="#ebc429"/><rect width="8.5" height="139.69" rx="0" ry="0" transform="matrix(.66262-.748956 0.748956 0.66262 3092.688839 3999.472314)" fill="#ebc429"/><rect width="8.5" height="135.99" rx="0" ry="0" transform="matrix(.66262-.748956 0.748956 0.66262 2242.966272 4302.247527)" fill="#ebc429"/><rect width="8.5" height="258.79" rx="0" ry="0" transform="translate(2916.5 3945.2)" fill="#ebc429"/><rect width="8.5" height="258.79" rx="0" ry="0" transform="translate(2916.5 3945.2)" fill="#ebc429"/><rect width="8.5" height="258.79" rx="0" ry="0" transform="translate(3194.4 4086.6)" fill="#ebc429"/><rect width="8.5" height="258.79" rx="0" ry="0" transform="translate(3407.5 4136.8)" fill="#ebc429"/><rect width="8.5" height="258.79" rx="0" ry="0" transform="translate(3194.4 4443.2)" fill="#ebc429"/><rect width="8.5" height="258.79" rx="0" ry="0" transform="translate(2897.3 4666.6)" fill="#ebc429"/><rect width="62.8" height="8.55" rx="0" ry="0" transform="matrix(.68962-.724172 0.724172 0.68962 2798.256111 4106.267841)" fill="#ebc429"/><rect width="187.3" height="8.55" rx="0" ry="0" transform="matrix(.68962-.724172 0.724172 0.68962 2604.157759 4282.346264)" fill="#ebc429"/><rect width="187.3" height="8.55" rx="0" ry="0" transform="matrix(.68962-.724172 0.724172 0.68962 2372.961456 4353.2688)" fill="#ebc429"/><rect width="187.3" height="8.55" rx="0" ry="0" transform="matrix(.68962-.724172 0.724172 0.68962 1017.181513 3319.234019)" fill="#ebc429"/><rect width="353.2" height="8.55" rx="0" ry="0" transform="matrix(.68962-.724172 0.724172 0.68962 364.336117 3568.839873)" fill="#ebc429"/><rect width="8.5" height="197.32" rx="0" ry="0" transform="translate(2639.6 3880.2)" fill="#ebc429"/><rect width="105.6" height="8.55" rx="0" ry="0" transform="matrix(.687088-.726575 0.726575 0.687088 2569.344888 4148.998052)" fill="#ebc429"/><rect width="210.9" height="8.55" rx="0" ry="0" transform="matrix(.687088-.726575 0.726575 0.687088 2242.857554 4092.920959)" fill="#ebc429"/><rect width="8.5" height="210.95" rx="0" ry="0" transform="translate(2242.8 4092.3)" fill="#ebc429"/><rect width="8.5" height="210.95" rx="0" ry="0" transform="translate(2341.8 4386.9)" fill="#ebc429"/><rect width="8.5" height="210.95" rx="0" ry="0" transform="translate(2373 4353.4)" fill="#ebc429"/><rect width="8.5" height="210.95" rx="0" ry="0" transform="translate(2604.7 4387.4)" fill="#ebc429"/><rect width="8.5" height="210.95" rx="0" ry="0" transform="translate(2703.7 4682)" fill="#ebc429"/><rect width="8.5" height="143.43" rx="0" ry="0" transform="translate(2703.5 4947.5)" fill="#ebc429"/><rect width="8.5" height="210.95" rx="0" ry="0" transform="translate(2897.3 4551.6)" fill="#ebc429"/><rect width="8.5" height="361.33" rx="0" ry="0" transform="translate(2798.3 4106.4)" fill="#ebc429"/><rect width="8.5" height="101.78" rx="0" ry="0" transform="translate(2230.6 3904.6)" fill="#ebc429"/><rect width="8.5" height="102.1" rx="0" ry="0" transform="translate(2147.9 3797.3)" fill="#ebc429"/><rect width="219.8" height="8.55" rx="0" ry="0" transform="matrix(.707107-.707107 0.707107 0.707107 1199.873419 3743.553602)" fill="#ebc429"/><rect width="308.6" height="8.55" rx="0" ry="0" transform="matrix(.690882-.722967 0.722967 0.690882 1937.518541 4113.677033)" fill="#ebc429"/><rect width="361.4" height="8.55" rx="0" ry="0" transform="translate(1455.5 3588.2)" fill="#ebc429"/><rect width="219.8" height="8.55" rx="0" ry="0" transform="translate(1538.6 3501.5)" fill="#ebc429"/><rect width="313" height="8.55" rx="0" ry="0" transform="translate(1251 3185.6)" fill="#ebc429"/><rect width="313" height="8.55" rx="0" ry="0" transform="translate(710.3 3316.8)" fill="#ebc429"/><rect width="313" height="8.55" rx="0" ry="0" transform="translate(1047.8 3360.2)" fill="#ebc429"/><rect width="215.8" height="8.55" rx="0" ry="0" transform="translate(1360.1 3077.5)" fill="#ebc429"/><rect width="215.8" height="8.55" rx="0" ry="0" transform="translate(1337.2 2803.6)" fill="#ebc429"/><rect width="215.8" height="8.55" rx="0" ry="0" transform="translate(1463.1 2458)" fill="#ebc429"/><rect width="215.8" height="8.55" rx="0" ry="0" transform="translate(1248.2 2082.2)" fill="#ebc429"/><rect width="215.8" height="8.55" rx="0" ry="0" transform="translate(883.1 2229.7)" fill="#ebc429"/><rect width="8.5" height="215.82" rx="0" ry="0" transform="matrix(.819152-.573576 0.573576 0.819152 654.252328 2065.155457)" fill="#ebc429"/><rect width="8.5" height="215.82" rx="0" ry="0" transform="matrix(.819152-.573576 0.573576 0.819152 361.841925 2335.731723)" fill="#ebc429"/><rect width="215.8" height="8.55" rx="0" ry="0" transform="translate(388.9 1974)" fill="#ebc429"/><rect width="215.8" height="8.55" rx="0" ry="0" transform="translate(1035.8 2290.5)" fill="#ebc429"/><rect width="215.8" height="8.55" rx="0" ry="0" transform="translate(589.8 2499.5)" fill="#ebc429"/><rect width="358.1" height="8.55" rx="0" ry="0" transform="translate(578.9 2292.8)" fill="#ebc429"/><rect width="471" height="8.55" rx="0" ry="0" transform="translate(766.5 2803.6)" fill="#ebc429"/><rect width="263.6" height="8.55" rx="0" ry="0" transform="translate(191.1 2635.1)" fill="#ebc429"/><rect width="471" height="8.55" rx="0" ry="0" transform="translate(895.4 3077.5)" fill="#ebc429"/><rect width="215.8" height="8.55" rx="0" ry="0" transform="translate(1118.7 2665.8)" fill="#ebc429"/><rect width="215.8" height="8.55" rx="0" ry="0" transform="matrix(.71934-.694658 0.694658 0.71934 1329.021015 2665.838578)" fill="#ebc429"/><rect width="215.8" height="8.55" rx="0" ry="0" transform="matrix(.71934-.694658 0.694658 0.71934 1093.373569 2229.867748)" fill="#ebc429"/><rect width="219.7" height="8.55" rx="0" ry="0" transform="matrix(.692143-.72176 0.72176 0.692143 2081.114591 4157.501486)" fill="#ebc429"/><rect width="219.7" height="8.55" rx="0" ry="0" transform="matrix(.692143-.72176 0.72176 0.692143 1930.291702 5030.345509)" fill="#ebc429"/><rect width="505.8" height="8.55" rx="0" ry="0" transform="matrix(.692143-.72176 0.72176 0.692143 1597.254392 5066.478473)" fill="#ebc429"/><rect width="369.5" height="8.55" rx="0" ry="0" transform="matrix(.650774-.759271 0.759271 0.650774 2106.733425 4968.40263)" fill="#ebc429"/><rect width="8.5" height="387.14" rx="0" ry="0" transform="translate(2080.8 4159.1)" fill="#ebc429"/><rect width="500.2" height="8.55" rx="0" ry="0" transform="translate(705.7 3741.1)" fill="#ebc429"/><rect width="8.5" height="500.16" rx="0" ry="0" transform="translate(1944.5 4208.8)" fill="#ebc429"/><rect width="8.5" height="195.87" rx="0" ry="0" transform="translate(2107.1 4965.9)" fill="#ebc429"/><rect width="8.5" height="195.87" rx="0" ry="0" transform="translate(2107.1 5161.8)" fill="#ebc429"/><rect width="8.5" height="265.76" rx="0" ry="0" transform="translate(2550.8 5094.2)" fill="#ebc429"/><rect width="8.5" height="236.37" rx="0" ry="0" transform="translate(1929.9 5032)" fill="#ebc429"/><rect width="8.5" height="195.87" rx="0" ry="0" transform="translate(2550.8 4713.4)" fill="#ebc429"/><rect width="8.5" height="195.87" rx="0" ry="0" transform="translate(2550.8 4907)" fill="#ebc429"/><rect width="8.5" height="451.55" rx="0" ry="0" transform="translate(2897.4 4893)" fill="#ebc429"/><rect width="8.5" height="195.87" rx="0" ry="0" transform="translate(2703.5 5087.8)" fill="#ebc429"/><rect width="8.5" height="284.29" rx="0" ry="0" transform="translate(2079.7 4595.1)" fill="#ebc429"/><rect width="8.5" height="241.4" rx="0" ry="0" transform="matrix(.667833-.744312 0.744312 0.667833 3868.884776 3200.349416)" fill="#ebc429"/><rect width="8.5" height="542.7" rx="0" ry="0" transform="translate(2917.3 1251.3)" fill="#ebc429"/><rect width="8.5" height="215.21" rx="0" ry="0" transform="matrix(.633381-.77384 0.77384 0.633381 2673.197245 1542.139546)" fill="#ebc429"/><rect width="8.5" height="214.11" rx="0" ry="0" transform="matrix(.633381-.77384 0.77384 0.633381 2181.726206 249.509808)" fill="#ebc429"/><rect width="8.5" height="215.21" rx="0" ry="0" transform="matrix(.633381-.77384 0.77384 0.633381 2474.103493 311.572385)" fill="#ebc429"/><rect width="8.5" height="215.21" rx="0" ry="0" transform="matrix(.633381-.77384 0.77384 0.633381 2650.137443 360.598159)" fill="#ebc429"/><rect width="8.5" height="215.21" rx="0" ry="0" transform="matrix(.633381-.77384 0.77384 0.633381 3612.057657 509.982574)" fill="#ebc429"/><rect width="8.5" height="221.75" rx="0" ry="0" transform="matrix(.633381-.77384 0.77384 0.633381 2622.314207 1620.880436)" fill="#ebc429"/><rect width="8.5" height="221.75" rx="0" ry="0" transform="translate(2671.9 1316.4)" fill="#ebc429"/><rect width="8.5" height="221.75" rx="0" ry="0" transform="translate(2539.3 1329.9)" fill="#ebc429"/><rect width="8.5" height="221.75" rx="0" ry="0" transform="translate(2459.8 1346.6)" fill="#ebc429"/><rect width="8.5" height="349.5" rx="0" ry="0" transform="translate(2395.6 1444.5)" fill="#ebc429"/><rect width="8.5" height="144.65" rx="0" ry="0" transform="translate(2229.5 1588.7)" fill="#ebc429"/><rect width="8.5" height="237.21" rx="0" ry="0" transform="translate(1944.5 1476.8)" fill="#ebc429"/><rect width="8.5" height="237.21" rx="0" ry="0" transform="translate(2118.9 1269.2)" fill="#ebc429"/><rect width="8.5" height="237.21" rx="0" ry="0" transform="translate(1837.3 1054.3)" fill="#ebc429"/><rect width="8.5" height="237.21" rx="0" ry="0" transform="translate(1837.3 752.2)" fill="#ebc429"/><rect width="8.5" height="237.21" rx="0" ry="0" transform="translate(2002.4 353.4)" fill="#ebc429"/><rect width="8.5" height="237.21" rx="0" ry="0" transform="translate(2197.4 0)" fill="#ebc429"/><rect width="237.2" height="8.55" rx="0" ry="0" transform="matrix(.707107-.707107 0.707107 0.707107 1837.133649 752.371062)" fill="#ebc429"/><rect width="237.2" height="8.55" rx="0" ry="0" transform="matrix(.722967-.690882 0.690882 0.722967 2116.624939 1166.815602)" fill="#ebc429"/><rect width="8.5" height="571.43" rx="0" ry="0" transform="translate(2360.9 366.8)" fill="#ebc429"/><rect width="8.5" height="460.57" rx="0" ry="0" transform="translate(2635.8 438.1)" fill="#ebc429"/><rect width="8.5" height="427.91" rx="0" ry="0" transform="translate(2811.9 487.1)" fill="#ebc429"/><rect width="8.5" height="237.21" rx="0" ry="0" transform="translate(2890.7 662.8)" fill="#ebc429"/><rect width="8.5" height="530.73" rx="0" ry="0" transform="translate(3100.6 381.2)" fill="#ebc429"/><rect width="8.5" height="530.73" rx="0" ry="0" transform="translate(2890.7 132.1)" fill="#ebc429"/><rect width="8.5" height="237.21" rx="0" ry="0" transform="translate(3268.7 601)" fill="#ebc429"/><rect width="8.5" height="237.21" rx="0" ry="0" transform="translate(3428.7 739.8)" fill="#ebc429"/><rect width="8.5" height="237.21" rx="0" ry="0" transform="translate(3772.3 739.2)" fill="#ebc429"/><rect width="337.9" height="8.55" rx="0" ry="0" transform="matrix(.722967-.690882 0.690882 0.722967 2396.28399 1224.965617)" fill="#ebc429"/><rect width="491" height="8.55" rx="0" ry="0" transform="matrix(.722967-.690882 0.690882 0.722967 2460.238246 1348.823324)" fill="#ebc429"/><rect width="491" height="8.55" rx="0" ry="0" transform="matrix(.722967-.690882 0.690882 0.722967 2539.748707 1332.055541)" fill="#ebc429"/><rect width="491" height="8.55" rx="0" ry="0" transform="matrix(.722967-.690882 0.690882 0.722967 2672.528642 1318.687702)" fill="#ebc429"/><rect width="491" height="8.55" rx="0" ry="0" transform="matrix(.722967-.690882 0.690882 0.722967 2917.940673 1253.610935)" fill="#ebc429"/><rect width="491" height="8.55" rx="0" ry="0" transform="matrix(.722967-.690882 0.690882 0.722967 3080.965828 1401.523985)" fill="#ebc429"/><rect width="491" height="8.55" rx="0" ry="0" transform="matrix(.722967-.690882 0.690882 0.722967 3421.009827 1312.090737)" fill="#ebc429"/><rect width="8.5" height="118.43" rx="0" ry="0" transform="translate(2395.8 1222.9)" fill="#ebc429"/><rect width="8.5" height="144.65" rx="0" ry="0" transform="matrix(.615661-.788011 0.788011 0.615661 2028.227884 1773.020127)" fill="#ebc429"/><rect width="8.5" height="144.65" rx="0" ry="0" transform="matrix(.615661-.788011 0.788011 0.615661 2118.61188 1505.433026)" fill="#ebc429"/><rect width="8.5" height="144.65" rx="0" ry="0" transform="matrix(.615661-.788011 0.788011 0.615661 1837.138511 1290.614147)" fill="#ebc429"/><rect width="8.5" height="145.26" rx="0" ry="0" transform="matrix(.617036-.786935 0.786935 0.617036 1568.683554 2819.301206)" fill="#ebc429"/><rect width="8.5" height="418.27" rx="0" ry="0" transform="matrix(.615661-.788011 0.788011 0.615661 1458.730078 2088.15587)" fill="#ebc429"/><rect width="8.5" height="275.12" rx="0" ry="0" transform="matrix(.615661-.788011 0.788011 0.615661 1250.927835 2296.198143)" fill="#ebc429"/><rect width="8.5" height="232.4" rx="0" ry="0" transform="matrix(.615661-.788011 0.788011 0.615661 1355.66278 3365.791462)" fill="#ebc429"/><rect width="8.5" height="275.12" rx="0" ry="0" transform="matrix(.615661-.788011 0.788011 0.615661 800.528407 2505.191493)" fill="#ebc429"/><rect width="8.5" height="276.29" rx="0" ry="0" transform="matrix(.617036-.786935 0.786935 0.617036 566.505505 2653.262994)" fill="#ebc429"/><rect width="8.5" height="536.65" rx="0" ry="0" transform="matrix(.615661-.788011 0.788011 0.615661 472.782372 2754.5357)" fill="#ebc429"/><rect width="8.5" height="81.71" rx="0" ry="0" transform="matrix(.630676-.776046 0.776046 0.630676 2458.927522 1673.63863)" fill="#ebc429"/><rect width="8.5" height="128.56" rx="0" ry="0" transform="translate(2642.1 1723.4)" fill="#ebc429"/><rect width="128.6" height="8.55" rx="0" ry="0" transform="translate(2522.1 1715.3)" fill="#ebc429"/><rect width="29.7" height="105.56" rx="0" ry="0" transform="matrix(.63-.77 0.77 0.63 2517.008204 1554.643933)" fill="#ebc429"/><rect width="29.7" height="105.56" rx="0" ry="0" transform="translate(2385.1 1339.3)" fill="#ebc429"/><rect width="29.7" height="105.56" rx="0" ry="0" transform="translate(1933.9 1371.7)" fill="#ebc429"/><rect width="29.7" height="105.56" rx="0" ry="0" transform="translate(2109.2 1164)" fill="#ebc429"/><rect width="29.7" height="105.56" rx="0" ry="0" transform="translate(1826.7 949.6)" fill="#ebc429"/><rect width="106.1" height="29.87" rx="0" ry="0" transform="matrix(.726575-.687088 0.687088 0.726575 2295.675081 980.73201)" fill="#ebc429"/><rect width="29.7" height="105.56" rx="0" ry="0" transform="translate(2625.9 890)" fill="#ebc429"/><rect width="29.7" height="105.56" rx="0" ry="0" transform="translate(2801.2 907.9)" fill="#ebc429"/><rect width="29.7" height="105.56" rx="0" ry="0" transform="translate(2880.1 891.1)" fill="#ebc429"/><rect width="105.6" height="29.74" rx="0" ry="0" transform="matrix(.716911-.697165 0.697165 0.716911 3018.205777 967.441904)" fill="#ebc429"/><rect width="29.7" height="105.56" rx="0" ry="0" transform="translate(3258.1 812.5)" fill="#ebc429"/><rect width="29.7" height="105.56" rx="0" ry="0" transform="translate(3418.1 962.9)" fill="#ebc429"/><rect width="29.7" height="105.56" rx="0" ry="0" transform="translate(3761.7 634.3)" fill="#ebc429"/><rect width="105.4" height="29.69" rx="0" ry="0" transform="matrix(.740805-.671721 0.671721 0.740805 3919.136618 2137.218049)" fill="#ebc429"/><rect width="105.6" height="29.74" rx="0" ry="0" transform="translate(3944.5 2301.1)" fill="#ebc429"/><rect width="105.6" height="29.74" rx="0" ry="0" transform="translate(4077.4 3178.1)" fill="#ebc429"/><rect width="105.6" height="29.74" rx="0" ry="0" transform="translate(3840.1 3481.7)" fill="#ebc429"/><rect width="105.6" height="29.74" rx="0" ry="0" transform="translate(3759.5 3664.6)" fill="#ebc429"/><rect width="29.7" height="105.56" rx="0" ry="0" transform="translate(2905.8 4188.6)" fill="#ebc429"/><rect width="29.7" height="105.56" rx="0" ry="0" transform="translate(3183.8 4341.9)" fill="#ebc429"/><rect width="29.7" height="105.56" rx="0" ry="0" transform="matrix(.666532-.745476 0.745476 0.666532 3323.178313 4083.977074)" fill="#ebc429"/><rect width="29.7" height="105.56" rx="0" ry="0" transform="translate(2692.9 4890.1)" fill="#ebc429"/><rect width="29.7" height="105.56" rx="0" ry="0" transform="translate(2886.7 4660.6)" fill="#ebc429"/><rect width="29.7" height="105.56" rx="0" ry="0" transform="translate(2594.1 4282.6)" fill="#ebc429"/><rect width="105.6" height="29.74" rx="0" ry="0" transform="translate(601.6 3730.5)" fill="#ebc429"/><rect width="29.7" height="105.56" rx="0" ry="0" transform="translate(1934 4107.1)" fill="#ebc429"/><rect width="105.6" height="29.74" rx="0" ry="0" transform="translate(1354.7 3577.6)" fill="#ebc429"/><rect width="29.7" height="105.56" rx="0" ry="0" transform="translate(2070.3 4523.2)" fill="#ebc429"/><rect width="29.7" height="105.56" rx="0" ry="0" transform="translate(2331.2 4591.5)" fill="#ebc429"/><rect width="29.7" height="105.56" rx="0" ry="0" transform="matrix(.656059-.75471 0.75471 0.656059 2465.097491 4664.77149)" fill="#ebc429"/><rect width="105.6" height="29.74" rx="0" ry="0" transform="translate(1232.1 2793)" fill="#ebc429"/><rect width="105.6" height="29.74" rx="0" ry="0" transform="translate(777.6 2220.3)" fill="#ebc429"/><rect width="29.7" height="105.56" rx="0" ry="0" transform="matrix(.820152-.572146 0.572146 0.820152 587.04696 1983.895662)" fill="#ebc429"/><rect width="105.6" height="29.74" rx="0" ry="0" transform="translate(930.7 2282.2)" fill="#ebc429"/><rect width="105.6" height="29.74" rx="0" ry="0" transform="translate(1016 2654.9)" fill="#ebc429"/><rect width="105.6" height="29.74" rx="0" ry="0" transform="translate(484.3 2488.9)" fill="#ebc429"/><rect width="105.6" height="29.74" rx="0" ry="0" transform="translate(449.4 2624.5)" fill="#ebc429"/><rect width="105.6" height="29.74" rx="0" ry="0" transform="translate(372.3 2739)" fill="#ebc429"/><rect width="105.6" height="29.74" rx="0" ry="0" transform="translate(1146.1 3175)" fill="#ebc429"/><rect width="105.6" height="29.74" rx="0" ry="0" transform="translate(604.8 3306.2)" fill="#ebc429"/><rect width="105.6" height="29.74" rx="0" ry="0" transform="translate(942.7 3349.6)" fill="#ebc429"/><rect width="105.6" height="29.74" rx="0" ry="0" transform="translate(1016 2654.9)" fill="#ebc429"/><rect width="105.6" height="29.74" rx="0" ry="0" transform="matrix(.681998-.731354 0.731354 0.681998 2492.138275 4216.548611)" fill="#ebc429"/><rect width="105.6" height="29.74" rx="0" ry="0" transform="translate(3944.5 2301.1)" fill="#ebc429"/><rect width="105.6" height="29.74" rx="0" ry="0" transform="translate(4425.8 1860.8)" fill="#ebc429"/><rect width="105.6" height="29.74" rx="0" ry="0" transform="translate(4354.5 2121.5)" fill="#ebc429"/><rect width="105.6" height="29.74" rx="0" ry="0" transform="translate(4531.3 2349.2)" fill="#ebc429"/><rect width="105.6" height="29.74" rx="0" ry="0" transform="translate(4239.1 2702.1)" fill="#ebc429"/><rect width="105.6" height="29.74" rx="0" ry="0" transform="translate(4257.3 2958.5)" fill="#ebc429"/><rect width="105.6" height="29.74" rx="0" ry="0" transform="translate(4382.6 3178.1)" fill="#ebc429"/><rect width="105.6" height="29.74" rx="0" ry="0" transform="translate(4200.2 3341.4)" fill="#ebc429"/><rect width="105.6" height="29.74" rx="0" ry="0" transform="translate(4204.6 3481.9)" fill="#ebc429"/><rect width="105.6" height="29.74" rx="0" ry="0" transform="translate(4317.5 3547.9)" fill="#ebc429"/><rect width="105.6" height="29.74" rx="0" ry="0" transform="translate(3840.6 2529.7)" fill="#ebc429"/><rect width="29.7" height="105.56" rx="0" ry="0" transform="translate(2449.2 1566.8)" fill="#ebc429"/><rect width="29.7" height="105.56" rx="0" ry="0" transform="matrix(.611527-.791224 0.791224 0.611527 1939.893722 1718.822128)" fill="#ebc429"/><rect width="267.3" height="8.55" rx="0" ry="0" transform="matrix(.730162-.683274 0.683274 0.730162 4044.374026 2317.315719)" fill="#ebc429"/><rect width="8.5" height="354.4" rx="0" ry="0" transform="translate(3194.4 4700.1)" fill="#ebc429"/><rect width="1119" height="1118.99" rx="23.6" ry="23.6" transform="translate(2099.4 2279.1)" fill="#cea71d"/><rect width="1119" height="1118.99" rx="23.6" ry="23.6" transform="translate(2099.4 2279.1)" fill="#cea71d" fill-opacity="0"/><g id="ehl4ZArHcN5361_ts" transform="translate(2685.074998,2657.614333) scale(1.042104,1.042104)"><ellipse rx="2665.995" ry="2665.995" transform="translate(-7.905,-7.905)" fill="url(#ehl4ZArHcN5361-fill)" stroke-width="0"/></g><g style="isolation:isolate"><path d="M1699,4807.9h21.3v-21.3h21.3v-21.3h85.2v21.3h21.3v42.6h-21.3v-21.3h-21.3v-21.3h-42.6v21.3h-21.3v127.8h21.3v21.3h42.6v-21.3h21.3v-21.3h21.3v42.6h-21.3v21.3h-85.2v-21.3h-21.3v-21.3h-21.3Z" fill="#cea71d"/><path d="M1869.4,4850.5h21.3v-21.3h106.5v21.3h21.3v106.5h-21.3v21.3h-106.5v-21.3h-21.3Zm42.6,0v106.5h63.9v-106.5Z" fill="#cea71d"/><path d="M2039.8,4978.3v-149.1h63.9v21.3h21.3v-21.3h42.6v21.3h21.3v127.8h-42.6v-106.5h-21.3v85.2h-21.3v-85.2h-21.3v106.5Z" fill="#cea71d"/><path d="M2252.8,4978.3v-21.3h21.2v-106.5h-21.2v-21.3h63.8v127.8h21.3v21.3Zm21.2-170.4h42.6v-42.6h-42.6Z" fill="#cea71d"/><path d="M2401.8,4978.3v-127.8h-21.3v-21.3h42.6v21.3h21.3v-21.3h63.9v21.3h21.3v127.8h-42.6v-127.8h-42.6v127.8Z" fill="#cea71d"/><path d="M2550.9,4850.5h21.3v-21.3h63.9v21.3h21.3v-21.3h42.6v21.3h-21.3v170.4h-21.3v21.3h-85.2v-21.3h-21.3v-21.3h42.6v21.3h42.6v-42.6h-63.9v-21.3h-21.3Zm42.6,106.5h42.6v-106.5h-42.6Z" fill="#cea71d"/><path d="M2934.3,4914.4v42.6h63.9v-63.9h-21.3v-21.3h-42.6v-21.3h-21.3v-21.3h-21.3v-42.6h21.3v-21.3h106.5v21.3h21.3v42.6h-42.6v-42.6h-63.9v42.6h21.3v21.3h42.6v21.3h21.3v21.3h21.3v63.9h-21.3v21.3h-106.5v-21.3h-21.3v-42.6Z" fill="#cea71d"/><path d="M3062.1,4850.5h21.3v-21.3h106.5v21.3h21.3v106.5h-21.3v21.3h-106.5v-21.3h-21.3Zm42.6,0v106.5h63.9v-106.5Z" fill="#cea71d"/><path d="M3232.5,4850.5h21.3v-21.3h106.5v21.3h21.3v106.5h-21.3v21.3h-106.5v-21.3h-21.3Zm42.6,0v106.5h63.9v-106.5Z" fill="#cea71d"/><path d="M3424.1,4978.3v-127.8h-21.3v-21.3h42.6v21.3h21.3v-21.3h63.9v21.3h21.3v127.8h-42.6v-127.8h-42.6v127.8Z" fill="#cea71d"/></g><rect id="ehl4ZArHcN5373" width="228" height="74.55" rx="0" ry="0" transform="matrix(.526399 0 0 0.581276 3715.977275 4930.632623)" opacity="0" fill="#cea71d" stroke-width="0"/></svg>
