<svg width="19" height="21" viewBox="0 0 19 21" fill="none" xmlns="http://www.w3.org/2000/svg">
<path d="M12.6258 0H6.50039V2H12.6258V0ZM8.54218 13H10.584V7H8.54218V13ZM16.74 6.39L18.1897 4.97C17.7507 4.46 17.2709 3.98 16.7502 3.56L15.3005 4.98C13.6746 3.69833 11.6501 2.99969 9.56308 3C4.48922 3 0.375 7.03 0.375 12C0.375 16.97 4.47901 21 9.56308 21C11.2928 21.0009 12.9876 20.5232 14.4523 19.622C15.917 18.7207 17.092 17.4325 17.842 15.9057C18.592 14.379 18.8864 12.6758 18.6915 10.9923C18.4965 9.30874 17.8201 7.71341 16.74 6.39ZM9.56308 19C5.61221 19 2.4168 15.87 2.4168 12C2.4168 8.13 5.61221 5 9.56308 5C13.514 5 16.7094 8.13 16.7094 12C16.7094 15.87 13.514 19 9.56308 19Z" fill="white"/>
</svg>
