<svg width="38" height="27" viewBox="0 0 38 27" fill="none" xmlns="http://www.w3.org/2000/svg">
<path fill-rule="evenodd" clip-rule="evenodd" d="M1.69736 1.77516C2.65345 0.569332 2.39347 0.851044 3.52948 2.06264C5.38595 4.04249 7.24251 6.02242 9.09891 8.00236C10.1148 9.08582 9.84903 9.14536 10.978 7.97802C12.4302 6.47623 13.8775 4.64011 15.3303 3.13911C16.3799 2.05477 16.048 2.09806 17.0921 3.23811C21.6433 8.20738 26.1946 13.1767 30.7458 18.146C31.5585 19.0335 31.449 18.6147 32.3776 17.634C32.872 17.1119 33.3666 16.5896 33.861 16.0675C35.0779 14.7823 34.2174 14.8641 34.5315 16.8053C34.9714 19.5229 35.5916 22.157 36.4172 25.2858C36.6915 26.3251 36.9519 25.7203 35.1919 25.3668C31.45 24.6153 30.0347 24.2875 27.5192 24.0297C25.8511 23.7391 26.0059 24.6413 27.2006 23.2269C27.6553 22.6887 28.1099 22.1504 28.5646 21.6122C29.2689 20.7783 29.8833 20.5238 29.239 19.8144C25.335 15.5167 21.4311 10.8909 17.5269 6.59342C16.2166 5.15127 16.0748 5.53153 14.7295 6.98732C13.4414 8.38127 12.4364 9.77522 11.1483 11.1691C9.87271 12.5495 10.5261 12.7113 9.32401 11.3925C6.9391 8.77633 4.5834 6.45414 2.19886 3.83757C1.09607 2.62737 0.717145 3.01115 1.69736 1.77516Z" fill="#CEA71D" stroke="#CEA71D" stroke-miterlimit="2.61313"/>
</svg>
