<svg width="74" height="53" viewBox="0 0 74 53" fill="none" xmlns="http://www.w3.org/2000/svg">
<path d="M68.7143 0H5.28571C3.88386 0 2.53941 0.558391 1.54815 1.55233C0.556886 2.54628 0 3.89435 0 5.3V47.7C0 49.1056 0.556886 50.4537 1.54815 51.4477C2.53941 52.4416 3.88386 53 5.28571 53H68.7143C70.1161 53 71.4606 52.4416 72.4519 51.4477C73.4431 50.4537 74 49.1056 74 47.7V5.3C74 3.89435 73.4431 2.54628 72.4519 1.55233C71.4606 0.558391 70.1161 0 68.7143 0ZM62.9 5.3L37 23.267L11.1 5.3H62.9ZM5.28571 47.7V7.7115L35.4936 28.673C35.936 28.9807 36.4616 29.1456 37 29.1456C37.5384 29.1456 38.064 28.9807 38.5064 28.673L68.7143 7.7115V47.7H5.28571Z" fill="white"/>
</svg>
