<svg width="24" height="21" viewBox="0 0 24 21" fill="none" xmlns="http://www.w3.org/2000/svg">
<path fill-rule="evenodd" clip-rule="evenodd" d="M6.51494 10.1672C6.51494 8.51878 6.6791 7.43128 7.81991 6.21829C9.69468 4.22499 13.1872 4.22499 15.062 6.21829C17.9469 9.28558 15.732 14.6278 11.9177 14.6278H10.9642C8.80729 14.6278 6.51494 12.3296 6.51494 10.1672ZM0 9.3707C0 10.7148 3.1073 14.483 4.08931 15.4666C4.9086 16.2874 5.95759 17.0953 6.9902 17.6561C9.5492 19.0456 12.1654 19.435 14.939 18.2928C15.2855 18.1501 15.842 17.8478 16.143 17.9106L19.4538 19.817C19.9825 20.1306 21.2493 20.9566 21.7697 21C21.7357 19.4725 19.5786 15.4261 19.829 14.7494C19.8744 14.6266 23.1998 10.6347 23.1998 9.52998C23.1998 8.11391 18.9176 2.67428 15.8412 1.13588C14.5187 0.474641 13.4174 0.146587 11.7156 0.0131407C9.84801 -0.133222 7.40685 0.970104 5.97167 1.97574C4.50954 3.00019 3.06796 4.57417 2.01889 5.97817C1.67588 6.43719 0 8.91339 0 9.3707Z" fill="white"/>
<path fill-rule="evenodd" clip-rule="evenodd" d="M11.2812 12.0786C15.1 12.0786 14.4164 7.14014 11.4402 7.14014C8.31305 7.14014 8.06749 12.0786 11.2812 12.0786Z" fill="white"/>
</svg>
