<?xml version="1.0" encoding="UTF-8" standalone="no"?>
<!-- Creator: CorelDRAW 2020 (64-Bit) -->

<svg
   xml:space="preserve"
   width="8.26772in"
   height="8.26772in"
   version="1.1"
   style="shape-rendering:geometricPrecision; text-rendering:geometricPrecision; image-rendering:optimizeQuality; fill-rule:evenodd; clip-rule:evenodd"
   viewBox="0 0 8267.72 8267.72"
   id="svg12"
   sodipodi:docname="fav4.svg"
   inkscape:version="1.2.1 (9c6d41e410, 2022-07-14)"
   xmlns:inkscape="http://www.inkscape.org/namespaces/inkscape"
   xmlns:sodipodi="http://sodipodi.sourceforge.net/DTD/sodipodi-0.dtd"
   xmlns="http://www.w3.org/2000/svg"
   xmlns:svg="http://www.w3.org/2000/svg"><sodipodi:namedview
   id="namedview14"
   pagecolor="#505050"
   bordercolor="#eeeeee"
   borderopacity="1"
   inkscape:showpageshadow="0"
   inkscape:pageopacity="0"
   inkscape:pagecheckerboard="0"
   inkscape:deskcolor="#505050"
   inkscape:document-units="in"
   showgrid="false"
   inkscape:zoom="0.29734114"
   inkscape:cx="396.85057"
   inkscape:cy="396.85057"
   inkscape:window-width="1366"
   inkscape:window-height="699"
   inkscape:window-x="0"
   inkscape:window-y="0"
   inkscape:window-maximized="1"
   inkscape:current-layer="Layer_x0020_1" />
 <defs
   id="defs4">
  <style
   type="text/css"
   id="style2">
   <![CDATA[
    .fil0 {fill:#444753}
    .fil1 {fill:#CEA71D}
   ]]>
  </style>
 </defs>
 <g
   id="Layer_x0020_1"
   inkscape:label="Layer 1">
  <metadata
   id="CorelCorpID_0Corel-Layer" />
  
  <path
   class="fil1"
   d="M 4318.641,1680.876 1875.5294,8048.2599 c -35.2469,91.9174 -66.8346,79.4202 -283.3884,83.415 l -1329.85049,4.4367 c -101.00309,0.3182 -100.80865,-35.83 -50.5369,-147.5274 C 1324.237,5517.367 2318.0586,2907.231 3356.3719,390.49702 c 73.1979,-177.38291 125.9091,-261.48734 369.8438,-261.85854 512.1213,-0.8308 1160.2452,-3.3055 1643.165,0.22979 37.0144,0.26515 48.8577,2.01511 64.0594,4.89637 47.1076,2.58075 73.0743,28.88327 92.2178,74.0819 l 165.257,390.64895 2331.6795,5528.07201 c 108.2679,256.6616 56.7589,445.4104 -35.6888,699.5444 -152.1234,418.1712 -464.4481,938.6181 -665.2523,1107.7814 -166.176,139.9797 -379.1415,211.6753 -665.0224,212.1349 -1274.1344,2.1034 -2319.5357,-8.962 -3593.6347,-6.9115 -174.3425,0.2652 -381.3157,18.5603 -325.5997,-140.4393 L 3177.7339,6742.414 c 40.6204,-115.8866 81.9479,-135.1893 218.3039,-135.4014 1040.4696,-1.6085 1852.2418,10.0933 2892.7468,8.361 14.141,0.088 141.7295,23.2268 134.6942,-118.7679 -7.9896,-161.0854 -62.0619,-303.8755 -95.9299,-381.7047 C 5683.9327,4637.3641 5040.3163,3159.8094 4396.7001,1682.2725 c -46.9839,-111.061 -34.8756,-114.013 -78.0591,-1.4142 z"
   id="path9"
   style="stroke-width:1.76763" />
 </g>
</svg>
