<svg width="299" height="207" viewBox="0 0 299 207" fill="none" xmlns="http://www.w3.org/2000/svg" xmlns:xlink="http://www.w3.org/1999/xlink">
<style>.glow_389 {
	animation: 4s linear 0s infinite normal forwards running glow_389; 
		opacity: 0;
}
@keyframes glow_389 {
	0% {
		opacity: 0;
	}
	35% {
		opacity: 1;
	}
	100% {
		opacity: 0;
	}
}
</style>
<g clip-path="url(#clip_0_973)" width="299" height="207" data-name="iPhone 13 Pro Max - 1">
	
	<g transform="translate(2 14)" width="296" height="189.5" data-name="Group 1">
		<path d="M0 28V19C0 18.1716 0.671573 17.5 1.5 17.5H28C28.8284 17.5 29.5 16.8284 29.5 16V1.5C29.5 0.671573 30.1716 0 31 0H265C265.828 0 266.5 0.671573 266.5 1.5V16C266.5 16.8284 267.172 17.5 268 17.5H294.5C295.328 17.5 296 18.1716 296 19V28C296 28.8284 295.328 29.5 294.5 29.5H268C267.172 29.5 266.5 30.1716 266.5 31V46C266.5 46.8284 265.828 47.5 265 47.5H31C30.1716 47.5 29.5 46.8284 29.5 46V31C29.5 30.1716 28.8284 29.5 28 29.5H1.5C0.671573 29.5 0 28.8284 0 28Z" fill="#CEA71D" data-name="Vector 1"/>
		<g filter="url(#filter0_d_1_52)" data-name="glow" class="glow_389">
		<path d="M0 28V19C0 18.1716 0.671573 17.5 1.5 17.5H28C28.8284 17.5 29.5 16.8284 29.5 16V1.5C29.5 0.671573 30.1716 0 31 0H265C265.828 0 266.5 0.671573 266.5 1.5V16C266.5 16.8284 267.172 17.5 268 17.5H294.5C295.328 17.5 296 18.1716 296 19V28C296 28.8284 295.328 29.5 294.5 29.5H268C267.172 29.5 266.5 30.1716 266.5 31V46C266.5 46.8284 265.828 47.5 265 47.5H31C30.1716 47.5 29.5 46.8284 29.5 46V31C29.5 30.1716 28.8284 29.5 28 29.5H1.5C0.671573 29.5 0 28.8284 0 28Z" fill="#FAFF00" data-name="glow" class="glow_389"/>
		<path d="M0 28V19C0 18.1716 0.671573 17.5 1.5 17.5H28C28.8284 17.5 29.5 16.8284 29.5 16V1.5C29.5 0.671573 30.1716 0 31 0H265C265.828 0 266.5 0.671573 266.5 1.5V16C266.5 16.8284 267.172 17.5 268 17.5H294.5C295.328 17.5 296 18.1716 296 19V28C296 28.8284 295.328 29.5 294.5 29.5H268C267.172 29.5 266.5 30.1716 266.5 31V46C266.5 46.8284 265.828 47.5 265 47.5H31C30.1716 47.5 29.5 46.8284 29.5 46V31C29.5 30.1716 28.8284 29.5 28 29.5H1.5C0.671573 29.5 0 28.8284 0 28Z" stroke="#FAFF00" data-name="glow" class="glow_389"/>
		</g>
		<path d="M0 28V19C0 18.1716 0.671573 17.5 1.5 17.5H28C28.8284 17.5 29.5 16.8284 29.5 16V1.5C29.5 0.671573 30.1716 0 31 0H265C265.828 0 266.5 0.671573 266.5 1.5V16C266.5 16.8284 267.172 17.5 268 17.5H294.5C295.328 17.5 296 18.1716 296 19V28C296 28.8284 295.328 29.5 294.5 29.5H268C267.172 29.5 266.5 30.1716 266.5 31V46C266.5 46.8284 265.828 47.5 265 47.5H31C30.1716 47.5 29.5 46.8284 29.5 46V31C29.5 30.1716 28.8284 29.5 28 29.5H1.5C0.671573 29.5 0 28.8284 0 28Z" fill="white" data-name="Vector 2" transform="translate(0 71)"/>
		<path d="M0 28V19C0 18.1716 0.671573 17.5 1.5 17.5H28C28.8284 17.5 29.5 16.8284 29.5 16V1.5C29.5 0.671573 30.1716 0 31 0H265C265.828 0 266.5 0.671573 266.5 1.5V16C266.5 16.8284 267.172 17.5 268 17.5H294.5C295.328 17.5 296 18.1716 296 19V28C296 28.8284 295.328 29.5 294.5 29.5H268C267.172 29.5 266.5 30.1716 266.5 31V46C266.5 46.8284 265.828 47.5 265 47.5H31C30.1716 47.5 29.5 46.8284 29.5 46V31C29.5 30.1716 28.8284 29.5 28 29.5H1.5C0.671573 29.5 0 28.8284 0 28Z" fill="white" data-name="Vector 3" transform="translate(0 142)"/>
	</g>
</g>
<defs><clipPath id="clip_0_973"><rect width="299" height="207"/></clipPath>
<filter id="filter0_d_1_52" x="0" y="0" width="310" height="61.5" filterUnits="userSpaceOnUse" color-interpolation-filters="sRGB">
<feFlood flood-opacity="0" result="BackgroundImageFix"/>
<feColorMatrix in="SourceAlpha" type="matrix" values="0 0 0 0 0 0 0 0 0 0 0 0 0 0 0 0 0 0 127 0" result="hardAlpha"/>
<feOffset/>
<feGaussianBlur stdDeviation="3.5"/>
<feComposite in2="hardAlpha" operator="out"/>
<feColorMatrix type="matrix" values="0 0 0 0 1 0 0 0 0 0.9 0 0 0 0 0 0 0 0 1 0"/>
<feBlend mode="normal" in2="BackgroundImageFix" result="effect1_dropShadow_1_52"/>
<feBlend mode="normal" in="SourceGraphic" in2="effect1_dropShadow_1_52" result="shape"/>
</filter>

</defs>
</svg>