<svg id="eyE89cHrwkF1" xmlns="http://www.w3.org/2000/svg" xmlns:xlink="http://www.w3.org/1999/xlink" viewBox="-15 -25 330 230" shape-rendering="geometricPrecision" text-rendering="geometricPrecision">
<style><![CDATA[
#eyE89cHrwkF2 {animation: eyE89cHrwkF2_c_o 3000ms linear infinite normal forwards}@keyframes eyE89cHrwkF2_c_o { 0% {opacity: 0} 33.333333% {opacity: 1} 66.666667% {opacity: 0} 100% {opacity: 0}} #eyE89cHrwkF7 {animation: eyE89cHrwkF7_c_o 3000ms linear infinite normal forwards}@keyframes eyE89cHrwkF7_c_o { 0% {opacity: 1} 33.333333% {opacity: 0} 66.666667% {opacity: 1} 100% {opacity: 1}}
]]></style>
<defs><radialGradient id="eyE89cHrwkF2-fill" cx="0" cy="0" r="0.606625" spreadMethod="pad" gradientUnits="objectBoundingBox" gradientTransform="matrix(1 0 0 0.824233 0.5 0.5)"><stop id="eyE89cHrwkF2-fill-0" offset="0%" stop-color="#ffd300"/><stop id="eyE89cHrwkF2-fill-1" offset="92%" stop-color="rgba(47,49,57,0)"/></radialGradient></defs><rect id="eyE89cHrwkF2" width="95.422239" height="62.649294" rx="0" ry="0" transform="matrix(-3.709827 0 0 2.003215 327-25.000003)" opacity="0" fill="url(#eyE89cHrwkF2-fill)" stroke-width="0"/><g clip-path="url(#eyE89cHrwkF13)"><g><g transform="translate(2 14)"><path d="M0,28v-9c0-.8284.671573-1.5,1.5-1.5h26.5c.8284,0,1.5-.6716,1.5-1.5v-14.5c0-.828427.6716-1.5,1.5-1.5h234c.828,0,1.5.671573,1.5,1.5v14.5c0,.8284.672,1.5,1.5,1.5h26.5c.828,0,1.5.6716,1.5,1.5v9c0,.8284-.672,1.5-1.5,1.5h-26.5c-.828,0-1.5.6716-1.5,1.5v15c0,.8284-.672,1.5-1.5,1.5h-234c-.8284,0-1.5-.6716-1.5-1.5v-15c0-.8284-.6716-1.5-1.5-1.5h-26.5C0.671573,29.5,0,28.8284,0,28Z" fill="#ff0"/><path id="eyE89cHrwkF7" d="M0,28v-9c0-.8284.671573-1.5,1.5-1.5h26.5c.8284,0,1.5-.6716,1.5-1.5v-14.5c0-.828427.6716-1.5,1.5-1.5h234c.828,0,1.5.671573,1.5,1.5v14.5c0,.8284.672,1.5,1.5,1.5h26.5c.828,0,1.5.6716,1.5,1.5v9c0,.8284-.672,1.5-1.5,1.5h-26.5c-.828,0-1.5.6716-1.5,1.5v15c0,.8284-.672,1.5-1.5,1.5h-234c-.8284,0-1.5-.6716-1.5-1.5v-15c0-.8284-.6716-1.5-1.5-1.5h-26.5C0.671573,29.5,0,28.8284,0,28Z" fill="#cea71d"/><g opacity="0"><path d="M0,28v-9c0-.8284.671573-1.5,1.5-1.5h26.5c.8284,0,1.5-.6716,1.5-1.5v-14.5c0-.828427.6716-1.5,1.5-1.5h234c.828,0,1.5.671573,1.5,1.5v14.5c0,.8284.672,1.5,1.5,1.5h26.5c.828,0,1.5.6716,1.5,1.5v9c0,.8284-.672,1.5-1.5,1.5h-26.5c-.828,0-1.5.6716-1.5,1.5v15c0,.8284-.672,1.5-1.5,1.5h-234c-.8284,0-1.5-.6716-1.5-1.5v-15c0-.8284-.6716-1.5-1.5-1.5h-26.5C0.671573,29.5,0,28.8284,0,28Z" opacity="0" fill="#faff00"/><path d="M0,28v-9c0-.8284.671573-1.5,1.5-1.5h26.5c.8284,0,1.5-.6716,1.5-1.5v-14.5c0-.828427.6716-1.5,1.5-1.5h234c.828,0,1.5.671573,1.5,1.5v14.5c0,.8284.672,1.5,1.5,1.5h26.5c.828,0,1.5.6716,1.5,1.5v9c0,.8284-.672,1.5-1.5,1.5h-26.5c-.828,0-1.5.6716-1.5,1.5v15c0,.8284-.672,1.5-1.5,1.5h-234c-.8284,0-1.5-.6716-1.5-1.5v-15c0-.8284-.6716-1.5-1.5-1.5h-26.5C0.671573,29.5,0,28.8284,0,28Z" opacity="0" fill="none" stroke="#faff00"/></g><path d="M0,28v-9c0-.8284.671573-1.5,1.5-1.5h26.5c.8284,0,1.5-.6716,1.5-1.5v-14.5c0-.828427.6716-1.5,1.5-1.5h234c.828,0,1.5.671573,1.5,1.5v14.5c0,.8284.672,1.5,1.5,1.5h26.5c.828,0,1.5.6716,1.5,1.5v9c0,.8284-.672,1.5-1.5,1.5h-26.5c-.828,0-1.5.6716-1.5,1.5v15c0,.8284-.672,1.5-1.5,1.5h-234c-.8284,0-1.5-.6716-1.5-1.5v-15c0-.8284-.6716-1.5-1.5-1.5h-26.5C0.671573,29.5,0,28.8284,0,28Z" transform="translate(0 71)" fill="#fff"/><path d="M0,28v-9c0-.8284.671573-1.5,1.5-1.5h26.5c.8284,0,1.5-.6716,1.5-1.5v-14.5c0-.828427.6716-1.5,1.5-1.5h234c.828,0,1.5.671573,1.5,1.5v14.5c0,.8284.672,1.5,1.5,1.5h26.5c.828,0,1.5.6716,1.5,1.5v9c0,.8284-.672,1.5-1.5,1.5h-26.5c-.828,0-1.5.6716-1.5,1.5v15c0,.8284-.672,1.5-1.5,1.5h-234c-.8284,0-1.5-.6716-1.5-1.5v-15c0-.8284-.6716-1.5-1.5-1.5h-26.5C0.671573,29.5,0,28.8284,0,28Z" transform="translate(0 142)" fill="#fff"/></g></g><clipPath id="eyE89cHrwkF13"><rect width="299" height="207" rx="0" ry="0" fill="none"/></clipPath></g></svg>
