<svg width="76" height="76" viewBox="0 0 76 76" fill="none" xmlns="http://www.w3.org/2000/svg">
<path fill-rule="evenodd" clip-rule="evenodd" d="M22.5242 0.517342C26.5466 0.332166 27.8292 0.291016 38.0756 0.291016C48.322 0.291016 49.6045 0.335595 53.6235 0.517342C57.6425 0.699089 60.3859 1.34035 62.7863 2.26966C65.2999 3.21954 67.5803 4.70438 69.4664 6.62473C71.3867 8.50735 72.8681 10.7843 73.8146 13.3014C74.7473 15.7018 75.3851 18.4451 75.5703 22.4573C75.7555 26.4866 75.7966 27.7691 75.7966 38.0121C75.7966 48.2585 75.7521 49.541 75.5703 53.5635C75.3886 57.5756 74.7473 60.319 73.8146 62.7194C72.8681 65.2367 71.3842 67.5175 69.4664 69.4029C67.5803 71.3232 65.2999 72.8046 62.7863 73.7511C60.3859 74.6838 57.6425 75.3217 53.6304 75.5068C49.6045 75.692 48.322 75.7332 38.0756 75.7332C27.8292 75.7332 26.5466 75.6886 22.5242 75.5068C18.512 75.3251 15.7687 74.6838 13.3683 73.7511C10.851 72.8045 8.57021 71.3207 6.68477 69.4029C4.76573 67.5191 3.28067 65.2395 2.33313 62.7228C1.40382 60.3224 0.765995 57.579 0.580819 53.5669C0.395642 49.5376 0.354492 48.2551 0.354492 38.0121C0.354492 27.7657 0.399072 26.4832 0.580819 22.4642C0.762566 18.4451 1.40382 15.7018 2.33313 13.3014C3.28207 10.7846 4.76827 8.505 6.6882 6.6213C8.57097 4.70267 10.8494 3.21763 13.3648 2.26966C15.7653 1.34035 18.5086 0.702518 22.5208 0.517342H22.5242ZM53.3183 7.30714C49.3405 7.12539 48.1471 7.08767 38.0756 7.08767C28.004 7.08767 26.8107 7.12539 22.8328 7.30714C19.1533 7.47517 17.1575 8.08899 15.827 8.6068C14.0678 9.29264 12.8093 10.1054 11.4891 11.4256C10.2376 12.6431 9.27443 14.1253 8.67027 15.7635C8.15247 17.094 7.53864 19.0898 7.37061 22.7693C7.18887 26.7472 7.15114 27.9406 7.15114 38.0121C7.15114 48.0836 7.18887 49.277 7.37061 53.2548C7.53864 56.9344 8.15247 58.9301 8.67027 60.2607C9.27381 61.8964 10.2374 63.3812 11.4891 64.5986C12.7064 65.8502 14.1913 66.8139 15.827 67.4174C17.1575 67.9352 19.1533 68.549 22.8328 68.717C26.8107 68.8988 28.0006 68.9365 38.0756 68.9365C48.1505 68.9365 49.3405 68.8988 53.3183 68.717C56.9978 68.549 58.9936 67.9352 60.3241 67.4174C62.0833 66.7315 63.3418 65.9188 64.6621 64.5986C65.9137 63.3812 66.8773 61.8964 67.4809 60.2607C67.9987 58.9301 68.6125 56.9344 68.7805 53.2548C68.9623 49.277 69 48.0836 69 38.0121C69 27.9406 68.9623 26.7472 68.7805 22.7693C68.6125 19.0898 67.9987 17.094 67.4809 15.7635C66.795 14.0043 65.9823 12.7458 64.6621 11.4256C63.4445 10.1742 61.9623 9.21106 60.3241 8.6068C58.9936 8.08899 56.9978 7.47517 53.3183 7.30714V7.30714ZM33.2576 49.6405C35.9483 50.7605 38.9445 50.9117 41.7343 50.0682C44.5241 49.2246 46.9345 47.4386 48.5538 45.0153C50.1732 42.592 50.9009 39.6817 50.6128 36.7814C50.3248 33.8811 49.0387 31.1708 46.9743 29.1133C45.6583 27.7982 44.0671 26.7911 42.3152 26.1647C40.5633 25.5384 38.6943 25.3082 36.8428 25.4908C34.9912 25.6734 33.2032 26.2643 31.6074 27.2209C30.0117 28.1775 28.6479 29.476 27.6142 31.0229C26.5805 32.5698 25.9026 34.3267 25.6294 36.1671C25.3562 38.0074 25.4944 39.8854 26.0341 41.6659C26.5738 43.4465 27.5016 45.0852 28.7506 46.4641C29.9997 47.843 31.5389 48.9278 33.2576 49.6405ZM24.3657 24.3022C26.1661 22.5018 28.3035 21.0736 30.6558 20.0992C33.0082 19.1249 35.5294 18.6234 38.0756 18.6234C40.6217 18.6234 43.143 19.1249 45.4953 20.0992C47.8477 21.0736 49.9851 22.5018 51.7855 24.3022C53.5859 26.1026 55.014 28.24 55.9884 30.5923C56.9628 32.9447 57.4643 35.4659 57.4643 38.0121C57.4643 40.5583 56.9628 43.0795 55.9884 45.4318C55.014 47.7842 53.5859 49.9216 51.7855 51.722C48.1494 55.3581 43.2178 57.4008 38.0756 57.4008C32.9334 57.4008 28.0018 55.3581 24.3657 51.722C20.7296 48.0859 18.6868 43.1543 18.6868 38.0121C18.6868 32.8699 20.7296 27.9383 24.3657 24.3022V24.3022ZM61.7644 21.5108C62.2106 21.09 62.5677 20.5839 62.8148 20.0225C63.0618 19.4611 63.1937 18.8559 63.2027 18.2426C63.2116 17.6293 63.0974 17.0205 62.8668 16.4521C62.6363 15.8838 62.294 15.3675 61.8603 14.9338C61.4266 14.5001 60.9103 14.1578 60.3419 13.9272C59.7736 13.6967 59.1648 13.5825 58.5515 13.5914C57.9382 13.6003 57.333 13.7322 56.7716 13.9793C56.2102 14.2263 55.7041 14.5835 55.2832 15.0297C54.4647 15.8974 54.0166 17.0499 54.034 18.2426C54.0514 19.4353 54.5329 20.5743 55.3764 21.4177C56.2198 22.2612 57.3588 22.7427 58.5515 22.7601C59.7442 22.7775 60.8967 22.3293 61.7644 21.5108V21.5108Z" fill="#CEA71D"/>
</svg>
