<svg id="egZPTNFp0qu1" xmlns="http://www.w3.org/2000/svg" viewBox="34 25.7 234 145" shape-rendering="geometricPrecision" text-rendering="geometricPrecision"><style>@keyframes egZPTNFp0qu15_c_o{0%,10%,42%,50%,92%,to{opacity:1}12%,40%,52%,90%{opacity:0}}@keyframes egZPTNFp0qu17_c_o{0%,10%,32%,40%,92%,to{opacity:1}12%,30%,42%,90%{opacity:0}}@keyframes egZPTNFp0qu19_c_o{0%,10%,22%,30%,42%,50%,62%,70%,82%,to{opacity:1}12%,20%,32%,40%,52%,60%,72%,80%{opacity:0}}@keyframes egZPTNFp0qu21_c_o{0%,10%,22%,30%,52%,60%,72%,80%,92%,to{opacity:1}12%,20%,32%,50%,62%,70%,82%,90%{opacity:0}}@keyframes egZPTNFp0qu23_c_o{0%,12%,30%,42%,60%,72%,80%,92%,to{opacity:1}10%,2%,32%,40%,62%,70%,82%,90%{opacity:0}}@keyframes egZPTNFp0qu25_c_o{0%,10%,32%,40%,52%,80%,92%,to{opacity:1}12%,30%,42%,50%,82%,90%{opacity:0}}@keyframes egZPTNFp0qu27_c_o{0%,42%,50%,62%,70%,92%,to{opacity:1}2%,40%,52%,60%,72%,90%{opacity:0}}@keyframes egZPTNFp0qu29_c_o{0%,10%,22%,30%,42%,70%,92%,to{opacity:1}12%,20%,32%,40%,72%,90%{opacity:0}}@keyframes egZPTNFp0qu31_c_o{0%,12%,50%,72%,to{opacity:1}10%,2%,52%,70%{opacity:0}}@keyframes egZPTNFp0qu33_c_o{0%,20%,32%,50%,62%,80%,92%,to{opacity:1}22%,30%,52%,60%,82%,90%{opacity:0}}@keyframes egZPTNFp0qu35_c_o{0%,12%,20%,62%,70%,82%,to{opacity:1}10%,2%,22%,60%,72%,80%{opacity:0}}@keyframes egZPTNFp0qu37_c_o{0%,40%,52%,70%,82%,to{opacity:1}42%,50%,72%,80%{opacity:0}}@keyframes egZPTNFp0qu39_c_o{0%,20%,32%,40%,52%,70%,82%,to{opacity:1}22%,30%,42%,50%,72%,80%{opacity:0}}@keyframes egZPTNFp0qu41_c_o{0%,32%,60%,72%,to{opacity:1}2%,30%,62%,70%{opacity:0}}@keyframes egZPTNFp0qu43_c_o{0%,30%,42%,50%,62%,to{opacity:1}32%,40%,52%,60%{opacity:0}}</style><rect width="59.41" height="5.12" rx="0" ry="0" transform="translate(180.79 26.03)" fill="#fff" stroke-width="0"/><rect width="13.03" height="113.14" rx="0" ry="0" transform="matrix(1 0 0 1.00552 169.93 26.03)" fill="#fff" stroke-width="0"/><rect width="14.56" height="56.38" rx="0" ry="0" transform="translate(225.64 80.82)" fill="#fff" stroke-width="0"/><rect width="32.16" height="4.67" rx="0" ry="0" transform="translate(208.04 78)" fill="#fff" stroke-width="0"/><rect width="13.36" height="58.99" rx="0" ry="0" transform="translate(197.61 78)" fill="#fff" stroke-width="0"/><rect width="148.21" height="5.5" rx="0" ry="0" transform="translate(91.96 136.81)" fill="#fff" stroke-width="0"/><rect width="13.51" height="115.79" rx="0" ry="0" transform="translate(253.36 26.51)" fill="#fff" stroke-width="0"/><rect width="14" height="59.76" rx="0" ry="0" transform="translate(141.8 78.39)" fill="#fff" stroke-width="0"/><rect width="14" height="59.76" rx="0" ry="0" transform="translate(114.09 78.15)" fill="#fff" stroke-width="0"/><rect width="14.34" height="91.68" rx="0" ry="0" transform="translate(86.9 78.39)" fill="#fff" stroke-width="0"/><rect width="54.05" height="5.5" rx="0" ry="0" transform="translate(35.42 164.57)" fill="#fff" stroke-width="0"/><rect width="9.32" height="8.78" rx="0" ry="0" transform="translate(41.63 85.66)" fill="#fff" stroke-width="0"/><rect width="9.32" height="8.78" rx="0" ry="0" transform="translate(41.63 85.66)" fill="#cea71d" stroke-width="0" style="animation:egZPTNFp0qu15_c_o 10000ms linear infinite normal forwards"/><rect width="9.32" height="8.78" rx="0" ry="0" transform="translate(57.79 85.66)" fill="#fff" stroke-width="0"/><rect width="9.32" height="8.78" rx="0" ry="0" transform="translate(57.79 85.66)" fill="#cea71d" stroke-width="0" style="animation:egZPTNFp0qu17_c_o 10000ms linear infinite normal forwards"/><rect width="9.32" height="8.78" rx="0" ry="0" transform="translate(73.43 85.66)" fill="#cea71d" stroke-width="0"/><rect width="9.32" height="8.78" rx="0" ry="0" transform="translate(73.43 85.66)" fill="#fff" stroke-width="0" style="animation:egZPTNFp0qu19_c_o 10000ms linear infinite normal forwards"/><rect width="9.32" height="8.78" rx="0" ry="0" transform="translate(41.63 101.62)" fill="#fff" stroke-width="0"/><rect width="9.32" height="8.78" rx="0" ry="0" transform="translate(41.63 101.62)" fill="#cea71d" stroke-width="0" style="animation:egZPTNFp0qu21_c_o 10000ms linear infinite normal forwards"/><rect width="9.32" height="8.78" rx="0" ry="0" transform="translate(57.79 101.62)" fill="#cea71d" stroke-width="0"/><rect width="9.32" height="8.78" rx="0" ry="0" transform="translate(57.79 101.62)" fill="#fff" stroke-width="0" style="animation:egZPTNFp0qu23_c_o 10000ms linear infinite normal forwards"/><rect width="9.32" height="8.78" rx="0" ry="0" transform="translate(73.43 101.62)" fill="#cea71d" stroke-width="0"/><rect width="9.32" height="8.78" rx="0" ry="0" transform="translate(73.43 101.62)" fill="#fff" stroke-width="0" style="animation:egZPTNFp0qu25_c_o 10000ms linear infinite normal forwards"/><rect width="9.32" height="8.78" rx="0" ry="0" transform="translate(41.63 117.79)" fill="#fff" stroke-width="0"/><rect width="9.32" height="8.78" rx="0" ry="0" transform="translate(41.63 117.79)" fill="#cea71d" stroke-width="0" style="animation:egZPTNFp0qu27_c_o 10000ms linear infinite normal forwards"/><rect width="9.32" height="8.78" rx="0" ry="0" transform="translate(57.785 117.79)" fill="#cea71d" stroke-width="0"/><rect width="9.32" height="8.78" rx="0" ry="0" transform="translate(57.785 117.79)" fill="#fff" stroke-width="0" style="animation:egZPTNFp0qu29_c_o 10000ms linear infinite normal forwards"/><rect width="9.32" height="8.78" rx="0" ry="0" transform="translate(73.43 117.79)" fill="#cea71d" stroke-width="0"/><rect width="9.32" height="8.78" rx="0" ry="0" transform="translate(73.43 117.79)" fill="#fff" stroke-width="0" style="animation:egZPTNFp0qu31_c_o 10000ms linear infinite normal forwards"/><rect width="9.32" height="8.78" rx="0" ry="0" transform="translate(41.63 133.52)" fill="#cea71d" stroke-width="0"/><rect width="9.32" height="8.78" rx="0" ry="0" transform="translate(41.63 133.52)" fill="#fff" stroke-width="0" style="animation:egZPTNFp0qu33_c_o 10000ms linear infinite normal forwards"/><rect width="9.32" height="8.78" rx="0" ry="0" transform="translate(57.785 133.52)" fill="#fff" stroke-width="0"/><rect width="9.32" height="8.78" rx="0" ry="0" transform="translate(57.785 133.52)" fill="#cea71d" stroke-width="0" style="animation:egZPTNFp0qu35_c_o 10000ms linear infinite normal forwards"/><rect width="9.32" height="8.78" rx="0" ry="0" transform="translate(73.43 133.52)" fill="#cea71d" stroke-width="0"/><rect width="9.32" height="8.78" rx="0" ry="0" transform="translate(73.43 133.52)" fill="#fff" stroke-width="0" style="animation:egZPTNFp0qu37_c_o 10000ms linear infinite normal forwards"/><rect width="9.32" height="8.78" rx="0" ry="0" transform="translate(41.63 149.52)" fill="#cea71d" stroke-width="0"/><rect width="9.32" height="8.78" rx="0" ry="0" transform="translate(41.63 149.52)" fill="#fff" stroke-width="0" style="animation:egZPTNFp0qu39_c_o 10000ms linear infinite normal forwards"/><rect width="9.32" height="8.78" rx="0" ry="0" transform="translate(57.785 149.52)" fill="#cea71d" stroke-width="0"/><rect width="9.32" height="8.78" rx="0" ry="0" transform="translate(57.785 149.52)" fill="#fff" stroke-width="0" style="animation:egZPTNFp0qu41_c_o 10000ms linear infinite normal forwards"/><rect width="9.32" height="8.78" rx="0" ry="0" transform="translate(73.43 149.52)" fill="#cea71d" stroke-width="0"/><rect width="9.32" height="8.78" rx="0" ry="0" transform="translate(73.43 149.52)" fill="#fff" stroke-width="0" style="animation:egZPTNFp0qu43_c_o 10000ms linear infinite normal forwards"/></svg>