<svg id="e0nNogiaAzw1" xmlns="http://www.w3.org/2000/svg" xmlns:xlink="http://www.w3.org/1999/xlink" viewBox="0 0 1800 1200" shape-rendering="geometricPrecision" text-rendering="geometricPrecision" style="background-color:#32353e"><defs><radialGradient id="e0nNogiaAzw19-fill" cx="0" cy="0" r="1.156884" spreadMethod="pad" gradientUnits="objectBoundingBox" gradientTransform="matrix(1 0 0 0.850815 0.5 0.5)"><stop id="e0nNogiaAzw19-fill-0" offset="0%" stop-color="rgba(255,229,0,0.34)"/><stop id="e0nNogiaAzw19-fill-1" offset="27%" stop-color="rgba(135,126,36,0.08)"/><stop id="e0nNogiaAzw19-fill-2" offset="46%" stop-color="rgba(50,53,62,0)"/></radialGradient></defs><g transform="translate(739.03425 499.15)"><g id="e0nNogiaAzw3" transform="translate(-238 0)" opacity="0"><path d="M615.4,256.1c-10.3,25.7-20.4,51.4-30.6,77-.4,1-1.2.8-1.2.8h-13.7c-1.2,0-1.6-.7-1.1-1.8c10.2-25.4,20.4-50.6,30.9-75.9.1-.6.4-1.1,1.5-1h13.3c.3.1.9.1.9.9Z" transform="translate(-225.1-248.1)" fill="#fff" fill-rule="evenodd"/><path d="M569.4,256.2c10.3,25.7,21.5,51.3,31.8,77c.048025.267885.20316.504624.429607.655589s.504643.203113.770393.144411h13c1.2,0,1.6-.7,1.2-1.9-10.3-25.3-21.3-50.5-31.8-75.8-.1-.6-.4-1.1-1.5-1.1h-13c-.3.1-.9.1-.9.9Z" transform="translate(-225.1-248.1)" fill="#fff" fill-rule="evenodd"/><path d="M526,270.5l-24.5,61.8c-.2.5-.5,1.5-1,1.6h-14.1c-1,0-.9-1.1-.5-2.2l30.1-74c.7-1.7,1.2-2.6,3.6-2.6h16.8c.5,0,.7.3.9.7l1.6,3.8l23,54.4c1,2.5.5,4.4-.4,6.9-1.5,4.1-4.6,9.2-6.5,10.9-1.875393,1.471829-4.218913,2.217494-6.6,2.1h-31.9c-1.7,0-3.8.2-3.2-1.4l4.9-12.3c.4-1.2.8-1.4,2.1-1.4h24.5c.2,0,1.4.2,1.3-1.2-.071986-1.277878-.377-2.531828-.9-3.7-6.3-14.5-12.1-29.1-18.4-43.6-.5-1.1-.4-1.1-.8,0Z" transform="translate(-225.1-248.1)" fill="#fff" fill-rule="evenodd"/><path d="M435.2,256.1l-.6,1.4-22.2,56.9c-1,2.5-.5,2.5-1.6.1-6.3-15.3-17.7-43.1-24.1-58.3-.4-.9-.6-.9-1.1-.9h-16.2c-2.4,0-2.9.9-3.6,2.6-10.2,25-19.9,50.2-30.1,75.2-.5,1.1-.2,1.3.4,1.3h14.3c.4,0,.8-.2,1-.9c8-20.7,15.9-41.1,24.2-61.5.4-1.1.3-1.1.8,0c8.8,20,15.7,39.6,24.6,59.6.578745,1.416712,1.969947,2.330931,3.5,2.3h13.7c1.538466.060661,2.945207-.863768,3.5-2.3l23.8-59.8c.5-1.1.3-1,.8,0L471.6,332c1.3,3.1,1.1,2.7,2.2,0c2.1-4.9,3.8-9.4,5.8-14.4c1.3-3,1.1-2.3-.2-5.3l-23.1-54.5c-.7-1.7-1.2-2.6-3.6-2.6h-16.4c-.5,0-.8.1-1.1.9Zm53.1,78.1c.073125-.08202.109288-.190509.1-.3Z" transform="translate(-225.1-248.1)" fill="#fff" fill-rule="evenodd"/><path d="M294.1,270.4l-24.9,62.9c-.3.9-.6.8-2.7.8l-12.2-.2c-1,0-.9-.3-.5-1.5l30-74.7c.7-1.7,1.2-2.6,3.6-2.6h16.8c.428392-.010684.804905.28216.9.7l1.7,3.9L329.7,314c1.1,2.5.6,4.4-.4,6.9-1.5,4.1-4.5,9.2-6.5,10.9-1.82667,1.490326-4.146655,2.239859-6.5,2.1h-31.7c-1.7,0-3.8.2-3.2-1.4l4.9-12.3c.4-1.1.8-1.4,2.1-1.4h24.2c.2,0,1.4.3,1.4-1.1-.086394-1.319102-.425904-2.609241-1-3.8-6.3-14.5-11.8-29.1-18.1-43.6-.5-1.1-.3-1.1-.8,0Z" transform="translate(-225.1-248.1)" fill="#fff" fill-rule="evenodd"/></g><g id="e0nNogiaAzw9" transform="matrix(.92655-.376173 0.376173 0.92655 122.099503 12.544944)"><polygon points="43.9,0 3.6,99.1 1,99.1 41.2,0 43.9,0" fill="#d9a523" fill-rule="evenodd"/><path d="M272.3,257c-10.5,25.3-20.1,50.6-30.6,75.9-.048827.32034-.225131.607318-.488813.795662s-.592327.262044-.911187.204338h-13.7c-1.3,0-1.7-.9-1.3-2l30.6-75.7c.147807-.638626.747957-1.067305,1.4-1h13.7c.2-.1,1.8.1,1.3,1.8Z" transform="translate(-225.1-248.1)" fill="#d9a523" fill-rule="evenodd"/></g></g><g transform="matrix(.829984 0 0 0.829984 153.358552 112.754608)"><path d="M359.6,423.7c-1.691437.138184-3.340806-.574044-4.4-1.9.131763,3.001069-.748684,5.959372-2.5,8.4-1.80374,2.422471-4.681599,3.805338-7.7,3.7h-5.2l-.6-4h5.5c1.660449.019613,3.267272-.58741,4.5-1.7c1.309677-1.027658,2.021993-2.639743,1.9-4.3v-12.9h4.1v5.8c0,1.8,1.4,2.8,4.3,2.8Z" transform="translate(476.93425 251.05)" fill="#fff"/><path d="M382.6,423.7c-3.3,0-5.7-1.1-7.1-3.3-.814016,2.081826-2.86742,3.4105-5.1,3.3h-12.1v-4.1h12.1q2.1,0,2.1-1.5c-.061125-.688086-.428287-1.31226-1-1.7L361,405.3l-.7-4.5l14.8-5.4.7,4-10.8,4.1l11.3,12.3c1.10087,1.233898,2.305259,2.371377,3.6,3.4.845485.381159,1.78032.519653,2.7.4Zm-8.5-30.6L360,398.2l-.2-1.5l14.3-5.1Z" transform="translate(476.93425 251.05)" fill="#fff"/><path d="M413.2,417.2c.08069,1.696731-.374083,3.375892-1.3,4.8-.970823,1.399898-2.599068,2.195087-4.3,2.1-2.196014-.030398-4.258073-1.061427-5.6-2.8-1.100576,1.653626-2.916583,2.691344-4.9,2.8-2,0-3.8-1.1-5.5-3.3-1.8,1.9-3.6,2.9-5.3,2.9h-5.2v-4.1h4.9c1.8,0,2.8-.9,2.8-2.9v-5.7h3.9v5.9c.012802.898725.370866,1.758079,1,2.4.697881.591063,1.585516.910612,2.5.9c1.9,0,2.8-.8,2.8-2.5v-6.7h4v5.9c-.080819.915646.292929,1.812642,1,2.4.651952.601613,1.513222.924589,2.4.9c1.9,0,2.9-.8,2.9-2.5v-6.7h3.9Zm-14.1-11.5c-.009097.684198-.298237,1.334765-.8,1.8-.437338.470272-1.058326.725973-1.7.7-.7342.048944-1.456571-.203885-2-.7-.58668-.407823-.92575-1.085962-.9-1.8c0-1.4.9-2.1,2.6-2.1s2.8.7,2.8,2.1Zm3.8-5.7c.072778.678068-.188238,1.349253-.7,1.8-.510154.419051-1.140769.66429-1.8.7-.7342.048944-1.456571-.203885-2-.7-.58668-.407823-.92575-1.085962-.9-1.8c0-1.4.9-2.2,2.6-2.2s2.9.8,2.9,2.2Zm4,5.7c-.009097.684198-.298237,1.334765-.8,1.8-.4755.475105-1.128448.729029-1.8.7-.728193.008828-1.43625-.238992-2-.7-.548976-.429966-.848721-1.104391-.8-1.8c0-1.4.8-2.1,2.5-2.1s2.9.7,2.9,2.1Z" transform="translate(476.93425 251.05)" fill="#fff"/><path d="M432.2,424.2c-.009028,2.635338-1.135709,5.143113-3.1,6.9-1.915151,1.81696-4.460166,2.820628-7.1,2.8h-5.2l-.5-4h5.1c1.717893.004007,3.382166-.597964,4.7-1.7c1.26941-1.152302,1.995319-2.785597,2-4.5-3.3,0-5.8-.5-7.3-1.4s-3.1-3.3-3.1-6.4.8-5.8,2.4-7.1s2.7-1.3,5-1.3s5.1,1.3,6.1,3.8c.7226,2.533672,1.026601,5.168343.9,7.8Zm-4-4.6v-4.1c0-2.7-1.1-4-3.2-4-1.050586-.136872-2.079146.377408-2.6,1.3-.367833,1.025372-.537508,2.111293-.5,3.2c0,1.7.7,2.8,2.1,3.2c1.363779.388948,2.787319.524523,4.2.4Z" transform="translate(476.93425 251.05)" fill="#fff"/><path d="M446.1,423.7c-3.4,0-5.8-.7-7.2-2-1.013503-1.154182-1.518293-2.668553-1.4-4.2v-19.1h4.1v17.3c0,1.9.3,3,.9,3.5c1.167768.34087,2.385889.476216,3.6.4Z" transform="translate(476.93425 251.05)" fill="#fff"/><path d="M463.2,418.2c0,3.6-2,5.5-6.1,5.5h-12.6v-4.1h12.6c1,0,1.6-.6,1.6-1.8.019404-.513575-.159644-1.01491-.5-1.4l-10.5-11.1-.7-4.5l14.8-5.4.6,4.1-10.4,3.9l8.2,9.3c.877821.982211,1.648813,2.054896,2.3,3.2.497587.659965.745559,1.47473.7,2.3Z" transform="translate(476.93425 251.05)" fill="#fff"/><ellipse id="e0nNogiaAzw19" rx="50.745639" ry="16.670351" transform="matrix(2.09513 0 0 3.061076 761.918637 672.903545)" opacity="0" fill="url(#e0nNogiaAzw19-fill)" stroke-width="0"/><g><path d="M275.3,418.1c.065639,1.632418-.38964,3.243407-1.3,4.6-.896122,1.390992-2.445493,2.222362-4.1,2.2-1.8,0-3.7-.9-5.6-2.7-1.01113,1.634976-2.77827,2.650141-4.7,2.7-1.625529-.075015-3.191985-.631977-4.5-1.6.08114,2.839874-.799857,5.623823-2.5,7.9-1.793625,2.235408-4.535551,3.495211-7.4,3.4h-6.1c-2.699638.022455-5.281327-1.104761-7.1-3.1-1.803962-2.003348-2.801525-4.604136-2.8-7.3v-8.3h4v8.5c-.099355,1.693091.560405,3.342489,1.8,4.5c1.221178,1.196037,2.894514,1.814443,4.6,1.7h5.2c1.673389.09832,3.309606-.519806,4.5-1.7c1.176061-1.19996,1.824072-2.819987,1.8-4.5v-12.5h3.9v6c.006453.892085.409597,1.735021,1.1,2.3.66249.584285,1.516676.904605,2.4.9c1.9,0,2.8-.8,2.8-2.5v-6.7h3.9v5.9c-.082906.887387.294491,1.755402,1,2.3.641921.629134,1.501275.987198,2.4,1c1.8,0,2.8-.9,2.8-2.5v-6.7h3.9Z" transform="translate(476.93425 251.05)" fill="#ffe500"/><path d="M294.3,423.8c.099563,2.75444-.86762,5.44106-2.7,7.5-1.810548,2.145404-4.493319,3.358163-7.3,3.3h-5.3l-.7-4.1h4.5c1.762921-.003634,3.491521-.487642,5-1.4c1.515206-.945292,2.425567-2.614286,2.4-4.4v-12.8h4.1Z" transform="translate(476.93425 251.05)" fill="#ffe500"/><path d="M317,424.5h-2.6c.089927,2.721213-1.004456,5.347733-3,7.2-1.935931,1.921891-4.572975,2.969484-7.3,2.9h-5.2l-.5-4h5c1.713756.088236,3.396041-.484457,4.7-1.6c1.26941-1.152302,1.995319-2.785597,2-4.5-3.3,0-5.7-.5-7.2-1.4s-3.1-3.3-3.1-6.3.8-5.7,2.4-7.1s2.5-1.2,4.7-1.2s5.3,1.3,6.4,4c.787789,2.589983,1.126015,5.295792,1,8h2.7Zm-6.7-4v-3.8c-.005229-.988982-.281958-1.957536-.8-2.8-.528498-.874509-1.478219-1.406353-2.5-1.4-1.045883-.109997-2.060468.397295-2.6,1.3-.367281.990826-.537138,2.043945-.5,3.1-.071652,1.440579.829292,2.751043,2.2,3.2c1.372522.340261,2.787923.475061,4.2.4Z" transform="translate(476.93425 251.05)" fill="#ffe500"/><path d="M328,418c-.028726,1.634274-.590558,3.214425-1.6,4.5-1.016992,1.278273-2.566601,2.016182-4.2,2h-6.5v-4c2.301922.056736,4.605229-.010027,6.9-.2.9-.4,1.4-1.6,1.4-3.6v-4.8h4.1Zm-4.7,13.9c.010699.746673-.277306,1.466684-.8,2-.554185.489778-1.260916.77247-2,.8-2,0-3-.9-3-2.8s1-2.4,2.9-2.4s2.9.8,2.9,2.4Z" transform="translate(476.93425 251.05)" fill="#ffe500"/></g><g id="e0nNogiaAzw25"><path d="M275.3,418.1c.065639,1.632418-.38964,3.243407-1.3,4.6-.896122,1.390992-2.445493,2.222362-4.1,2.2-1.8,0-3.7-.9-5.6-2.7-1.01113,1.634976-2.77827,2.650141-4.7,2.7-1.625529-.075015-3.191985-.631977-4.5-1.6.08114,2.839874-.799857,5.623823-2.5,7.9-1.793625,2.235408-4.535551,3.495211-7.4,3.4h-6.1c-2.699638.022455-5.281327-1.104761-7.1-3.1-1.803962-2.003348-2.801525-4.604136-2.8-7.3v-8.3h4v8.5c-.099355,1.693091.560405,3.342489,1.8,4.5c1.221178,1.196037,2.894514,1.814443,4.6,1.7h5.2c1.673389.09832,3.309606-.519806,4.5-1.7c1.176061-1.19996,1.824072-2.819987,1.8-4.5v-12.5h3.9v6c.006453.892085.409597,1.735021,1.1,2.3.66249.584285,1.516676.904605,2.4.9c1.9,0,2.8-.8,2.8-2.5v-6.7h3.9v5.9c-.082906.887387.294491,1.755402,1,2.3.641921.629134,1.501275.987198,2.4,1c1.8,0,2.8-.9,2.8-2.5v-6.7h3.9Z" transform="translate(476.93425 251.05)" fill="#cea72c"/><path d="M294.3,423.8c.099563,2.75444-.86762,5.44106-2.7,7.5-1.810548,2.145404-4.493319,3.358163-7.3,3.3h-5.3l-.7-4.1h4.5c1.762921-.003634,3.491521-.487642,5-1.4c1.515206-.945292,2.425567-2.614286,2.4-4.4v-12.8h4.1Z" transform="translate(476.93425 251.05)" fill="#cea72c"/><path d="M317,424.5h-2.6c.089927,2.721213-1.004456,5.347733-3,7.2-1.935931,1.921891-4.572975,2.969484-7.3,2.9h-5.2l-.5-4h5c1.713756.088236,3.396041-.484457,4.7-1.6c1.26941-1.152302,1.995319-2.785597,2-4.5-3.3,0-5.7-.5-7.2-1.4s-3.1-3.3-3.1-6.3.8-5.7,2.4-7.1s2.5-1.2,4.7-1.2s5.3,1.3,6.4,4c.787789,2.589983,1.126015,5.295792,1,8h2.7Zm-6.7-4v-3.8c-.005229-.988982-.281958-1.957536-.8-2.8-.528498-.874509-1.478219-1.406353-2.5-1.4-1.045883-.109997-2.060468.397295-2.6,1.3-.367281.990826-.537138,2.043945-.5,3.1-.071652,1.440579.829292,2.751043,2.2,3.2c1.372522.340261,2.787923.475061,4.2.4Z" transform="translate(476.93425 251.05)" fill="#cea72c"/><path d="M328,418c-.028726,1.634274-.590558,3.214425-1.6,4.5-1.016992,1.278273-2.566601,2.016182-4.2,2h-6.5v-4c2.301922.056736,4.605229-.010027,6.9-.2.9-.4,1.4-1.6,1.4-3.6v-4.8h4.1Zm-4.7,13.9c.010699.746673-.277306,1.466684-.8,2-.554185.489778-1.260916.77247-2,.8-2,0-3-.9-3-2.8s1-2.4,2.9-2.4s2.9.8,2.9,2.4Z" transform="translate(476.93425 251.05)" fill="#cea72c"/></g><path d="M570.3,424.4c-1.04301.098958-2.09532-.002879-3.1-.3-1.0238-.222206-1.900018-.87937-2.4-1.8-1.083292,1.633405-2.941715,2.58158-4.9,2.5-2.09507-.007779-4.06201-1.009805-5.3-2.7-1.097239,1.70684-2.971372,2.756355-5,2.8-1.512589.018607-2.963632-.598086-4-1.7.111704,2.860335-.811379,5.665088-2.6,7.9-1.741616,2.245544-4.460425,3.511839-7.3,3.4h-6.1c-2.694225.101161-5.294607-.997592-7.1-3-1.847295-1.976523-2.851682-4.595102-2.8-7.3v-8.3h4v8.5c-.008464,1.647574.639203,3.230761,1.8,4.4c1.216097,1.13957,2.834189,1.750849,4.5,1.7h5.2c1.705486.114443,3.378822-.503963,4.6-1.7c1.24805-1.109458,1.9126-2.733912,1.8-4.4v-12.5h4v5.9c-.047854.881436.322751,1.733826,1,2.3.639658.621291,1.509546.947499,2.4.9q2.7,0,2.7-2.4v-6.7h4v5.9c-.082906.887387.294491,1.755402,1,2.3.651952.601613,1.513222.924589,2.4.9c1.8,0,2.7-.8,2.7-2.5v-6.6h3.9v6.2c.005488.924087.614413,1.735987,1.5,2c1.041785.287006,2.119622.421736,3.2.4Z" transform="translate(476.93425 251.05)" fill="#fff"/><path d="M593.1,424.4c-3.4,0-5.8-.9-7.2-2.9-.8,2-2.6,2.9-5.5,2.9h-11.8v-3.9h11.9q1.5,0,1.5-2.1c-.035545-.442817-.210603-.862955-.5-1.2l-10.3-10.8-.7-4.5l14.6-5.3.5,4-10.3,3.8l11,12.2c.812708,1.080647,1.79151,2.025698,2.9,2.8c1.141277.709435,2.456232,1.09008,3.8,1.1Z" transform="translate(476.93425 251.05)" fill="#fff"/><path d="M609.1,417c.088809,2.005947-.511047,3.981945-1.7,5.6-1.226708,1.614541-3.175509,2.513988-5.2,2.4-1.642639.019351-3.23829-.547991-4.5-1.6-1.2.6-3.5.9-6.7,1v-4c2.3,0,3.6-.2,4-.6.215706-1.018296.283069-2.062428.2-3.1.1-5.5,2.5-8.2,7.1-8.2c2.069671-.106753,4.0436.880211,5.2,2.6c1.118105,1.759436,1.676016,3.816734,1.6,5.9Zm-3.4-.3c0-2.8-1.2-4.3-3.5-4.3s-3.5,1.5-3.5,4.5s1.2,4.1,3.5,4.1s3.5-1.4,3.5-4.3Z" transform="translate(476.93425 251.05)" fill="#fff"/><path d="M618.8,424.4h-3.9v-25.5h3.9Z" transform="translate(476.93425 251.05)" fill="#fff"/><path d="M489.666295,374.5v0c.415407,0,.813801.217049,1.107538.603397s.458757.910352.458757,1.456732v63.326574c0,.54638-.16502,1.070382-.458757,1.456731s-.692131.603398-1.107538.603398v0c-.415407,0-.813801-.217049-1.107538-.603398s-.458757-.910351-.458757-1.456731v-63.326574c.034747-1.118301.716062-2.014427,1.566295-2.060129Z" transform="matrix(1-.000264 0.000264 1.000361 479.343936 257.074215)" fill="#fff"/><rect width="9.5" height="1.61" rx="0" ry="0" transform="matrix(.866025-.5 0.5 0.866025 1088.881996 641.69091)" fill="#fff"/><rect width="9.5" height="1.61" rx="0" ry="0" transform="matrix(.866025-.5 0.5 0.866025 1072.825592 649.54591)" fill="#fff"/></g><path id="e0nNogiaAzw37" d="M723.672868,586.167261l32.628383-80.758541h-378.068078l-5.876336,80.758541h351.316031Z" transform="translate(153.240002 0.000003)" opacity="0" fill="#32353e" stroke-width="3.6"/>
<script><![CDATA[
!function(t,n){"object"==typeof exports&&"undefined"!=typeof module?module.exports=n():"function"==typeof __SVGATOR_DEFINE__&&__SVGATOR_DEFINE__.amd?__SVGATOR_DEFINE__(n):((t="undefined"!=typeof globalThis?globalThis:t||self).__SVGATOR_PLAYER__=t.__SVGATOR_PLAYER__||{},t.__SVGATOR_PLAYER__["5c7f360c"]=n())}(this,(function(){"use strict";function t(t,n){var e=Object.keys(t);if(Object.getOwnPropertySymbols){var r=Object.getOwnPropertySymbols(t);n&&(r=r.filter((function(n){return Object.getOwnPropertyDescriptor(t,n).enumerable}))),e.push.apply(e,r)}return e}function n(n){for(var e=1;e<arguments.length;e++){var r=null!=arguments[e]?arguments[e]:{};e%2?t(Object(r),!0).forEach((function(t){o(n,t,r[t])})):Object.getOwnPropertyDescriptors?Object.defineProperties(n,Object.getOwnPropertyDescriptors(r)):t(Object(r)).forEach((function(t){Object.defineProperty(n,t,Object.getOwnPropertyDescriptor(r,t))}))}return n}function e(t){return(e="function"==typeof Symbol&&"symbol"==typeof Symbol.iterator?function(t){return typeof t}:function(t){return t&&"function"==typeof Symbol&&t.constructor===Symbol&&t!==Symbol.prototype?"symbol":typeof t})(t)}function r(t,n){if(!(t instanceof n))throw new TypeError("Cannot call a class as a function")}function i(t,n){for(var e=0;e<n.length;e++){var r=n[e];r.enumerable=r.enumerable||!1,r.configurable=!0,"value"in r&&(r.writable=!0),Object.defineProperty(t,r.key,r)}}function u(t,n,e){return n&&i(t.prototype,n),e&&i(t,e),t}function o(t,n,e){return n in t?Object.defineProperty(t,n,{value:e,enumerable:!0,configurable:!0,writable:!0}):t[n]=e,t}function a(t){return(a=Object.setPrototypeOf?Object.getPrototypeOf:function(t){return t.__proto__||Object.getPrototypeOf(t)})(t)}function l(t,n){return(l=Object.setPrototypeOf||function(t,n){return t.__proto__=n,t})(t,n)}function s(){if("undefined"==typeof Reflect||!Reflect.construct)return!1;if(Reflect.construct.sham)return!1;if("function"==typeof Proxy)return!0;try{return Boolean.prototype.valueOf.call(Reflect.construct(Boolean,[],(function(){}))),!0}catch(t){return!1}}function f(t,n,e){return(f=s()?Reflect.construct:function(t,n,e){var r=[null];r.push.apply(r,n);var i=new(Function.bind.apply(t,r));return e&&l(i,e.prototype),i}).apply(null,arguments)}function c(t,n){if(n&&("object"==typeof n||"function"==typeof n))return n;if(void 0!==n)throw new TypeError("Derived constructors may only return object or undefined");return function(t){if(void 0===t)throw new ReferenceError("this hasn't been initialised - super() hasn't been called");return t}(t)}function h(t,n,e){return(h="undefined"!=typeof Reflect&&Reflect.get?Reflect.get:function(t,n,e){var r=function(t,n){for(;!Object.prototype.hasOwnProperty.call(t,n)&&null!==(t=a(t)););return t}(t,n);if(r){var i=Object.getOwnPropertyDescriptor(r,n);return i.get?i.get.call(e):i.value}})(t,n,e||t)}function v(t){return function(t){if(Array.isArray(t))return y(t)}(t)||function(t){if("undefined"!=typeof Symbol&&null!=t[Symbol.iterator]||null!=t["@@iterator"])return Array.from(t)}(t)||function(t,n){if(!t)return;if("string"==typeof t)return y(t,n);var e=Object.prototype.toString.call(t).slice(8,-1);"Object"===e&&t.constructor&&(e=t.constructor.name);if("Map"===e||"Set"===e)return Array.from(t);if("Arguments"===e||/^(?:Ui|I)nt(?:8|16|32)(?:Clamped)?Array$/.test(e))return y(t,n)}(t)||function(){throw new TypeError("Invalid attempt to spread non-iterable instance.\nIn order to be iterable, non-array objects must have a [Symbol.iterator]() method.")}()}function y(t,n){(null==n||n>t.length)&&(n=t.length);for(var e=0,r=new Array(n);e<n;e++)r[e]=t[e];return r}Number.isInteger||(Number.isInteger=function(t){return"number"==typeof t&&isFinite(t)&&Math.floor(t)===t}),Number.EPSILON||(Number.EPSILON=2220446049250313e-31);var g=p(Math.pow(10,-6));function p(t){var n=arguments.length>1&&void 0!==arguments[1]?arguments[1]:6;if(Number.isInteger(t))return t;var e=Math.pow(10,n);return Math.round((+t+Number.EPSILON)*e)/e}function d(t,n){var e=arguments.length>2&&void 0!==arguments[2]?arguments[2]:g;return Math.abs(t-n)<e}var m=Math.PI/180;function b(t){return t}function w(t,n,e){var r=1-e;return 3*e*r*(t*r+n*e)+e*e*e}function A(){var t=arguments.length>0&&void 0!==arguments[0]?arguments[0]:0,n=arguments.length>1&&void 0!==arguments[1]?arguments[1]:0,e=arguments.length>2&&void 0!==arguments[2]?arguments[2]:1,r=arguments.length>3&&void 0!==arguments[3]?arguments[3]:1;return t<0||t>1||e<0||e>1?null:d(t,n)&&d(e,r)?b:function(i){if(i<=0)return t>0?i*n/t:0===n&&e>0?i*r/e:0;if(i>=1)return e<1?1+(i-1)*(r-1)/(e-1):1===e&&t<1?1+(i-1)*(n-1)/(t-1):1;for(var u,o=0,a=1;o<a;){var l=w(t,e,u=(o+a)/2);if(d(i,l))break;l<i?o=u:a=u}return w(n,r,u)}}function _(){return 1}function x(t){return 1===t?1:0}function k(){var t=arguments.length>0&&void 0!==arguments[0]?arguments[0]:1,n=arguments.length>1&&void 0!==arguments[1]?arguments[1]:0;if(1===t){if(0===n)return x;if(1===n)return _}var e=1/t;return function(t){return t>=1?1:(t+=n*e)-t%e}}var S=Math.sin,O=Math.cos,j=Math.acos,E=Math.asin,M=Math.tan,P=Math.atan2,I=Math.PI/180,R=180/Math.PI,F=Math.sqrt,N=function(){function t(){var n=arguments.length>0&&void 0!==arguments[0]?arguments[0]:1,e=arguments.length>1&&void 0!==arguments[1]?arguments[1]:0,i=arguments.length>2&&void 0!==arguments[2]?arguments[2]:0,u=arguments.length>3&&void 0!==arguments[3]?arguments[3]:1,o=arguments.length>4&&void 0!==arguments[4]?arguments[4]:0,a=arguments.length>5&&void 0!==arguments[5]?arguments[5]:0;r(this,t),this.m=[n,e,i,u,o,a],this.i=null,this.w=null,this.s=null}return u(t,[{key:"determinant",get:function(){var t=this.m;return t[0]*t[3]-t[1]*t[2]}},{key:"isIdentity",get:function(){if(null===this.i){var t=this.m;this.i=1===t[0]&&0===t[1]&&0===t[2]&&1===t[3]&&0===t[4]&&0===t[5]}return this.i}},{key:"point",value:function(t,n){var e=this.m;return{x:e[0]*t+e[2]*n+e[4],y:e[1]*t+e[3]*n+e[5]}}},{key:"translateSelf",value:function(){var t=arguments.length>0&&void 0!==arguments[0]?arguments[0]:0,n=arguments.length>1&&void 0!==arguments[1]?arguments[1]:0;if(!t&&!n)return this;var e=this.m;return e[4]+=e[0]*t+e[2]*n,e[5]+=e[1]*t+e[3]*n,this.w=this.s=this.i=null,this}},{key:"rotateSelf",value:function(){var t=arguments.length>0&&void 0!==arguments[0]?arguments[0]:0;if(t%=360){var n=S(t*=I),e=O(t),r=this.m,i=r[0],u=r[1];r[0]=i*e+r[2]*n,r[1]=u*e+r[3]*n,r[2]=r[2]*e-i*n,r[3]=r[3]*e-u*n,this.w=this.s=this.i=null}return this}},{key:"scaleSelf",value:function(){var t=arguments.length>0&&void 0!==arguments[0]?arguments[0]:1,n=arguments.length>1&&void 0!==arguments[1]?arguments[1]:1;if(1!==t||1!==n){var e=this.m;e[0]*=t,e[1]*=t,e[2]*=n,e[3]*=n,this.w=this.s=this.i=null}return this}},{key:"skewSelf",value:function(t,n){if(n%=360,(t%=360)||n){var e=this.m,r=e[0],i=e[1],u=e[2],o=e[3];t&&(t=M(t*I),e[2]+=r*t,e[3]+=i*t),n&&(n=M(n*I),e[0]+=u*n,e[1]+=o*n),this.w=this.s=this.i=null}return this}},{key:"resetSelf",value:function(){var t=arguments.length>0&&void 0!==arguments[0]?arguments[0]:1,n=arguments.length>1&&void 0!==arguments[1]?arguments[1]:0,e=arguments.length>2&&void 0!==arguments[2]?arguments[2]:0,r=arguments.length>3&&void 0!==arguments[3]?arguments[3]:1,i=arguments.length>4&&void 0!==arguments[4]?arguments[4]:0,u=arguments.length>5&&void 0!==arguments[5]?arguments[5]:0,o=this.m;return o[0]=t,o[1]=n,o[2]=e,o[3]=r,o[4]=i,o[5]=u,this.w=this.s=this.i=null,this}},{key:"recomposeSelf",value:function(){var t=arguments.length>0&&void 0!==arguments[0]?arguments[0]:null,n=arguments.length>1&&void 0!==arguments[1]?arguments[1]:null,e=arguments.length>2&&void 0!==arguments[2]?arguments[2]:null,r=arguments.length>3&&void 0!==arguments[3]?arguments[3]:null,i=arguments.length>4&&void 0!==arguments[4]?arguments[4]:null;return this.isIdentity||this.resetSelf(),t&&(t.x||t.y)&&this.translateSelf(t.x,t.y),n&&this.rotateSelf(n),e&&(e.x&&this.skewSelf(e.x,0),e.y&&this.skewSelf(0,e.y)),!r||1===r.x&&1===r.y||this.scaleSelf(r.x,r.y),i&&(i.x||i.y)&&this.translateSelf(i.x,i.y),this}},{key:"decompose",value:function(){var t=arguments.length>0&&void 0!==arguments[0]?arguments[0]:0,n=arguments.length>1&&void 0!==arguments[1]?arguments[1]:0,e=this.m,r=e[0]*e[0]+e[1]*e[1],i=[[e[0],e[1]],[e[2],e[3]]],u=F(r);if(0===u)return{origin:{x:p(e[4]),y:p(e[5])},translate:{x:p(t),y:p(n)},scale:{x:0,y:0},skew:{x:0,y:0},rotate:0};i[0][0]/=u,i[0][1]/=u;var o=e[0]*e[3]-e[1]*e[2]<0;o&&(u=-u);var a=i[0][0]*i[1][0]+i[0][1]*i[1][1];i[1][0]-=i[0][0]*a,i[1][1]-=i[0][1]*a;var l=F(i[1][0]*i[1][0]+i[1][1]*i[1][1]);if(0===l)return{origin:{x:p(e[4]),y:p(e[5])},translate:{x:p(t),y:p(n)},scale:{x:p(u),y:0},skew:{x:0,y:0},rotate:0};i[1][0]/=l,i[1][1]/=l,a/=l;var s=0;return i[1][1]<0?(s=j(i[1][1])*R,i[0][1]<0&&(s=360-s)):s=E(i[0][1])*R,o&&(s=-s),a=P(a,F(i[0][0]*i[0][0]+i[0][1]*i[0][1]))*R,o&&(a=-a),{origin:{x:p(e[4]),y:p(e[5])},translate:{x:p(t),y:p(n)},scale:{x:p(u),y:p(l)},skew:{x:p(a),y:0},rotate:p(s)}}},{key:"clone",value:function(){var t=this.m;return new this.constructor(t[0],t[1],t[2],t[3],t[4],t[5])}},{key:"toString",value:function(){var t=arguments.length>0&&void 0!==arguments[0]?arguments[0]:" ";if(null===this.s){var n=this.m.map((function(t){return p(t)}));1===n[0]&&0===n[1]&&0===n[2]&&1===n[3]?this.s="translate("+n[4]+t+n[5]+")":this.s="matrix("+n.join(t)+")"}return this.s}}],[{key:"create",value:function(t){return t?Array.isArray(t)?f(this,v(t)):t instanceof this?t.clone():(new this).recomposeSelf(t.origin,t.rotate,t.skew,t.scale,t.translate):new this}}]),t}();function T(t,n,e){return t>=.5?e:n}function q(t,n,e){return 0===t||n===e?n:t*(e-n)+n}function B(t,n,e){var r=q(t,n,e);return r<=0?0:r}function D(t,n,e){var r=q(t,n,e);return r<=0?0:r>=1?1:r}function L(t,n,e){return 0===t?n:1===t?e:{x:q(t,n.x,e.x),y:q(t,n.y,e.y)}}function C(t,n,e){var r=function(t,n,e){return Math.round(q(t,n,e))}(t,n,e);return r<=0?0:r>=255?255:r}function V(t,n,e){return 0===t?n:1===t?e:{r:C(t,n.r,e.r),g:C(t,n.g,e.g),b:C(t,n.b,e.b),a:q(t,null==n.a?1:n.a,null==e.a?1:e.a)}}function G(t,n){for(var e=[],r=0;r<t;r++)e.push(n);return e}function z(t,n){if(--n<=0)return t;var e=(t=Object.assign([],t)).length;do{for(var r=0;r<e;r++)t.push(t[r])}while(--n>0);return t}var Y,$=function(){function t(n){r(this,t),this.list=n,this.length=n.length}return u(t,[{key:"setAttribute",value:function(t,n){for(var e=this.list,r=0;r<this.length;r++)e[r].setAttribute(t,n)}},{key:"removeAttribute",value:function(t){for(var n=this.list,e=0;e<this.length;e++)n[e].removeAttribute(t)}},{key:"style",value:function(t,n){for(var e=this.list,r=0;r<this.length;r++)e[r].style[t]=n}}]),t}(),U=/-./g,Q=function(t,n){return n.toUpperCase()};function H(t){return"function"==typeof t?t:T}function J(t){return t?"function"==typeof t?t:Array.isArray(t)?function(t){var n=arguments.length>1&&void 0!==arguments[1]?arguments[1]:b;if(!Array.isArray(t))return n;switch(t.length){case 1:return k(t[0])||n;case 2:return k(t[0],t[1])||n;case 4:return A(t[0],t[1],t[2],t[3])||n}return n}(t,null):function(t,n){var e=arguments.length>2&&void 0!==arguments[2]?arguments[2]:b;switch(t){case"linear":return b;case"steps":return k(n.steps||1,n.jump||0)||e;case"bezier":case"cubic-bezier":return A(n.x1||0,n.y1||0,n.x2||0,n.y2||0)||e}return e}(t.type,t.value,null):null}function Z(t,n,e){var r=arguments.length>3&&void 0!==arguments[3]&&arguments[3],i=n.length-1;if(t<=n[0].t)return r?[0,0,n[0].v]:n[0].v;if(t>=n[i].t)return r?[i,1,n[i].v]:n[i].v;var u,o=n[0],a=null;for(u=1;u<=i;u++){if(!(t>n[u].t)){a=n[u];break}o=n[u]}return null==a?r?[i,1,n[i].v]:n[i].v:o.t===a.t?r?[u,1,a.v]:a.v:(t=(t-o.t)/(a.t-o.t),o.e&&(t=o.e(t)),r?[u,t,e(t,o.v,a.v)]:e(t,o.v,a.v))}function K(t,n){var e=arguments.length>2&&void 0!==arguments[2]?arguments[2]:null;return t&&t.length?"function"!=typeof n?null:("function"!=typeof e&&(e=null),function(r){var i=Z(r,t,n);return null!=i&&e&&(i=e(i)),i}):null}function W(t,n){return t.t-n.t}function X(t,n,r,i,u){var o,a="@"===r[0],l="#"===r[0],s=Y[r],f=T;switch(a?(o=r.substr(1),r=o.replace(U,Q)):l&&(r=r.substr(1)),e(s)){case"function":if(f=s(i,u,Z,J,r,a,n,t),l)return f;break;case"string":f=K(i,H(s));break;case"object":if((f=K(i,H(s.i),s.f))&&"function"==typeof s.u)return s.u(n,f,r,a,t)}return f?function(t,n,e){if(arguments.length>3&&void 0!==arguments[3]&&arguments[3])return t instanceof $?function(r){return t.style(n,e(r))}:function(r){return t.style[n]=e(r)};if(Array.isArray(n)){var r=n.length;return function(i){var u=e(i);if(null==u)for(var o=0;o<r;o++)t[o].removeAttribute(n);else for(var a=0;a<r;a++)t[a].setAttribute(n,u)}}return function(r){var i=e(r);null==i?t.removeAttribute(n):t.setAttribute(n,i)}}(n,r,f,a):null}function tt(t,n,r,i){if(!i||"object"!==e(i))return null;var u=null,o=null;return Array.isArray(i)?o=function(t){if(!t||!t.length)return null;for(var n=0;n<t.length;n++)t[n].e&&(t[n].e=J(t[n].e));return t.sort(W)}(i):(o=i.keys,u=i.data||null),o?X(t,n,r,o,u):null}function nt(t,n,e){if(!e)return null;var r=[];for(var i in e)if(e.hasOwnProperty(i)){var u=tt(t,n,i,e[i]);u&&r.push(u)}return r.length?r:null}function et(t,n){if(!n.settings.duration||n.settings.duration<0)return null;var e,r,i,u,o,a=function(t,n){if(!n)return null;var e=[];if(Array.isArray(n))for(var r=n.length,i=0;i<r;i++){var u=n[i];if(2===u.length){var o=null;if("string"==typeof u[0])o=t.getElementById(u[0]);else if(Array.isArray(u[0])){o=[];for(var a=0;a<u[0].length;a++)if("string"==typeof u[0][a]){var l=t.getElementById(u[0][a]);l&&o.push(l)}o=o.length?1===o.length?o[0]:new $(o):null}if(o){var s=nt(t,o,u[1]);s&&(e=e.concat(s))}}}else for(var f in n)if(n.hasOwnProperty(f)){var c=t.getElementById(f);if(c){var h=nt(t,c,n[f]);h&&(e=e.concat(h))}}return e.length?e:null}(t,n.elements);return a?(e=a,r=n.settings,i=r.duration,u=e.length,o=null,function(t,n){var a=r.iterations||1/0,l=(r.alternate&&a%2==0)^r.direction>0?i:0,s=t%i,f=1+(t-s)/i;n*=r.direction,r.alternate&&f%2==0&&(n=-n);var c=!1;if(f>a)s=l,c=!0,-1===r.fill&&(s=r.direction>0?0:i);else if(n<0&&(s=i-s),s===o)return!1;o=s;for(var h=0;h<u;h++)e[h](s);return c}):null}function rt(t,n){if(Y=n,!t||!t.root||!Array.isArray(t.animations))return null;var e=function(t){for(var n=document.getElementsByTagName("svg"),e=0;e<n.length;e++)if(n[e].id===t.root&&!n[e].svgatorAnimation)return n[e].svgatorAnimation=!0,n[e];return null}(t);if(!e)return null;var r=t.animations.map((function(t){return et(e,t)})).filter((function(t){return!!t}));return r.length?{svg:e,animations:r,animationSettings:t.animationSettings,options:t.options||void 0}:null}function it(t){return+("0x"+(t.replace(/[^0-9a-fA-F]+/g,"")||27))}function ut(t,n,e){return!t||!e||n>t.length?t:t.substring(0,n)+ut(t.substring(n+1),e,e)}function ot(t){var n=arguments.length>1&&void 0!==arguments[1]?arguments[1]:27;return!t||t%n?t%n:ot(t/n,n)}function at(t,n,e){if(t&&t.length){var r=it(e),i=it(n),u=ot(r)+5,o=ut(t,ot(r,5),u);return o=o.replace(/\x7c$/g,"==").replace(/\x2f$/g,"="),o=function(t,n,e){var r=+("0x"+t.substring(0,4));t=t.substring(4);for(var i=n%r+e%27,u=[],o=0;o<t.length;o+=2)if("|"!==t[o]){var a=+("0x"+t[o]+t[o+1])-i;u.push(a)}else{var l=+("0x"+t.substring(o+1,o+1+4))-i;o+=3,u.push(l)}return String.fromCharCode.apply(String,u)}(o=(o=atob(o)).replace(/[\x41-\x5A]/g,""),i,r),o=JSON.parse(o)}}var lt=[{key:"alternate",def:!1},{key:"fill",def:1},{key:"iterations",def:0},{key:"direction",def:1},{key:"speed",def:1},{key:"fps",def:100}],st=function(){function t(n,e){var i=this,u=arguments.length>2&&void 0!==arguments[2]?arguments[2]:null;r(this,t),this._id=0,this._running=!1,this._rollingBack=!1,this._animations=n,this._settings=e,(!u||u<"2022-05-02")&&delete this._settings.speed,lt.forEach((function(t){i._settings[t.key]=i._settings[t.key]||t.def})),this.duration=e.duration,this.offset=e.offset||0,this.rollbackStartOffset=0}return u(t,[{key:"alternate",get:function(){return this._settings.alternate}},{key:"fill",get:function(){return this._settings.fill}},{key:"iterations",get:function(){return this._settings.iterations}},{key:"direction",get:function(){return this._settings.direction}},{key:"speed",get:function(){return this._settings.speed}},{key:"fps",get:function(){return this._settings.fps}},{key:"maxFiniteDuration",get:function(){return this.iterations>0?this.iterations*this.duration:this.duration}},{key:"_apply",value:function(t){for(var n=arguments.length>1&&void 0!==arguments[1]?arguments[1]:{},e=this._animations,r=e.length,i=0,u=0;u<r;u++)n[u]?i++:(n[u]=e[u](t,1),n[u]&&i++);return i}},{key:"_rollback",value:function(t){var n=this,e=1/0,r=null;this.rollbackStartOffset=t,this._rollingBack=!0,this._running=!0;this._id=window.requestAnimationFrame((function i(u){if(n._rollingBack){null==r&&(r=u);var o=Math.round(t-(u-r)*n.speed);if(o>n.duration&&e!==1/0){var a=!!n.alternate&&o/n.duration%2>1,l=o%n.duration;o=(l+=a?n.duration:0)||n.duration}var s=(n.fps?1e3/n.fps:0)*n.speed,f=Math.max(0,o);f<=e-s&&(n.offset=f,e=f,n._apply(f));var c=n.iterations>0&&-1===n.fill&&o>=n.maxFiniteDuration;(o<=0||n.offset<o||c)&&n.stop(),n._id=window.requestAnimationFrame(i)}}))}},{key:"_start",value:function(){var t=this,n=arguments.length>0&&void 0!==arguments[0]?arguments[0]:0,e=-1/0,r=null,i={};this._running=!0;var u=function u(o){null==r&&(r=o);var a=Math.round((o-r)*t.speed+n),l=(t.fps?1e3/t.fps:0)*t.speed;if(a>=e+l&&!t._rollingBack&&(t.offset=a,e=a,t._apply(a,i)===t._animations.length))return void t.pause(!0);t._id=window.requestAnimationFrame(u)};this._id=window.requestAnimationFrame(u)}},{key:"_pause",value:function(){this._id&&window.cancelAnimationFrame(this._id),this._running=!1}},{key:"play",value:function(){if(!this._running)return this._rollingBack?this._rollback(this.offset):this._start(this.offset)}},{key:"stop",value:function(){this._pause(),this.offset=0,this.rollbackStartOffset=0,this._rollingBack=!1,this._apply(0)}},{key:"reachedToEnd",value:function(){return this.iterations>0&&this.offset>=this.iterations*this.duration}},{key:"restart",value:function(){var t=arguments.length>0&&void 0!==arguments[0]&&arguments[0];this.stop(t),this.play(t)}},{key:"pause",value:function(){this._pause()}},{key:"reverse",value:function(){this.direction=-this.direction}}],[{key:"build",value:function(t,n){delete t.animationSettings,t.options=at(t.options,t.root,"5c7f360c"),t.animations.map((function(n){n.settings=at(n.s,t.root,"5c7f360c"),delete n.s,t.animationSettings||(t.animationSettings=n.settings)}));var e=t.version;if(!(t=rt(t,n)))return null;var r=t.options||{},i=new this(t.animations,t.animationSettings,e);return{el:t.svg,options:r,player:i}}},{key:"push",value:function(t){return this.build(t)}},{key:"init",value:function(){var t=this,n=window.__SVGATOR_PLAYER__&&window.__SVGATOR_PLAYER__["5c7f360c"];Array.isArray(n)&&n.splice(0).forEach((function(n){return t.build(n)}))}}]),t}();function ft(t){return p(t)+""}function ct(t){var n=arguments.length>1&&void 0!==arguments[1]?arguments[1]:" ";return t&&t.length?t.map(ft).join(n):""}function ht(t){if(!t)return"transparent";if(null==t.a||t.a>=1){var n=function(t){return 1===(t=parseInt(t).toString(16)).length?"0"+t:t},e=function(t){return t.charAt(0)===t.charAt(1)},r=n(t.r),i=n(t.g),u=n(t.b);return e(r)&&e(i)&&e(u)&&(r=r.charAt(0),i=i.charAt(0),u=u.charAt(0)),"#"+r+i+u}return"rgba("+t.r+","+t.g+","+t.b+","+t.a+")"}function vt(t){return t?"url(#"+t+")":"none"}!function(){for(var t=0,n=["ms","moz","webkit","o"],e=0;e<n.length&&!window.requestAnimationFrame;++e)window.requestAnimationFrame=window[n[e]+"RequestAnimationFrame"],window.cancelAnimationFrame=window[n[e]+"CancelAnimationFrame"]||window[n[e]+"CancelRequestAnimationFrame"];window.requestAnimationFrame||(window.requestAnimationFrame=function(n){var e=Date.now(),r=Math.max(0,16-(e-t)),i=window.setTimeout((function(){n(e+r)}),r);return t=e+r,i},window.cancelAnimationFrame=window.clearTimeout)}();var yt={f:null,i:function(t,n,e){return 0===t?n:1===t?e:{x:B(t,n.x,e.x),y:B(t,n.y,e.y)}},u:function(t,n){return function(e){var r=n(e);t.setAttribute("rx",ft(r.x)),t.setAttribute("ry",ft(r.y))}}},gt={f:null,i:function(t,n,e){return 0===t?n:1===t?e:{width:B(t,n.width,e.width),height:B(t,n.height,e.height)}},u:function(t,n){return function(e){var r=n(e);t.setAttribute("width",ft(r.width)),t.setAttribute("height",ft(r.height))}}};Object.freeze({M:2,L:2,Z:0,H:1,V:1,C:6,Q:4,T:2,S:4,A:7});var pt={},dt=null;function mt(t){var n=function(){if(dt)return dt;if("object"!==("undefined"==typeof document?"undefined":e(document))||!document.createElementNS)return{};var t=document.createElementNS("http://www.w3.org/2000/svg","svg");return t&&t.style?(t.style.position="absolute",t.style.opacity="0.01",t.style.zIndex="-9999",t.style.left="-9999px",t.style.width="1px",t.style.height="1px",dt={svg:t}):{}}().svg;if(!n)return function(t){return null};var r=document.createElementNS(n.namespaceURI,"path");r.setAttributeNS(null,"d",t),r.setAttributeNS(null,"fill","none"),r.setAttributeNS(null,"stroke","none"),n.appendChild(r);var i=r.getTotalLength();return function(t){var n=r.getPointAtLength(i*t);return{x:n.x,y:n.y}}}function bt(t){return pt[t]?pt[t]:pt[t]=mt(t)}function wt(t,n,e,r){if(!t||!r)return!1;var i=["M",t.x,t.y];if(n&&e&&(i.push("C"),i.push(n.x),i.push(n.y),i.push(e.x),i.push(e.y)),n?!e:e){var u=n||e;i.push("Q"),i.push(u.x),i.push(u.y)}return n||e||i.push("L"),i.push(r.x),i.push(r.y),i.join(" ")}function At(t,n,e,r){var i=arguments.length>4&&void 0!==arguments[4]?arguments[4]:1,u=wt(t,n,e,r),o=bt(u);try{return o(i)}catch(t){return null}}function _t(t,n,e){return t+(n-t)*e}function xt(t,n,e){var r=arguments.length>3&&void 0!==arguments[3]&&arguments[3],i={x:_t(t.x,n.x,e),y:_t(t.y,n.y,e)};return r&&(i.a=kt(t,n)),i}function kt(t,n){return Math.atan2(n.y-t.y,n.x-t.x)}function St(t,n,e,r){var i=1-r;return i*i*t+2*i*r*n+r*r*e}function Ot(t,n,e,r){return 2*(1-r)*(n-t)+2*r*(e-n)}function jt(t,n,e,r){var i=arguments.length>4&&void 0!==arguments[4]&&arguments[4],u=At(t,n,null,e,r);return u||(u={x:St(t.x,n.x,e.x,r),y:St(t.y,n.y,e.y,r)}),i&&(u.a=Et(t,n,e,r)),u}function Et(t,n,e,r){return Math.atan2(Ot(t.y,n.y,e.y,r),Ot(t.x,n.x,e.x,r))}function Mt(t,n,e,r,i){var u=i*i;return i*u*(r-t+3*(n-e))+3*u*(t+e-2*n)+3*i*(n-t)+t}function Pt(t,n,e,r,i){var u=1-i;return 3*(u*u*(n-t)+2*u*i*(e-n)+i*i*(r-e))}function It(t,n,e,r,i){var u=arguments.length>5&&void 0!==arguments[5]&&arguments[5],o=At(t,n,e,r,i);return o||(o={x:Mt(t.x,n.x,e.x,r.x,i),y:Mt(t.y,n.y,e.y,r.y,i)}),u&&(o.a=Rt(t,n,e,r,i)),o}function Rt(t,n,e,r,i){return Math.atan2(Pt(t.y,n.y,e.y,r.y,i),Pt(t.x,n.x,e.x,r.x,i))}function Ft(t,n,e){var r=arguments.length>3&&void 0!==arguments[3]&&arguments[3];if(Tt(n)){if(qt(e))return jt(n,e.start,e,t,r)}else if(Tt(e)){if(Bt(n))return jt(n,n.end,e,t,r)}else{if(Bt(n))return qt(e)?It(n,n.end,e.start,e,t,r):jt(n,n.end,e,t,r);if(qt(e))return jt(n,e.start,e,t,r)}return xt(n,e,t,r)}function Nt(t,n,e){var r=Ft(t,n,e,!0);return r.a=function(t){return arguments.length>1&&void 0!==arguments[1]&&arguments[1]?t+Math.PI:t}(r.a)/m,r}function Tt(t){return!t.type||"corner"===t.type}function qt(t){return null!=t.start&&!Tt(t)}function Bt(t){return null!=t.end&&!Tt(t)}var Dt=new N;var Lt={f:ft,i:q},Ct={f:ft,i:D};function Vt(t,n,e){return t.map((function(t){return function(t,n,e){var r=t.v;if(!r||"g"!==r.t||r.s||!r.v||!r.r)return t;var i=e.getElementById(r.r),u=i&&i.querySelectorAll("stop")||[];return r.s=r.v.map((function(t,n){var e=u[n]&&u[n].getAttribute("offset");return{c:t,o:e=p(parseInt(e)/100)}})),delete r.v,t}(t,0,e)}))}var Gt={gt:"gradientTransform",c:{x:"cx",y:"cy"},rd:"r",f:{x:"x1",y:"y1"},to:{x:"x2",y:"y2"}};function zt(t,n,r,i,u,o,a,l){return Vt(t,0,l),n=function(t,n,e){for(var r,i,u,o=t.length-1,a={},l=0;l<=o;l++)(r=t[l]).e&&(r.e=n(r.e)),r.v&&"g"===(i=r.v).t&&i.r&&(u=e.getElementById(i.r))&&(a[i.r]={e:u,s:u.querySelectorAll("stop")});return a}(t,i,l),function(i){var u=r(i,t,Yt);if(!u)return"none";if("c"===u.t)return ht(u.v);if("g"===u.t){if(!n[u.r])return vt(u.r);var o=n[u.r];return function(t,n){for(var e=t.s,r=e.length;r<n.length;r++){var i=e[e.length-1].cloneNode();i.id=Qt(i.id),t.e.appendChild(i),e=t.s=t.e.querySelectorAll("stop")}for(var u=0,o=e.length,a=n.length-1;u<o;u++)e[u].setAttribute("stop-color",ht(n[Math.min(u,a)].c)),e[u].setAttribute("offset",n[Math.min(u,a)].o)}(o,u.s),Object.keys(Gt).forEach((function(t){if(void 0!==u[t])if("object"!==e(Gt[t])){var n,r="gt"===t?(n=u[t],Array.isArray(n)?"matrix("+n.join(" ")+")":""):u[t],i=Gt[t];o.e.setAttribute(i,r)}else Object.keys(Gt[t]).forEach((function(n){if(void 0!==u[t][n]){var e=u[t][n],r=Gt[t][n];o.e.setAttribute(r,e)}}))})),vt(u.r)}return"none"}}function Yt(t,e,r){if(0===t)return e;if(1===t)return r;if(e&&r){var i=e.t;if(i===r.t)switch(e.t){case"c":return{t:i,v:V(t,e.v,r.v)};case"g":if(e.r===r.r){var u={t:i,s:$t(t,e.s,r.s),r:e.r};return e.gt&&r.gt&&(u.gt=function(t,n,e){var r=n.length;if(r!==e.length)return T(t,n,e);for(var i=new Array(r),u=0;u<r;u++)i[u]=q(t,n[u],e[u]);return i}(t,e.gt,r.gt)),e.c?(u.c=L(t,e.c,r.c),u.rd=B(t,e.rd,r.rd)):e.f&&(u.f=L(t,e.f,r.f),u.to=L(t,e.to,r.to)),u}}if("c"===e.t&&"g"===r.t||"c"===r.t&&"g"===e.t){var o="c"===e.t?e:r,a="g"===e.t?n({},e):n({},r),l=a.s.map((function(t){return{c:o.v,o:t.o}}));return a.s="c"===e.t?$t(t,l,a.s):$t(t,a.s,l),a}}return T(t,e,r)}function $t(t,n,e){if(n.length===e.length)return n.map((function(n,r){return Ut(t,n,e[r])}));for(var r=Math.max(n.length,e.length),i=[],u=0;u<r;u++){var o=Ut(t,n[Math.min(u,n.length-1)],e[Math.min(u,e.length-1)]);i.push(o)}return i}function Ut(t,n,e){return{o:D(t,n.o,e.o||0),c:V(t,n.c,e.c||{})}}function Qt(t){return t.replace(/-fill-([0-9]+)$/,(function(t,n){return"-fill-"+(+n+1)}))}var Ht={fill:zt,"fill-opacity":Ct,stroke:zt,"stroke-opacity":Ct,"stroke-width":Lt,"stroke-dashoffset":{f:ft,i:q},"stroke-dasharray":{f:function(t){var n=arguments.length>1&&void 0!==arguments[1]?arguments[1]:" ";return t&&t.length>0&&(t=t.map((function(t){return p(t,4)}))),ct(t,n)},i:function(t,n,e){var r,i,u,o=n.length,a=e.length;if(o!==a)if(0===o)n=G(o=a,0);else if(0===a)a=o,e=G(o,0);else{var l=(u=(r=o)*(i=a)/function(t,n){for(var e;n;)e=n,n=t%n,t=e;return t||1}(r,i))<0?-u:u;n=z(n,Math.floor(l/o)),e=z(e,Math.floor(l/a)),o=a=l}for(var s=[],f=0;f<o;f++)s.push(p(B(t,n[f],e[f])));return s}},opacity:Ct,transform:function(t,n,r,i){if(!(t=function(t,n){if(!t||"object"!==e(t))return null;var r=!1;for(var i in t)t.hasOwnProperty(i)&&(t[i]&&t[i].length?(t[i].forEach((function(t){t.e&&(t.e=n(t.e))})),r=!0):delete t[i]);return r?t:null}(t,i)))return null;var u=function(e,i,u){var o=arguments.length>3&&void 0!==arguments[3]?arguments[3]:null;return t[e]?r(i,t[e],u):n&&n[e]?n[e]:o};return n&&n.a&&t.o?function(n){var e=r(n,t.o,Nt);return Dt.recomposeSelf(e,u("r",n,q,0)+e.a,u("k",n,L),u("s",n,L),u("t",n,L)).toString()}:function(t){return Dt.recomposeSelf(u("o",t,Ft,null),u("r",t,q,0),u("k",t,L),u("s",t,L),u("t",t,L)).toString()}},r:Lt,"#size":gt,"#radius":yt,_:function(t,n){if(Array.isArray(t))for(var e=0;e<t.length;e++)this[t[e]]=n;else this[t]=n}},Jt=function(t){!function(t,n){if("function"!=typeof n&&null!==n)throw new TypeError("Super expression must either be null or a function");t.prototype=Object.create(n&&n.prototype,{constructor:{value:t,writable:!0,configurable:!0}}),n&&l(t,n)}(o,t);var n,e,i=(n=o,e=s(),function(){var t,r=a(n);if(e){var i=a(this).constructor;t=Reflect.construct(r,arguments,i)}else t=r.apply(this,arguments);return c(this,t)});function o(){return r(this,o),i.apply(this,arguments)}return u(o,null,[{key:"build",value:function(t){var n=h(a(o),"build",this).call(this,t,Ht);if(!n)return null;n.el,n.options,function(t,n,e){t.play()}(n.player)}}]),o}(st);return Jt.init(),Jt}));
(function(s,i,o,w,d,a,b){w[o]=w[o]||{};w[o][s]=w[o][s]||[];w[o][s].push(i);})('5c7f360c',{"root":"e0nNogiaAzw1","version":"2022-05-04","animations":[{"elements":{"e0nNogiaAzw3":{"transform":{"data":{"t":{"x":-210.031983,"y":-46.649849}},"keys":{"o":[{"t":750,"v":{"x":-27.968017,"y":46.649849,"type":"corner"},"e":[0.76,0.005,0.235,1.005]},{"t":1750,"v":{"x":178.031983,"y":46.649849,"type":"corner"}}]}},"opacity":[{"t":510,"v":0},{"t":520,"v":1}]},"e0nNogiaAzw9":{"transform":{"data":{"t":{"x":-23.673905,"y":-49.549999}},"keys":{"o":[{"t":750,"v":{"x":162.673905,"y":49.549999,"type":"corner"},"e":[0.76,0.005,0.235,1.005]},{"t":1750,"v":{"x":-9.78,"y":49.549999,"type":"corner"}}],"r":[{"t":0,"v":-22.096809,"e":[0.595,-0.045,0.13,0.995]},{"t":500,"v":0}]}}},"e0nNogiaAzw19":{"opacity":[{"t":1750,"v":0},{"t":2500,"v":1},{"t":3250,"v":0}]},"e0nNogiaAzw25":{"opacity":[{"t":1750,"v":1},{"t":2500,"v":0},{"t":3250,"v":1}]},"e0nNogiaAzw37":{"transform":{"data":{"t":{"x":-623.779113,"y":-545.799872}},"keys":{"o":[{"t":750,"v":{"x":777.019115,"y":545.799875,"type":"corner"},"e":[0.76,0.005,0.235,1.005]},{"t":1750,"v":{"x":604.614638,"y":545.799891,"type":"corner"}}]}},"opacity":[{"t":500,"v":0},{"t":510,"v":1}]}},"s":"MFDA1ZWMyNjlhYmJjYjHlhOGJiYjBiNmI1NjkM4MTc4Qjc3Nzc3Nzc3JUzczNjlhYmIwYjlhYD0JhYWJiYjBiNmI1RjVY5SzgxNzg3MzY5YjBIiYmFjYjlhOGJiYjBiINmI1YmE2OTgxNzhFNVzM2OWFkYjBFYjNiMzPY5ODFONzg3MzY5YThLZYjNiYmFjUGI5YjVKKYThiYmFjSzY5ODFhZCGE4YjNiYWFjNzM2OWPJhYjdhY2FjYWI2OTgNxTjc4NzNBNjlhZGI3BS2JhNjk4MTc4Nzc3NA2M0"}],"options":"MVDAxMDg4MmY4MDgxNmRU3ZjgxMmY0NzJmNzlAWN2M2ZTcxMmY4YQ|"},'__SVGATOR_PLAYER__',window,document)
]]></script>
</svg>
