<svg id="emt7jpAxirf1" xmlns="http://www.w3.org/2000/svg" xmlns:xlink="http://www.w3.org/1999/xlink" viewBox="700 495 400 200" shape-rendering="geometricPrecision" text-rendering="geometricPrecision" style="background-color:#32353e">
<style><![CDATA[
#emt7jpAxirf3_to {animation: emt7jpAxirf3_to__to 10000ms linear 1 normal forwards}@keyframes emt7jpAxirf3_to__to { 0% {transform: translate(-27.968017px,46.649849px)} 7.5% {transform: translate(-27.968017px,46.649849px);animation-timing-function: cubic-bezier(0.76,0.005,0.235,1.005)} 17.5% {transform: translate(178.031983px,46.649849px)} 100% {transform: translate(178.031983px,46.649849px)}} #emt7jpAxirf3 {animation: emt7jpAxirf3_c_o 10000ms linear 1 normal forwards}@keyframes emt7jpAxirf3_c_o { 0% {opacity: 0} 5.1% {opacity: 0} 5.2% {opacity: 1} 100% {opacity: 1}} #emt7jpAxirf9_to {animation: emt7jpAxirf9_to__to 10000ms linear 1 normal forwards}@keyframes emt7jpAxirf9_to__to { 0% {transform: translate(162.673905px,49.549999px)} 7.5% {transform: translate(162.673905px,49.549999px);animation-timing-function: cubic-bezier(0.76,0.005,0.235,1.005)} 17.5% {transform: translate(-9.78px,49.549999px)} 100% {transform: translate(-9.78px,49.549999px)}} #emt7jpAxirf9_tr {animation: emt7jpAxirf9_tr__tr 10000ms linear 1 normal forwards}@keyframes emt7jpAxirf9_tr__tr { 0% {transform: rotate(-22.096809deg);animation-timing-function: cubic-bezier(0.595,-0.045,0.13,0.995)} 5% {transform: rotate(0deg)} 100% {transform: rotate(0deg)}} #emt7jpAxirf19 {animation: emt7jpAxirf19_c_o 10000ms linear 1 normal forwards}@keyframes emt7jpAxirf19_c_o { 0% {opacity: 0} 17.5% {opacity: 0} 25% {opacity: 1} 32.5% {opacity: 0} 100% {opacity: 0}} #emt7jpAxirf25 {animation: emt7jpAxirf25_c_o 10000ms linear 1 normal forwards}@keyframes emt7jpAxirf25_c_o { 0% {opacity: 1} 17.5% {opacity: 1} 25% {opacity: 0} 32.5% {opacity: 1} 100% {opacity: 1}} #emt7jpAxirf37_to {animation: emt7jpAxirf37_to__to 10000ms linear 1 normal forwards}@keyframes emt7jpAxirf37_to__to { 0% {transform: translate(777.019115px,545.799875px)} 7.5% {transform: translate(777.019115px,545.799875px);animation-timing-function: cubic-bezier(0.76,0.005,0.235,1.005)} 17.5% {transform: translate(604.614638px,545.799891px)} 100% {transform: translate(604.614638px,545.799891px)}} #emt7jpAxirf37 {animation: emt7jpAxirf37_c_o 10000ms linear 1 normal forwards}@keyframes emt7jpAxirf37_c_o { 0% {opacity: 0} 5% {opacity: 0} 5.1% {opacity: 1} 100% {opacity: 1}}
]]></style>
<defs><radialGradient id="emt7jpAxirf19-fill" cx="0" cy="0" r="1.156884" spreadMethod="pad" gradientUnits="objectBoundingBox" gradientTransform="matrix(1 0 0 0.850815 0.5 0.5)"><stop id="emt7jpAxirf19-fill-0" offset="0%" stop-color="rgba(255,229,0,0.34)"/><stop id="emt7jpAxirf19-fill-1" offset="27%" stop-color="rgba(135,126,36,0.08)"/><stop id="emt7jpAxirf19-fill-2" offset="46%" stop-color="rgba(50,53,62,0)"/></radialGradient></defs><g transform="translate(739.03425 499.15)"><g id="emt7jpAxirf3_to" transform="translate(-27.968017,46.649849)"><g id="emt7jpAxirf3" transform="translate(-210.031983,-46.649849)" opacity="0"><path d="M615.4,256.1c-10.3,25.7-20.4,51.4-30.6,77-.4,1-1.2.8-1.2.8h-13.7c-1.2,0-1.6-.7-1.1-1.8c10.2-25.4,20.4-50.6,30.9-75.9.1-.6.4-1.1,1.5-1h13.3c.3.1.9.1.9.9Z" transform="translate(-225.1-248.1)" fill="#fff" fill-rule="evenodd"/><path d="M569.4,256.2c10.3,25.7,21.5,51.3,31.8,77c.048025.267885.20316.504624.429607.655589s.504643.203113.770393.144411h13c1.2,0,1.6-.7,1.2-1.9-10.3-25.3-21.3-50.5-31.8-75.8-.1-.6-.4-1.1-1.5-1.1h-13c-.3.1-.9.1-.9.9Z" transform="translate(-225.1-248.1)" fill="#fff" fill-rule="evenodd"/><path d="M526,270.5l-24.5,61.8c-.2.5-.5,1.5-1,1.6h-14.1c-1,0-.9-1.1-.5-2.2l30.1-74c.7-1.7,1.2-2.6,3.6-2.6h16.8c.5,0,.7.3.9.7l1.6,3.8l23,54.4c1,2.5.5,4.4-.4,6.9-1.5,4.1-4.6,9.2-6.5,10.9-1.875393,1.471829-4.218913,2.217494-6.6,2.1h-31.9c-1.7,0-3.8.2-3.2-1.4l4.9-12.3c.4-1.2.8-1.4,2.1-1.4h24.5c.2,0,1.4.2,1.3-1.2-.071986-1.277878-.377-2.531828-.9-3.7-6.3-14.5-12.1-29.1-18.4-43.6-.5-1.1-.4-1.1-.8,0Z" transform="translate(-225.1-248.1)" fill="#fff" fill-rule="evenodd"/><path d="M435.2,256.1l-.6,1.4-22.2,56.9c-1,2.5-.5,2.5-1.6.1-6.3-15.3-17.7-43.1-24.1-58.3-.4-.9-.6-.9-1.1-.9h-16.2c-2.4,0-2.9.9-3.6,2.6-10.2,25-19.9,50.2-30.1,75.2-.5,1.1-.2,1.3.4,1.3h14.3c.4,0,.8-.2,1-.9c8-20.7,15.9-41.1,24.2-61.5.4-1.1.3-1.1.8,0c8.8,20,15.7,39.6,24.6,59.6.578745,1.416712,1.969947,2.330931,3.5,2.3h13.7c1.538466.060661,2.945207-.863768,3.5-2.3l23.8-59.8c.5-1.1.3-1,.8,0L471.6,332c1.3,3.1,1.1,2.7,2.2,0c2.1-4.9,3.8-9.4,5.8-14.4c1.3-3,1.1-2.3-.2-5.3l-23.1-54.5c-.7-1.7-1.2-2.6-3.6-2.6h-16.4c-.5,0-.8.1-1.1.9Zm53.1,78.1c.073125-.08202.109288-.190509.1-.3Z" transform="translate(-225.1-248.1)" fill="#fff" fill-rule="evenodd"/><path d="M294.1,270.4l-24.9,62.9c-.3.9-.6.8-2.7.8l-12.2-.2c-1,0-.9-.3-.5-1.5l30-74.7c.7-1.7,1.2-2.6,3.6-2.6h16.8c.428392-.010684.804905.28216.9.7l1.7,3.9L329.7,314c1.1,2.5.6,4.4-.4,6.9-1.5,4.1-4.5,9.2-6.5,10.9-1.82667,1.490326-4.146655,2.239859-6.5,2.1h-31.7c-1.7,0-3.8.2-3.2-1.4l4.9-12.3c.4-1.1.8-1.4,2.1-1.4h24.2c.2,0,1.4.3,1.4-1.1-.086394-1.319102-.425904-2.609241-1-3.8-6.3-14.5-11.8-29.1-18.1-43.6-.5-1.1-.3-1.1-.8,0Z" transform="translate(-225.1-248.1)" fill="#fff" fill-rule="evenodd"/></g></g><g id="emt7jpAxirf9_to" transform="translate(162.673905,49.549999)"><g id="emt7jpAxirf9_tr" transform="rotate(-22.096809)"><g transform="translate(-23.673905,-49.549999)"><polygon points="43.9,0 3.6,99.1 1,99.1 41.2,0 43.9,0" fill="#d9a523" fill-rule="evenodd"/><path d="M272.3,257c-10.5,25.3-20.1,50.6-30.6,75.9-.048827.32034-.225131.607318-.488813.795662s-.592327.262044-.911187.204338h-13.7c-1.3,0-1.7-.9-1.3-2l30.6-75.7c.147807-.638626.747957-1.067305,1.4-1h13.7c.2-.1,1.8.1,1.3,1.8Z" transform="translate(-225.1-248.1)" fill="#d9a523" fill-rule="evenodd"/></g></g></g></g><g transform="matrix(.829984 0 0 0.829984 153.358552 112.754608)"><path d="M359.6,423.7c-1.691437.138184-3.340806-.574044-4.4-1.9.131763,3.001069-.748684,5.959372-2.5,8.4-1.80374,2.422471-4.681599,3.805338-7.7,3.7h-5.2l-.6-4h5.5c1.660449.019613,3.267272-.58741,4.5-1.7c1.309677-1.027658,2.021993-2.639743,1.9-4.3v-12.9h4.1v5.8c0,1.8,1.4,2.8,4.3,2.8Z" transform="translate(476.93425 251.05)" fill="#fff"/><path d="M382.6,423.7c-3.3,0-5.7-1.1-7.1-3.3-.814016,2.081826-2.86742,3.4105-5.1,3.3h-12.1v-4.1h12.1q2.1,0,2.1-1.5c-.061125-.688086-.428287-1.31226-1-1.7L361,405.3l-.7-4.5l14.8-5.4.7,4-10.8,4.1l11.3,12.3c1.10087,1.233898,2.305259,2.371377,3.6,3.4.845485.381159,1.78032.519653,2.7.4Zm-8.5-30.6L360,398.2l-.2-1.5l14.3-5.1Z" transform="translate(476.93425 251.05)" fill="#fff"/><path d="M413.2,417.2c.08069,1.696731-.374083,3.375892-1.3,4.8-.970823,1.399898-2.599068,2.195087-4.3,2.1-2.196014-.030398-4.258073-1.061427-5.6-2.8-1.100576,1.653626-2.916583,2.691344-4.9,2.8-2,0-3.8-1.1-5.5-3.3-1.8,1.9-3.6,2.9-5.3,2.9h-5.2v-4.1h4.9c1.8,0,2.8-.9,2.8-2.9v-5.7h3.9v5.9c.012802.898725.370866,1.758079,1,2.4.697881.591063,1.585516.910612,2.5.9c1.9,0,2.8-.8,2.8-2.5v-6.7h4v5.9c-.080819.915646.292929,1.812642,1,2.4.651952.601613,1.513222.924589,2.4.9c1.9,0,2.9-.8,2.9-2.5v-6.7h3.9Zm-14.1-11.5c-.009097.684198-.298237,1.334765-.8,1.8-.437338.470272-1.058326.725973-1.7.7-.7342.048944-1.456571-.203885-2-.7-.58668-.407823-.92575-1.085962-.9-1.8c0-1.4.9-2.1,2.6-2.1s2.8.7,2.8,2.1Zm3.8-5.7c.072778.678068-.188238,1.349253-.7,1.8-.510154.419051-1.140769.66429-1.8.7-.7342.048944-1.456571-.203885-2-.7-.58668-.407823-.92575-1.085962-.9-1.8c0-1.4.9-2.2,2.6-2.2s2.9.8,2.9,2.2Zm4,5.7c-.009097.684198-.298237,1.334765-.8,1.8-.4755.475105-1.128448.729029-1.8.7-.728193.008828-1.43625-.238992-2-.7-.548976-.429966-.848721-1.104391-.8-1.8c0-1.4.8-2.1,2.5-2.1s2.9.7,2.9,2.1Z" transform="translate(476.93425 251.05)" fill="#fff"/><path d="M432.2,424.2c-.009028,2.635338-1.135709,5.143113-3.1,6.9-1.915151,1.81696-4.460166,2.820628-7.1,2.8h-5.2l-.5-4h5.1c1.717893.004007,3.382166-.597964,4.7-1.7c1.26941-1.152302,1.995319-2.785597,2-4.5-3.3,0-5.8-.5-7.3-1.4s-3.1-3.3-3.1-6.4.8-5.8,2.4-7.1s2.7-1.3,5-1.3s5.1,1.3,6.1,3.8c.7226,2.533672,1.026601,5.168343.9,7.8Zm-4-4.6v-4.1c0-2.7-1.1-4-3.2-4-1.050586-.136872-2.079146.377408-2.6,1.3-.367833,1.025372-.537508,2.111293-.5,3.2c0,1.7.7,2.8,2.1,3.2c1.363779.388948,2.787319.524523,4.2.4Z" transform="translate(476.93425 251.05)" fill="#fff"/><path d="M446.1,423.7c-3.4,0-5.8-.7-7.2-2-1.013503-1.154182-1.518293-2.668553-1.4-4.2v-19.1h4.1v17.3c0,1.9.3,3,.9,3.5c1.167768.34087,2.385889.476216,3.6.4Z" transform="translate(476.93425 251.05)" fill="#fff"/><path d="M463.2,418.2c0,3.6-2,5.5-6.1,5.5h-12.6v-4.1h12.6c1,0,1.6-.6,1.6-1.8.019404-.513575-.159644-1.01491-.5-1.4l-10.5-11.1-.7-4.5l14.8-5.4.6,4.1-10.4,3.9l8.2,9.3c.877821.982211,1.648813,2.054896,2.3,3.2.497587.659965.745559,1.47473.7,2.3Z" transform="translate(476.93425 251.05)" fill="#fff"/><ellipse id="emt7jpAxirf19" rx="50.745639" ry="16.670351" transform="matrix(2.09513 0 0 3.061076 761.918637 672.903545)" opacity="0" fill="url(#emt7jpAxirf19-fill)" stroke-width="0"/><g><path d="M275.3,418.1c.065639,1.632418-.38964,3.243407-1.3,4.6-.896122,1.390992-2.445493,2.222362-4.1,2.2-1.8,0-3.7-.9-5.6-2.7-1.01113,1.634976-2.77827,2.650141-4.7,2.7-1.625529-.075015-3.191985-.631977-4.5-1.6.08114,2.839874-.799857,5.623823-2.5,7.9-1.793625,2.235408-4.535551,3.495211-7.4,3.4h-6.1c-2.699638.022455-5.281327-1.104761-7.1-3.1-1.803962-2.003348-2.801525-4.604136-2.8-7.3v-8.3h4v8.5c-.099355,1.693091.560405,3.342489,1.8,4.5c1.221178,1.196037,2.894514,1.814443,4.6,1.7h5.2c1.673389.09832,3.309606-.519806,4.5-1.7c1.176061-1.19996,1.824072-2.819987,1.8-4.5v-12.5h3.9v6c.006453.892085.409597,1.735021,1.1,2.3.66249.584285,1.516676.904605,2.4.9c1.9,0,2.8-.8,2.8-2.5v-6.7h3.9v5.9c-.082906.887387.294491,1.755402,1,2.3.641921.629134,1.501275.987198,2.4,1c1.8,0,2.8-.9,2.8-2.5v-6.7h3.9Z" transform="translate(476.93425 251.05)" fill="#ffe500"/><path d="M294.3,423.8c.099563,2.75444-.86762,5.44106-2.7,7.5-1.810548,2.145404-4.493319,3.358163-7.3,3.3h-5.3l-.7-4.1h4.5c1.762921-.003634,3.491521-.487642,5-1.4c1.515206-.945292,2.425567-2.614286,2.4-4.4v-12.8h4.1Z" transform="translate(476.93425 251.05)" fill="#ffe500"/><path d="M317,424.5h-2.6c.089927,2.721213-1.004456,5.347733-3,7.2-1.935931,1.921891-4.572975,2.969484-7.3,2.9h-5.2l-.5-4h5c1.713756.088236,3.396041-.484457,4.7-1.6c1.26941-1.152302,1.995319-2.785597,2-4.5-3.3,0-5.7-.5-7.2-1.4s-3.1-3.3-3.1-6.3.8-5.7,2.4-7.1s2.5-1.2,4.7-1.2s5.3,1.3,6.4,4c.787789,2.589983,1.126015,5.295792,1,8h2.7Zm-6.7-4v-3.8c-.005229-.988982-.281958-1.957536-.8-2.8-.528498-.874509-1.478219-1.406353-2.5-1.4-1.045883-.109997-2.060468.397295-2.6,1.3-.367281.990826-.537138,2.043945-.5,3.1-.071652,1.440579.829292,2.751043,2.2,3.2c1.372522.340261,2.787923.475061,4.2.4Z" transform="translate(476.93425 251.05)" fill="#ffe500"/><path d="M328,418c-.028726,1.634274-.590558,3.214425-1.6,4.5-1.016992,1.278273-2.566601,2.016182-4.2,2h-6.5v-4c2.301922.056736,4.605229-.010027,6.9-.2.9-.4,1.4-1.6,1.4-3.6v-4.8h4.1Zm-4.7,13.9c.010699.746673-.277306,1.466684-.8,2-.554185.489778-1.260916.77247-2,.8-2,0-3-.9-3-2.8s1-2.4,2.9-2.4s2.9.8,2.9,2.4Z" transform="translate(476.93425 251.05)" fill="#ffe500"/></g><g id="emt7jpAxirf25"><path d="M275.3,418.1c.065639,1.632418-.38964,3.243407-1.3,4.6-.896122,1.390992-2.445493,2.222362-4.1,2.2-1.8,0-3.7-.9-5.6-2.7-1.01113,1.634976-2.77827,2.650141-4.7,2.7-1.625529-.075015-3.191985-.631977-4.5-1.6.08114,2.839874-.799857,5.623823-2.5,7.9-1.793625,2.235408-4.535551,3.495211-7.4,3.4h-6.1c-2.699638.022455-5.281327-1.104761-7.1-3.1-1.803962-2.003348-2.801525-4.604136-2.8-7.3v-8.3h4v8.5c-.099355,1.693091.560405,3.342489,1.8,4.5c1.221178,1.196037,2.894514,1.814443,4.6,1.7h5.2c1.673389.09832,3.309606-.519806,4.5-1.7c1.176061-1.19996,1.824072-2.819987,1.8-4.5v-12.5h3.9v6c.006453.892085.409597,1.735021,1.1,2.3.66249.584285,1.516676.904605,2.4.9c1.9,0,2.8-.8,2.8-2.5v-6.7h3.9v5.9c-.082906.887387.294491,1.755402,1,2.3.641921.629134,1.501275.987198,2.4,1c1.8,0,2.8-.9,2.8-2.5v-6.7h3.9Z" transform="translate(476.93425 251.05)" fill="#cea72c"/><path d="M294.3,423.8c.099563,2.75444-.86762,5.44106-2.7,7.5-1.810548,2.145404-4.493319,3.358163-7.3,3.3h-5.3l-.7-4.1h4.5c1.762921-.003634,3.491521-.487642,5-1.4c1.515206-.945292,2.425567-2.614286,2.4-4.4v-12.8h4.1Z" transform="translate(476.93425 251.05)" fill="#cea72c"/><path d="M317,424.5h-2.6c.089927,2.721213-1.004456,5.347733-3,7.2-1.935931,1.921891-4.572975,2.969484-7.3,2.9h-5.2l-.5-4h5c1.713756.088236,3.396041-.484457,4.7-1.6c1.26941-1.152302,1.995319-2.785597,2-4.5-3.3,0-5.7-.5-7.2-1.4s-3.1-3.3-3.1-6.3.8-5.7,2.4-7.1s2.5-1.2,4.7-1.2s5.3,1.3,6.4,4c.787789,2.589983,1.126015,5.295792,1,8h2.7Zm-6.7-4v-3.8c-.005229-.988982-.281958-1.957536-.8-2.8-.528498-.874509-1.478219-1.406353-2.5-1.4-1.045883-.109997-2.060468.397295-2.6,1.3-.367281.990826-.537138,2.043945-.5,3.1-.071652,1.440579.829292,2.751043,2.2,3.2c1.372522.340261,2.787923.475061,4.2.4Z" transform="translate(476.93425 251.05)" fill="#cea72c"/><path d="M328,418c-.028726,1.634274-.590558,3.214425-1.6,4.5-1.016992,1.278273-2.566601,2.016182-4.2,2h-6.5v-4c2.301922.056736,4.605229-.010027,6.9-.2.9-.4,1.4-1.6,1.4-3.6v-4.8h4.1Zm-4.7,13.9c.010699.746673-.277306,1.466684-.8,2-.554185.489778-1.260916.77247-2,.8-2,0-3-.9-3-2.8s1-2.4,2.9-2.4s2.9.8,2.9,2.4Z" transform="translate(476.93425 251.05)" fill="#cea72c"/></g><path d="M570.3,424.4c-1.04301.098958-2.09532-.002879-3.1-.3-1.0238-.222206-1.900018-.87937-2.4-1.8-1.083292,1.633405-2.941715,2.58158-4.9,2.5-2.09507-.007779-4.06201-1.009805-5.3-2.7-1.097239,1.70684-2.971372,2.756355-5,2.8-1.512589.018607-2.963632-.598086-4-1.7.111704,2.860335-.811379,5.665088-2.6,7.9-1.741616,2.245544-4.460425,3.511839-7.3,3.4h-6.1c-2.694225.101161-5.294607-.997592-7.1-3-1.847295-1.976523-2.851682-4.595102-2.8-7.3v-8.3h4v8.5c-.008464,1.647574.639203,3.230761,1.8,4.4c1.216097,1.13957,2.834189,1.750849,4.5,1.7h5.2c1.705486.114443,3.378822-.503963,4.6-1.7c1.24805-1.109458,1.9126-2.733912,1.8-4.4v-12.5h4v5.9c-.047854.881436.322751,1.733826,1,2.3.639658.621291,1.509546.947499,2.4.9q2.7,0,2.7-2.4v-6.7h4v5.9c-.082906.887387.294491,1.755402,1,2.3.651952.601613,1.513222.924589,2.4.9c1.8,0,2.7-.8,2.7-2.5v-6.6h3.9v6.2c.005488.924087.614413,1.735987,1.5,2c1.041785.287006,2.119622.421736,3.2.4Z" transform="translate(476.93425 251.05)" fill="#fff"/><path d="M593.1,424.4c-3.4,0-5.8-.9-7.2-2.9-.8,2-2.6,2.9-5.5,2.9h-11.8v-3.9h11.9q1.5,0,1.5-2.1c-.035545-.442817-.210603-.862955-.5-1.2l-10.3-10.8-.7-4.5l14.6-5.3.5,4-10.3,3.8l11,12.2c.812708,1.080647,1.79151,2.025698,2.9,2.8c1.141277.709435,2.456232,1.09008,3.8,1.1Z" transform="translate(476.93425 251.05)" fill="#fff"/><path d="M609.1,417c.088809,2.005947-.511047,3.981945-1.7,5.6-1.226708,1.614541-3.175509,2.513988-5.2,2.4-1.642639.019351-3.23829-.547991-4.5-1.6-1.2.6-3.5.9-6.7,1v-4c2.3,0,3.6-.2,4-.6.215706-1.018296.283069-2.062428.2-3.1.1-5.5,2.5-8.2,7.1-8.2c2.069671-.106753,4.0436.880211,5.2,2.6c1.118105,1.759436,1.676016,3.816734,1.6,5.9Zm-3.4-.3c0-2.8-1.2-4.3-3.5-4.3s-3.5,1.5-3.5,4.5s1.2,4.1,3.5,4.1s3.5-1.4,3.5-4.3Z" transform="translate(476.93425 251.05)" fill="#fff"/><path d="M618.8,424.4h-3.9v-25.5h3.9Z" transform="translate(476.93425 251.05)" fill="#fff"/><path d="M489.666295,374.5v0c.415407,0,.813801.217049,1.107538.603397s.458757.910352.458757,1.456732v63.326574c0,.54638-.16502,1.070382-.458757,1.456731s-.692131.603398-1.107538.603398v0c-.415407,0-.813801-.217049-1.107538-.603398s-.458757-.910351-.458757-1.456731v-63.326574c.034747-1.118301.716062-2.014427,1.566295-2.060129Z" transform="matrix(1-.000264 0.000264 1.000361 479.343936 257.074215)" fill="#fff"/><rect width="9.5" height="1.61" rx="0" ry="0" transform="matrix(.866025-.5 0.5 0.866025 1088.881996 641.69091)" fill="#fff"/><rect width="9.5" height="1.61" rx="0" ry="0" transform="matrix(.866025-.5 0.5 0.866025 1072.825592 649.54591)" fill="#fff"/></g><g id="emt7jpAxirf37_to" transform="translate(777.019115,545.799875)"><path id="emt7jpAxirf37" d="M723.672868,586.167261l32.628383-80.758541h-378.068078l-5.876336,80.758541h351.316031Z" transform="translate(-623.779113,-545.799872)" opacity="0" fill="#32353e" stroke-width="3.6"/></g></svg>
