<?xml version="1.0" encoding="UTF-8" standalone="no"?>
<!-- Created with Inkscape (http://www.inkscape.org/) -->

<svg
   width="100mm"
   height="100mm"
   viewBox="0 0 100 100"
   version="1.1"
   id="svg936"
   inkscape:version="1.1.2 (0a00cf5339, 2022-02-04, custom)"
   sodipodi:docname="loading-welcome.svg"
   xmlns:inkscape="http://www.inkscape.org/namespaces/inkscape"
   xmlns:sodipodi="http://sodipodi.sourceforge.net/DTD/sodipodi-0.dtd"
   xmlns="http://www.w3.org/2000/svg"
   xmlns:svg="http://www.w3.org/2000/svg">
  <sodipodi:namedview
     id="namedview938"
     pagecolor="#ffffff"
     bordercolor="#666666"
     borderopacity="1.0"
     inkscape:pageshadow="2"
     inkscape:pageopacity="1"
     inkscape:pagecheckerboard="false"
     inkscape:document-units="mm"
     showgrid="false"
     inkscape:zoom="0.75187991"
     inkscape:cx="168.90995"
     inkscape:cy="130.33996"
     inkscape:window-width="1366"
     inkscape:window-height="699"
     inkscape:window-x="0"
     inkscape:window-y="0"
     inkscape:window-maximized="1"
     inkscape:current-layer="layer1" />
  <defs
     id="defs933" />
  <g
     inkscape:label="Layer 1"
     inkscape:groupmode="layer"
     id="layer1">
    <path
       fill-rule="evenodd"
       clip-rule="evenodd"
       d="m 64.2617,25.763519 -3.164802,7.950737 c -0.02519,0.06471 -0.05826,0.193982 -0.122813,0.194455 l -1.821729,0.01307 c -0.127537,7.87e-4 -0.113366,-0.139503 -0.05511,-0.282943 l 3.871764,-9.506371 c 0.0929,-0.224685 0.160602,-0.330494 0.46921,-0.330966 0.648705,-0.0011 1.470609,-0.0043 2.083101,1.58e-4 0.04724,4.72e-4 0.06141,0.0027 0.0803,0.0063 0.05983,0.0031 0.0929,0.03637 0.118089,0.09368 l 0.209412,0.493772 2.95539,6.987914 c 0.136984,0.32451 0.07243,0.562894 -0.04566,0.884255 -0.192093,0.528569 -0.588874,1.186407 -0.842373,1.400228 -0.210987,0.176977 -0.481806,0.26767 -0.843947,0.268142 -1.613892,0.0024 -2.501925,-0.01102 -4.115817,-0.0087 -0.220434,3.15e-4 -0.491253,0.02047 -0.412526,-0.177607 L 63.254,32.161731 c 0.05826,-0.144384 0.105493,-0.170993 0.277117,-0.171151 1.319455,-0.0017 1.8359,0.01275 3.155355,0.01055 0.01732,0 0.179496,0.02929 0.171623,-0.15021 -0.01102,-0.203587 -0.07873,-0.384185 -0.122813,-0.482436 -0.815606,-1.867705 -1.558783,-3.735411 -2.374389,-5.603116 -0.05983,-0.140448 -0.04251,-0.142652 -0.09919,-0.0019 z"
       fill="#ffffff"
       id="path4"
       style="stroke-width:0.157453" />
    <path
       fill-rule="evenodd"
       clip-rule="evenodd"
       d="m 34.371644,25.752182 -3.206369,8.08536 c -0.04582,0.11557 -0.08487,0.100455 -0.359308,0.105493 l -1.564766,-0.02866 c -0.127851,-0.0024 -0.121868,-0.04283 -0.06408,-0.186582 l 3.865152,-9.606669 c 0.09069,-0.225 0.159657,-0.330493 0.468894,-0.330965 0.649021,-9.45e-4 1.47061,-0.0041 2.082786,3.14e-4 0.04692,4.73e-4 0.06188,0.0027 0.08109,0.0063 0.05967,0.0031 0.09274,0.03637 0.116988,0.09353 l 0.209412,0.493772 2.955547,6.987913 c 0.137299,0.32451 0.07196,0.563051 -0.04519,0.884255 -0.19288,0.528569 -0.588716,1.186565 -0.843317,1.400386 -0.210672,0.176977 -0.481019,0.267669 -0.843003,0.268142 -1.614836,0.0022 -2.465238,-0.01087 -4.080075,-0.0087 -0.220434,1.57e-4 -0.49141,0.02031 -0.412683,-0.177607 l 0.631228,-1.588069 c 0.05747,-0.144227 0.104549,-0.170836 0.276645,-0.170994 1.318824,-0.0016 1.799843,0.01275 3.118668,0.01055 0.01795,0 0.179653,0.02929 0.170836,-0.15021 -0.01024,-0.203586 -0.07873,-0.384184 -0.121554,-0.482435 -0.815763,-1.867705 -1.522096,-3.735411 -2.337859,-5.603116 -0.05967,-0.140448 -0.04298,-0.143282 -0.09904,-0.0017 z"
       fill="#ffffff"
       id="path6"
       style="stroke-width:0.157453" />
    <path
       fill-rule="evenodd"
       clip-rule="evenodd"
       d="m 31.559064,24.028389 c -1.350945,3.25392 -2.592145,6.50784 -3.943091,9.76176 -0.04519,0.132417 -0.128166,0.118876 -0.177134,0.127851 -0.590606,-3.15e-4 -1.181211,-6.3e-4 -1.771659,-9.44e-4 -0.166585,-1.58e-4 -0.224056,-0.114941 -0.165326,-0.259798 l 3.943721,-9.733575 c 0.0244,-0.06219 0.05259,-0.130057 0.184692,-0.128797 0.587772,0.0052 1.175543,1.58e-4 1.763314,1.58e-4 0.02661,-0.0085 0.227992,0.0211 0.165641,0.233187 z"
       fill="#d9a523"
       id="path8"
       style="stroke-width:0.157453" />
    <path
       fill-rule="evenodd"
       clip-rule="evenodd"
       d="m 52.552091,23.911244 c -0.02566,0.0603 -0.05322,0.121711 -0.0781,0.185637 l -2.852573,7.312896 c -0.133677,0.319787 -0.07574,0.325297 -0.20705,0.01071 -0.813087,-1.966114 -2.282437,-5.539348 -3.113473,-7.498691 -0.0444,-0.104391 -0.074,-0.106281 -0.139503,-0.106753 -0.612019,-0.0038 -1.433765,-0.0013 -2.082786,-3.15e-4 -0.309237,4.73e-4 -0.376784,0.106596 -0.468737,0.331123 -1.317407,3.208417 -2.561757,6.453519 -3.879007,9.661935 -0.06251,0.152257 -0.02818,0.176662 0.05448,0.176662 0.636425,3.15e-4 1.199948,7.88e-4 1.836215,0.0011 0.05952,0 0.100298,-0.02677 0.136827,-0.120767 1.030528,-2.656229 2.039329,-5.284116 3.115519,-7.907753 0.05526,-0.134779 0.03684,-0.136511 0.09542,-0.0025 1.143737,2.576086 2.032401,5.091867 3.175666,7.667637 0.07951,0.178867 0.247831,0.295224 0.455353,0.29491 0.491253,-6.3e-4 1.271117,0.0126 1.762212,0.01323 0.207523,3.14e-4 0.382768,-0.112894 0.455354,-0.29491 L 53.88367,25.94396 c 0.05857,-0.13415 0.03889,-0.131631 0.09557,0.0025 l 3.264784,7.728729 c 0.1669,0.394419 0.143282,0.345924 0.286564,9.45e-4 0.26767,-0.641621 0.492827,-1.213017 0.752625,-1.858258 0.155878,-0.38639 0.133834,-0.290186 -0.02677,-0.679724 l -2.976646,-7.003187 c -0.09479,-0.22311 -0.1595,-0.330493 -0.468737,-0.330966 -0.649021,-0.0011 -1.507453,-0.0033 -2.119315,3.15e-4 -0.06518,4.73e-4 -0.0951,0.0024 -0.139503,0.106753 z m 6.844317,10.04423 c 0.0079,-0.0082 0.0126,-0.01984 0.01417,-0.03606 z"
       fill="#ffffff"
       id="path10"
       style="stroke-width:0.157453" />
    <path
       fill-rule="evenodd"
       clip-rule="evenodd"
       d="m 75.777799,23.919589 c -1.327327,3.299109 -2.616866,6.59806 -3.944193,9.897169 -0.04724,0.122183 -0.154304,0.104234 -0.154304,0.104234 -0.585724,-6.3e-4 -1.169874,-0.0014 -1.754024,-0.0022 -0.155878,-1.58e-4 -0.210987,-0.09542 -0.152729,-0.241376 1.322603,-3.260218 2.631036,-6.496346 3.981982,-9.744597 0.02362,-0.07731 0.05668,-0.142967 0.195241,-0.138244 0.558958,1.58e-4 1.154129,1.58e-4 1.713087,3.15e-4 0.04724,0.01512 0.11494,0.01496 0.11494,0.124703 z"
       fill="#ffffff"
       id="path12"
       style="stroke-width:0.157453" />
    <path
       fill-rule="evenodd"
       clip-rule="evenodd"
       d="m 69.859148,23.930138 c 1.327327,3.298952 2.763297,6.59806 4.090624,9.897012 0.04724,0.122341 0.154304,0.104391 0.154304,0.104391 0.585724,-7.87e-4 1.095871,-0.0016 1.681596,-0.0022 0.154304,-1.58e-4 0.210987,-0.09557 0.151155,-0.241533 -1.322604,-3.260218 -2.739679,-6.496346 -4.090625,-9.74444 -0.02362,-0.07731 -0.05668,-0.143125 -0.195241,-0.138243 -0.558958,1.57e-4 -1.117915,1.57e-4 -1.676873,3.14e-4 -0.04724,0.01496 -0.11494,0.0148 -0.11494,0.124703 z"
       fill="#ffffff"
       id="path14"
       style="stroke-width:0.157453" />
    <path
       fill-rule="evenodd"
       clip-rule="evenodd"
       d="M 31.12969,22.886068 25.944612,35.621325 H 25.60042 l 5.185079,-12.735257 z"
       fill="#d9a523"
       id="path16"
       style="stroke-width:0.157453" />
    <rect
       x="67.834305"
       y="65.240875"
       width="0.94471693"
       height="16.375093"
       rx="0.47235847"
       fill="#ffffff"
       id="rect18"
       style="stroke-width:0.157453" />
    <path
       d="m 8.1135521,72.261698 c 0,0.169734 -0.062666,0.310025 -0.1881561,0.420714 -0.1218685,0.11069 -0.2694018,0.165955 -0.4429148,0.165955 -0.4723584,0 -0.7085377,-0.195556 -0.7085377,-0.586669 0,-0.36529 0.2177573,-0.548093 0.6532718,-0.548093 0.4575579,0 0.6863368,0.182803 0.6863368,0.548093 z m -1.9207669,0 c 0,0.169734 -0.062824,0.310025 -0.1883136,0.420714 -0.121711,0.11069 -0.2675123,0.165955 -0.4372465,0.165955 -0.4723584,0 -0.7085377,-0.195556 -0.7085377,-0.586669 0,-0.36529 0.2141359,-0.548093 0.6420926,-0.548093 0.4613368,0 0.6920052,0.182803 0.6920052,0.548093 z m 5.4247218,4.78814 c -0.789783,0 -1.317408,-0.129111 -1.583188,-0.387491 -0.3394682,0.25838 -0.6605145,0.387491 -0.9631388,0.387491 H 3.8235926 c -0.4133137,0 -0.7582928,-0.169734 -1.0350948,-0.509202 C 2.5301177,76.223211 2.4010064,75.85241 2.4010064,75.427917 v -1.505564 h 0.9963614 v 1.367163 c 0,0.284202 0.055266,0.483538 0.1661127,0.597848 0.1106894,0.11069 0.3043563,0.166113 0.5811584,0.166113 h 4.6332067 c 0.276802,0 0.4668476,-0.05542 0.5701366,-0.166113 0.107068,-0.11431 0.1604445,-0.313646 0.1604445,-0.597848 v -1.367163 h 1.0130513 v 1.367163 c 0,0.50936 0.365291,0.763961 1.096029,0.763961 z m 7.517113,-1.59972 c 0,0.494402 -0.112579,0.893072 -0.337579,1.195697 -0.25098,0.343089 -0.61627,0.514713 -1.096029,0.514713 -0.468737,0 -0.917163,-0.223268 -1.34512,-0.669804 -0.380091,0.439135 -0.784272,0.658782 -1.212386,0.658782 -0.450158,0 -0.902205,-0.262001 -1.356142,-0.786004 -0.398513,0.457558 -0.832138,0.686337 -1.300875,0.686337 h -1.267495 v -0.996362 h 1.195539 c 0.461337,0 0.692005,-0.247201 0.692005,-0.74176 v -1.389364 h 0.979829 v 1.466831 c 0,0.236179 0.08487,0.430003 0.254602,0.581315 0.169734,0.151155 0.37458,0.22689 0.614381,0.22689 0.453936,0 0.680826,-0.206736 0.680826,-0.620049 v -1.654987 h 0.968807 v 1.466831 c 0,0.232557 0.08298,0.426224 0.24909,0.581315 0.169734,0.151155 0.372691,0.22689 0.60887,0.22689 0.464958,0 0.697516,-0.206736 0.697516,-0.620049 v -1.654987 h 0.974161 z m 20.14908,-3.18842 c 0,0.169734 -0.06282,0.313646 -0.188156,0.431736 -0.121869,0.114468 -0.269402,0.171623 -0.442915,0.171623 -0.461337,0 -0.691848,-0.201067 -0.691848,-0.603359 0,-0.361669 0.2102,-0.542425 0.630913,-0.542425 0.461337,0 0.692006,0.180756 0.692006,0.542425 z m -1.909746,0 c 0,0.169734 -0.06093,0.313646 -0.182645,0.431736 -0.121868,0.114468 -0.269402,0.171623 -0.442915,0.171623 -0.464958,0 -0.697358,-0.201067 -0.697358,-0.603359 0,-0.361669 0.210357,-0.542425 0.630913,-0.542425 0.461337,0 0.692005,0.180756 0.692005,0.542425 z m 4.550072,3.166219 c 0,0.420714 -0.132733,0.791673 -0.398513,1.112719 -0.280424,0.339468 -0.627292,0.509203 -1.040606,0.509203 H 35.22614 c -0.424335,0 -0.773093,-0.166113 -1.046116,-0.498181 -0.254601,-0.310025 -0.381981,-0.684605 -0.381981,-1.123741 v -1.505564 h 0.996362 v 1.367163 c 0,0.280581 0.05164,0.477869 0.155091,0.592337 0.10691,0.114469 0.298845,0.171624 0.575647,0.171624 h 4.64974 c 0.276802,0 0.468737,-0.05715 0.575647,-0.171624 0.110689,-0.114468 0.166113,-0.311756 0.166113,-0.592337 v -1.367163 h 1.007383 z m 3.177398,1.621921 c -0.841428,0 -1.433608,-0.162333 -1.776855,-0.487159 -0.228779,-0.210356 -0.343247,-0.555336 -0.343247,-1.035094 v -4.710674 h 0.996361 v 4.273427 c 0,0.461179 0.07762,0.743492 0.232558,0.846939 0.09589,0.06267 0.393002,0.101399 0.891183,0.1162 z m 4.572272,0 h -5.009519 v -0.996361 h 1.417076 c -0.206736,-0.476137 -0.310025,-0.902362 -0.310025,-1.278674 0,-0.37647 0.1088,-0.712317 0.326557,-1.007541 0.221379,-0.295224 0.511092,-0.49267 0.86914,-0.59218 0.247201,-0.07022 0.524003,-0.105178 0.830249,-0.105178 0.531403,0 1.042495,0.245311 1.533275,0.736092 l -0.492512,0.774982 C 48.313776,74.182465 47.86913,73.98313 47.503839,73.98313 c -0.524003,0 -0.786004,0.319314 -0.786004,0.957628 0,0.276802 0.06455,0.522271 0.193666,0.736249 0.151313,0.25098 0.358048,0.37647 0.62005,0.37647 h 1.981701 z m 13.578732,0 h -0.968335 v -6.38786 h 0.968335 z"
       fill="#ffffff"
       id="path20"
       style="stroke-width:0.157453" />
    <path
       d="m 25.500437,77.049838 c -0.579426,0 -1.033363,-0.217757 -1.361809,-0.653114 -0.332068,0.435357 -0.780494,0.653114 -1.34512,0.653114 h -0.913226 c -1.295364,0 -1.942968,-0.50747 -1.942968,-1.522253 v -4.865607 h 0.974161 v 4.42836 c 0,0.446536 0.06282,0.730581 0.188313,0.85245 0.07369,0.07385 0.333958,0.110689 0.780494,0.110689 h 0.85245 c 0.287823,0 0.48149,-0.07936 0.581158,-0.238069 0.05904,-0.09589 0.08865,-0.337578 0.08865,-0.72507 v -4.42836 h 0.996361 v 4.528028 c 0,0.575647 0.36718,0.863471 1.10154,0.863471 z m 3.315642,0 h -3.68109 v -0.996361 h 0.852607 v -5.391499 h 0.996362 v 3.559221 c 0.638313,-0.756561 1.206718,-1.134763 1.704899,-1.134763 0.512981,0 0.937316,0.227047 1.273163,0.680826 0.302625,0.409692 0.453937,0.88394 0.453937,1.422744 0,0.538646 -0.129269,0.97416 -0.387492,1.306228 -0.284202,0.36907 -0.688226,0.553604 -1.212386,0.553604 z m -0.04425,-2.96704 c -0.324667,0 -0.699248,0.252869 -1.12374,0.75845 -0.339469,0.402134 -0.595959,0.809937 -0.769315,1.223251 h 1.9373 c 0.38387,0 0.575805,-0.300735 0.575805,-0.902205 0,-0.719717 -0.206736,-1.079496 -0.62005,-1.079496 z m 27.118257,2.96704 c -0.579426,0 -1.033363,-0.217757 -1.361809,-0.653114 -0.332068,0.435357 -0.780494,0.653114 -1.34512,0.653114 h -0.913384 c -1.295206,0 -1.94281,-0.50747 -1.94281,-1.522253 v -4.865607 h 0.974161 v 4.42836 c 0,0.446536 0.06282,0.730581 0.188156,0.85245 0.07384,0.07385 0.333957,0.110689 0.780493,0.110689 h 0.85245 c 0.287981,0 0.481648,-0.07936 0.581316,-0.238069 0.05904,-0.09589 0.08849,-0.337578 0.08849,-0.72507 v -4.42836 h 0.996519 v 4.528028 c 0,0.575647 0.36718,0.863471 1.10154,0.863471 z m 3.315799,0 h -3.681247 v -0.996361 h 0.85245 v -5.391499 h 0.996046 v 3.559221 c 0.639259,-0.756561 1.207663,-1.134763 1.705214,-1.134763 0.513296,0 0.936845,0.227047 1.273794,0.680826 0.302309,0.409692 0.453464,0.88394 0.453464,1.422744 0,0.538646 -0.129112,0.97416 -0.387334,1.306228 -0.28499,0.36907 -0.688069,0.553604 -1.212387,0.553604 z m -0.04409,-2.96704 c -0.324353,0 -0.69909,0.252869 -1.124213,0.75845 -0.340098,0.402134 -0.595172,0.809937 -0.769944,1.223251 h 1.938244 c 0.384185,0 0.576277,-0.300735 0.576277,-0.902205 0,-0.719717 -0.207837,-1.079496 -0.620364,-1.079496 z"
       fill="#d9a523"
       id="path22"
       style="stroke-width:0.157453" />
    <path
       d="m 85.286375,76.262574 c -0.387334,-0.0074 -0.648705,-0.03133 -0.780966,-0.07196 -0.255073,-0.06645 -0.456613,-0.219646 -0.603044,-0.459447 -0.296011,0.420714 -0.706963,0.631071 -1.23443,0.631071 -0.494402,0 -0.933695,-0.225157 -1.31788,-0.675315 -0.357418,0.468579 -0.780966,0.703027 -1.267496,0.703027 -0.351119,0 -0.683345,-0.14218 -0.996676,-0.426225 0,0.782226 -0.212561,1.437229 -0.636109,1.965011 -0.458188,0.568247 -1.06753,0.85245 -1.826453,0.85245 h -1.55091 c -0.714836,0 -1.308433,-0.252712 -1.776068,-0.758293 -0.455039,-0.490938 -0.681771,-1.097919 -0.681771,-1.821257 v -2.07019 h 0.996677 v 2.114592 c 0,0.453779 0.14958,0.822848 0.44874,1.107051 0.302309,0.287823 0.680196,0.431735 1.135235,0.431735 h 1.30056 c 0.464486,0 0.847096,-0.14029 1.146257,-0.420714 0.297586,-0.280423 0.447166,-0.653114 0.447166,-1.118072 v -3.110953 h 0.996676 v 1.477852 c 0,0.236179 0.08345,0.428114 0.248776,0.575805 0.1669,0.147533 0.368439,0.221379 0.604618,0.221379 0.445592,0 0.669175,-0.206736 0.669175,-0.620049 v -1.654987 h 0.996676 v 1.466831 c 0,0.228778 0.08188,0.420713 0.248776,0.575647 0.170049,0.155091 0.370014,0.232558 0.603044,0.232558 0.453464,0 0.681771,-0.206736 0.681771,-0.620049 v -1.654987 h 0.98408 v 1.527765 c 0,0.228779 0.122813,0.400402 0.36529,0.514713 0.07085,0.0296 0.336949,0.05904 0.798286,0.08865 z m 5.690345,0 c -0.848671,0 -1.448566,-0.24169 -1.799686,-0.72507 -0.195241,0.48338 -0.653429,0.72507 -1.372988,0.72507 h -2.95539 v -0.996361 h 2.97271 c 0.261371,0 0.392057,-0.171624 0.392057,-0.514871 0,-0.118089 -0.03621,-0.215868 -0.110217,-0.293334 l -2.596397,-2.723462 -0.182645,-1.118072 3.665501,-1.323076 0.136984,0.996361 -2.594822,0.968807 2.750701,3.044508 c 0.310182,0.346869 0.552659,0.577537 0.730581,0.691848 0.261371,0.169734 0.582575,0.260269 0.963611,0.271291 z m 4.024494,-1.871011 c 0,0.572026 -0.143282,1.040763 -0.426697,1.406053 -0.310182,0.402292 -0.743177,0.603359 -1.30056,0.603359 -0.425123,0 -0.799861,-0.125489 -1.124213,-0.376469 -0.321204,0.14029 -0.883311,0.219646 -1.687895,0.238068 v -0.996361 c 0.563681,0 0.894332,-0.05542 0.990379,-0.166113 0.02992,-0.03684 0.05038,-0.291445 0.06141,-0.763803 0.03307,-1.36921 0.628237,-2.053658 1.78709,-2.053658 0.554234,0 0.985654,0.221379 1.295836,0.664136 0.269245,0.387492 0.404654,0.86914 0.404654,1.444788 z m -0.869139,-0.05527 c 0,-0.719717 -0.286565,-1.079497 -0.858118,-1.079497 -0.58415,0 -0.875438,0.372691 -0.875438,1.11823 0,0.690116 0.291288,1.035095 0.875438,1.035095 0.571553,0 0.858118,-0.358048 0.858118,-1.073828 z m 3.287614,1.926277 h -0.968334 v -6.387861 h 0.968334 z"
       fill="#ffffff"
       id="path24"
       style="stroke-width:0.157453"
       sodipodi:nodetypes="cccscsccsscsccscsscsccscssccscssccscccccsccssccccccccccscscccccscsssssssccccc" />
    <path
       d="m 98.065246,66.5005 -0.255074,-0.314906 -1.791813,1.259622 0.255074,0.314906 z"
       fill="#ffffff"
       id="path28"
       style="stroke-width:0.157453" />
    <path
       d="m 93.184209,69.177197 -0.255074,-0.314905 -1.791813,1.259622 0.255074,0.314906 z"
       fill="#ffffff"
       id="path30"
       style="stroke-width:0.157453" />
  </g>
</svg>
