<svg xmlns="http://www.w3.org/2000/svg" viewBox="0 0 510.75 433.26" shape-rendering="geometricPrecision" xmlns:v="https://vecta.io/nano"><style><![CDATA[#A{animation:eFbBgoOmzw97_c_o 10000ms linear infinite normal forwards}#B{animation:eFbBgoOmzw99_c_o 10000ms linear infinite normal forwards}#C{animation:eFbBgoOmzw911_c_o 10000ms linear infinite normal forwards}#D{animation:eFbBgoOmzw913_c_o 10000ms linear infinite normal forwards}#E{animation:eFbBgoOmzw915_c_o 10000ms linear infinite normal forwards}#F{animation:eFbBgoOmzw917_c_o 10000ms linear infinite normal forwards}#G{animation:eFbBgoOmzw919_c_o 10000ms linear infinite normal forwards}#H{animation:eFbBgoOmzw921_c_o 10000ms linear infinite normal forwards}#I{animation:eFbBgoOmzw923_c_o 10000ms linear infinite normal forwards}#J{animation:eFbBgoOmzw925_c_o 10000ms linear infinite normal forwards}#K{animation:eFbBgoOmzw927_c_o 10000ms linear infinite normal forwards}#L{animation:eFbBgoOmzw929_c_o 10000ms linear infinite normal forwards}#M{animation:eFbBgoOmzw931_c_o 10000ms linear infinite normal forwards}#N{animation:eFbBgoOmzw933_c_o 10000ms linear infinite normal forwards}#O{animation:eFbBgoOmzw935_c_o 10000ms linear infinite normal forwards}@keyframes eFbBgoOmzw97_c_o{0%{opacity:1}10%{opacity:1}12%{opacity:0}20%{opacity:0}22%{opacity:1}30%{opacity:1}32%{opacity:0}40%{opacity:0}42%{opacity:1}50%{opacity:1}52%{opacity:0}60%{opacity:0}62%{opacity:1}70%{opacity:1}72%{opacity:0}80%{opacity:0}82%{opacity:1}100%{opacity:1}} @keyframes eFbBgoOmzw99_c_o{0%{opacity:1}10%{opacity:1}12%{opacity:0}30%{opacity:0}32%{opacity:1}40%{opacity:1}42%{opacity:0}90%{opacity:0}92%{opacity:1}100%{opacity:1}} @keyframes eFbBgoOmzw911_c_o{0%{opacity:1}10%{opacity:1}12%{opacity:0}40%{opacity:0}42%{opacity:1}50%{opacity:1}52%{opacity:0}90%{opacity:0}92%{opacity:1}100%{opacity:1}} @keyframes eFbBgoOmzw913_c_o{0%{opacity:1}10%{opacity:1}12%{opacity:0}30%{opacity:0}32%{opacity:1}40%{opacity:1}42%{opacity:0}50%{opacity:0}52%{opacity:1}80%{opacity:1}82%{opacity:0}90%{opacity:0}92%{opacity:1}100%{opacity:1}} @keyframes eFbBgoOmzw915_c_o{0%{opacity:0}2%{opacity:1}10%{opacity:1}12%{opacity:0}30%{opacity:0}32%{opacity:1}40%{opacity:1}42%{opacity:0}60%{opacity:0}62%{opacity:1}70%{opacity:1}72%{opacity:0}80%{opacity:0}82%{opacity:1}90%{opacity:1}92%{opacity:0}100%{opacity:0}} @keyframes eFbBgoOmzw917_c_o{0%{opacity:1}10%{opacity:1}12%{opacity:0}20%{opacity:0}22%{opacity:1}30%{opacity:1}32%{opacity:0}50%{opacity:0}52%{opacity:1}60%{opacity:1}62%{opacity:0}70%{opacity:0}72%{opacity:1}80%{opacity:1}82%{opacity:0}90%{opacity:0}92%{opacity:1}100%{opacity:1}} @keyframes eFbBgoOmzw919_c_o{0%{opacity:0}2%{opacity:1}10%{opacity:1}12%{opacity:0}50%{opacity:0}52%{opacity:1}70%{opacity:1}72%{opacity:0}100%{opacity:0}} @keyframes eFbBgoOmzw921_c_o{0%{opacity:1}10%{opacity:1}12%{opacity:0}20%{opacity:0}22%{opacity:1}30%{opacity:1}32%{opacity:0}40%{opacity:0}42%{opacity:1}70%{opacity:1}72%{opacity:0}90%{opacity:0}92%{opacity:1}100%{opacity:1}} @keyframes eFbBgoOmzw923_c_o{0%{opacity:0}2%{opacity:1}40%{opacity:1}42%{opacity:0}50%{opacity:0}52%{opacity:1}60%{opacity:1}62%{opacity:0}70%{opacity:0}72%{opacity:1}90%{opacity:1}92%{opacity:0}100%{opacity:0}} @keyframes eFbBgoOmzw925_c_o{0%{opacity:1}40%{opacity:1}42%{opacity:0}50%{opacity:0}52%{opacity:1}70%{opacity:1}72%{opacity:0}80%{opacity:0}82%{opacity:1}100%{opacity:1}} @keyframes eFbBgoOmzw927_c_o{0%{opacity:0}2%{opacity:1}10%{opacity:1}12%{opacity:0}20%{opacity:0}22%{opacity:1}60%{opacity:1}62%{opacity:0}70%{opacity:0}72%{opacity:1}80%{opacity:1}82%{opacity:0}100%{opacity:0}} @keyframes eFbBgoOmzw929_c_o{0%{opacity:1}20%{opacity:1}22%{opacity:0}30%{opacity:0}32%{opacity:1}50%{opacity:1}52%{opacity:0}60%{opacity:0}62%{opacity:1}80%{opacity:1}82%{opacity:0}90%{opacity:0}92%{opacity:1}100%{opacity:1}} @keyframes eFbBgoOmzw931_c_o{0%{opacity:1}30%{opacity:1}32%{opacity:0}40%{opacity:0}42%{opacity:1}50%{opacity:1}52%{opacity:0}60%{opacity:0}62%{opacity:1}100%{opacity:1}} @keyframes eFbBgoOmzw933_c_o{0%{opacity:1}10%{opacity:1}12%{opacity:0}30%{opacity:0}32%{opacity:1}60%{opacity:1}62%{opacity:0}70%{opacity:0}72%{opacity:1}100%{opacity:1}} @keyframes eFbBgoOmzw935_c_o{0%{opacity:1}20%{opacity:1}22%{opacity:0}30%{opacity:0}32%{opacity:1}40%{opacity:1}42%{opacity:0}50%{opacity:0}52%{opacity:1}70%{opacity:1}72%{opacity:0}80%{opacity:0}82%{opacity:1}100%{opacity:1}}.B{fill:#fff}.C{fill:#cea71d}]]></style><g class="B"><path d="M433.2 0h24.62v211.66H433.2z"/><path d="M149.3 211.66h257.5V96.13h-76.69v107.8H302.8V7.73h104V0H278.17v203.93h-27.55V96.13H226v107.8h-26V96.13h-24.66v107.8h-26V96.13h-24.66v160.26H30.07v7.73h119.24v-52.46zm232.92-7.73h-27.49V103.86h27.49z" fill-rule="evenodd"/></g><path d="M101.23 110.18h14.85v14.85h-14.85z" class="C"/><path id="A" transform="translate(101.23 110.18)" d="M0 0h14.85v14.85H0z" class="B"/><path d="M71.66 110.18h14.85v14.85H71.66z" class="B"/><path id="B" transform="translate(71.66 110.18)" d="M0 0h14.85v14.85H0z" class="C"/><path d="M41.49 110.18h14.85v14.85H41.49z" class="B"/><path id="C" transform="translate(41.49 110.18)" d="M0 0h14.85v14.85H0z" class="C"/><path d="M101.23 140.07h14.85v14.85h-14.85z" class="C"/><path id="D" transform="translate(101.23 140.07)" d="M0 0h14.85v14.85H0z" class="B"/><path d="M71.66 140.07h14.85v14.85H71.66z" class="B"/><path id="E" transform="translate(71.66 140.07)" opacity="0" d="M0 0h14.85v14.85H0z" class="C"/><path d="M41.49 140.07h14.85v14.85H41.49z" class="B"/><path id="F" transform="translate(41.49 140.07)" d="M0 0h14.85v14.85H0z" class="C"/><path d="M101.23 169.96h14.85v14.85h-14.85z" class="B"/><path id="G" transform="translate(101.23 169.96)" opacity="0" d="M0 0h14.85v14.85H0z" class="C"/><path d="M71.66 169.95h14.85v14.85H71.66z" class="C"/><path id="H" transform="translate(71.66 169.95)" d="M0 0h14.85v14.85H0z" class="B"/><path d="M41.49 169.96h14.85v14.85H41.49z" class="C"/><path id="I" transform="translate(41.49 169.96)" opacity="0" d="M0 0h14.85v14.85H0z" class="B"/><path d="M101.23 199.84h14.85v14.85h-14.85z" class="C"/><path id="J" transform="translate(101.23 199.84)" d="M0 0h14.85v14.85H0z" class="B"/><path d="M71.66 199.84h14.85v14.85H71.66z" class="C"/><path id="K" transform="translate(71.66 199.84)" opacity="0" d="M0 0h14.85v14.85H0z" class="B"/><path d="M41.49 199.84h14.85v14.85H41.49z" class="C"/><path id="L" transform="translate(41.49 199.84)" d="M0 0h14.85v14.85H0z" class="B"/><path d="M101.23 229.73h14.85v14.85h-14.85z" class="C"/><path id="M" transform="translate(101.23 229.73)" d="M0 0h14.85v14.85H0z" class="B"/><path d="M71.66 229.73h14.85v14.85H71.66z" class="C"/><path id="N" transform="translate(71.66 229.73)" d="M0 0h14.85v14.85H0z" class="B"/><path d="M41.49 229.73h14.85v14.85H41.49z" class="C"/><path id="O" transform="translate(41.49 229.73)" d="M0 0h14.85v14.85H0z" class="B"/><g class="B"><path d="M169.8 399.17q-4 0-5.64-2.49a17.77 17.77 0 0 1-3.27 11 11.82 11.82 0 0 1-10 4.82h-6.82l-.84-5.23h7.25a8.54 8.54 0 0 0 5.82-2.14 7.13 7.13 0 0 0 2.5-5.64v-16.84h5.26v7.59q0 3.57 5.73 3.69z"/><path d="M199.8 399.17q-6.48 0-9.21-4.21a6.62 6.62 0 0 1-6.66 4.21H168.2v-5.24h15.76c1.8 0 2.69-.66 2.69-2a3.62 3.62 0 0 0-1.22-2.28l-13.78-14.4-.87-5.91 19.32-7 .85 5.25-14 5.25 14.69 16.12a53.88 53.88 0 0 0 4.62 4.4 7.36 7.36 0 0 0 3.54.55zm-11-39.8l-18.38 6.65-.24-2 18.51-6.63z"/><path d="M239.72 390.72a10.33 10.33 0 0 1-1.75 6.22 6.47 6.47 0 0 1-5.62 2.75 9.33 9.33 0 0 1-7.25-3.56q-3 3.55-6.4 3.56c-2.54 0-4.92-1.4-7.16-4.21q-3.54 3.69-6.93 3.69h-6.7v-5.24h6.32q3.65 0 3.65-3.85v-7.43h5.15v7.75a4 4 0 0 0 1.28 3.08 4.53 4.53 0 0 0 3.19 1.18c2.48 0 3.71-1.09 3.71-3.27v-8.74h5.15v7.75a4 4 0 0 0 1.31 3.07 4.65 4.65 0 0 0 3.22 1.19q3.69 0 3.69-3.27v-8.74h5.14zm-18.39-14.94a3.09 3.09 0 0 1-1 2.29 3.23 3.23 0 0 1-2.32.95 3.9 3.9 0 0 1-2.58-.9 2.93 2.93 0 0 1-1.08-2.34c0-1.88 1.12-2.81 3.36-2.81 2.42 0 3.62.93 3.62 2.81zm5-7.43a3 3 0 0 1-1 2.31 3.45 3.45 0 0 1-2.37.91 4 4 0 0 1-2.55-.88 2.87 2.87 0 0 1-1.17-2.34q0-2.83 3.37-2.84 3.74-.02 3.75 2.84zm5.14 7.43a3 3 0 0 1-1 2.32 3.39 3.39 0 0 1-2.39.92 4 4 0 0 1-2.57-.9 2.9 2.9 0 0 1-1.11-2.34c0-1.88 1.1-2.81 3.3-2.81 2.56 0 3.8.93 3.8 2.81zm32.99 24.06a11.79 11.79 0 0 1-4 8.95 13.17 13.17 0 0 1-9.25 3.68h-6.81l-.67-5.23h6.63a9 9 0 0 0 6.2-2.17 7.83 7.83 0 0 0 2.6-5.88q-6.57 0-9.56-1.76-4-2.34-4-8.43 0-6.62 3.12-9.27c1.29-1.1 3.43-1.64 6.44-1.64q6 0 8 5 1.23 3.14 1.23 10.12zm-5.27-5.94v-5.41q0-5.16-4.12-5.16a3.45 3.45 0 0 0-3.39 1.7 9.81 9.81 0 0 0-.61 4.08c0 2.22.88 3.65 2.66 4.28a18.58 18.58 0 0 0 5.46.51zm23.39 5.27q-6.66 0-9.38-2.58-1.81-1.67-1.81-5.46v-24.89h5.26v22.58q0 3.64 1.23 4.47c.5.33 2.07.54 4.7.61z"/><path d="M304.92 392.01q0 7.15-8 7.16h-16.47v-5.24h16.43c1.38 0 2.08-.82 2.08-2.46a2.44 2.44 0 0 0-.68-1.81l-13.65-14.4-.88-5.88 19.3-7 .79 5.28-13.62 5.1 10.79 12.08a33.42 33.42 0 0 1 2.92 4.15 5.82 5.82 0 0 1 .99 3.02z"/></g><g fill="#cea72c"><path d="M60.07 391.87a10.28 10.28 0 0 1-1.71 6.07 6.13 6.13 0 0 1-5.37 2.81q-3.56 0-7.32-3.53c-1.67 2.35-3.72 3.53-6.12 3.53a10.47 10.47 0 0 1-5.87-2.08 15.84 15.84 0 0 1-3.3 10.29 11.66 11.66 0 0 1-9.6 4.42h-7.92a12.13 12.13 0 0 1-9.3-4A13.47 13.47 0 0 1 0 399.87V389.1h5.09v11.06a7.62 7.62 0 0 0 2.4 5.87 8.33 8.33 0 0 0 5.95 2.18h6.77a8.21 8.21 0 0 0 5.92-2.2 7.77 7.77 0 0 0 2.29-5.85v-16.27h5.2v7.72a3.79 3.79 0 0 0 1.35 3 4.66 4.66 0 0 0 3.17 1.19q3.6 0 3.6-3.24v-8.67h5.06v7.66a3.92 3.92 0 0 0 1.32 3 4.45 4.45 0 0 0 3.13 1.22q3.65 0 3.64-3.24v-8.64h5.15zm24.73 7.46a14.37 14.37 0 0 1-3.59 9.83 12 12 0 0 1-9.42 4.22H64.8l-.84-5.35h5.84a11.41 11.41 0 0 0 6.45-1.79 6.51 6.51 0 0 0 3.12-5.7v-16.65h5.43zm29.56.9h-3.44a12.58 12.58 0 0 1-3.83 9.43 13.22 13.22 0 0 1-9.59 3.72h-6.7l-.72-5.17h6.56a9 9 0 0 0 6.15-2.15 7.74 7.74 0 0 0 2.61-5.81q-6.45 0-9.49-1.77-4-2.31-4-8.3 0-6.54 3.16-9.18 1.81-1.56 6.15-1.56 6.23 0 8.33 5.16 1.21 3 1.33 10.45h3.44zm-8.79-5.18v-4.94a6.59 6.59 0 0 0-1-3.73 3.72 3.72 0 0 0-3.27-1.76 3.42 3.42 0 0 0-3.35 1.67 9.55 9.55 0 0 0-.61 4q0 3.3 2.75 4.22a19.17 19.17 0 0 0 5.48.54z"/><path d="M128.67 391.76a8.87 8.87 0 0 1-2.08 5.84 6.87 6.87 0 0 1-5.47 2.63h-8.53v-5.18l9.11-.32c1.16-.42 1.73-2 1.73-4.69v-3.07-3.08h5.32zm-6.13 18.18a3.42 3.42 0 0 1-1.06 2.56 3.53 3.53 0 0 1-2.56 1q-3.87 0-3.87-3.58 0-3.12 3.73-3.12 3.73 0 3.76 3.14z"/></g><g class="B"><path d="M444.46 400.16a17.29 17.29 0 0 1-4.06-.38 5.08 5.08 0 0 1-3.14-2.39 7.42 7.42 0 0 1-6.42 3.29 8.83 8.83 0 0 1-6.86-3.52q-2.79 3.66-6.59 3.66a7.63 7.63 0 0 1-5.19-2.22 15.81 15.81 0 0 1-3.31 10.23 11.58 11.58 0 0 1-9.51 4.43h-8.06a12.07 12.07 0 0 1-9.25-3.94 13.45 13.45 0 0 1-3.54-9.48v-10.77h5.19v11a7.63 7.63 0 0 0 2.34 5.78 8.22 8.22 0 0 0 5.89 2.24h6.77a8.35 8.35 0 0 0 6-2.19 7.62 7.62 0 0 0 2.34-5.83v-16.18h5.18v7.69a3.79 3.79 0 0 0 1.3 3 4.54 4.54 0 0 0 3.14 1.15q3.48 0 3.48-3.22v-8.62h5.19v7.6a3.87 3.87 0 0 0 1.31 3 4.42 4.42 0 0 0 3.12 1.21q3.54 0 3.54-3.22v-8.59h5.13v8a2.84 2.84 0 0 0 1.9 2.67 21.67 21.67 0 0 0 4.15.46z"/><path d="M474.07 400.16q-6.63 0-9.36-3.77-1.53 3.76-7.15 3.77h-15.38V395h15.47c1.36 0 2-.89 2-2.68a2.13 2.13 0 0 0-.58-1.52l-13.51-14.19-.95-5.82 19.07-6.89.71 5.16-13.5 5.06 14.31 15.87a22.25 22.25 0 0 0 3.81 3.6 9.4 9.4 0 0 0 5 1.41z"/><path d="M495.01 390.42a11.56 11.56 0 0 1-2.22 7.32 8.06 8.06 0 0 1-6.77 3.14 9.28 9.28 0 0 1-5.85-2q-2.5 1.1-8.78 1.24v-5.16c2.94 0 4.65-.28 5.15-.86a15.56 15.56 0 0 0 .32-4q.26-10.71 9.3-10.71a7.75 7.75 0 0 1 6.74 3.46 12.84 12.84 0 0 1 2.11 7.57zm-4.53-.28c0-3.75-1.48-5.62-4.46-5.62s-4.55 1.94-4.55 5.82q0 5.39 4.55 5.38c2.98 0 4.46-1.86 4.46-5.58zm17.08 10.02h-5.07v-33.24h5.07z"/><rect width="6" height="98.13" rx="3" x="337.33" y="335.13"/><path d="M498.637 356.134l10.678-6.165 1.05 1.819-10.678 6.165zm-20.771 10.153l10.678-6.165 1.05 1.819-10.678 6.165z"/></g></svg>