<svg id="eFbBgoOmzw91" xmlns="http://www.w3.org/2000/svg" xmlns:xlink="http://www.w3.org/1999/xlink" viewBox="0 0 510.75 433.26" shape-rendering="geometricPrecision" text-rendering="geometricPrecision"><style><![CDATA[#eFbBgoOmzw97 {animation: eFbBgoOmzw97_c_o 10000ms linear infinite normal forwards}@keyframes eFbBgoOmzw97_c_o { 0% {opacity: 1} 10% {opacity: 1} 12% {opacity: 0} 20% {opacity: 0} 22% {opacity: 1} 30% {opacity: 1} 32% {opacity: 0} 40% {opacity: 0} 42% {opacity: 1} 50% {opacity: 1} 52% {opacity: 0} 60% {opacity: 0} 62% {opacity: 1} 70% {opacity: 1} 72% {opacity: 0} 80% {opacity: 0} 82% {opacity: 1} 100% {opacity: 1}} #eFbBgoOmzw99 {animation: eFbBgoOmzw99_c_o 10000ms linear infinite normal forwards}@keyframes eFbBgoOmzw99_c_o { 0% {opacity: 1} 10% {opacity: 1} 12% {opacity: 0} 30% {opacity: 0} 32% {opacity: 1} 40% {opacity: 1} 42% {opacity: 0} 90% {opacity: 0} 92% {opacity: 1} 100% {opacity: 1}} #eFbBgoOmzw911 {animation: eFbBgoOmzw911_c_o 10000ms linear infinite normal forwards}@keyframes eFbBgoOmzw911_c_o { 0% {opacity: 1} 10% {opacity: 1} 12% {opacity: 0} 40% {opacity: 0} 42% {opacity: 1} 50% {opacity: 1} 52% {opacity: 0} 90% {opacity: 0} 92% {opacity: 1} 100% {opacity: 1}} #eFbBgoOmzw913 {animation: eFbBgoOmzw913_c_o 10000ms linear infinite normal forwards}@keyframes eFbBgoOmzw913_c_o { 0% {opacity: 1} 10% {opacity: 1} 12% {opacity: 0} 30% {opacity: 0} 32% {opacity: 1} 40% {opacity: 1} 42% {opacity: 0} 50% {opacity: 0} 52% {opacity: 1} 80% {opacity: 1} 82% {opacity: 0} 90% {opacity: 0} 92% {opacity: 1} 100% {opacity: 1}} #eFbBgoOmzw915 {animation: eFbBgoOmzw915_c_o 10000ms linear infinite normal forwards}@keyframes eFbBgoOmzw915_c_o { 0% {opacity: 0} 2% {opacity: 1} 10% {opacity: 1} 12% {opacity: 0} 30% {opacity: 0} 32% {opacity: 1} 40% {opacity: 1} 42% {opacity: 0} 60% {opacity: 0} 62% {opacity: 1} 70% {opacity: 1} 72% {opacity: 0} 80% {opacity: 0} 82% {opacity: 1} 90% {opacity: 1} 92% {opacity: 0} 100% {opacity: 0}} #eFbBgoOmzw917 {animation: eFbBgoOmzw917_c_o 10000ms linear infinite normal forwards}@keyframes eFbBgoOmzw917_c_o { 0% {opacity: 1} 10% {opacity: 1} 12% {opacity: 0} 20% {opacity: 0} 22% {opacity: 1} 30% {opacity: 1} 32% {opacity: 0} 50% {opacity: 0} 52% {opacity: 1} 60% {opacity: 1} 62% {opacity: 0} 70% {opacity: 0} 72% {opacity: 1} 80% {opacity: 1} 82% {opacity: 0} 90% {opacity: 0} 92% {opacity: 1} 100% {opacity: 1}} #eFbBgoOmzw919 {animation: eFbBgoOmzw919_c_o 10000ms linear infinite normal forwards}@keyframes eFbBgoOmzw919_c_o { 0% {opacity: 0} 2% {opacity: 1} 10% {opacity: 1} 12% {opacity: 0} 50% {opacity: 0} 52% {opacity: 1} 70% {opacity: 1} 72% {opacity: 0} 100% {opacity: 0}} #eFbBgoOmzw921 {animation: eFbBgoOmzw921_c_o 10000ms linear infinite normal forwards}@keyframes eFbBgoOmzw921_c_o { 0% {opacity: 1} 10% {opacity: 1} 12% {opacity: 0} 20% {opacity: 0} 22% {opacity: 1} 30% {opacity: 1} 32% {opacity: 0} 40% {opacity: 0} 42% {opacity: 1} 70% {opacity: 1} 72% {opacity: 0} 90% {opacity: 0} 92% {opacity: 1} 100% {opacity: 1}} #eFbBgoOmzw923 {animation: eFbBgoOmzw923_c_o 10000ms linear infinite normal forwards}@keyframes eFbBgoOmzw923_c_o { 0% {opacity: 0} 2% {opacity: 1} 40% {opacity: 1} 42% {opacity: 0} 50% {opacity: 0} 52% {opacity: 1} 60% {opacity: 1} 62% {opacity: 0} 70% {opacity: 0} 72% {opacity: 1} 90% {opacity: 1} 92% {opacity: 0} 100% {opacity: 0}} #eFbBgoOmzw925 {animation: eFbBgoOmzw925_c_o 10000ms linear infinite normal forwards}@keyframes eFbBgoOmzw925_c_o { 0% {opacity: 1} 40% {opacity: 1} 42% {opacity: 0} 50% {opacity: 0} 52% {opacity: 1} 70% {opacity: 1} 72% {opacity: 0} 80% {opacity: 0} 82% {opacity: 1} 100% {opacity: 1}} #eFbBgoOmzw927 {animation: eFbBgoOmzw927_c_o 10000ms linear infinite normal forwards}@keyframes eFbBgoOmzw927_c_o { 0% {opacity: 0} 2% {opacity: 1} 10% {opacity: 1} 12% {opacity: 0} 20% {opacity: 0} 22% {opacity: 1} 60% {opacity: 1} 62% {opacity: 0} 70% {opacity: 0} 72% {opacity: 1} 80% {opacity: 1} 82% {opacity: 0} 100% {opacity: 0}} #eFbBgoOmzw929 {animation: eFbBgoOmzw929_c_o 10000ms linear infinite normal forwards}@keyframes eFbBgoOmzw929_c_o { 0% {opacity: 1} 20% {opacity: 1} 22% {opacity: 0} 30% {opacity: 0} 32% {opacity: 1} 50% {opacity: 1} 52% {opacity: 0} 60% {opacity: 0} 62% {opacity: 1} 80% {opacity: 1} 82% {opacity: 0} 90% {opacity: 0} 92% {opacity: 1} 100% {opacity: 1}} #eFbBgoOmzw931 {animation: eFbBgoOmzw931_c_o 10000ms linear infinite normal forwards}@keyframes eFbBgoOmzw931_c_o { 0% {opacity: 1} 30% {opacity: 1} 32% {opacity: 0} 40% {opacity: 0} 42% {opacity: 1} 50% {opacity: 1} 52% {opacity: 0} 60% {opacity: 0} 62% {opacity: 1} 100% {opacity: 1}} #eFbBgoOmzw933 {animation: eFbBgoOmzw933_c_o 10000ms linear infinite normal forwards}@keyframes eFbBgoOmzw933_c_o { 0% {opacity: 1} 10% {opacity: 1} 12% {opacity: 0} 30% {opacity: 0} 32% {opacity: 1} 60% {opacity: 1} 62% {opacity: 0} 70% {opacity: 0} 72% {opacity: 1} 100% {opacity: 1}} #eFbBgoOmzw935 {animation: eFbBgoOmzw935_c_o 10000ms linear infinite normal forwards}@keyframes eFbBgoOmzw935_c_o { 0% {opacity: 1} 20% {opacity: 1} 22% {opacity: 0} 30% {opacity: 0} 32% {opacity: 1} 40% {opacity: 1} 42% {opacity: 0} 50% {opacity: 0} 52% {opacity: 1} 70% {opacity: 1} 72% {opacity: 0} 80% {opacity: 0} 82% {opacity: 1} 100% {opacity: 1}}]]></style><g transform="translate(-.000001 0)"><rect width="24.62" height="211.66" rx="0" ry="0" transform="translate(433.2 0)" fill="#fff"/><path d="M348.5,370.17h257.5v-115.53h-76.69v107.8h-27.31v-196.2h104v-7.73h-128.63v203.93h-27.55v-107.8h-24.62v107.8h-26v-107.8h-24.66v107.8h-26v-107.8h-24.66v160.26h-94.61v7.73h119.24v-52.46Zm232.92-7.73h-27.49v-100.07h27.49Z" transform="translate(-199.2-158.51)" fill="#fff" fill-rule="evenodd"/><rect width="14.85" height="14.85" rx="0" ry="0" transform="translate(101.23 110.18)" fill="#cea71d"/><rect id="eFbBgoOmzw97" width="14.85" height="14.85" rx="0" ry="0" transform="translate(101.23 110.18)" fill="#fff"/><rect width="14.85" height="14.85" rx="0" ry="0" transform="translate(71.66 110.18)" fill="#fff"/><rect id="eFbBgoOmzw99" width="14.85" height="14.85" rx="0" ry="0" transform="translate(71.66 110.18)" fill="#cea71d"/><rect width="14.85" height="14.85" rx="0" ry="0" transform="translate(41.49 110.18)" fill="#fff"/><rect id="eFbBgoOmzw911" width="14.85" height="14.85" rx="0" ry="0" transform="translate(41.49 110.18)" fill="#cea71d"/><rect width="14.85" height="14.85" rx="0" ry="0" transform="translate(101.23 140.07)" fill="#cea71d"/><rect id="eFbBgoOmzw913" width="14.85" height="14.85" rx="0" ry="0" transform="translate(101.23 140.07)" fill="#fff"/><rect width="14.85" height="14.85" rx="0" ry="0" transform="translate(71.66 140.07)" fill="#fff"/><rect id="eFbBgoOmzw915" width="14.85" height="14.85" rx="0" ry="0" transform="translate(71.66 140.07)" opacity="0" fill="#cea71d"/><rect width="14.85" height="14.85" rx="0" ry="0" transform="translate(41.49 140.07)" fill="#fff"/><rect id="eFbBgoOmzw917" width="14.85" height="14.85" rx="0" ry="0" transform="translate(41.49 140.07)" fill="#cea71d"/><rect width="14.85" height="14.85" rx="0" ry="0" transform="translate(101.23 169.96)" fill="#fff"/><rect id="eFbBgoOmzw919" width="14.85" height="14.85" rx="0" ry="0" transform="translate(101.23 169.96)" opacity="0" fill="#cea71d"/><rect width="14.85" height="14.85" rx="0" ry="0" transform="translate(71.66 169.95)" fill="#cea71d"/><rect id="eFbBgoOmzw921" width="14.85" height="14.85" rx="0" ry="0" transform="translate(71.66 169.95)" fill="#fff"/><rect width="14.85" height="14.85" rx="0" ry="0" transform="translate(41.49 169.96)" fill="#cea71d"/><rect id="eFbBgoOmzw923" width="14.85" height="14.85" rx="0" ry="0" transform="translate(41.49 169.96)" opacity="0" fill="#fff"/><rect width="14.85" height="14.85" rx="0" ry="0" transform="translate(101.23 199.84)" fill="#cea71d"/><rect id="eFbBgoOmzw925" width="14.85" height="14.85" rx="0" ry="0" transform="translate(101.23 199.84)" fill="#fff"/><rect width="14.85" height="14.85" rx="0" ry="0" transform="translate(71.66 199.84)" fill="#cea71d"/><rect id="eFbBgoOmzw927" width="14.85" height="14.85" rx="0" ry="0" transform="translate(71.66 199.84)" opacity="0" fill="#fff"/><rect width="14.85" height="14.85" rx="0" ry="0" transform="translate(41.49 199.84)" fill="#cea71d"/><rect id="eFbBgoOmzw929" width="14.85" height="14.85" rx="0" ry="0" transform="translate(41.49 199.84)" fill="#fff"/><rect width="14.85" height="14.85" rx="0" ry="0" transform="translate(101.23 229.73)" fill="#cea71d"/><rect id="eFbBgoOmzw931" width="14.85" height="14.85" rx="0" ry="0" transform="translate(101.23 229.73)" fill="#fff"/><rect width="14.85" height="14.85" rx="0" ry="0" transform="translate(71.66 229.73)" fill="#cea71d"/><rect id="eFbBgoOmzw933" width="14.85" height="14.85" rx="0" ry="0" transform="translate(71.66 229.73)" fill="#fff"/><rect width="14.85" height="14.85" rx="0" ry="0" transform="translate(41.49 229.73)" fill="#cea71d"/><rect id="eFbBgoOmzw935" width="14.85" height="14.85" rx="0" ry="0" transform="translate(41.49 229.73)" fill="#fff"/></g><g style="isolation:isolate"><path d="M369,557.68q-4,0-5.64-2.49c.156534,3.927403-.993459,7.795883-3.27,11-2.324609,3.169379-6.072601,4.975911-10,4.82h-6.82l-.84-5.23h7.25c2.139603.041065,4.216649-.722659,5.82-2.14c1.645635-1.403508,2.565236-3.478127,2.5-5.64v-16.84h5.26v7.59q0,3.57,5.73,3.69Z" transform="translate(-199.2-158.51)" fill="#fff"/><path d="M399,557.68q-6.48,0-9.21-4.21c-1.052303,2.715495-3.75564,4.424361-6.66,4.21h-15.73v-5.24h15.76c1.8,0,2.69-.66,2.69-2-.112094-.884282-.546498-1.696121-1.22-2.28l-13.78-14.4-.87-5.91l19.32-7l.85,5.25-14,5.25l14.69,16.12c1.451737,1.556636,2.994441,3.025878,4.62,4.4c1.11669.4721,2.332711.66103,3.54.55Zm-11-39.8l-18.38,6.65-.24-2l18.51-6.63Z" transform="translate(-199.2-158.51)" fill="#fff"/><path d="M438.92,549.23c.096801,2.207124-.516549,4.387143-1.75,6.22-1.276109,1.821738-3.398509,2.860279-5.62,2.75-2.831697-.024929-5.498821-1.334578-7.25-3.56q-3,3.55-6.4,3.56c-2.54,0-4.92-1.4-7.16-4.21q-3.54,3.69-6.93,3.69h-6.7v-5.24h6.32q3.65,0,3.65-3.85v-7.43h5.15v7.75c-.042145,1.164066.425227,2.288679,1.28,3.08.869702.792746,2.013762,1.215941,3.19,1.18c2.48,0,3.71-1.09,3.71-3.27v-8.74h5.15v7.75c-.031557,1.165335.446835,2.286452,1.31,3.07.882268.792843,2.034175,1.218547,3.22,1.19q3.69,0,3.69-3.27v-8.74h5.14Zm-18.39-14.94c.003945.87008-.359122,1.701502-1,2.29-.613891.616104-1.450304.9586-2.32.95-.940394.020947-1.856674-.298686-2.58-.9-.702131-.571298-1.100785-1.435049-1.08-2.34c0-1.88,1.12-2.81,3.36-2.81c2.42,0,3.62.93,3.62,2.81Zm5-7.43c.021444.879368-.344129,1.723842-1,2.31-.645624.593536-1.493053.91892-2.37.91-.926253.010779-1.827536-.300252-2.55-.88-.743506-.54655-1.178863-1.417265-1.17-2.34q0-2.83,3.37-2.84q3.74-.02,3.75,2.84Zm5.14,7.43c.024407.882829-.341426,1.73156-1,2.32-.645732.607364-1.503687.937623-2.39.92-.935559.009797-1.844953-.308667-2.57-.9-.717095-.562283-1.128194-1.428926-1.11-2.34c0-1.88,1.1-2.81,3.3-2.81c2.56,0,3.8.93,3.8,2.81Z" transform="translate(-199.2-158.51)" fill="#fff"/><path d="M463.66,558.35c.028963,3.422511-1.430781,6.688688-4,8.95-2.483107,2.389644-5.803949,3.7108-9.25,3.68h-6.81l-.67-5.23h6.63c2.266252.083629,4.480539-.691371,6.2-2.17c1.668482-1.497402,2.615079-3.638166,2.6-5.88q-6.57,0-9.56-1.76-4-2.34-4-8.43q0-6.62,3.12-9.27c1.29-1.1,3.43-1.64,6.44-1.64q6,0,8,5q1.23,3.14,1.23,10.12Zm-5.27-5.94v-5.41q0-5.16-4.12-5.16c-1.36805-.16091-2.700708.507385-3.39,1.7-.490224,1.30139-.698154,2.692137-.61,4.08c0,2.22.88,3.65,2.66,4.28c1.784757.439123,3.624793.610995,5.46.51Z" transform="translate(-199.2-158.51)" fill="#fff"/><path d="M481.78,557.68q-6.66,0-9.38-2.58-1.81-1.67-1.81-5.46v-24.89h5.26v22.58q0,3.64,1.23,4.47c.5.33,2.07.54,4.7.61Z" transform="translate(-199.2-158.51)" fill="#fff"/><path d="M504.12,550.52q0,7.15-8,7.16h-16.47v-5.24h16.43c1.38,0,2.08-.82,2.08-2.46.032252-.671231-.213756-1.326049-.68-1.81l-13.65-14.4-.88-5.88l19.3-7l.79,5.28-13.62,5.1l10.79,12.08c1.077098,1.307334,2.053244,2.694666,2.92,4.15.603787.895325.946569,1.940982.99,3.02Z" transform="translate(-199.2-158.51)" fill="#fff"/></g><path d="M259.27,550.38c.08001,2.152516-.518143,4.275786-1.71,6.07-1.169374,1.817939-3.209765,2.885629-5.37,2.81q-3.56,0-7.32-3.53c-1.67,2.35-3.72,3.53-6.12,3.53-2.122347-.081895-4.169598-.807327-5.87-2.08.140166,3.710779-1.027846,7.352852-3.3,10.29-2.310226,2.922251-5.87767,4.564762-9.6,4.42h-7.92c-3.534828.08586-6.931164-1.374929-9.3-4-2.381848-2.584199-3.659393-5.996966-3.56-9.51v-10.77h5.09v11.06c-.090883,2.212435.785116,4.354982,2.4,5.87c1.618701,1.482128,3.756925,2.265545,5.95,2.18h6.77c2.187738.08536,4.318948-.706644,5.92-2.2c1.55276-1.540722,2.384154-3.664589,2.29-5.85v-16.27h5.2v7.72c-.030086,1.153355.466829,2.25761,1.35,3c.87008.780107,2.001503,1.204836,3.17,1.19q3.6,0,3.6-3.24v-8.67h5.06v7.66c-.019231,1.144785.462997,2.240758,1.32,3c.843868.799986,1.967344,1.23789,3.13,1.22q3.65,0,3.64-3.24v-8.64h5.15Z" transform="translate(-199.2-158.51)" fill="#cea72c"/><path d="M284,557.84c.081406,3.611424-1.200333,7.121033-3.59,9.83-2.343685,2.754264-5.804525,4.304662-9.42,4.22h-6.99l-.84-5.35h5.84c2.280605.061592,4.527307-.561911,6.45-1.79c1.981694-1.208013,3.170398-3.379684,3.12-5.7v-16.65h5.43Z" transform="translate(-199.2-158.51)" fill="#cea72c"/><path d="M313.56,558.74h-3.44c.108694,3.542508-1.281971,6.966522-3.83,9.43-2.563397,2.483781-6.022221,3.825473-9.59,3.72h-6.7l-.72-5.17h6.56c2.246561.076501,4.440428-.690461,6.15-2.15c1.663461-1.472375,2.614087-3.58852,2.61-5.81q-6.45,0-9.49-1.77-4-2.31-4-8.3q0-6.54,3.16-9.18q1.81-1.56,6.15-1.56q6.23,0,8.33,5.16q1.21,3,1.33,10.45h3.44Zm-8.79-5.18v-4.94c.046614-1.315295-.301677-2.614419-1-3.73-.698289-1.127676-1.944181-1.798247-3.27-1.76-1.349234-.158066-2.664108.497409-3.35,1.67-.486702,1.274459-.694703,2.638402-.61,4q0,3.3,2.75,4.22c1.791161.442782,3.636865.624658,5.48.54Z" transform="translate(-199.2-158.51)" fill="#cea72c"/><path d="M327.87,550.27c.031652,2.133479-.706817,4.206873-2.08,5.84-1.316234,1.678231-3.337271,2.649955-5.47,2.63h-8.53v-5.18c5.46,0,8.49-.1,9.11-.32c1.16-.42,1.73-2,1.73-4.69c0-.68,0-1.7,0-3.07s0-2.4,0-3.08h5.32Zm-6.13,18.18c.02364.96466-.361338,1.894418-1.06,2.56-.683203.66548-1.606615,1.026188-2.56,1q-3.87,0-3.87-3.58q0-3.12,3.73-3.12t3.76,3.14Z" transform="translate(-199.2-158.51)" fill="#cea72c"/><g style="isolation:isolate"><path d="M643.66,558.67c-1.363585.033923-2.726393-.09363-4.06-.38-1.325967-.340987-2.458161-1.202753-3.14-2.39-1.42701,2.133153-3.855033,3.37742-6.42,3.29-2.705218-.060256-5.23346-1.357547-6.86-3.52q-2.79,3.66-6.59,3.66c-1.950187-.049309-3.807414-.84373-5.19-2.22.125707,3.691981-1.045393,7.311424-3.31,10.23-2.280918,2.910302-5.814532,4.55635-9.51,4.43h-8.06c-3.509617.094479-6.88644-1.343865-9.25-3.94-2.369079-2.578691-3.639062-5.979661-3.54-9.48v-10.77h5.19v11c-.07883,2.172009.772372,4.274551,2.34,5.78c1.587811,1.49946,3.707056,2.30542,5.89,2.24h6.77c2.211199.094008,4.369268-.693688,6-2.19c1.582041-1.51644,2.434618-3.640596,2.34-5.83v-16.18h5.18v7.69c-.042468,1.145105.435429,2.247945,1.3,3c.86223.768875,1.98514,1.180132,3.14,1.15q3.48,0,3.48-3.22v-8.62h5.19v7.6c-.028591,1.144545.45107,2.243006,1.31,3c.841221.796657,1.96161,1.231167,3.12,1.21q3.54,0,3.54-3.22v-8.59h5.13v8c.004205,1.202492.765276,2.271997,1.9,2.67c1.365302.286558,2.755085.440606,4.15.46Z" transform="translate(-199.2-158.51)" fill="#fff"/><path d="M673.27,558.67q-6.63,0-9.36-3.77-1.53,3.76-7.15,3.77h-15.38v-5.16h15.47c1.36,0,2-.89,2-2.68.015401-.563451-.193164-1.110034-.58-1.52l-13.51-14.19-.95-5.82l19.07-6.89.71,5.16-13.5,5.06L664.4,548.5c1.123719,1.345927,2.402591,2.554311,3.81,3.6c1.501121.930363,3.233971,1.419027,5,1.41Z" transform="translate(-199.2-158.51)" fill="#fff"/><path d="M694.21,548.93c.112103,2.621225-.670779,5.202619-2.22,7.32-1.607012,2.091272-4.135513,3.264018-6.77,3.14-2.121278.021578-4.185917-.684281-5.85-2q-2.5,1.1-8.78,1.24v-5.16c2.94,0,4.65-.28,5.15-.86.278867-1.313933.386428-2.658444.32-4q.26-10.71,9.3-10.71c2.695717-.098243,5.248589,1.212282,6.74,3.46c1.477213,2.240795,2.215118,4.888159,2.11,7.57Zm-4.53-.28c0-3.75-1.48-5.62-4.46-5.62s-4.55,1.94-4.55,5.82q0,5.39,4.55,5.38c2.98,0,4.46-1.86,4.46-5.58Z" transform="translate(-199.2-158.51)" fill="#fff"/><path d="M706.76,558.67h-5.07v-33.24h5.07Z" transform="translate(-199.2-158.51)" fill="#fff"/></g><rect width="6" height="98.13" rx="3" ry="3" transform="translate(337.33 335.13)" fill="#fff"/><rect width="12.33" height="2.1" rx="0" ry="0" transform="matrix(.866025-.5 0.5 0.866025 498.636925 356.134231)" fill="#fff"/><rect width="12.33" height="2.100237" rx="0" ry="0" transform="matrix(.866025-.5 0.499944 0.865927 477.866093 366.286651)" fill="#fff"/></svg>