<svg width="12" height="14" viewBox="0 0 12 14" fill="none" xmlns="http://www.w3.org/2000/svg">
<path d="M6 1.35211C7.2405 1.35211 8.25 2.26208 8.25 3.38028H9.75C9.75 1.51639 8.06775 0 6 0C3.93225 0 2.25 1.51639 2.25 3.38028V4.73239H1.5C0.67275 4.73239 0 5.33882 0 6.08451V12.169C0 12.9147 0.67275 13.5211 1.5 13.5211H10.5C11.3273 13.5211 12 12.9147 12 12.169V6.08451C12 5.33882 11.3273 4.73239 10.5 4.73239H3.75V3.38028C3.75 2.26208 4.7595 1.35211 6 1.35211ZM10.5015 12.169H6.75V10.629C7.19625 10.3944 7.5 9.96304 7.5 9.46479C7.5 8.7191 6.82725 8.11268 6 8.11268C5.17275 8.11268 4.5 8.7191 4.5 9.46479C4.5 9.96237 4.80375 10.3944 5.25 10.629V12.169H1.5V6.08451H10.5L10.5015 12.169Z" fill="white"/>
<path d="M6 1.35211C7.2405 1.35211 8.25 2.26208 8.25 3.38028H9.75C9.75 1.51639 8.06775 0 6 0C3.93225 0 2.25 1.51639 2.25 3.38028V4.73239H1.5C0.67275 4.73239 0 5.33882 0 6.08451V12.169C0 12.9147 0.67275 13.5211 1.5 13.5211H10.5C11.3273 13.5211 12 12.9147 12 12.169V6.08451C12 5.33882 11.3273 4.73239 10.5 4.73239H3.75V3.38028C3.75 2.26208 4.7595 1.35211 6 1.35211ZM10.5015 12.169H6.75V10.629C7.19625 10.3944 7.5 9.96304 7.5 9.46479C7.5 8.7191 6.82725 8.11268 6 8.11268C5.17275 8.11268 4.5 8.7191 4.5 9.46479C4.5 9.96237 4.80375 10.3944 5.25 10.629V12.169H1.5V6.08451H10.5L10.5015 12.169Z" fill="white"/>
<path d="M6 1.35211C7.2405 1.35211 8.25 2.26208 8.25 3.38028H9.75C9.75 1.51639 8.06775 0 6 0C3.93225 0 2.25 1.51639 2.25 3.38028V4.73239H1.5C0.67275 4.73239 0 5.33882 0 6.08451V12.169C0 12.9147 0.67275 13.5211 1.5 13.5211H10.5C11.3273 13.5211 12 12.9147 12 12.169V6.08451C12 5.33882 11.3273 4.73239 10.5 4.73239H3.75V3.38028C3.75 2.26208 4.7595 1.35211 6 1.35211ZM10.5015 12.169H6.75V10.629C7.19625 10.3944 7.5 9.96304 7.5 9.46479C7.5 8.7191 6.82725 8.11268 6 8.11268C5.17275 8.11268 4.5 8.7191 4.5 9.46479C4.5 9.96237 4.80375 10.3944 5.25 10.629V12.169H1.5V6.08451H10.5L10.5015 12.169Z" fill="white"/>
</svg>
