<svg width="12" height="15" viewBox="0 0 12 15" fill="none" xmlns="http://www.w3.org/2000/svg">
<path d="M6 0C3.93225 0 2.25 1.68225 2.25 3.75V5.25H1.5C0.67275 5.25 0 5.92275 0 6.75V13.5C0 14.3272 0.67275 15 1.5 15H10.5C11.3272 15 12 14.3272 12 13.5V6.75C12 5.92275 11.3272 5.25 10.5 5.25H9.75V3.75C9.75 1.68225 8.06775 0 6 0ZM3.75 3.75C3.75 2.5095 4.7595 1.5 6 1.5C7.2405 1.5 8.25 2.5095 8.25 3.75V5.25H3.75V3.75ZM10.5015 13.5H6.75V11.7915C7.19625 11.5312 7.5 11.0527 7.5 10.5C7.5 9.67275 6.82725 9 6 9C5.17275 9 4.5 9.67275 4.5 10.5C4.5 11.052 4.80375 11.5312 5.25 11.7915V13.5H1.5V6.75H10.5L10.5015 13.5Z" fill="white"/>
</svg>
