<svg width="147" height="39" viewBox="0 0 147 39" fill="none" xmlns="http://www.w3.org/2000/svg">
<path fill-rule="evenodd" clip-rule="evenodd" d="M112.414 8.95892L103.239 32.8286C103.165 33.0226 103.069 33.411 102.88 33.4124L97.6016 33.4516C97.232 33.4541 97.2747 33.0326 97.4439 32.6022L108.667 4.06223C108.932 3.38759 109.13 3.06999 110.026 3.0686C111.907 3.06555 114.289 3.0561 116.063 3.06944C116.199 3.07055 116.243 3.07722 116.298 3.08805C116.471 3.09778 116.567 3.19753 116.637 3.36924L117.244 4.85162L125.811 25.8305C126.209 26.8046 126.02 27.5207 125.68 28.4851C125.121 30.072 123.974 32.0473 123.236 32.6891C122.625 33.2204 121.842 33.4927 120.793 33.4941C116.112 33.5013 113.541 33.461 108.86 33.468C108.22 33.4688 107.435 33.5294 107.664 32.935L109.493 28.1675C109.66 27.7344 109.796 27.6543 110.295 27.6538C114.118 27.6488 115.618 27.6921 119.441 27.6855C119.493 27.6857 119.962 27.7735 119.936 27.2348C119.907 26.6235 119.708 26.0814 119.584 25.7863C117.219 20.1791 115.066 14.5719 112.701 8.96476C112.529 8.54325 112.577 8.53658 112.414 8.95892Z" fill="white"/>
<path fill-rule="evenodd" clip-rule="evenodd" d="M25.7745 8.92572L16.4802 33.1991C16.3476 33.5459 16.2346 33.5006 15.4391 33.5156L10.9032 33.4298C10.5325 33.4228 10.55 33.3011 10.7176 32.8699L21.9213 4.02902C22.1839 3.35327 22.384 3.03679 23.2801 3.0354C25.1616 3.03234 27.543 3.0229 29.3174 3.03624C29.4535 3.03735 29.4968 3.04401 29.5528 3.05485C29.7258 3.06458 29.8213 3.16432 29.8915 3.33604L30.4986 4.81842L39.0657 25.7973C39.4636 26.7714 39.2742 27.4875 38.9347 28.4519C38.3757 30.0388 37.2284 32.0141 36.4904 32.6559C35.8798 33.1872 35.0961 33.4595 34.047 33.4609C29.3658 33.4675 26.9011 33.4284 22.2202 33.4348C21.5813 33.4356 20.7958 33.4962 21.0239 32.9018L22.8537 28.1343C23.02 27.7011 23.1564 27.6211 23.6557 27.6206C27.4784 27.6161 28.8724 27.6589 32.6954 27.6522C32.7474 27.6525 33.2163 27.7403 33.1904 27.2016C33.1611 26.5903 32.9623 26.0479 32.838 25.7531C30.4736 20.1459 28.4261 14.5387 26.0615 8.93155C25.8888 8.51004 25.9372 8.50171 25.7747 8.92627L25.7745 8.92572Z" fill="white"/>
<path fill-rule="evenodd" clip-rule="evenodd" d="M17.6225 3.74944C13.7067 13.5181 10.1086 23.287 6.19306 33.056C6.06178 33.4536 5.82154 33.4128 5.67923 33.4397C3.96748 33.4386 2.25573 33.4378 0.544246 33.4366C0.0613613 33.4364 -0.105424 33.0918 0.0648633 32.6567L11.4962 3.43518C11.5669 3.24846 11.6487 3.04478 12.0318 3.04839C13.7355 3.06423 15.4391 3.04867 17.1428 3.04867C17.22 3.02339 17.8038 3.11203 17.623 3.74916L17.6225 3.74944Z" fill="#D9A523"/>
<path fill-rule="evenodd" clip-rule="evenodd" d="M78.4741 3.39704C78.3998 3.5782 78.3199 3.7627 78.2478 3.9547L69.9791 25.9091C69.5917 26.8691 69.7598 26.8858 69.3789 25.9411C67.022 20.0385 62.763 9.31098 60.3542 3.42899C60.2256 3.11557 60.1395 3.10973 59.9499 3.10862C58.176 3.09695 55.7941 3.10473 53.9126 3.10751C53.0163 3.1089 52.8207 3.4276 52.5538 4.10141C48.7354 13.7339 45.1284 23.4759 41.31 33.1081C41.1287 33.5652 41.2282 33.6386 41.4682 33.6386C43.3128 33.6394 44.946 33.6411 46.7907 33.6419C46.9631 33.6419 47.0812 33.5616 47.1869 33.2793C50.1741 25.3048 53.0983 17.4158 56.2178 9.53909C56.3781 9.13425 56.3249 9.12925 56.4946 9.53159C59.81 17.2652 62.3855 24.818 65.6998 32.551C65.9301 33.0881 66.4181 33.4371 67.0196 33.4366C68.4435 33.4343 70.7041 33.4741 72.1277 33.4763C72.729 33.4771 73.2371 33.137 73.4475 32.5908L82.3342 9.49964C82.5039 9.0973 82.4469 9.10453 82.611 9.50714L92.0761 32.7103C92.559 33.8942 92.4901 33.7489 92.9065 32.7133C93.6816 30.7869 94.3355 29.0714 95.0874 27.1342C95.5375 25.9744 95.4729 26.2631 95.0092 25.0936L86.381 4.06918C86.1061 3.39926 85.9186 3.07667 85.0222 3.07528C83.1407 3.07222 80.6528 3.06527 78.8792 3.07639C78.6901 3.0775 78.6035 3.08333 78.4749 3.39676L78.4741 3.39704ZM98.3129 33.5519C98.3369 33.5272 98.3509 33.4921 98.3528 33.4432L98.3129 33.5519Z" fill="white"/>
<path fill-rule="evenodd" clip-rule="evenodd" d="M145.796 3.42105C141.95 13.3253 138.209 23.2296 134.363 33.1338C134.225 33.5009 133.915 33.447 133.915 33.447C132.22 33.4448 130.525 33.4425 128.83 33.4403C128.381 33.4397 128.22 33.1536 128.391 32.7154C132.224 22.9278 136.015 13.2122 139.933 3.46079C139.999 3.22877 140.096 3.03122 140.496 3.04567C142.117 3.04622 143.843 3.04622 145.464 3.04677C145.599 3.09179 145.798 3.09124 145.796 3.42105H145.796Z" fill="white"/>
<path fill-rule="evenodd" clip-rule="evenodd" d="M128.643 3.45426C132.489 13.3585 136.653 23.2628 140.499 33.167C140.637 33.5341 140.947 33.4802 140.947 33.4802C142.642 33.478 144.125 33.4757 145.82 33.4735C146.269 33.473 146.431 33.1868 146.259 32.7486C142.427 22.961 138.318 13.2454 134.4 3.494C134.334 3.26198 134.238 3.06442 133.837 3.07887C132.216 3.07943 130.596 3.07943 128.975 3.07998C128.84 3.125 128.64 3.12444 128.643 3.45426Z" fill="white"/>
<path fill-rule="evenodd" clip-rule="evenodd" d="M16.379 0.320312L1.34935 38.5539H0.351562L15.3813 0.320312H16.379Z" fill="#D9A523"/>
</svg>
