<?xml version="1.0" encoding="UTF-8" standalone="no"?>
<!-- Creator: CorelDRAW 2020 (64-Bit) -->

<svg
   xml:space="preserve"
   width="1381"
   height="853"
   version="1.1"
   style="clip-rule:evenodd;fill-rule:evenodd;image-rendering:optimizeQuality;shape-rendering:geometricPrecision;text-rendering:geometricPrecision"
   viewBox="0 0 14385.416 8885.4172"
   id="svg43"
   sodipodi:docname="logo-fa.svg"
   inkscape:version="1.1.2 (0a00cf5339, 2022-02-04, custom)"
   xmlns:inkscape="http://www.inkscape.org/namespaces/inkscape"
   xmlns:sodipodi="http://sodipodi.sourceforge.net/DTD/sodipodi-0.dtd"
   xmlns="http://www.w3.org/2000/svg"
   xmlns:svg="http://www.w3.org/2000/svg"><sodipodi:namedview
   id="namedview45"
   pagecolor="#ffffff"
   bordercolor="#666666"
   borderopacity="1.0"
   inkscape:pageshadow="2"
   inkscape:pageopacity="0.0"
   inkscape:pagecheckerboard="0"
   inkscape:document-units="in"
   showgrid="false"
   units="px"
   inkscape:zoom="0.24150436"
   inkscape:cx="596.26252"
   inkscape:cy="443.05618"
   inkscape:window-width="1366"
   inkscape:window-height="699"
   inkscape:window-x="0"
   inkscape:window-y="0"
   inkscape:window-maximized="1"
   inkscape:current-layer="Layer_x0020_1" />
 <defs
   id="defs4">
  <style
   type="text/css"
   id="style2">
   <![CDATA[
    .fil1 {fill:#CEA71D}
    .fil0 {fill:white}
   ]]>
  </style>
 </defs>
 <g
   id="Layer_x0020_1"
   inkscape:label="Layer 1"
   inkscape:groupmode="layer">
  <metadata
   id="CorelCorpID_0Corel-Layer" />
  <g
   id="_1520072685152"
   transform="matrix(3.0393441,0,0,3.0393441,-21952.176,-9434.754)">
   <polygon
   class="fil0"
   points="11624.77,3162.36 11883.59,3162.36 11883.59,5439.51 11624.77,5439.51 "
   id="polygon7" />
   <path
   class="fil0"
   d="m 7281.05,6006.93 v -72.86 h 1024.11 l 1.21,-1734.55 h 258.82 v 472.43 0 694.32 l 288.09,1.07 V 4199.53 h 258.83 v 1167.45 l 288.11,-0.34 V 4199.53 h 258.82 v 1166.75 l 300.31,-0.41 v -2203.5 h 256.62 l 1128.29,0.02 v 72.83 h -1128.19 l -0.02,2130.64 303.24,0.41 V 4199.52 c 289.71,0 535.31,0 825,0 V 5439.49 H 8565.2 v 567.44 h -208.26 -50.88 -1025 z m 3497.06,-640.66 h 307.35 V 4272.38 h -307.35 z"
   id="path9" />
   <rect
   class="fil0"
   x="8047.3599"
   y="4347.9399"
   width="159.99001"
   height="159.99001"
   id="rect11" />
   <rect
   class="fil1"
   x="8047.3599"
   y="4987.9199"
   width="159.99001"
   height="159.99001"
   id="rect13" />
   <rect
   class="fil0"
   x="8047.3599"
   y="4667.9302"
   width="159.99001"
   height="159.99001"
   id="rect15" />
   <rect
   class="fil0"
   x="8047.3599"
   y="5307.9102"
   width="159.99001"
   height="159.99001"
   id="rect17" />
   <rect
   class="fil0"
   x="8047.3599"
   y="5627.8999"
   width="159.99001"
   height="159.99001"
   id="rect19" />
   <rect
   class="fil1"
   x="7727.3701"
   y="4347.9399"
   width="159.99001"
   height="159.99001"
   id="rect21" />
   <rect
   class="fil0"
   x="7727.3701"
   y="4987.9199"
   width="159.99001"
   height="159.99001"
   id="rect23" />
   <rect
   class="fil1"
   x="7727.3701"
   y="4667.9302"
   width="159.99001"
   height="159.99001"
   id="rect25" />
   <rect
   class="fil0"
   x="7727.3701"
   y="5307.9102"
   width="159.99001"
   height="159.99001"
   id="rect27" />
   <rect
   class="fil0"
   x="7727.3701"
   y="5627.8999"
   width="159.99001"
   height="159.99001"
   id="rect29" />
   <rect
   class="fil1"
   x="7407.3901"
   y="4347.9399"
   width="159.99001"
   height="159.99001"
   id="rect31" />
   <rect
   class="fil0"
   x="7407.3901"
   y="4987.9199"
   width="159.99001"
   height="159.99001"
   id="rect33" />
   <rect
   class="fil1"
   x="7407.3901"
   y="4667.9302"
   width="159.99001"
   height="159.99001"
   id="rect35" />
   <rect
   class="fil0"
   x="7407.3901"
   y="5307.9102"
   width="159.99001"
   height="159.99001"
   id="rect37" />
   <rect
   class="fil0"
   x="7407.3901"
   y="5627.8999"
   width="159.99001"
   height="159.99001"
   id="rect39" />
  </g>
 </g>
</svg>
