<svg xmlns="http://www.w3.org/2000/svg" xmlns:xlink="http://www.w3.org/1999/xlink" viewBox="3600 2600 11800 7200" shape-rendering="geometricPrecision" xmlns:v="https://vecta.io/nano"><style><![CDATA[#A{animation:eqmRCn9SgvH7_c_o 10000ms linear infinite normal forwards}#B{animation:eqmRCn9SgvH9_c_o 10000ms linear infinite normal forwards}#C{animation:eqmRCn9SgvH11_c_o 10000ms linear infinite normal forwards}#D{animation:eqmRCn9SgvH13_c_o 10000ms linear infinite normal forwards}#E{animation:eqmRCn9SgvH15_c_o 10000ms linear infinite normal forwards}#F{animation:eqmRCn9SgvH17_c_o 10000ms linear infinite normal forwards}#G{animation:eqmRCn9SgvH19_c_o 10000ms linear infinite normal forwards}#H{animation:eqmRCn9SgvH21_c_o 10000ms linear infinite normal forwards}#I{animation:eqmRCn9SgvH23_c_o 10000ms linear infinite normal forwards}#J{animation:eqmRCn9SgvH25_c_o 10000ms linear infinite normal forwards}#K{animation:eqmRCn9SgvH27_c_o 10000ms linear infinite normal forwards}#L{animation:eqmRCn9SgvH29_c_o 10000ms linear infinite normal forwards}#M{animation:eqmRCn9SgvH31_c_o 10000ms linear infinite normal forwards}#N{animation:eqmRCn9SgvH33_c_o 10000ms linear infinite normal forwards}#O{animation:eqmRCn9SgvH35_c_o 10000ms linear infinite normal forwards}@keyframes eqmRCn9SgvH7_c_o{0%{opacity:1}10%{opacity:1}12%{opacity:0}20%{opacity:0}22%{opacity:1}30%{opacity:1}32%{opacity:0}40%{opacity:0}42%{opacity:1}50%{opacity:1}52%{opacity:0}60%{opacity:0}62%{opacity:1}70%{opacity:1}72%{opacity:0}80%{opacity:0}82%{opacity:1}100%{opacity:1}} @keyframes eqmRCn9SgvH9_c_o{0%{opacity:1}10%{opacity:1}12%{opacity:0}30%{opacity:0}32%{opacity:1}40%{opacity:1}42%{opacity:0}90%{opacity:0}92%{opacity:1}100%{opacity:1}} @keyframes eqmRCn9SgvH11_c_o{0%{opacity:1}10%{opacity:1}12%{opacity:0}40%{opacity:0}42%{opacity:1}50%{opacity:1}52%{opacity:0}90%{opacity:0}92%{opacity:1}100%{opacity:1}} @keyframes eqmRCn9SgvH13_c_o{0%{opacity:1}10%{opacity:1}12%{opacity:0}30%{opacity:0}32%{opacity:1}40%{opacity:1}42%{opacity:0}50%{opacity:0}52%{opacity:1}80%{opacity:1}82%{opacity:0}90%{opacity:0}92%{opacity:1}100%{opacity:1}} @keyframes eqmRCn9SgvH15_c_o{0%{opacity:0}2%{opacity:1}10%{opacity:1}12%{opacity:0}30%{opacity:0}32%{opacity:1}40%{opacity:1}42%{opacity:0}60%{opacity:0}62%{opacity:1}70%{opacity:1}72%{opacity:0}80%{opacity:0}82%{opacity:1}90%{opacity:1}92%{opacity:0}100%{opacity:0}} @keyframes eqmRCn9SgvH17_c_o{0%{opacity:1}10%{opacity:1}12%{opacity:0}20%{opacity:0}22%{opacity:1}30%{opacity:1}32%{opacity:0}50%{opacity:0}52%{opacity:1}60%{opacity:1}62%{opacity:0}70%{opacity:0}72%{opacity:1}80%{opacity:1}82%{opacity:0}90%{opacity:0}92%{opacity:1}100%{opacity:1}} @keyframes eqmRCn9SgvH19_c_o{0%{opacity:0}2%{opacity:1}10%{opacity:1}12%{opacity:0}50%{opacity:0}52%{opacity:1}70%{opacity:1}72%{opacity:0}100%{opacity:0}} @keyframes eqmRCn9SgvH21_c_o{0%{opacity:1}10%{opacity:1}12%{opacity:0}20%{opacity:0}22%{opacity:1}30%{opacity:1}32%{opacity:0}40%{opacity:0}42%{opacity:1}70%{opacity:1}72%{opacity:0}90%{opacity:0}92%{opacity:1}100%{opacity:1}} @keyframes eqmRCn9SgvH23_c_o{0%{opacity:0}2%{opacity:1}40%{opacity:1}42%{opacity:0}50%{opacity:0}52%{opacity:1}60%{opacity:1}62%{opacity:0}70%{opacity:0}72%{opacity:1}90%{opacity:1}92%{opacity:0}100%{opacity:0}} @keyframes eqmRCn9SgvH25_c_o{0%{opacity:1}40%{opacity:1}42%{opacity:0}50%{opacity:0}52%{opacity:1}70%{opacity:1}72%{opacity:0}80%{opacity:0}82%{opacity:1}100%{opacity:1}} @keyframes eqmRCn9SgvH27_c_o{0%{opacity:0}2%{opacity:1}10%{opacity:1}12%{opacity:0}20%{opacity:0}22%{opacity:1}60%{opacity:1}62%{opacity:0}70%{opacity:0}72%{opacity:1}80%{opacity:1}82%{opacity:0}100%{opacity:0}} @keyframes eqmRCn9SgvH29_c_o{0%{opacity:1}20%{opacity:1}22%{opacity:0}30%{opacity:0}32%{opacity:1}50%{opacity:1}52%{opacity:0}60%{opacity:0}62%{opacity:1}80%{opacity:1}82%{opacity:0}90%{opacity:0}92%{opacity:1}100%{opacity:1}} @keyframes eqmRCn9SgvH31_c_o{0%{opacity:1}30%{opacity:1}32%{opacity:0}40%{opacity:0}42%{opacity:1}50%{opacity:1}52%{opacity:0}60%{opacity:0}62%{opacity:1}100%{opacity:1}} @keyframes eqmRCn9SgvH33_c_o{0%{opacity:1}10%{opacity:1}12%{opacity:0}30%{opacity:0}32%{opacity:1}60%{opacity:1}62%{opacity:0}70%{opacity:0}72%{opacity:1}100%{opacity:1}} @keyframes eqmRCn9SgvH35_c_o{0%{opacity:1}20%{opacity:1}22%{opacity:0}30%{opacity:0}32%{opacity:1}40%{opacity:1}42%{opacity:0}50%{opacity:0}52%{opacity:1}70%{opacity:1}72%{opacity:0}80%{opacity:0}82%{opacity:1}100%{opacity:1}}.B{fill-rule:evenodd}.C{fill:#fff}.D{fill:#cea71d}]]></style><g transform="matrix(1.937683 0 0 1.93768 -2495.405335 -1624.232691)" class="B"><g class="C"><path transform="translate(8783.29 2201.51)" d="M0 0h341.98v2939.68H0z"/><path d="M4840.35 5141.19h3576.87V3536.65H7351.55v1497.18h-379.48V2308.88H8416.1v-107.37H6630.09v2832.31H6247.5V3536.64h-341.98v1497.18h-361.59V3536.64h-341.98v1497.18h-361.59V3536.64h-341.98v2225.89H3184.29v107.36h1656.07v-728.7zm3234.89-107.36h-381.71V3644.02h381.71v1389.81z"/></g><use xlink:href="#Q" transform="translate(4172.65 3731.84)" class="D"/><path id="A" transform="translate(4172.65 3731.84)" d="M0 0h206.31v206.31H0z" class="C"/><use xlink:href="#Q" transform="translate(3761.94 3731.79)" class="C"/><path id="B" transform="translate(3761.94 3731.79)" d="M0 0h206.31v206.31H0z" class="D"/><use xlink:href="#Q" transform="translate(3342.88 3731.84)" class="C"/><path id="C" transform="translate(3342.88 3731.84)" d="M0 0h206.31v206.31H0z" class="D"/><use xlink:href="#Q" transform="translate(4172.65 4146.93)" class="D"/><path id="D" transform="translate(4172.65 4146.93)" d="M0 0h206.31v206.31H0z" class="C"/><use xlink:href="#Q" transform="translate(3761.94 4146.89)" class="C"/><path id="E" transform="translate(3761.94 4146.89)" opacity="0" d="M0 0h206.31v206.31H0z" class="D"/><use xlink:href="#Q" transform="translate(3342.88 4146.93)" class="C"/><path id="F" transform="translate(3342.88 4146.93)" d="M0 0h206.31v206.31H0z" class="D"/><use xlink:href="#Q" transform="translate(4172.65 4562.02)" class="C"/><path id="G" transform="translate(4172.65 4562.02)" opacity="0" d="M0 0h206.31v206.31H0z" class="D"/><use xlink:href="#Q" transform="translate(3761.94 4561.98)" class="D"/><path id="H" transform="translate(3761.94 4562.02)" d="M0 0h206.31v206.31H0z" class="C"/><use xlink:href="#Q" transform="translate(3342.88 4562.02)" class="D"/><path id="I" transform="translate(3342.88 4562.02)" opacity="0" d="M0 0h206.31v206.31H0z" class="C"/><use xlink:href="#Q" transform="translate(4172.65 4977.12)" class="D"/><path id="J" transform="translate(4172.65 4977.12)" d="M0 0h206.31v206.31H0z" class="C"/><use xlink:href="#Q" transform="translate(3761.94 4977.07)" class="D"/><path id="K" transform="translate(3761.94 4977.07)" opacity="0" d="M0 0h206.31v206.31H0z" class="C"/><use xlink:href="#Q" transform="translate(3342.88 4977.12)" class="D"/><path id="L" transform="translate(3342.88 4977.12)" d="M0 0h206.31v206.31H0z" class="C"/><use xlink:href="#Q" transform="translate(4172.65 5392.21)" class="D"/><path id="M" transform="translate(4172.65 5392.21)" d="M0 0h206.31v206.31H0z" class="C"/><use xlink:href="#Q" transform="translate(3761.94 5392.16)" class="D"/><path id="N" transform="translate(3761.94 5392.16)" d="M0 0h206.31v206.31H0z" class="C"/><use xlink:href="#Q" transform="translate(3342.88 5392.21)" class="D"/><path id="O" transform="translate(3342.88 5392.21)" d="M0 0h206.31v206.31H0z" class="C"/></g><defs ><path id="Q" d="M0 0h206.31v206.31H0z"/></defs></svg>