<svg width="50" height="91" viewBox="0 0 50 91" fill="none" xmlns="http://www.w3.org/2000/svg">
<path fill-rule="evenodd" clip-rule="evenodd" d="M23 19.3909C23.0773 20.4578 25.2848 24.9184 25.8347 26.1837C26.3632 27.3996 26.8361 28.3481 27.3864 29.6145C27.7834 30.5284 28.3709 32.1562 28.784 32.887L31.2941 33L46 0.0303718L31.9428 0C31.3131 0.313988 31.5613 0.102198 31.1863 0.882626L29.5261 4.65702C28.8335 6.28062 28.0596 7.93658 27.3613 9.52157C26.5379 11.3913 23.3733 18.0029 23.0003 19.3912L23 19.3909Z" fill="#A5A5A5"/>
<path fill-rule="evenodd" clip-rule="evenodd" d="M16.6485 32.4663L17.7148 35H32L30.7942 32.3207C30.3844 31.6024 29.8016 30.0024 29.4078 29.1042C28.8622 27.8597 28.3928 26.9272 27.8686 25.732C27.3233 24.4884 25.1336 20.1041 25.0566 19.0555C24.7602 18.8007 24.9311 18.998 24.6903 18.6551L16.2982 0.00502759L2 0L16.6483 32.4666L16.6485 32.4663Z" fill="#E5E5E5"/>
<path fill-rule="evenodd" clip-rule="evenodd" d="M21.1859 81.9157C23.3359 81.2754 23.0412 81.9917 23.899 80.3035C24.2824 79.5491 24.0981 79.7707 24.6195 79.391C25.8041 81.6433 25.1164 81.2418 27.7843 81.8839C26.4901 84.319 26.3368 82.3163 26.6139 86.2567C23.1357 85.1025 25.5994 85.3907 22.3554 86.2263L22.5874 83.4688C21.7091 82.8586 21.5524 82.8996 21.1859 81.916V81.9157ZM31.2008 44.6643C32.2097 44.8063 32.6866 45.0733 33.1275 45.7497C33.7556 46.7141 33.2871 46.8712 33.2858 46.8738C33.28 46.8841 33.2444 46.9398 33.2397 46.9481C33.2347 46.9567 33.1962 46.9954 33.1936 47.0261C33.5323 47.4387 33.8515 47.675 34.4451 47.8408C34.1383 46.9074 33.8267 46.2573 33.7601 45.1065C35.2096 45.1002 35.927 46.7107 36.1029 48.3802L35.2436 47.1764C35.5538 48.478 35.9362 49.1914 36.8624 49.6591L36.6317 47.3705C38.2672 47.8388 39.0317 49.3159 39.1391 51.4846L38.0299 49.7027C38.3665 50.9157 38.677 52.1861 39.4125 52.7656L39.6266 50.3531C40.4815 50.635 40.8633 51.2833 41.1936 52.2248C41.4159 52.8582 41.6208 53.8843 41.4648 54.5779C41.1499 55.9796 41.4917 54.8567 41.0975 55.4078L40.6347 53.028C40.5563 55.3837 40.7912 55.7714 41.4459 57.7745C41.8141 56.9879 41.8717 56.0765 42.6647 55.4898C43.9638 56.8445 43.9135 59.8761 42.6407 61.0934L42.5488 59.4612C42.5283 59.5085 42.4848 59.5859 42.4611 59.645C41.95 60.9219 42.2836 61.7604 42.3645 63.0821C43.1451 62.4102 43.371 60.7869 44.898 61.1273C45.2561 63.4116 44.6517 65.878 42.7542 66.1358C43.0969 65.256 43.677 64.7258 43.853 63.4816C43.159 64.9366 41.9642 65.3343 42.0732 67.4756C42.6829 66.9749 43.5203 66.3457 44.7065 66.6841C44.7826 69.287 43.8672 70.9657 41.5478 71.1544C41.9837 70.416 42.2533 70.4599 43.2249 68.7729C40.3588 71.0133 41.4893 69.8958 40.4098 72.1268C41.759 71.7377 41.886 71.4246 43.4598 72.0388C43.7566 74.1984 41.5525 75.8539 39.5542 74.8215C40.4438 74.3802 41.0835 74.1798 41.6331 73.5583C39.4259 74.039 39.259 73.8683 38.3625 75.7472C39.7915 75.4547 40.2797 75.6548 41.4269 76.0853C41.0856 78.4777 39.3087 79.8137 36.9538 78.6177C37.8782 78.0915 38.4979 78.0327 39.4286 77.3909C36.9996 77.721 36.8529 77.5062 35.7026 79.2973C37.481 79.1576 37.9762 79.3572 38.9653 80.3374C38.2835 82.4373 36.1416 82.7986 34.5904 81.267L37.0197 80.9479C34.7943 80.5114 34.705 80.1034 32.5199 82.2819C31.121 83.677 30.7786 82.79 32.3993 81.4394C32.9734 80.9611 33.3226 80.4979 33.8467 79.9967C34.927 78.9641 35.8014 78.4298 35.2491 75.9517L34.847 78.5093C34.1485 77.8477 34.0284 76.6427 34.0621 75.6792C34.1045 74.4702 34.3766 73.7674 34.9952 73.1506C36.0147 74.1723 36.2306 75.4934 36.0281 77.4141C37.4718 76.5768 37.5169 75.2436 37.445 72.9246L36.7882 75.9172C35.7094 74.5551 35.7129 70.7013 37.416 69.8239C38.3217 72.2484 38.2195 71.4243 38.2985 74.4126C39.132 72.59 40.4512 72.019 39.0433 69.1961L39.1491 72.2891C37.6504 71.1662 37.4123 67.7913 38.1861 65.9859C39.4286 66.7825 40.0372 68.5377 40.1286 70.8433C41.7293 68.4004 41.0651 67.7357 40.1952 65.3269C40.2732 66.1946 40.97 67.6502 40.5141 68.4738C39.4083 67.194 38.4902 65.3911 38.9169 62.7598C40.4077 62.9164 41.0382 64.9409 41.4733 66.7925C42.0405 63.912 41.7437 63.378 40.5921 61.3679L41.4422 64.1038C39.9268 63.4612 38.9709 61.3813 39.0788 58.9843C40.3287 59.222 41.0796 60.0204 41.4922 61.2311C41.4577 58.629 40.5247 57.4177 39.2821 56.5167C39.7844 57.1399 40.3545 57.9287 40.6519 58.8862C39.5755 58.6124 39.1468 58.2404 38.5095 57.4756C37.9633 56.8204 37.5677 56.0361 37.5877 54.8765C38.9585 54.8928 39.4062 55.3648 40.122 55.9727C39.8281 54.4784 39.1052 53.3426 37.8587 52.8766L39.063 54.358C37.4252 54.5464 34.7129 52.7653 36.0221 51.3983C36.0531 51.3659 36.1221 51.3135 36.1687 51.2667C35.3047 51.3725 34.9086 51.5059 34.0948 51.1589C33.378 50.8529 33.1101 50.5452 32.8383 49.8409L34.6307 48.7745C32.984 48.1513 33.7856 47.7533 31.8457 48.4261C32.7193 48.5302 32.7822 48.2408 33.2895 48.7945C32.4812 49.51 31.85 49.7922 30.5632 49.2189C30.7557 47.9506 31.1694 48.1184 32.0009 47.4714C30.8276 47.1096 29.7889 48.026 28.8564 46.9223C29.2525 45.7202 30.1242 45.6081 31.3335 46.2384L30.1626 46.5851L32.1815 46.9389C31.7486 46.343 31.3899 45.7968 31.2 44.6649L31.2008 44.6643ZM16.8157 46.9587L17.629 46.3496C18.7164 45.5857 19.5709 45.7729 20.1372 46.9217C18.9808 48.1674 18.4433 47.2088 17.0335 47.3934C17.1968 47.55 17.1686 47.4992 17.4417 47.6917C17.669 47.852 18.2249 48.0859 18.305 48.6362C18.5689 50.45 16.4378 49.5642 15.6925 48.5889L17.2002 48.4238C15.4568 48.1654 16.265 47.6693 14.3678 48.8358C15.3296 49.3764 15.3349 48.9809 16.0633 49.9373C15.5874 51.2825 13.6683 51.9406 12.4861 50.8225L14.3431 49.9923C12.6671 49.8469 12.0102 50.6462 11.4032 51.5606C13.0405 51.3106 14.0792 51.3567 12.9122 53.0105C12.3679 53.7819 11.3268 54.6869 9.93762 54.2688C10.1486 53.9497 11.321 52.8175 11.7292 52.5795C10.0327 53.2098 9.40037 53.6953 8.91395 55.8569L9.39484 55.5076C10.0469 55.0471 10.1839 54.8842 11.3737 54.8676C11.4751 56.7576 9.88522 58.6138 8.3401 58.8237L9.69349 56.5035C8.27742 57.5316 7.72701 58.3921 7.49104 60.9629C7.53318 60.9174 7.59322 60.7809 7.61245 60.8213C7.72569 61.0587 7.94875 59.5168 9.89944 58.9255C10.0711 61.3151 9.36719 61.8313 8.69432 63.4669C9.65267 63.0454 9.1602 62.9608 10.0643 62.705C10.428 65.119 9.89522 65.4903 9.35745 67.4297L10.8367 66.0074C11.5135 67.6101 11.3537 69.4336 10.7056 71.0308C10.6413 71.1897 10.5136 71.4885 10.4122 71.6442L9.79962 72.2989L9.91155 69.5712C9.76855 69.7811 9.83965 69.5532 9.64477 70.0914C9.40617 70.751 9.22788 71.6092 9.42487 72.2544C9.6237 72.9059 10.2539 73.7049 10.6392 74.3828C10.7567 72.8512 10.3772 71.3299 11.7772 69.8761C13.0895 71.516 13.1827 74.17 12.5857 75.3993L12.2033 75.8851L11.621 72.9478C11.5125 73.8084 11.3977 74.7817 11.6163 75.6319C11.7967 76.3333 11.666 75.9875 12.0813 76.5071C12.0821 76.508 12.3608 76.822 12.4047 76.8673L12.6615 77.1199C12.7018 77.1586 12.7692 77.2177 12.8029 77.2492C12.8374 77.2816 12.8978 77.3396 12.9486 77.38C12.8177 75.7248 12.9191 73.8256 14.1761 73.0918C14.8829 74.7676 15.3967 76.3302 14.3336 78.4192C13.8693 77.8319 13.9699 76.719 13.7321 75.8957C13.3444 79.6953 15.353 79.9938 17.2792 82.0014C17.4636 82.1936 17.749 82.443 17.5639 82.9598C16.9369 83.0143 15.9063 81.7663 15.3946 81.2501C14.3333 80.1796 13.8619 80.6692 12.0042 80.8707L14.3731 81.2974C12.962 82.6501 11.1222 82.5463 10.0488 80.5544C10.6727 79.3016 11.7732 79.2503 13.2767 79.252C12.4845 77.8196 11.7793 77.4735 9.51941 77.4193L12.0121 78.6354C9.66347 79.3879 7.88713 78.8324 7.55951 76.1363C8.88235 75.5324 8.91632 75.4062 10.5926 75.7469C9.87705 74.1258 9.75169 73.9965 7.40729 73.5652L8.35011 74.3349C8.89578 74.6251 8.95109 74.5006 9.41855 74.9202C7.21926 75.5714 5.38287 74.5003 5.48769 72.0775C6.98882 71.5702 7.15341 71.5573 8.56553 72.1644C7.83946 70.0736 7.55872 70.0662 5.97542 69.0846C6.49845 70.7228 6.70703 69.5173 7.45549 71.1599C5.07263 70.8943 4.12112 69.4875 4.27282 66.5608C5.79792 66.5052 5.86376 66.7962 6.94089 67.405C6.67121 65.0516 6.29224 65.1104 5.15427 63.6717C5.52481 65.0327 5.81714 65.1485 6.23614 66.1622C4.18143 65.6518 3.80641 63.4767 4.08347 60.9647C5.41052 61.1818 6.07049 61.9445 6.40996 63.0084C6.56666 62.7394 6.44288 63.1415 6.63934 62.4455C6.68069 62.299 6.74205 62.0122 6.76338 61.8579C6.96564 60.3932 6.39943 59.5203 6.3249 58.1406L6.28144 61.0688C5.02892 60.1953 5.02076 56.3851 6.53664 55.4365C6.96301 56.168 7.07625 56.7025 7.51711 57.6018C8.24819 56.404 8.36117 55.0499 8.35696 53.3698L7.79258 55.6097C6.91587 53.6359 7.88871 51.1337 9.30688 50.3046L9.6395 52.7008C10.4096 51.9277 10.5944 51.2501 10.8625 49.896L9.9313 51.6997C9.71509 49.4773 10.7754 47.9082 12.2928 47.3458L12.1738 49.5866C13.3929 48.7512 13.3765 48.7458 13.8677 47.0069L12.9304 48.5041C12.888 46.7072 13.7663 45.354 15.2537 45.0213C15.1832 46.2745 14.9635 46.9621 14.4934 47.8964C15.9005 47.2543 15.2432 47.776 16.0017 46.6894C15.9788 46.6748 15.9282 46.6576 15.9221 46.6866L15.4489 46.6894C15.8394 45.5051 16.4691 44.8384 17.7875 44.6586C17.6669 45.368 17.7182 45.3104 17.4446 45.9155C17.2168 46.4199 17.2937 46.1822 17.1955 46.3459L16.8157 46.9584V46.9587ZM22.8116 40.0463C10.9455 40.808 1.14994 52.4424 2.05852 66.3999C2.89678 79.2812 13.3528 89.9525 26.271 88.9324C38.0438 88.0028 47.9648 76.5816 46.925 62.4641C45.9704 49.5043 35.6986 39.2196 22.8118 40.0466L22.8116 40.0463Z" fill="#FCBB8B"/>
<path fill-rule="evenodd" clip-rule="evenodd" d="M23.3602 40.8971C27.683 40.726 32.8216 41.6698 36.3681 44.2993C42.0112 48.4832 46.1187 54.074 46.6715 62.1929C46.9182 65.8153 46.514 68.8153 45.3922 72.2099C43.4531 78.078 41.0383 79.5051 39.8906 81.0911C39.3401 81.8521 39.068 81.9406 38.4764 82.4428C35.1308 85.2835 31.4866 86.7865 27.0653 87.3729C23.7734 87.8095 20.4063 87.1338 17.4425 86.0182C16.1304 85.5245 14.7566 84.763 13.7288 84.0412C7.67438 79.7884 4.29413 74.4774 3.375 66.2164C2.80407 61.0863 4.61332 54.1753 7.63671 50.2237C8.81649 48.6818 10.259 46.9758 11.7088 45.7553C14.7368 43.2069 19.3548 41.0553 23.3602 40.8971ZM30.6067 32.2393L31.6462 34.7172L18.2552 34.6806L17.175 32.365C16.1181 32.5314 15.0124 33.7243 14.682 34.7998C14.2918 36.0703 14.4766 38.388 14.428 39.8566C1.16078 46.3567 -4.35428 64.6096 3.87287 78.4908C5.29192 80.8851 5.75746 81.4529 7.49671 83.2207C10.0057 85.7707 12.0738 87.5964 15.7979 89.1294C30.9994 95.3869 46.3332 85.1316 49.3638 70.4432C51.0493 62.2735 49.3444 53.6229 44.7411 47.6723C42.6475 44.9657 42.0382 44.122 39.1347 41.9648C38.0862 41.1859 36.782 40.6471 35.6154 39.7689C35.5594 37.4861 36.0563 34.8003 34.3486 33.1771C33.2991 32.1795 33.1897 32.8943 33.0782 32C32.3312 32.4271 32.8178 32.1639 31.8009 32.1675C31.2402 32.1694 31.1804 32.1369 30.6067 32.2393Z" fill="#D8947D"/>
<circle cx="25" cy="65" r="23" fill="#FCBB8B"/>
<g filter="url(#filter0_d)">
<path fill-rule="evenodd" clip-rule="evenodd" d="M19.2157 72.957C20.9809 72.9452 20.5681 73.1601 21.4195 71.5854C25.4819 64.0713 29.1781 57.955 33.2404 50.4409C34.1295 48.7964 33.6972 49.0145 35.5382 49.0145C37.5431 49.0145 37.3323 48.7438 36.3737 50.5435C31.9594 58.8317 27.9105 65.7223 23.4959 74.0107C22.3907 76.0855 22.9546 75.9564 20.698 75.9473C17.7679 75.9356 15.268 75.924 12.3379 75.9123C11.705 75.9098 11.816 76.0037 11.5116 75.488C11.2834 75.1383 11.0554 74.7123 10.8271 74.3626C9.96591 73.0424 9.73303 72.9596 10.6586 72.9636C13.6382 72.9765 16.2578 72.9765 19.2157 72.957Z" fill="url(#paint0_linear)"/>
<path fill-rule="evenodd" clip-rule="evenodd" d="M27.2378 52.6487C31.1786 59.8631 35.2371 66.9592 39.1775 74.1733C40.2164 76.0751 40.553 75.8801 38.4861 75.8801C36.4848 75.8801 36.939 76.1458 35.9549 74.3884C32.7647 68.6919 29.395 62.9591 26.419 57.1868C25.0233 54.4793 24.1079 52.473 23.8867 53.278C23.9711 51.7678 23.7595 50.7773 24.9722 50.6624C25.3178 50.6298 25.8404 50.5846 26.1006 50.8362C26.3856 51.1119 26.7754 51.7159 27.2378 52.6487V52.6487Z" fill="url(#paint1_linear)"/>
<path fill-rule="evenodd" clip-rule="evenodd" d="M24.6764 52.3657C24.9532 51.9045 25.1764 51.5539 25.3298 51.2929C25.6213 50.7973 25.6626 50.6239 25.3475 50.629L22.6317 50.6734C22.3097 50.6785 22.1847 50.7795 21.9697 51.1493C17.8919 58.1801 14.2778 65.539 10.1447 72.5994C9.99731 72.8517 9.95213 73.0012 10.0578 73.1748L11.6046 75.7184C11.8112 76.0581 11.9146 75.6576 12.5146 74.5617L24.1413 53.3257L24.6764 52.3656L24.6764 52.3657Z" fill="#D8947D"/>
</g>
<defs>
<filter id="filter0_d" x="8" y="49" width="34.0003" height="30.9518" filterUnits="userSpaceOnUse" color-interpolation-filters="sRGB">
<feFlood flood-opacity="0" result="BackgroundImageFix"/>
<feColorMatrix in="SourceAlpha" type="matrix" values="0 0 0 0 0 0 0 0 0 0 0 0 0 0 0 0 0 0 127 0"/>
<feOffset dy="2"/>
<feGaussianBlur stdDeviation="1"/>
<feColorMatrix type="matrix" values="0 0 0 0 0 0 0 0 0 0 0 0 0 0 0 0 0 0 0.25 0"/>
<feBlend mode="normal" in2="BackgroundImageFix" result="effect1_dropShadow"/>
<feBlend mode="normal" in="SourceGraphic" in2="effect1_dropShadow" result="shape"/>
</filter>
<linearGradient id="paint0_linear" x1="16.3566" y1="74.9749" x2="37.919" y2="46.4555" gradientUnits="userSpaceOnUse">
<stop stop-color="#D8947D"/>
<stop offset="0.529412" stop-color="#D8947D"/>
<stop offset="1" stop-color="#D8947D"/>
</linearGradient>
<linearGradient id="paint1_linear" x1="26.8339" y1="54.9447" x2="39.4688" y2="77.8162" gradientUnits="userSpaceOnUse">
<stop stop-color="#D8947D"/>
<stop offset="0.369792" stop-color="#D8947D"/>
<stop offset="0.442708" stop-color="#D8947D"/>
<stop offset="0.760784" stop-color="#D8947D"/>
<stop offset="1" stop-color="#D8947D"/>
</linearGradient>
</defs>
</svg>
