<svg width="68" height="108" viewBox="0 0 68 108" fill="none" xmlns="http://www.w3.org/2000/svg">
<g filter="url(#filter0_d)">
<path fill-rule="evenodd" clip-rule="evenodd" d="M33.7385 46.6756C34.577 46.5601 35.3513 46.9167 35.7923 47.8917C36.3709 49.1715 35.7408 48.294 35.9392 48.959C36.115 49.5483 36.4777 49.5088 36.9715 49.6672C36.7347 48.7919 36.395 47.975 36.2598 46.927C37.6007 47.1208 38.6762 48.5492 38.5824 50.2475L37.6286 48.7283C38.1228 50.12 38.1218 50.797 39.398 51.2806L39.1756 49.2102C40.8384 49.7516 41.7196 51.2355 41.6186 53.2778L40.8642 52.245C41.2802 54.0819 41.416 53.5332 41.9535 54.5815L42.2364 52.1147C43.4984 52.5879 44.664 55.2972 43.7805 56.9535L43.2282 54.8063C43.2144 57.0732 43.4109 57.3954 43.921 59.2434L44.5166 58.1016C44.8918 57.2622 44.6762 57.4699 45.3532 57.1063C46.2285 58.8921 46.7284 61.1582 45.2445 62.5168L45.143 60.7767C44.5421 62.2 44.7574 62.9732 44.9573 64.5493C45.5105 63.7901 46.2116 62.2771 47.5019 62.685C47.8098 64.8011 47.3155 67.2071 45.3755 67.5177C45.6661 66.7375 46.3505 65.9396 46.4855 64.9345C45.4946 66.6623 44.9406 66.119 44.5911 68.8009C45.4418 68.352 45.9904 67.8129 47.2121 68.0459C47.8941 70.4224 46.0209 72.2783 44.1199 72.3857L44.8971 71.4734C45.2228 71.1034 45.3341 70.952 45.6171 70.4022L44.7797 70.8942C43.6145 71.6383 43.4578 71.705 43.0346 73.3386C44.358 73.0499 44.6147 72.756 46.0496 73.3296C46.3036 75.5189 44.173 76.8977 42.1038 76.0154C43.2621 75.6013 43.641 75.2604 44.3991 74.665C42.277 75.194 41.971 75.0673 41.3359 76.1376C41.1421 76.4642 40.9294 76.7454 40.9917 76.9473C42.1903 76.5949 42.8031 76.6801 43.9717 77.3039C43.7747 79.7999 41.8198 80.5961 39.5327 79.7289L41.8644 78.7769C41.5226 78.5616 40.5213 78.697 39.9064 78.8279C39.349 78.9468 39.1376 78.679 38.2554 80.3746C40.0737 80.3496 40.463 80.4472 41.5107 81.4335C40.879 83.3132 38.728 83.8535 37.1762 82.3384C38.2164 82.1924 38.606 82.3564 39.5057 81.9123C35.2434 81.4573 37.5517 81.6533 34.5613 83.7197C33.8584 84.2056 33.3522 84.0461 34.0811 83.2011C34.4603 82.7615 35.066 82.4004 35.4271 82.0861C37.0449 80.6788 38.515 79.1455 37.7741 77.1556L37.3631 79.5728C36.3968 78.7415 36.1624 75.7202 37.5596 74.3776C38.5182 75.6271 38.8102 76.5144 38.5232 78.5296C39.0443 78.2773 39.4142 77.9585 39.733 77.344C40.1185 76.5999 40.048 75.8026 40.0257 74.8859C39.86 75.1166 39.8748 75.0639 39.7184 75.4752L39.3211 77.0894C38.2199 75.7112 38.3503 71.9652 39.9631 71.1791C40.9 73.4555 40.687 72.8017 40.8673 75.6173C41.6297 74.0415 43.1438 73.16 41.6225 70.6688L41.7474 73.5001C41.3364 73.2329 41.2434 73.2556 40.8798 72.4224C40.7128 72.0398 40.4969 71.312 40.4144 70.9085C40.1538 69.6343 40.1535 68.4086 40.7767 67.4709C40.826 67.4972 40.8912 67.4944 40.9135 67.5698L41.9752 68.3694C41.5499 66.7504 41.097 66.1171 41.5093 64.2424C43.0714 64.5317 43.4132 66.3579 44.0221 67.9783C45.1281 65.3088 43.8786 64.1734 43.0298 62.6715L43.9619 65.4434C42.5907 65.1126 41.4608 62.6774 41.6613 60.528C43.2069 60.8165 43.1595 61.6258 44.0428 62.4234C43.9372 59.6883 43.1817 59.2785 41.8867 58.154C42.2751 58.8425 42.8628 59.6045 43.2091 60.3937C41.6639 60.0836 40.0636 58.4455 40.1864 56.5431C41.9933 56.5888 41.7021 57.0878 42.8296 57.7777C42.1786 56.0771 41.8965 54.889 40.0885 54.3928C40.4783 54.8613 41.3606 55.5478 41.5931 55.9633C39.8523 56.2871 38.3066 54.8226 38.1427 53.5013C39.0096 52.9804 39.2225 53.1677 40.1615 53.3258C39.6335 52.2445 38.9162 51.6686 37.2298 51.6742C38.0666 52.2369 38.3676 51.9863 39.0366 52.5952C37.7084 53.4144 36.0983 53.1901 35.4406 51.6871C35.8737 51.1679 36.513 50.9736 37.1568 50.5758C36.766 50.3905 36.102 49.9848 35.7631 49.9223C34.6775 49.7216 34.9803 50.1822 34.2304 50.2046C35.5517 50.3255 35.1492 50.0513 35.7117 50.5534C35.1659 51.0852 34.7745 51.4328 33.9382 51.2719C31.9112 50.8825 34.2089 49.4617 34.4468 49.1511C33.0623 49.0799 32.4638 49.8839 31.3594 48.7392C31.8624 47.5674 32.5434 47.5079 33.808 48.0588L32.5164 48.4244L34.7117 48.7919L34.1166 47.8225C33.8151 47.2679 33.8838 47.3532 33.7369 46.6756H33.7385ZM19.212 48.7572L21.2254 48.4379L20.0709 48.1244C21.2453 47.4617 21.9485 47.5957 22.5537 48.7392C21.1061 50.0863 20.8847 48.7505 19.335 49.2957C20.0687 49.7883 21.0995 49.9377 20.6161 51.072C19.3899 51.6602 18.5469 51.125 18.1113 50.3243L19.505 50.2287C18.1733 49.638 17.893 49.9618 16.7398 50.5999C17.5966 51.1026 17.74 50.9815 18.4973 51.6871C17.6838 53.1018 16.3076 53.4752 14.8786 52.5857L16.6218 51.7544C15.0459 51.6389 14.2183 52.3047 13.7908 53.2787C18.1858 52.6698 14.4219 56.3522 12.2767 55.9571C12.6058 55.4741 12.5342 55.5904 12.9953 55.2002L13.8256 54.4133C12.1966 54.836 11.679 55.7755 11.2813 57.4545C12.3207 57.0104 12.5331 56.5425 13.745 56.5033C13.7916 58.4579 12.2502 59.9861 10.6632 60.4374C10.9368 59.8064 11.88 58.3362 12.1346 58.1049C10.5905 58.9143 9.9472 60.5599 9.86341 62.3803C10.6754 61.5717 10.8201 60.8535 12.2587 60.5092C12.3846 63.1361 11.6602 63.3943 10.8371 65.1137C11.4709 64.8294 11.6509 64.4013 12.3931 64.1807C12.8728 66.5513 12.2062 66.9609 11.7156 68.7832L12.1532 68.3949C12.1993 68.3492 12.439 68.089 12.5005 68.024C12.9388 67.5597 12.5499 67.807 13.1096 67.4518C13.6885 68.4501 13.7354 69.4451 13.5182 70.707C13.3971 71.412 13.1953 72.3246 12.8015 72.8853C12.7617 72.9416 12.632 73.1009 12.5864 73.1519C12.3231 73.4463 12.478 73.2896 12.1778 73.5293L12.2887 70.8617C11.8628 71.4883 11.5496 72.7308 11.7925 73.5043C12.0012 74.1699 12.6313 74.9983 13.0272 75.6114C13.1669 73.4965 12.8328 72.7151 14.0915 71.0779C14.5368 71.9761 15.0663 72.4129 15.223 73.6871C15.3694 74.8766 15.214 76.4085 14.5826 77.1189C14.498 76.7564 14.406 76.298 14.3148 75.8416L13.9088 74.5066C13.8439 76.1404 13.8704 77.7048 15.3564 78.5428C15.2122 76.9818 15.288 74.9321 16.5494 74.3714C17.4149 76.0959 17.6273 77.3622 16.7562 79.5237L16.0419 77.6613C15.7672 81.6449 20.2366 82.226 20.0454 83.9513C19.2817 83.9992 18.4244 82.8397 17.8137 82.3045C16.5958 81.2375 16.3476 81.8004 14.4206 81.8851C15.1302 82.3488 15.7621 82.2302 16.743 82.2936C15.3659 83.8966 13.2915 83.2885 12.4053 81.6205C13.0176 80.4262 14.0929 80.321 15.6128 80.3751C14.8043 78.6911 14.3297 78.8111 12.2054 78.6249C12.3958 78.8475 12.2796 78.7811 12.5849 78.9908C13.1481 79.3774 13.8296 79.3614 14.383 79.785C11.8535 80.554 10.311 79.8924 9.92334 77.3356C10.774 76.8912 11.6499 76.781 12.8193 76.8351C12.3732 75.5237 11.5799 74.9077 10.2803 74.9546C9.90027 74.968 9.98088 74.993 9.88808 75.0443C10.7655 75.5817 10.8294 75.6294 11.7774 75.9905C9.9838 76.9624 7.60575 75.5368 7.86031 73.3414C9.31742 72.7196 9.58418 72.9971 10.91 73.4079C10.4852 71.6946 9.71889 71.2046 8.28485 70.4134C8.589 70.9284 8.71098 71.0835 9.0146 71.4434L9.74329 72.3997C7.62484 72.2879 6.14493 70.4434 6.67554 68.0361C7.99078 67.7818 8.37581 68.3102 9.32193 68.8098C9.15753 67.7725 9.17529 67.3854 8.76163 66.7192C8.59987 66.4588 8.40922 66.2323 8.19337 65.9682L7.51612 65.1812C7.71368 66.1269 8.14856 66.8378 8.53809 67.4908C6.50848 67.216 6.16031 64.8188 6.40877 62.5182C7.98362 62.6808 8.17772 63.4745 8.94274 64.5695C9.13817 62.867 9.3527 61.5858 8.58132 60.2252L8.64602 62.5513C7.33528 61.4094 7.42518 58.0578 8.8799 57.0892C9.02866 57.3771 9.15779 57.6322 9.31398 57.9457C9.38637 58.0909 9.47388 58.2762 9.54282 58.4119C9.5757 58.4767 9.68097 58.6799 9.7112 58.7374C9.73639 58.7853 9.78015 58.8624 9.8011 58.9017C9.82231 58.9412 9.85943 59.0141 9.89285 59.0676C10.6656 57.8543 10.6974 56.5927 10.7247 54.8854L10.1296 57.0701C9.72446 56.21 9.77829 55.0962 10.0721 54.1242C10.3556 53.187 10.8917 52.4104 11.635 52.0771C11.7543 52.8366 11.8283 53.7869 12.3629 54.3785C12.5732 53.4564 12.828 53.4867 13.0075 52.277L12.2598 53.2907C12.1951 51.1746 13.2422 49.7412 14.6285 49.1816C14.7709 50.3025 14.6338 50.4909 14.4455 51.4418C15.4826 51.0227 15.7459 50.4138 16.1344 49.1191L15.3177 50.2228C15.2318 48.5848 16.2869 47.1202 17.613 46.9324C17.5364 48.5021 17.2765 48.4819 16.9387 49.6403L18.0736 49.1903C17.9089 48.2391 18.0397 47.3888 19.068 46.8345C19.7736 46.4544 19.4602 46.5884 20.1854 46.668C19.9895 47.5377 19.5525 48.0594 19.2125 48.758L19.212 48.7572ZM24.7323 42.0918C12.8002 43.3237 3.20499 54.2944 4.40091 68.4042C6.12213 88.7114 30.7129 97.6969 44.1067 81.5176C47.6713 77.2114 50.1841 71.1109 49.497 63.3287C48.4143 51.065 37.8099 40.7417 24.7323 42.0918V42.0918Z" fill="#FDDC5D"/>
<path fill-rule="evenodd" clip-rule="evenodd" d="M24.7324 42.0908C37.81 40.7409 48.4145 51.064 49.4971 63.3276C50.1842 71.1099 47.6715 77.2103 44.1068 81.5165C30.7133 97.6958 6.12222 88.7103 4.401 68.4031C3.20509 54.2933 12.8 43.3226 24.7324 42.0908ZM33.9253 35.7708C35.7828 36.2432 35.401 37.7215 35.314 39.749C33.3417 39.5539 31.6836 38.3464 26.8365 38.3801C23.2071 38.4056 21.3944 39.3478 18.555 39.7714C18.6398 37.5956 18.0594 36.2841 19.8967 35.7661L18.7661 33.2606C15.1141 34.5434 16.1157 38.1527 15.9269 41.0557C11.921 42.2416 6.2031 48.5016 4.226 52.4926C-5.60227 72.3328 7.93545 93.303 26.8362 93.4595C49.5992 93.6476 62.4176 63.9727 44.7464 45.903C42.8854 44.0002 40.4275 41.9845 37.9681 41.0529C37.7194 36.6085 38.8246 35.438 35.1801 33.1835L32.8084 33.0346L33.9253 35.7711V35.7708Z" fill="#FEAA1D"/>
<path fill-rule="evenodd" clip-rule="evenodd" d="M18.7496 33.2621L19.8803 35.7676L33.9088 35.7721L32.7919 33.0356C32.0932 31.7765 27.1242 20.4722 27.0772 19.7635C26.4098 19.1235 25.2059 15.9746 24.7811 15.0688L18.477 0.626199L4.45399 0.609375L18.7496 33.2621V33.2621Z" fill="#E5E5E5"/>
<path fill-rule="evenodd" clip-rule="evenodd" d="M27.0879 19.7624C27.1351 20.4711 32.1042 31.7754 32.8026 33.0345L35.1743 33.1834L49.5068 0.63433L35.4084 0.609375L27.0882 19.7621L27.0879 19.7624Z" fill="#A5A5A5"/>
</g>
<circle cx="27" cy="66" r="23" fill="#FDDC5D"/>
<path fill-rule="evenodd" clip-rule="evenodd" d="M20.2152 73.957C21.9803 73.9452 21.5675 74.1601 22.419 72.5854C26.4814 65.0713 30.1775 58.955 34.2399 51.4409C35.129 49.7964 34.6966 50.0145 36.5377 50.0145C38.5426 50.0145 38.3318 49.7438 37.3731 51.5435C32.9588 59.8317 28.91 66.7223 24.4953 75.0107C23.3902 77.0855 23.954 76.9564 21.6975 76.9473C18.7674 76.9356 16.2675 76.924 13.3374 76.9123C12.7045 76.9098 12.8155 77.0037 12.511 76.488C12.2828 76.1383 12.0548 75.7123 11.8266 75.3626C10.9654 74.0424 10.7325 73.9596 11.658 73.9636C14.6376 73.9765 17.2572 73.9765 20.2152 73.957Z" fill="url(#paint0_linear)"/>
<path fill-rule="evenodd" clip-rule="evenodd" d="M28.2378 53.6473C32.1785 60.8617 36.2371 67.9577 40.1775 75.1719C41.2164 77.0737 41.553 76.8786 39.4861 76.8786C37.4848 76.8786 37.939 77.1444 36.9549 75.3869C33.7646 69.6905 30.395 63.9577 27.419 58.1854C26.0233 55.4779 25.1079 53.4715 24.8867 54.2766C24.9711 52.7663 24.7595 51.7759 25.9722 51.661C26.3178 51.6284 26.8404 51.5832 27.1006 51.8347C27.3856 52.1105 27.7754 52.7144 28.2378 53.6473V53.6473Z" fill="url(#paint1_linear)"/>
<path fill-rule="evenodd" clip-rule="evenodd" d="M25.6764 53.3667C25.9532 52.9055 26.1764 52.555 26.3298 52.294C26.6213 51.7984 26.6626 51.625 26.3475 51.6301L23.6317 51.6745C23.3097 51.6796 23.1847 51.7805 22.9697 52.1504C18.8919 59.1811 15.2778 66.54 11.1447 73.6005C10.9973 73.8527 10.9521 74.0023 11.0578 74.1758L12.6046 76.7195C12.8112 77.0592 12.9146 76.6587 13.5146 75.5628L25.1413 54.3267L25.6764 53.3667L25.6764 53.3667Z" fill="#F5B938"/>
<defs>
<filter id="filter0_d" x="0.933594" y="0.609375" width="66.0861" height="106.851" filterUnits="userSpaceOnUse" color-interpolation-filters="sRGB">
<feFlood flood-opacity="0" result="BackgroundImageFix"/>
<feColorMatrix in="SourceAlpha" type="matrix" values="0 0 0 0 0 0 0 0 0 0 0 0 0 0 0 0 0 0 127 0"/>
<feOffset dx="10" dy="10"/>
<feGaussianBlur stdDeviation="2"/>
<feColorMatrix type="matrix" values="0 0 0 0 0 0 0 0 0 0 0 0 0 0 0 0 0 0 0.25 0"/>
<feBlend mode="normal" in2="BackgroundImageFix" result="effect1_dropShadow"/>
<feBlend mode="normal" in="SourceGraphic" in2="effect1_dropShadow" result="shape"/>
</filter>
<linearGradient id="paint0_linear" x1="17.3561" y1="75.9749" x2="38.9185" y2="47.4555" gradientUnits="userSpaceOnUse">
<stop stop-color="#BE9010"/>
<stop offset="0.529412" stop-color="#D9A424"/>
<stop offset="1" stop-color="#F5B938"/>
</linearGradient>
<linearGradient id="paint1_linear" x1="27.8338" y1="55.9433" x2="40.4688" y2="78.8148" gradientUnits="userSpaceOnUse">
<stop stop-color="#BE910F"/>
<stop offset="0.760784" stop-color="#D9A523"/>
<stop offset="1" stop-color="#F5B938"/>
</linearGradient>
</defs>
</svg>
