<svg width="52" height="91" viewBox="0 0 52 91" fill="none" xmlns="http://www.w3.org/2000/svg">
<path fill-rule="evenodd" clip-rule="evenodd" d="M22.6122 81.9157C24.81 81.2754 24.5088 81.9917 25.3856 80.3035C25.7776 79.5491 25.5891 79.7707 26.1222 79.391C27.3331 81.6433 26.6301 81.2418 29.3572 81.8839C28.0343 84.319 27.8777 82.3163 28.1609 86.2567C24.6054 85.1025 27.1239 85.3907 23.8078 86.2263L24.0449 83.4688C23.1471 82.8586 22.9869 82.8996 22.6122 81.916V81.9157ZM32.8497 44.6643C33.881 44.8063 34.3686 45.0733 34.8192 45.7497C35.4613 46.7141 34.9824 46.8712 34.981 46.8738C34.9751 46.8841 34.9387 46.9398 34.9339 46.9481C34.9288 46.9567 34.8895 46.9954 34.8868 47.0261C35.233 47.4387 35.5593 47.675 36.1661 47.8408C35.8524 46.9074 35.534 46.2573 35.4659 45.1065C36.9476 45.1002 37.6809 46.7107 37.8607 48.3802L36.9823 47.1764C37.2994 48.478 37.6903 49.1914 38.6371 49.6591L38.4013 47.3705C40.0731 47.8388 40.8546 49.3159 40.9645 51.4846L39.8305 49.7027C40.1746 50.9157 40.492 52.1861 41.2439 52.7656L41.4628 50.3531C42.3366 50.635 42.727 51.2833 43.0646 52.2248C43.2918 52.8582 43.5012 53.8843 43.3418 54.5779C43.0199 55.9796 43.3693 54.8567 42.9663 55.4078L42.4933 53.028C42.4131 55.3837 42.6532 55.7714 43.3225 57.7745C43.6988 56.9879 43.7578 56.0765 44.5684 55.4898C45.8964 56.8445 45.845 59.8761 44.5439 61.0934L44.4499 59.4612C44.4289 59.5085 44.3845 59.5859 44.3603 59.645C43.8377 60.9219 44.1788 61.7604 44.2615 63.0821C45.0594 62.4102 45.2904 60.7869 46.8513 61.1273C47.2174 63.4116 46.5995 65.878 44.6599 66.1358C45.0101 65.256 45.6032 64.7258 45.783 63.4816C45.0737 64.9366 43.8523 65.3343 43.9637 67.4756C44.5869 66.9749 45.443 66.3457 46.6555 66.6841C46.7333 69.287 45.7976 70.9657 43.4266 71.1544C43.8722 70.416 44.1479 70.4599 45.141 68.7729C42.2112 71.0133 43.3669 69.8958 42.2634 72.1268C43.6426 71.7377 43.7723 71.4246 45.3811 72.0388C45.6845 74.1984 43.4315 75.8539 41.3887 74.8215C42.2981 74.3802 42.952 74.1798 43.5139 73.5583C41.2576 74.039 41.0869 73.8683 40.1706 75.7472C41.6313 75.4547 42.1304 75.6548 43.3031 76.0853C42.9542 78.4777 41.1378 79.8137 38.7306 78.6177C39.6755 78.0915 40.3089 78.0327 41.2603 77.3909C38.7774 77.721 38.6274 77.5062 37.4515 79.2973C39.2695 79.1576 39.7756 79.3572 40.7868 80.3374C40.0898 82.4373 37.9003 82.7986 36.3147 81.267L38.7979 80.9479C36.523 80.5114 36.4318 80.1034 34.1982 82.2819C32.7681 83.677 32.4181 82.79 34.0749 81.4394C34.6617 80.9611 35.0187 80.4979 35.5544 79.9967C36.6587 78.9641 37.5525 78.4298 36.988 75.9517L36.5769 78.5093C35.8629 77.8477 35.7402 76.6427 35.7746 75.6792C35.818 74.4702 36.0961 73.7674 36.7285 73.1506C37.7706 74.1723 37.9913 75.4934 37.7843 77.4141C39.2601 76.5768 39.3061 75.2436 39.2326 72.9246L38.5612 75.9172C37.4585 74.5551 37.462 70.7013 39.203 69.8239C40.1288 72.2484 40.0244 71.4243 40.1051 74.4126C40.9572 72.59 42.3057 72.019 40.8665 69.1961L40.9747 72.2891C39.4426 71.1662 39.1993 67.7913 39.9902 65.9859C41.2603 66.7825 41.8825 68.5377 41.9759 70.8433C43.6121 68.4004 42.9332 67.7357 42.044 65.3269C42.1237 66.1946 42.836 67.6502 42.37 68.4738C41.2396 67.194 40.3011 65.3911 40.7372 62.7598C42.2612 62.9164 42.9057 64.9409 43.3505 66.7925C43.9303 63.912 43.6269 63.378 42.4497 61.3679L43.3187 64.1038C41.7697 63.4612 40.7924 61.3813 40.9028 58.9843C42.1805 59.222 42.948 60.0204 43.3698 61.2311C43.3346 58.629 42.3808 57.4177 41.1106 56.5167C41.624 57.1399 42.2069 57.9287 42.5108 58.8862C41.4105 58.6124 40.9723 58.2404 40.3208 57.4756C39.7624 56.8204 39.3581 56.0361 39.3785 54.8765C40.7798 54.8928 41.2374 55.3648 41.9691 55.9727C41.6687 54.4784 40.9297 53.3426 39.6556 52.8766L40.8867 54.358C39.2124 54.5464 36.4399 52.7653 37.7781 51.3983C37.8099 51.3659 37.8804 51.3135 37.928 51.2667C37.0448 51.3725 36.6399 51.5059 35.808 51.1589C35.0752 50.8529 34.8015 50.5452 34.5236 49.8409L36.3559 48.7745C34.6725 48.1513 35.492 47.7533 33.509 48.4261C34.402 48.5302 34.4663 48.2408 34.9848 48.7945C34.1586 49.51 33.5133 49.7922 32.1979 49.2189C32.3947 47.9506 32.8176 48.1184 33.6675 47.4714C32.4682 47.1096 31.4065 48.026 30.4532 46.9223C30.8581 45.7202 31.7492 45.6081 32.9854 46.2384L31.7885 46.5851L33.8522 46.9389C33.4096 46.343 33.043 45.7968 32.8489 44.6649L32.8497 44.6643ZM18.1449 46.9587L18.9763 46.3496C20.0878 45.5857 20.9614 45.7729 21.5402 46.9217C20.3581 48.1674 19.8087 47.2088 18.3676 47.3934C18.5345 47.55 18.5057 47.4992 18.7849 47.6917C19.0172 47.852 19.5855 48.0859 19.6673 48.6362C19.9371 50.45 17.7586 49.5642 16.9968 48.5889L18.538 48.4238C16.7558 48.1654 17.582 47.6693 15.6426 48.8358C16.6258 49.3764 16.6312 48.9809 17.3758 49.9373C16.8894 51.2825 14.9276 51.9406 13.7192 50.8225L15.6173 49.9923C13.9041 49.8469 13.2327 50.6462 12.6122 51.5606C14.2858 51.3106 15.3476 51.3567 14.1547 53.0105C13.5983 53.7819 12.5341 54.6869 11.114 54.2688C11.3297 53.9497 12.5282 52.8175 12.9454 52.5795C11.2112 53.2098 10.5648 53.6953 10.0676 55.8569L10.5592 55.5076C11.2257 55.0471 11.3657 54.8842 12.582 54.8676C12.6857 56.7576 11.0604 58.6138 9.48099 58.8237L10.8645 56.5035C9.41692 57.5316 8.85428 58.3921 8.61306 60.9629C8.65614 60.9174 8.71751 60.7809 8.73717 60.8213C8.85293 61.0587 9.08095 59.5168 11.075 58.9255C11.2505 61.3151 10.5309 61.8313 9.84308 63.4669C10.8227 63.0454 10.3193 62.9608 11.2435 62.705C11.6153 65.119 11.0707 65.4903 10.5209 67.4297L12.0331 66.0074C12.725 67.6101 12.5615 69.4336 11.899 71.0308C11.8333 71.1897 11.7028 71.4885 11.5991 71.6442L10.9729 72.2989L11.0874 69.5712C10.9412 69.7811 11.0139 69.5532 10.8147 70.0914C10.5707 70.751 10.3885 71.6092 10.5899 72.2544C10.7931 72.9059 11.4373 73.7049 11.8312 74.3828C11.9513 72.8512 11.5633 71.3299 12.9944 69.8761C14.3359 71.516 14.4312 74.17 13.8209 75.3993L13.43 75.8851L12.8348 72.9478C12.7239 73.8084 12.6065 74.7817 12.83 75.6319C13.0144 76.3333 12.8808 75.9875 13.3054 76.5071C13.3062 76.508 13.591 76.822 13.636 76.8673L13.8984 77.1199C13.9396 77.1586 14.0086 77.2177 14.043 77.2492C14.0783 77.2816 14.1399 77.3396 14.1919 77.38C14.0581 75.7248 14.1617 73.8256 15.4467 73.0918C16.1692 74.7676 16.6944 76.3302 15.6077 78.4192C15.133 77.8319 15.2359 76.719 14.9928 75.8957C14.5965 79.6953 16.6498 79.9938 18.6188 82.0014C18.8072 82.1936 19.099 82.443 18.9098 82.9598C18.2688 83.0143 17.2154 81.7663 16.6923 81.2501C15.6074 80.1796 15.1255 80.6692 13.2265 80.8707L15.648 81.2974C14.2056 82.6501 12.3249 82.5463 11.2276 80.5544C11.8654 79.3016 12.9904 79.2503 14.5273 79.252C13.7175 77.8196 12.9966 77.4735 10.6865 77.4193L13.2346 78.6354C10.8338 79.3879 9.01795 78.8324 8.68306 76.1363C10.0353 75.5324 10.07 75.4062 11.7835 75.7469C11.0521 74.1258 10.924 73.9965 8.52745 73.5652L9.49122 74.3349C10.049 74.6251 10.1056 74.5006 10.5834 74.9202C8.33524 75.5714 6.45804 74.5003 6.56519 72.0775C8.09968 71.5702 8.26793 71.5573 9.71143 72.1644C8.96922 70.0736 8.68225 70.0662 7.06377 69.0846C7.59841 70.7228 7.81163 69.5173 8.57672 71.1599C6.14092 70.8943 5.16826 69.4875 5.32332 66.5608C6.88231 66.5052 6.94962 66.7962 8.05068 67.405C7.77501 65.0516 7.38762 65.1104 6.22437 63.6717C6.60314 65.0327 6.90197 65.1485 7.33028 66.1622C5.22991 65.6518 4.84656 63.4767 5.12976 60.9647C6.48631 61.1818 7.16095 61.9445 7.50796 63.0084C7.66814 62.7394 7.54161 63.1415 7.74244 62.4455C7.78471 62.299 7.84743 62.0122 7.86924 61.8579C8.07599 60.3932 7.49719 59.5203 7.42101 58.1406L7.37658 61.0688C6.09622 60.1953 6.08788 56.3851 7.63745 55.4365C8.0733 56.168 8.18906 56.7025 8.63972 57.6018C9.38704 56.404 9.50253 55.0499 9.49822 53.3698L8.92131 55.6097C8.02511 53.6359 9.01957 51.1337 10.4693 50.3046L10.8093 52.7008C11.5964 51.9277 11.7854 51.2501 12.0595 49.896L11.1076 51.6997C10.8865 49.4773 11.9704 47.9082 13.5215 47.3458L13.3999 49.5866C14.646 48.7512 14.6293 48.7458 15.1314 47.0069L14.1733 48.5041C14.13 46.7072 15.0278 45.354 16.5483 45.0213C16.4761 46.2745 16.2516 46.9621 15.7711 47.8964C17.2094 47.2543 16.5375 47.776 17.3128 46.6894C17.2894 46.6748 17.2377 46.6576 17.2315 46.6866L16.7478 46.6894C17.147 45.5051 17.7907 44.8384 19.1383 44.6586C19.015 45.368 19.0675 45.3104 18.7878 45.9155C18.555 46.4199 18.6336 46.1822 18.5332 46.3459L18.1449 46.9584V46.9587ZM24.274 40.0463C12.1443 40.808 2.13105 52.4424 3.05982 66.3999C3.91671 79.2812 14.6051 89.9525 27.8104 88.9324C39.8448 88.0028 49.9862 76.5816 48.9234 62.4641C47.9475 49.5043 37.4475 39.2196 24.2743 40.0466L24.274 40.0463Z" fill="#E5E5E5"/>
<path fill-rule="evenodd" clip-rule="evenodd" d="M24.2946 40.8971C28.7904 40.726 34.1345 41.6698 37.8228 44.2993C43.6916 48.4832 47.9634 54.074 48.5384 62.1929C48.7949 65.8153 48.3745 68.8153 47.2079 72.2099C45.1913 78.078 42.6799 79.5051 41.4863 81.0911C40.9137 81.8521 40.6307 81.9406 40.0155 82.4428C36.536 85.2835 32.7461 86.7865 28.1479 87.3729C24.7243 87.8095 21.2226 87.1338 18.1402 86.0182C16.7756 85.5245 15.3469 84.763 14.278 84.0412C7.98136 79.7884 4.46589 74.4774 3.50999 66.2164C2.91623 61.0863 4.79785 54.1753 7.94218 50.2237C9.16915 48.6818 10.6693 46.9758 12.1772 45.7553C15.3262 43.2069 20.129 41.0553 24.2946 40.8971ZM31.8309 32.2393L32.912 34.7172L18.9854 34.6806L17.862 32.365C16.7629 32.5314 15.6129 33.7243 15.2693 34.7998C14.8635 36.0703 15.0557 38.388 15.0051 39.8566C1.20721 46.3567 -4.52845 64.6096 4.02779 78.4908C5.50359 80.8851 5.98776 81.4529 7.79658 83.2207C10.4059 85.7707 12.5568 87.5964 16.4299 89.1294C32.2394 95.3869 48.1866 85.1316 51.3383 70.4432C53.0913 62.2735 51.3182 53.6229 46.5307 47.6723C44.3534 44.9657 43.7197 44.122 40.7001 41.9648C39.6097 41.1859 38.2533 40.6471 37.0401 39.7689C36.9818 37.4861 37.4985 34.8003 35.7225 33.1771C34.6311 32.1795 34.5173 32.8943 34.4013 32C33.6244 32.4271 34.1305 32.1639 33.073 32.1675C32.4898 32.1694 32.4276 32.1369 31.8309 32.2393Z" fill="#B9B9B9"/>
<path fill-rule="evenodd" clip-rule="evenodd" d="M26 19.3611C26.0359 20.2877 26.8876 21.8641 27.3372 22.8546C27.914 24.1249 28.3301 24.9918 28.8244 26.1335C29.7844 28.3511 30.7158 30.6375 31.8295 32.9953C32.4433 32.8887 32.507 32.922 33.1063 32.92C34.1937 32.9163 33.6733 33.1899 34.4721 32.7458L49 0.0551219L34.5312 0L26 19.3611V19.3611Z" fill="#A5A5A5"/>
<path fill-rule="evenodd" clip-rule="evenodd" d="M17.5878 32.5925L18.8129 34.9625L34 35L32.821 32.4639C31.6398 30.1433 30.6519 27.893 29.6337 25.7103C29.1095 24.5867 28.6681 23.7335 28.0564 22.4832C27.5795 21.5083 26.6762 19.9569 26.6381 19.0449C25.3408 18.3444 18.0719 0.3023 16.8866 0L2 0.00307615L17.5875 32.5925H17.5878Z" fill="#E5E5E5"/>
<circle cx="26" cy="64" r="23" fill="#E5E5E5"/>
<g filter="url(#filter0_d)">
<path fill-rule="evenodd" clip-rule="evenodd" d="M20.2157 70.957C21.9809 70.9452 21.5681 71.1601 22.4195 69.5854C26.4819 62.0713 30.1781 55.955 34.2404 48.4409C35.1295 46.7964 34.6972 47.0145 36.5382 47.0145C38.5431 47.0145 38.3323 46.7438 37.3737 48.5435C32.9594 56.8317 28.9105 63.7223 24.4959 72.0107C23.3907 74.0855 23.9546 73.9564 21.698 73.9473C18.7679 73.9356 16.268 73.924 13.3379 73.9123C12.705 73.9098 12.816 74.0037 12.5116 73.488C12.2834 73.1383 12.0554 72.7123 11.8271 72.3626C10.9659 71.0424 10.733 70.9596 11.6586 70.9636C14.6382 70.9765 17.2578 70.9765 20.2157 70.957Z" fill="#A5A5A5"/>
<path fill-rule="evenodd" clip-rule="evenodd" d="M28.2378 50.6487C32.1786 57.8631 36.2371 64.9592 40.1775 72.1733C41.2164 74.0751 41.553 73.8801 39.4861 73.8801C37.4848 73.8801 37.939 74.1458 36.9549 72.3884C33.7647 66.6919 30.395 60.9591 27.419 55.1868C26.0233 52.4793 25.1079 50.473 24.8867 51.278C24.9711 49.7678 24.7595 48.7773 25.9722 48.6624C26.3178 48.6298 26.8404 48.5846 27.1006 48.8362C27.3856 49.1119 27.7754 49.7159 28.2378 50.6487V50.6487Z" fill="#A5A5A5"/>
<path fill-rule="evenodd" clip-rule="evenodd" d="M25.6764 50.3657C25.9532 49.9045 26.1764 49.5539 26.3298 49.2929C26.6213 48.7973 26.6626 48.6239 26.3475 48.629L23.6317 48.6734C23.3097 48.6785 23.1847 48.7795 22.9697 49.1493C18.8919 56.1801 15.2778 63.539 11.1447 70.5994C10.9973 70.8517 10.9521 71.0012 11.0578 71.1748L12.6046 73.7184C12.8112 74.0581 12.9146 73.6576 13.5146 72.5617L25.1413 51.3257L25.6764 50.3656L25.6764 50.3657Z" fill="#A5A5A5"/>
</g>
<defs>
<filter id="filter0_d" x="9" y="47" width="34.0003" height="30.9518" filterUnits="userSpaceOnUse" color-interpolation-filters="sRGB">
<feFlood flood-opacity="0" result="BackgroundImageFix"/>
<feColorMatrix in="SourceAlpha" type="matrix" values="0 0 0 0 0 0 0 0 0 0 0 0 0 0 0 0 0 0 127 0"/>
<feOffset dy="2"/>
<feGaussianBlur stdDeviation="1"/>
<feColorMatrix type="matrix" values="0 0 0 0 0 0 0 0 0 0 0 0 0 0 0 0 0 0 0.25 0"/>
<feBlend mode="normal" in2="BackgroundImageFix" result="effect1_dropShadow"/>
<feBlend mode="normal" in="SourceGraphic" in2="effect1_dropShadow" result="shape"/>
</filter>
</defs>
</svg>
