<svg width="18" height="18" viewBox="0 0 18 18" fill="none" xmlns="http://www.w3.org/2000/svg">
<path fill-rule="evenodd" clip-rule="evenodd" d="M17.6696 0.330448C17.7743 0.434931 17.8574 0.559052 17.9141 0.695703C17.9708 0.832353 18 0.978848 18 1.1268C18 1.27474 17.9708 1.42124 17.9141 1.55789C17.8574 1.69454 17.7743 1.81866 17.6696 1.92314L1.92255 17.6701C1.71135 17.8813 1.42489 18 1.12621 18C0.827518 18 0.541063 17.8813 0.329858 17.6701C0.118653 17.4589 2.2254e-09 17.1725 0 16.8738C-2.2254e-09 16.5751 0.118653 16.2886 0.329858 16.0774L16.0769 0.330448C16.1813 0.225701 16.3055 0.142595 16.4421 0.085891C16.5788 0.0291873 16.7253 0 16.8732 0C17.0212 0 17.1676 0.0291873 17.3043 0.085891C17.4409 0.142595 17.5651 0.225701 17.6696 0.330448Z" fill="#BDBDC0"/>
<path fill-rule="evenodd" clip-rule="evenodd" d="M0.330448 0.330448C0.225701 0.434931 0.142595 0.559052 0.085891 0.695703C0.0291873 0.832353 0 0.978848 0 1.1268C0 1.27474 0.0291873 1.42124 0.085891 1.55789C0.142595 1.69454 0.225701 1.81866 0.330448 1.92314L16.0774 17.6701C16.2886 17.8813 16.5751 18 16.8738 18C17.1725 18 17.4589 17.8813 17.6701 17.6701C17.8813 17.4589 18 17.1725 18 16.8738C18 16.5751 17.8813 16.2886 17.6701 16.0774L1.92314 0.330448C1.81866 0.225701 1.69454 0.142595 1.55789 0.085891C1.42124 0.0291873 1.27474 0 1.1268 0C0.978848 0 0.832353 0.0291873 0.695703 0.085891C0.559052 0.142595 0.434931 0.225701 0.330448 0.330448Z" fill="#BDBDC0"/>
</svg>
