<svg width="18" height="16" viewBox="0 0 18 16" fill="none" xmlns="http://www.w3.org/2000/svg">
<path fill-rule="evenodd" clip-rule="evenodd" d="M4.93707 7.70476C4.93707 6.45559 5.06147 5.63148 5.92598 4.71227C7.34669 3.20173 9.99337 3.20173 11.4141 4.71227C13.6003 7.03668 11.9218 11.085 9.03129 11.085H8.30877C6.67423 11.085 4.93707 9.34346 4.93707 7.70476ZM0 7.10118C0 8.11977 2.35473 10.9753 3.09891 11.7207C3.71977 12.3427 4.51471 12.955 5.29722 13.3799C7.23645 14.4329 9.21899 14.728 11.3209 13.8624C11.5835 13.7543 12.0052 13.5252 12.2333 13.5728L14.7422 15.0175C15.1429 15.2551 16.1028 15.8811 16.4972 15.9139C16.4715 14.7564 14.8368 11.69 15.0265 11.1772C15.061 11.0841 17.581 8.05903 17.581 7.22188C17.581 6.14878 14.3359 2.02658 12.0046 0.86078C11.0024 0.359686 10.1678 0.111084 8.87817 0.00995812C7.46289 -0.100957 5.61296 0.735152 4.52538 1.49723C3.41736 2.27357 2.32492 3.46634 1.52993 4.5303C1.26999 4.87815 0 6.75463 0 7.10118Z" fill="#D3D3D3"/>
</svg>
