<svg width="13" height="15" viewBox="0 0 13 15" fill="none" xmlns="http://www.w3.org/2000/svg">
<path d="M13 12.1429V12.8571H0V12.1429L1.44444 10.7143V6.42857C1.44444 4.21429 2.91056 2.26429 5.05556 1.63571V1.42857C5.05556 1.04969 5.20774 0.686328 5.47862 0.418419C5.74951 0.15051 6.11691 0 6.5 0C6.88309 0 7.25049 0.15051 7.52138 0.418419C7.79226 0.686328 7.94444 1.04969 7.94444 1.42857V1.63571C10.0894 2.26429 11.5556 4.21429 11.5556 6.42857V10.7143L13 12.1429ZM7.94444 13.5714C7.94444 13.9503 7.79226 14.3137 7.52138 14.5816C7.25049 14.8495 6.88309 15 6.5 15C6.11691 15 5.74951 14.8495 5.47862 14.5816C5.20774 14.3137 5.05556 13.9503 5.05556 13.5714H7.94444Z" fill="#D3D3D3"/>
</svg>
