<?xml version="1.0" encoding="UTF-8" standalone="no"?>
<svg
   width="22"
   height="20"
   viewBox="0 0 22 20"
   fill="none"
   version="1.1"
   id="svg4"
   sodipodi:docname="polygon-deactivated.svg"
   inkscape:version="1.1.1 (3bf5ae0d25, 2021-09-20, custom)"
   xmlns:inkscape="http://www.inkscape.org/namespaces/inkscape"
   xmlns:sodipodi="http://sodipodi.sourceforge.net/DTD/sodipodi-0.dtd"
   xmlns="http://www.w3.org/2000/svg"
   xmlns:svg="http://www.w3.org/2000/svg">
  <defs
     id="defs8" />
  <sodipodi:namedview
     id="namedview6"
     pagecolor="#ffffff"
     bordercolor="#666666"
     borderopacity="1.0"
     inkscape:pageshadow="2"
     inkscape:pageopacity="0.0"
     inkscape:pagecheckerboard="0"
     showgrid="false"
     inkscape:zoom="24.45"
     inkscape:cx="11.002045"
     inkscape:cy="9.9795501"
     inkscape:window-width="1366"
     inkscape:window-height="711"
     inkscape:window-x="0"
     inkscape:window-y="0"
     inkscape:window-maximized="1"
     inkscape:current-layer="svg4" />
  <path
     d="M21.8527 9.43117L16.9047 0.568837C16.8078 0.395225 16.6683 0.251182 16.5003 0.151292C16.3323 0.0514024 16.1418 -0.000786899 15.948 8.968e-06H6.05197C5.85821 -0.000786899 5.6677 0.0514024 5.49971 0.151292C5.33172 0.251182 5.19222 0.395225 5.09535 0.568837L0.147314 9.43117C0.0508068 9.60412 0 9.8003 0 10C0 10.1997 0.0508068 10.3959 0.147314 10.5688L5.09535 19.4312C5.19222 19.6048 5.33172 19.7488 5.49971 19.8487C5.6677 19.9486 5.85821 20.0008 6.05197 20H15.948C16.1418 20.0008 16.3323 19.9486 16.5003 19.8487C16.6683 19.7488 16.8078 19.6048 16.9047 19.4312L21.8527 10.5688C21.9492 10.3959 22 10.1997 22 10C22 9.8003 21.9492 9.60412 21.8527 9.43117ZM15.2553 18.2609H6.34615L1.90385 10L6.34615 1.95652H15.2553L19.8846 10L15.2553 18.2609Z"
     fill="white"
     id="path2"
     style="fill:#ffffff" />
  <g
     style="fill:none"
     id="g19"
     transform="matrix(1.2903886,0,0,1.2903886,4.374361,3.7650179)">
    <circle
       cx="5"
       cy="5"
       r="5"
       fill="#c8171e"
       id="circle10" />
  </g>
</svg>
