<svg width="47" height="42" viewBox="0 0 47 42" fill="none" xmlns="http://www.w3.org/2000/svg">
<path d="M46.6853 19.8055L36.1145 1.19456C35.9075 0.829974 35.6095 0.527483 35.2506 0.317714C34.8917 0.107945 34.4847 -0.00165249 34.0708 1.88328e-05H12.9292C12.5153 -0.00165249 12.1083 0.107945 11.7494 0.317714C11.3905 0.527483 11.0925 0.829974 10.8855 1.19456L0.314715 19.8055C0.108542 20.1686 0 20.5806 0 21C0 21.4194 0.108542 21.8314 0.314715 22.1945L10.8855 40.8054C11.0925 41.17 11.3905 41.4725 11.7494 41.6823C12.1083 41.8921 12.5153 42.0017 12.9292 42H34.0708C34.4847 42.0017 34.8917 41.8921 35.2506 41.6823C35.6095 41.4725 35.9075 41.17 36.1145 40.8054L46.6853 22.1945C46.8915 21.8314 47 21.4194 47 21C47 20.5806 46.8915 20.1686 46.6853 19.8055ZM32.5909 38.3478H13.5577L4.06731 21L13.5577 4.1087H32.5909L42.4808 21L32.5909 38.3478Z" fill="white"/>
</svg>
