<svg width="16" height="19" viewBox="0 0 16 19" fill="none" xmlns="http://www.w3.org/2000/svg">
<path d="M13.9702 12.1795C13.4902 14.9398 11.0145 17.0513 8.03465 17.0513C4.71232 17.0513 2.00866 14.4283 2.00866 11.2051C2.00866 7.98195 4.71232 5.35897 8.03465 5.35897H10.2161L8.12102 7.39149L9.54115 8.76923L14.0606 4.38462L9.54115 0L8.12102 1.37774L10.2161 3.41026H8.03465C5.90373 3.41026 3.86008 4.2315 2.35329 5.69332C0.846505 7.15514 0 9.1378 0 11.2051C0 13.2725 0.846505 15.2551 2.35329 16.7169C3.86008 18.1788 5.90373 19 8.03465 19C12.1313 19 15.5049 16.0233 16 12.1795H13.9702Z" fill="white"/>
</svg>
