<svg width="21" height="21" viewBox="0 0 21 21" fill="none" xmlns="http://www.w3.org/2000/svg">
<path d="M13.35 13.35L20 20M8.125 15.25C9.06067 15.25 9.98718 15.0657 10.8516 14.7076C11.7161 14.3496 12.5015 13.8248 13.1631 13.1631C13.8248 12.5015 14.3496 11.7161 14.7076 10.8516C15.0657 9.98718 15.25 9.06067 15.25 8.125C15.25 7.18933 15.0657 6.26283 14.7076 5.39838C14.3496 4.53394 13.8248 3.74848 13.1631 3.08686C12.5015 2.42525 11.7161 1.90042 10.8516 1.54236C9.98718 1.18429 9.06067 1 8.125 1C6.23533 1 4.42306 1.75067 3.08686 3.08686C1.75067 4.42306 1 6.23533 1 8.125C1 10.0147 1.75067 11.8269 3.08686 13.1631C4.42306 14.4993 6.23533 15.25 8.125 15.25Z" stroke="white" stroke-width="2"/>
</svg>
