<svg width="34" height="32" viewBox="0 0 34 32" fill="none" xmlns="http://www.w3.org/2000/svg">
<path d="M32.9011 11.2681L22.7085 9.80817L18.1522 0.704271C18.0278 0.455012 17.823 0.25323 17.5701 0.130579C16.9359 -0.178028 16.1651 0.0791446 15.8479 0.704271L11.2916 9.80817L1.09908 11.2681C0.81807 11.3077 0.561149 11.4382 0.364444 11.6361C0.126638 11.877 -0.00440342 12.2011 0.000112989 12.5371C0.0046294 12.8732 0.144334 13.1938 0.38853 13.4284L7.76297 20.5144L6.02072 30.5204C5.97986 30.7532 6.006 30.9926 6.09616 31.2114C6.18632 31.4303 6.3369 31.6199 6.53082 31.7587C6.72475 31.8975 6.95426 31.98 7.19332 31.9968C7.43239 32.0136 7.67145 31.964 7.8834 31.8538L17.0001 27.1297L26.1168 31.8538C26.3657 31.9843 26.6547 32.0278 26.9317 31.9804C27.6302 31.8617 28.0999 31.2088 27.9794 30.5204L26.2372 20.5144L33.6116 13.4284C33.8123 13.2345 33.9448 12.9813 33.985 12.7043C34.0934 12.0119 33.6036 11.371 32.9011 11.2681ZM23.1341 19.5174L24.5833 27.8379L17.0001 23.9131L9.4169 27.8419L10.8661 19.5214L4.7321 13.6262L13.2105 12.4115L17.0001 4.84276L20.7897 12.4115L29.2681 13.6262L23.1341 19.5174Z" fill="#CEA71D"/>
</svg>
