<svg width="76" height="76" viewBox="0 0 76 76" fill="none" xmlns="http://www.w3.org/2000/svg">
<path fill-rule="evenodd" clip-rule="evenodd" d="M76 38C76 58.9855 58.9855 76 38 76C17.0145 76 0 58.9855 0 38C0 17.0145 17.0145 0 38 0C58.9855 0 76 17.0145 76 38ZM39.3617 28.0535C35.6662 29.5893 28.2783 32.7718 17.2013 37.5978C15.4027 38.3135 14.459 39.0133 14.3735 39.6973C14.2278 40.8563 15.6782 41.3123 17.6478 41.9298C17.917 42.0153 18.1957 42.1008 18.4807 42.1958C20.4218 42.826 23.0312 43.5638 24.3865 43.5923C25.6183 43.6177 26.9927 43.111 28.5095 42.0723C38.8582 35.0835 44.2003 31.5527 44.536 31.4767C44.7735 31.4228 45.1028 31.3532 45.3245 31.5527C45.5462 31.749 45.524 32.1227 45.5018 32.224C45.3562 32.8352 39.6752 38.1203 36.7302 40.8563C35.8118 41.7082 35.1627 42.313 35.0297 42.4523C34.732 42.7595 34.428 43.054 34.1367 43.3358C32.3317 45.0712 30.9827 46.3758 34.2127 48.5038C35.7643 49.5267 37.0057 50.3722 38.2438 51.2145C39.596 52.136 40.945 53.0543 42.693 54.2007C43.1363 54.492 43.5607 54.7928 43.9755 55.0873C45.5493 56.2115 46.9648 57.2185 48.7128 57.0602C49.7262 56.9652 50.7775 56.012 51.3095 53.1652C52.5667 46.4328 55.043 31.8535 55.6162 25.8432C55.651 25.3441 55.6298 24.8428 55.5528 24.3485C55.5068 23.9493 55.3124 23.5819 55.0082 23.3193C54.5553 22.9488 53.8523 22.8697 53.5357 22.876C52.1075 22.9013 49.9162 23.6645 39.3617 28.0535Z" fill="white"/>
</svg>
