<svg width="75" height="76" viewBox="0 0 75 76" fill="none" xmlns="http://www.w3.org/2000/svg">
<path fill-rule="evenodd" clip-rule="evenodd" d="M54.6838 45.5431C53.748 45.0712 49.1604 42.7976 48.3064 42.4809C47.4523 42.1674 46.8305 42.0122 46.2057 42.9559C45.5839 43.8932 43.7973 46.0149 43.254 46.6419C42.7077 47.2721 42.1644 47.3481 41.2318 46.8794C40.2993 46.4044 37.2911 45.4132 33.7272 42.2086C30.9545 39.7132 29.0799 36.6321 28.5367 35.6884C27.9934 34.7479 28.477 34.2381 28.9449 33.7694C29.3656 33.3482 29.8775 32.6706 30.3453 32.1227C30.8132 31.5717 30.9671 31.1791 31.2779 30.5489C31.5919 29.9219 31.4349 29.3741 31.1994 28.9022C30.9671 28.4304 29.1019 23.7976 28.3231 21.9134C27.5664 20.0799 26.7971 20.3301 26.2256 20.2984C25.6792 20.2731 25.0575 20.2668 24.4358 20.2668C23.8141 20.2668 22.803 20.5011 21.9489 21.4448C21.0916 22.3853 18.6832 24.6621 18.6832 29.2949C18.6832 33.9246 22.0242 38.3991 22.4921 39.0292C22.96 39.6562 29.0705 49.1625 38.4309 53.238C40.6604 54.207 42.3968 54.7865 43.7502 55.2172C45.9859 55.936 48.0206 55.8347 49.6283 55.5909C51.4181 55.3217 55.1485 53.314 55.9272 51.1164C56.7028 48.9187 56.7028 47.0346 56.4704 46.6419C56.2381 46.2492 55.6164 46.0149 54.6806 45.5431H54.6838ZM37.6585 68.9858H37.6459C32.0863 68.9869 26.6287 67.4797 21.8452 64.6222L20.7148 63.9445L8.96481 67.0542L12.1017 55.5022L11.3638 54.3179C8.25559 49.3283 6.61071 43.5537 6.6192 37.6612C6.62548 20.4029 20.5484 6.36195 37.671 6.36195C45.9607 6.36195 53.7543 9.62361 59.6136 15.5389C62.5037 18.4414 64.7943 21.8931 66.353 25.6941C67.9117 29.4951 68.7076 33.5702 68.6946 37.6834C68.6883 54.9417 54.7654 68.9858 37.6585 68.9858V68.9858ZM64.0725 11.0454C60.6128 7.53337 56.4963 4.74866 51.9616 2.85266C47.427 0.956664 42.5643 -0.0129081 37.6553 0.000129762C17.0755 0.000129762 0.320284 16.8943 0.314004 37.6581C0.310864 44.2954 2.02846 50.7744 5.29725 56.4839L0 76L19.7948 70.7623C25.2706 73.7711 31.407 75.3475 37.6428 75.3477H37.6585C58.2383 75.3477 74.9935 58.4535 74.9998 37.6866C75.015 32.7379 74.0571 27.8354 72.1814 23.2625C70.3058 18.6897 67.5496 14.5372 64.0725 11.0454" fill="white"/>
</svg>
