<svg width="34" height="17" viewBox="0 0 34 17" fill="none" xmlns="http://www.w3.org/2000/svg">
<path fill-rule="evenodd" clip-rule="evenodd" d="M33.38 15.4779C33.5765 15.3128 33.7324 15.1167 33.8388 14.9008C33.9452 14.6849 34 14.4534 34 14.2196C34 13.9859 33.9452 13.7544 33.8388 13.5385C33.7324 13.3226 33.5765 13.1265 33.38 12.9614L18.6073 0.52118C18.211 0.187473 17.6736 0 17.1131 0C16.5527 0 16.0152 0.187473 15.6189 0.52118C15.2226 0.854886 15 1.30749 15 1.77942C15 2.25135 15.2226 2.70395 15.6189 3.03766L30.3916 15.4779C30.5876 15.6434 30.8205 15.7747 31.0769 15.8643C31.3333 15.9539 31.6082 16 31.8858 16C32.1634 16 32.4382 15.9539 32.6946 15.8643C32.951 15.7747 33.1839 15.6434 33.38 15.4779Z" fill="white"/>
<path fill-rule="evenodd" clip-rule="evenodd" d="M0.643187 16.4533C0.439306 16.2804 0.277548 16.0751 0.167179 15.849C0.0568105 15.6229 0 15.3805 0 15.1358C0 14.891 0.0568105 14.6486 0.167179 14.4226C0.277548 14.1965 0.439306 13.9911 0.643187 13.8183L16.2579 0.545732C16.669 0.196304 17.2266 0 17.8079 0C18.3893 0 18.9469 0.196304 19.358 0.545732C19.7691 0.895159 20 1.36908 20 1.86325C20 2.35741 19.7691 2.83134 19.358 3.18077L3.74323 16.4533C3.53986 16.6266 3.29827 16.7641 3.03229 16.8579C2.76631 16.9517 2.48117 17 2.19321 17C1.90524 17 1.6201 16.9517 1.35412 16.8579C1.08814 16.7641 0.846553 16.6266 0.643187 16.4533Z" fill="white"/>
</svg>
