<svg width="30" height="14" viewBox="0 0 30 14" fill="none" xmlns="http://www.w3.org/2000/svg">
<path fill-rule="evenodd" clip-rule="evenodd" d="M29.4348 0.456848C29.6036 0.601297 29.7376 0.772896 29.8289 0.961817C29.9203 1.15074 29.9674 1.35327 29.9674 1.55781C29.9674 1.76235 29.9203 1.96488 29.8289 2.1538C29.7376 2.34272 29.6036 2.51432 29.4348 2.65877L16.7452 13.544C16.4047 13.836 15.9431 14 15.4616 14C14.9802 14 14.5185 13.836 14.1781 13.544C13.8377 13.252 13.6465 12.8559 13.6465 12.443C13.6465 12.0301 13.8377 11.634 14.1781 11.342L26.8678 0.456848C27.0362 0.312034 27.2362 0.197139 27.4565 0.118745C27.6767 0.0403518 27.9128 0 28.1513 0C28.3897 0 28.6258 0.0403518 28.8461 0.118745C29.0663 0.197139 29.2664 0.312034 29.4348 0.456848Z" fill="white"/>
<path fill-rule="evenodd" clip-rule="evenodd" d="M1.34714 0.450231C1.18076 0.592587 1.04876 0.761701 0.958691 0.947885C0.868626 1.13407 0.822266 1.33367 0.822266 1.53524C0.822266 1.73682 0.868626 1.93642 0.958691 2.1226C1.04876 2.30879 1.18076 2.4779 1.34714 2.62026L14.0895 13.5506C14.4249 13.8383 14.8799 14 15.3543 14C15.8288 14 16.2838 13.8383 16.6192 13.5506C16.9547 13.2628 17.1432 12.8725 17.1432 12.4656C17.1432 12.0586 16.9547 11.6683 16.6192 11.3805L3.87691 0.450231C3.71095 0.307514 3.5138 0.194283 3.29675 0.117025C3.0797 0.0397673 2.84702 0 2.61202 0C2.37703 0 2.14434 0.0397673 1.92729 0.117025C1.71024 0.194283 1.51309 0.307514 1.34714 0.450231Z" fill="white"/>
</svg>
