<svg width="52" height="36" viewBox="0 0 52 36" fill="none" xmlns="http://www.w3.org/2000/svg">
<path fill-rule="evenodd" clip-rule="evenodd" d="M30.1141 14.9274L26.1726 25.3177L23.344 21.0348L1.77009 35.3956L0 32.709L21.6284 18.4279L19.013 14.4669L30.1141 14.9274Z" fill="#32353E"/>
<path fill-rule="evenodd" clip-rule="evenodd" d="M30.1141 14.9272L26.1726 25.3177L23.344 21.0345L1.77009 35.3956L0 32.709L21.6281 18.4279L19.0127 14.4669L30.1138 14.9274L30.1141 14.9272ZM26.1314 24.9469L29.8717 15.0871L19.3378 14.6501L21.7702 18.334C21.8219 18.4122 21.8006 18.5179 21.7223 18.5696L0.235239 32.7575L1.81792 35.1597L23.2503 20.893C23.3286 20.8413 23.4343 20.8626 23.486 20.9409L26.1316 24.9469H26.1314Z" fill="#32353E"/>
<path fill-rule="evenodd" clip-rule="evenodd" d="M33.2617 0H51.9999V18.7318H33.2617V0ZM35.6904 2.42787H49.5714V16.3041H35.6904V2.42787Z" fill="#32353E"/>
<path fill-rule="evenodd" clip-rule="evenodd" d="M33.2617 0H51.9999V18.7318H33.2617V0ZM35.6904 2.42787H49.5714V16.3041H35.6904V2.42787ZM51.8297 0.170429H33.4321V18.5616H51.8297V0.170429ZM35.6904 2.25769H49.5714C49.6654 2.25769 49.7417 2.33395 49.7417 2.42787V16.3041C49.7417 16.398 49.6654 16.4743 49.5714 16.4743H35.6904C35.5964 16.4743 35.5201 16.398 35.5201 16.3041V2.42787C35.5201 2.33395 35.5964 2.25769 35.6904 2.25769Z" fill="#32353E"/>
<rect x="38.7036" y="5.28455" width="8.2828" height="8.2828" rx="1" stroke="#32353E" stroke-width="2"/>
</svg>
