<svg width="48" height="32" viewBox="0 0 48 32" fill="none" xmlns="http://www.w3.org/2000/svg">
<path fill-rule="evenodd" clip-rule="evenodd" d="M0.763731 30.2795C2.05713 31.7951 1.70543 31.441 3.24224 29.9182C5.7537 27.4297 8.26527 24.9411 10.7766 22.4525C12.151 21.0907 11.7914 21.0159 13.3187 22.4831C15.2833 24.3707 17.2412 26.6785 19.2066 28.5651C20.6265 29.9281 20.1774 29.8736 21.5899 28.4407C27.7468 22.1948 33.9039 15.9488 40.0608 9.70295C41.1603 8.5875 41.012 9.11384 42.2683 10.3465C42.9372 11.0028 43.6062 11.6592 44.2751 12.3154C45.9213 13.9307 44.7572 13.828 45.1822 11.3881C45.7772 7.97233 46.6162 4.66155 47.7332 0.728969C48.1042 -0.577388 48.4565 0.182789 46.0755 0.627082C41.0135 1.57165 39.0988 1.98363 35.6958 2.30769C33.4392 2.67299 33.6486 1.53901 35.2648 3.31669C35.8799 3.9932 36.495 4.66981 37.11 5.34632C38.0629 6.39439 38.8939 6.71426 38.0224 7.6059C32.741 13.0077 27.4598 18.8219 22.1781 24.2234C20.4056 26.0361 20.2136 25.5581 18.3938 23.7283C16.6513 21.9763 15.2917 20.2242 13.5491 18.4722C11.8234 16.7372 12.7074 16.5339 11.0811 18.1915C7.85481 21.4797 4.66799 24.3985 1.44217 27.6872C-0.0497048 29.2083 -0.562321 28.726 0.763731 30.2795Z" fill="#32353E"/>
</svg>
