<svg width="52" height="45" viewBox="0 0 52 45" fill="none" xmlns="http://www.w3.org/2000/svg">
<path fill-rule="evenodd" clip-rule="evenodd" d="M43.2769 20.9266C43.1778 19.9807 43.0444 19.9747 43.7319 20.5594C46.2429 22.694 49.0757 24.8087 51.5866 26.9433C52.1356 27.41 52.1416 27.2754 51.5818 27.7445C49.0132 29.8959 46.2788 31.8622 43.8745 33.9773C43.151 34.6136 43.3089 34.5334 43.3998 33.5133C43.5532 31.7904 43.6341 30.0669 43.6456 28.3431H12.5553V25.7889H43.5333C43.5037 23.8655 43.4916 22.9772 43.2769 20.9266Z" fill="#32353E"/>
<path fill-rule="evenodd" clip-rule="evenodd" d="M8.72288 11.1377C8.82192 10.1918 8.9554 10.1857 8.26781 10.7705C5.7569 12.9051 2.92408 15.0198 0.413176 17.1544C-0.135509 17.6211 -0.141551 17.4865 0.418005 17.9553C2.98659 20.1067 5.72096 22.0731 8.12527 24.1881C8.8488 24.8245 8.69087 24.7442 8.59998 23.7241C8.44658 22.0012 8.36565 20.2777 8.35448 18.5538H39.4447V15.9997H8.46711C8.29861 14.3116 8.54532 12.8346 8.72288 11.1377Z" fill="#32353E"/>
<path fill-rule="evenodd" clip-rule="evenodd" d="M9.32059 31.4652C9.41964 30.5193 9.55312 30.5132 8.86552 31.098C6.35462 33.2325 3.5218 35.3472 1.01089 37.4818C0.462208 37.9485 0.456166 37.8139 1.01572 38.2827C3.58431 40.4341 6.31868 42.4004 8.72299 44.5154C9.44652 45.1517 9.28859 45.0715 9.19769 44.0514C9.04429 42.3286 8.96337 40.6051 8.95219 38.8812H40.0424V36.3271H9.06483C8.89633 34.639 9.14303 33.1621 9.32059 31.4652Z" fill="#32353E"/>
<path fill-rule="evenodd" clip-rule="evenodd" d="M43.2547 0.766216C43.1557 -0.17968 43.0222 -0.185746 43.7098 0.398989C46.2207 2.53358 49.0535 4.64826 51.5644 6.78285C52.1134 7.24956 52.1191 7.11501 51.5596 7.58408C48.991 9.73553 46.2566 11.7019 43.8523 13.8169C43.1288 14.4532 43.2867 14.373 43.3776 13.3529C43.531 11.63 43.612 9.9065 43.6234 8.18264H12.5332V5.62854H43.5108C43.4812 3.70505 43.4694 2.81684 43.2547 0.766216Z" fill="#32353E"/>
</svg>
