<svg width="98" height="25" viewBox="0 0 98 25" fill="none" xmlns="http://www.w3.org/2000/svg">
<path fill-rule="evenodd" clip-rule="evenodd" d="M74.6363 5.53766L68.5447 20.8387C68.4952 20.9631 68.432 21.2121 68.3066 21.213L64.8018 21.2381C64.5564 21.2397 64.5848 20.9695 64.6971 20.6936L72.1484 2.39875C72.3245 1.96629 72.4556 1.76271 73.0505 1.76182C74.2997 1.75986 75.8807 1.7538 77.0588 1.76235C77.1491 1.76306 77.1779 1.76734 77.215 1.77428C77.3299 1.78052 77.3933 1.84446 77.4399 1.95453L77.843 2.90477L83.5309 16.3527C83.795 16.9772 83.6693 17.4362 83.4439 18.0545C83.0728 19.0717 82.311 20.3379 81.8211 20.7493C81.4157 21.0899 80.8957 21.2644 80.1988 21.2653C77.0909 21.2699 75.3843 21.2441 72.2764 21.2486C71.8519 21.2491 71.3307 21.2879 71.4822 20.9069L72.697 17.8509C72.8074 17.5732 72.8976 17.5219 73.2295 17.5215C75.7674 17.5183 76.7634 17.5461 79.3015 17.5418C79.336 17.542 79.6473 17.5983 79.6301 17.2529C79.6107 16.8611 79.4787 16.5136 79.3962 16.3244C77.8262 12.7301 76.3969 9.13574 74.8267 5.5414C74.7121 5.2712 74.744 5.26693 74.6363 5.53766Z" fill="white"/>
<path fill-rule="evenodd" clip-rule="evenodd" d="M17.1101 5.51587L10.9395 21.0757C10.8514 21.298 10.7764 21.269 10.2483 21.2786L7.23683 21.2236C6.99071 21.2191 7.00232 21.1411 7.11359 20.8647L14.552 2.37696C14.7263 1.94379 14.8592 1.74092 15.4541 1.74003C16.7033 1.73807 18.2843 1.73201 19.4623 1.74056C19.5527 1.74127 19.5815 1.74555 19.6186 1.75249C19.7335 1.75873 19.7969 1.82267 19.8435 1.93274L20.2466 2.88298L25.9345 16.331C26.1986 16.9554 26.0729 17.4144 25.8475 18.0327C25.4763 19.0499 24.7146 20.3161 24.2247 20.7275C23.8192 21.0681 23.299 21.2426 22.6024 21.2435C19.4945 21.2478 17.8581 21.2227 14.7504 21.2268C14.3262 21.2273 13.8047 21.2661 13.9561 20.8852L15.171 17.8291C15.2814 17.5514 15.3719 17.5001 15.7034 17.4997C18.2414 17.4969 19.1669 17.5243 21.7051 17.52C21.7396 17.5202 22.0509 17.5765 22.0337 17.2311C22.0143 16.8393 21.8823 16.4916 21.7997 16.3026C20.23 12.7083 18.8706 9.11395 17.3007 5.51961C17.186 5.24941 17.2182 5.24407 17.1103 5.51622L17.1101 5.51587Z" fill="white"/>
<path fill-rule="evenodd" clip-rule="evenodd" d="M11.6999 2.19865C9.10012 8.46061 6.71128 14.7227 4.11169 20.9849C4.02453 21.2398 3.86503 21.2136 3.77055 21.2309C2.63409 21.2301 1.49762 21.2296 0.361335 21.2289C0.0407389 21.2287 -0.069993 21.0079 0.043064 20.7289L7.63253 1.9972C7.6795 1.87751 7.73379 1.74695 7.98813 1.74927C9.11923 1.75942 10.2503 1.74944 11.3814 1.74944C11.4327 1.73323 11.8203 1.79006 11.7003 2.19847L11.6999 2.19865Z" fill="#D9A523"/>
<path fill-rule="evenodd" clip-rule="evenodd" d="M52.1024 1.97277C52.0531 2.0889 52 2.20717 51.9522 2.33025L46.4624 16.4036C46.2052 17.019 46.3168 17.0297 46.0639 16.4241C44.4992 12.6404 41.6715 5.76376 40.0723 1.99326C39.9869 1.79235 39.9297 1.78861 39.8038 1.78789C38.6261 1.78041 37.0447 1.7854 35.7956 1.78718C35.2005 1.78807 35.0706 1.99237 34.8934 2.42429C32.3583 8.59898 29.9636 14.8438 27.4285 21.0183C27.3081 21.3113 27.3742 21.3584 27.5335 21.3584C28.7582 21.3589 29.8425 21.36 31.0672 21.3605C31.1817 21.3605 31.2601 21.309 31.3303 21.1281C33.3135 16.0162 35.2549 10.9592 37.326 5.90999C37.4325 5.65048 37.3971 5.64727 37.5098 5.90518C39.7109 10.8626 41.4209 15.7041 43.6213 20.6612C43.7742 21.0055 44.0982 21.2292 44.4976 21.2289C45.4429 21.2274 46.9437 21.2529 47.8889 21.2543C48.2881 21.2549 48.6255 21.0369 48.7651 20.6867L54.6652 5.8847C54.7779 5.62679 54.74 5.63142 54.849 5.88951L61.133 20.7633C61.4536 21.5222 61.4079 21.4291 61.6844 20.7652C62.1989 19.5304 62.6331 18.4307 63.1323 17.1889C63.4311 16.4454 63.3883 16.6305 63.0803 15.8808L57.3519 2.40364C57.1694 1.9742 57.0449 1.76741 56.4498 1.76652C55.2006 1.76456 53.5489 1.7601 52.3714 1.76723C52.2458 1.76794 52.1883 1.77168 52.1029 1.9726L52.1024 1.97277ZM65.2738 21.3028C65.2897 21.2869 65.299 21.2645 65.3002 21.2331L65.2738 21.3028Z" fill="white"/>
<path fill-rule="evenodd" clip-rule="evenodd" d="M96.7954 1.98925C94.2419 8.33813 91.7585 14.687 89.205 21.0359C89.1134 21.2712 88.9073 21.2366 88.9073 21.2366C87.7821 21.2352 86.6569 21.2338 85.5317 21.2323C85.2336 21.232 85.1262 21.0485 85.24 20.7676C87.7844 14.4936 90.3015 8.26563 92.9029 2.01472C92.9468 1.86599 93.0107 1.73935 93.2769 1.74862C94.3528 1.74897 95.4989 1.74897 96.5748 1.74933C96.6645 1.77818 96.797 1.77783 96.7956 1.98925H96.7954Z" fill="white"/>
<path fill-rule="evenodd" clip-rule="evenodd" d="M85.4046 2.00878C87.9581 8.35766 90.7227 14.7065 93.2762 21.0554C93.3678 21.2907 93.5739 21.2562 93.5739 21.2562C94.6992 21.2547 95.6838 21.2533 96.809 21.2519C97.1071 21.2515 97.2145 21.0681 97.1007 20.7872C94.5563 14.5131 91.8283 8.28517 89.2271 2.03425C89.1829 1.88553 89.1192 1.75889 88.8531 1.76815C87.7771 1.7685 86.7012 1.7685 85.6253 1.76886C85.5358 1.79772 85.4031 1.79736 85.4046 2.00878Z" fill="white"/>
<path fill-rule="evenodd" clip-rule="evenodd" d="M10.8764 0L0.897922 24.5087H0.235474L10.214 0H10.8764Z" fill="#D9A523"/>
</svg>
