<?xml version="1.0" encoding="UTF-8" standalone="no"?>
<svg
   xmlns:dc="http://purl.org/dc/elements/1.1/"
   xmlns:cc="http://creativecommons.org/ns#"
   xmlns:rdf="http://www.w3.org/1999/02/22-rdf-syntax-ns#"
   xmlns:svg="http://www.w3.org/2000/svg"
   xmlns="http://www.w3.org/2000/svg"
   xmlns:sodipodi="http://sodipodi.sourceforge.net/DTD/sodipodi-0.dtd"
   xmlns:inkscape="http://www.inkscape.org/namespaces/inkscape"
   width="30.763399"
   height="27.046101"
   viewBox="0 0 30.763399 27.046101"
   version="1.1"
   id="svg20"
   sodipodi:docname="diamond.svg"
   style="fill:none"
   inkscape:version="0.92.5 (2060ec1f9f, 2020-04-08)">
  <metadata
     id="metadata26">
    <rdf:RDF>
      <cc:Work
         rdf:about="">
        <dc:format>image/svg+xml</dc:format>
        <dc:type
           rdf:resource="http://purl.org/dc/dcmitype/StillImage" />
      </cc:Work>
    </rdf:RDF>
  </metadata>
  <defs
     id="defs24" />
  <sodipodi:namedview
     pagecolor="#ffffff"
     bordercolor="#666666"
     borderopacity="1"
     objecttolerance="10"
     gridtolerance="10"
     guidetolerance="10"
     inkscape:pageopacity="0"
     inkscape:pageshadow="2"
     inkscape:window-width="1366"
     inkscape:window-height="713"
     id="namedview22"
     showgrid="false"
     inkscape:zoom="1.5225806"
     inkscape:cx="4.2374559"
     inkscape:cy="-0.425"
     inkscape:window-x="0"
     inkscape:window-y="27"
     inkscape:window-maximized="1"
     inkscape:current-layer="svg20" />
  <path
     d="m 15.4477,27.0224 0.1519,-0.2943 1.4226,-2.4162 c 0.4908,-0.8193 0.9475,-1.6135 1.4353,-2.4121 L 26.6727,8.0951 C 26.7367,7.9902 26.795,7.896 26.8624,7.7825 26.9701,7.6012 27.0042,7.6315 26.9869,7.4748 L 15.4481,7.4772 15.432,7.4591 c -0.1614,0.38 -0.0358,15.6023 -0.0577,18.9473 -0.0016,0.2411 -0.0454,0.4699 0.0733,0.616 z"
     id="path2"
     inkscape:connector-curvature="0"
     style="clip-rule:evenodd;fill:#426094;fill-rule:evenodd" />
  <path
     d="m 15.1551,26.7275 0.18,0.3186 0.1141,-0.0239 C 15.3304,26.8761 15.3743,26.6473 15.3759,26.4062 15.3978,23.0612 15.2721,7.8391 15.4336,7.4589 L 15.2928,7.4723 3.7786,7.4623 3.7697,7.4427 C 3.7599,7.6475 3.7733,7.5778 3.8963,7.781 l 1.2496,2.1036 c 2.3365,4.0282 4.8544,8.0272 7.1472,12.0191 0.4408,0.7675 2.5722,4.2265 2.8621,4.824 z"
     id="path4"
     inkscape:connector-curvature="0"
     style="clip-rule:evenodd;fill:#6480b0;fill-rule:evenodd" />
  <path
     d="m 9.5451,2.8779 5.045,3.978 c 0.1754,0.1338 0.6353,0.4461 0.7023,0.6169 l 0.1407,-0.0134 0.0161,0.0182 c 0.1007,-0.216 0.1417,-0.1691 0.3181,-0.3037 0.163,-0.1245 0.2176,-0.1759 0.3647,-0.2966 l 5.0922,-4.0034 5.4277,4.2741 c 0.166,0.134 0.2546,0.1537 0.3362,0.327 L 27.0735,7.4605 27.0999,2.8094 27.0744,2.7178 23.6241,0.3597 C 23.5193,0.2897 23.4552,0.2357 23.3652,0.1761 23.3158,0.1434 23.2827,0.1235 23.2275,0.0894 l -0.11,-0.0665 C 22.9663,0.1518 21.4457,2.5005 21.2604,2.8226 20.7427,2.7379 15.614,0.0028 15.3331,0.036 15.2012,0.0516 9.6499,2.774 9.5455,2.8778 Z"
     id="path6"
     inkscape:connector-curvature="0"
     style="clip-rule:evenodd;fill:#bfcfe9;fill-rule:evenodd" />
  <path
     d="M 3e-4,7.4691 3.768,7.443 3.777,7.4626 C 3.8588,7.3001 3.8765,7.3242 4.1007,7.1459 4.8453,6.554 9.3585,2.9403 9.5439,2.8775 9.6484,2.7737 15.1996,0.0513 15.3316,0.0357 c 0.2808,-0.0332 5.4096,2.7019 5.9272,2.7866 0.1854,-0.3222 1.706,-2.6708 1.8571,-2.7997 l 0.11,0.0665 c 0.0551,0.0341 0.0883,0.0538 0.1378,0.0867 0.09,0.0597 0.154,0.1136 0.2588,0.1836 L 27.0729,2.7175 25.2947,0.3538 C 25.1403,0.2502 25.1056,0.15 24.9947,0 L 5.7438,0.002 C 4.2928,1.8495 2.9283,3.7448 1.4398,5.5757 1.2028,5.8671 0.0831,7.2429 0,7.4689 Z"
     id="path8"
     inkscape:connector-curvature="0"
     style="clip-rule:evenodd;fill:#edf1fd;fill-rule:evenodd" />
  <path
     d="M 15.1533,26.7277 C 14.8634,26.1302 12.732,22.6712 12.2912,21.9037 9.9983,17.9117 7.4803,13.9127 5.144,9.8846 L 3.8944,7.781 C 3.7713,7.5778 3.7579,7.6475 3.7678,7.4427 L 0,7.4688 c 0.0469,0.1688 0.7737,1.0522 0.9345,1.2501 2.814,3.4636 5.6832,7.3011 8.4964,10.8107 l 1.1794,1.5138 c 0.5214,0.6729 4.2882,5.5553 4.5431,5.6841 z"
     id="path10"
     inkscape:connector-curvature="0"
     style="clip-rule:evenodd;fill:#91a9cf;fill-rule:evenodd" />
  <path
     d="m 15.6007,26.7285 c 0.2011,-0.1104 0.8069,-0.9326 1.0086,-1.1877 l 2.828,-3.6058 c 0.3296,-0.4096 0.5968,-0.7843 0.9403,-1.2068 l 1.8918,-2.398 c 1.8861,-2.3606 3.776,-4.8818 5.6603,-7.2106 L 30.7634,7.4658 27.0733,7.4607 26.988,7.4752 c 0.0173,0.1567 -0.0167,0.1265 -0.1245,0.3077 -0.0675,0.1135 -0.1259,0.2079 -0.1897,0.3126 l -8.2152,13.8047 c -0.4878,0.7986 -0.9445,1.5929 -1.4353,2.4121 z"
     id="path12"
     inkscape:connector-curvature="0"
     style="clip-rule:evenodd;fill:#6480b0;fill-rule:evenodd" />
  <path
     d="M 3.7777,7.4626 15.2919,7.4725 C 15.225,7.3018 14.7651,6.9895 14.5897,6.8556 L 9.5446,2.8777 C 9.359,2.9405 4.846,6.5542 4.1014,7.1461 3.8772,7.3242 3.8595,7.3002 3.7777,7.4627 Z"
     id="path14"
     inkscape:connector-curvature="0"
     style="clip-rule:evenodd;fill:#91a9cf;fill-rule:evenodd" />
  <path
     d="M 15.4473,7.4775 26.9861,7.4751 C 26.9044,7.3018 26.8158,7.2821 26.6498,7.1481 L 21.2221,2.874 16.1299,6.8774 c -0.1471,0.1206 -0.2017,0.1719 -0.3647,0.2965 -0.1763,0.1347 -0.2174,0.0878 -0.318,0.3037 z"
     id="path16"
     inkscape:connector-curvature="0"
     style="clip-rule:evenodd;fill:#6480b0;fill-rule:evenodd" />
  <path
     d="m 27.0725,7.4604 3.6901,0.0052 C 30.6851,7.2907 30.6609,7.2785 30.5514,7.1472 30.4727,7.0527 30.4303,6.9921 30.3318,6.8703 l -3.2329,-4.061 z"
     id="path18"
     inkscape:connector-curvature="0"
     style="clip-rule:evenodd;fill:#91a9cf;fill-rule:evenodd" />
</svg>
