<svg id="eGkloE1VKg61" xmlns="http://www.w3.org/2000/svg" xmlns:xlink="http://www.w3.org/1999/xlink" viewBox="0 0 147 39" shape-rendering="geometricPrecision" text-rendering="geometricPrecision">
<style><![CDATA[
#eGkloE1VKg610 {animation: eGkloE1VKg610_c_o 5000ms linear infinite normal forwards}@keyframes eGkloE1VKg610_c_o { 0% {opacity: 0} 20% {opacity: 0.2} 40% {opacity: 0.2} 60% {opacity: 0} 100% {opacity: 0}}
]]></style>
<g transform="translate(.000001 0)" opacity="0.1"><path d="M112.414,8.95892L103.239,32.8286c-.074.194-.17.5824-.359.5838l-5.2784.0392c-.3696.0025-.3269-.419-.1577-.8494L108.667,4.06223c.265-.67464.463-.99224,1.359-.99363c1.881-.00305,4.263-.0125,6.037.00084.136.00111.18.00778.235.01861.173.00973.269.10948.339.28119l.607,1.48238l8.567,20.97888c.398.9741.209,1.6902-.131,2.6546-.559,1.5869-1.706,3.5622-2.444,4.204-.611.5313-1.394.8036-2.443.805-4.681.0072-7.252-.0331-11.933-.0261-.64.0008-1.425.0614-1.196-.533l1.829-4.7675c.167-.4331.303-.5132.802-.5137c3.823-.005,5.323.0383,9.146.0317.052.0002.521.088.495-.4507-.029-.6113-.228-1.1534-.352-1.4485-2.365-5.6072-4.518-11.2144-6.883-16.82154-.172-.42151-.124-.42818-.287-.00584Z" clip-rule="evenodd" fill="#fff" fill-rule="evenodd"/><path d="M25.7745,8.92572L16.4802,33.1991c-.1326.3468-.2456.3015-1.0411.3165l-4.5359-.0858c-.3707-.007-.3532-.1287-.1856-.5599L21.9213,4.02902c.2626-.67575.4627-.99223,1.3588-.99362c1.8815-.00306,4.2629-.0125,6.0373.00084.1361.00111.1794.00777.2354.01861.173.00973.2685.10947.3387.28119l.6071,1.48238L39.0657,25.7973c.3979.9741.2085,1.6902-.131,2.6546-.559,1.5869-1.7063,3.5622-2.4443,4.204-.6106.5313-1.3943.8036-2.4434.805-4.6812.0066-7.1459-.0325-11.8268-.0261-.6389.0008-1.4244.0614-1.1963-.533l1.8298-4.7675c.1663-.4332.3027-.5132.802-.5137c3.8227-.0045,5.2167.0383,9.0397.0316.052.0003.5209.0881.495-.4506-.0293-.6113-.2281-1.1537-.3524-1.4485-2.3644-5.6072-4.4119-11.2144-6.7765-16.82155-.1727-.42151-.1243-.42984-.2868-.00528l-.0002-.00055Z" clip-rule="evenodd" fill="#fff" fill-rule="evenodd"/><path d="M17.6225,3.74944C13.7067,13.5181,10.1086,23.287,6.19306,33.056c-.13128.3976-.37152.3568-.51383.3837-1.71175-.0011-3.4235-.0019-5.134984-.0031-.482885-.0002-.64967-.3448-.479383-.7799L11.4962,3.43518c.0707-.18672.1525-.3904.5356-.38679c1.7037.01584,3.4073.00028,5.111.00028.0772-.02528.661.06336.4802.70049l-.0005.00028Z" clip-rule="evenodd" fill="#fff" fill-rule="evenodd"/><path d="M78.4741,3.39704c-.0743.18116-.1542.36566-.2263.55766L69.9791,25.9091c-.3874.96-.2193.9767-.6002.032C67.022,20.0385,62.763,9.31098,60.3542,3.42899c-.1286-.31342-.2147-.31926-.4043-.32037-1.7739-.01167-4.1558-.00389-6.0373-.00111-.8963.00139-1.0919.32009-1.3588.9939C48.7354,13.7339,45.1284,23.4759,41.31,33.1081c-.1813.4571-.0818.5305.1582.5305c1.8446.0008,3.4778.0025,5.3225.0033.1724,0,.2905-.0803.3962-.3626c2.9872-7.9745,5.9114-15.8635,9.0309-23.74021.1603-.40484.1071-.40984.2768-.0075C59.81,17.2652,62.3855,24.818,65.6998,32.551c.2303.5371.7183.8861,1.3198.8856c1.4239-.0023,3.6845.0375,5.1081.0397.6013.0008,1.1094-.3393,1.3198-.8855L82.3342,9.49964c.1697-.40234.1127-.39511.2768.0075L92.0761,32.7103c.4829,1.1839.414,1.0386.8304.003.7751-1.9264,1.429-3.6419,2.1809-5.5791.4501-1.1598.3855-.8711-.0782-2.0406L86.381,4.06918c-.2749-.66992-.4624-.99251-1.3588-.9939-1.8815-.00306-4.3694-.01001-6.143.00111-.1891.00111-.2757.00694-.4043.32037l-.0008.00028ZM98.3129,33.5519c.024-.0247.038-.0598.0399-.1087l-.0399.1087Z" clip-rule="evenodd" fill="#fff" fill-rule="evenodd"/><path d="M145.796,3.42105c-3.846,9.90425-7.587,19.80855-11.433,29.71275-.138.3671-.448.3132-.448.3132-1.695-.0022-3.39-.0045-5.085-.0067-.449-.0006-.61-.2867-.439-.7249c3.833-9.7876,7.624-19.5032,11.542-29.25461.066-.23202.163-.42957.563-.41512c1.621.00055,3.347.00055,4.968.0011.135.04502.334.04447.332.37428v0Z" clip-rule="evenodd" fill="#fff" fill-rule="evenodd"/><path d="M128.643,3.45426c3.846,9.90424,8.01,19.80854,11.856,29.71274.138.3671.448.3132.448.3132c1.695-.0022,3.178-.0045,4.873-.0067.449-.0005.611-.2867.439-.7249-3.832-9.7876-7.941-19.5032-11.859-29.2546-.066-.23202-.162-.42958-.563-.41513-1.621.00056-3.241.00056-4.862.00111-.135.04502-.335.04446-.332.37428Z" clip-rule="evenodd" fill="#fff" fill-rule="evenodd"/><path d="M16.379,0.320312L1.34935,38.5539h-.997788L15.3813,0.320312h.9977Z" clip-rule="evenodd" fill="#fff" fill-rule="evenodd"/></g><g id="eGkloE1VKg610" transform="translate(.000001 0)" opacity="0"><path d="M112.414,8.95892L103.239,32.8286c-.074.194-.17.5824-.359.5838l-5.2784.0392c-.3696.0025-.3269-.419-.1577-.8494L108.667,4.06223c.265-.67464.463-.99224,1.359-.99363c1.881-.00305,4.263-.0125,6.037.00084.136.00111.18.00778.235.01861.173.00973.269.10948.339.28119l.607,1.48238l8.567,20.97888c.398.9741.209,1.6902-.131,2.6546-.559,1.5869-1.706,3.5622-2.444,4.204-.611.5313-1.394.8036-2.443.805-4.681.0072-7.252-.0331-11.933-.0261-.64.0008-1.425.0614-1.196-.533l1.829-4.7675c.167-.4331.303-.5132.802-.5137c3.823-.005,5.323.0383,9.146.0317.052.0002.521.088.495-.4507-.029-.6113-.228-1.1534-.352-1.4485-2.365-5.6072-4.518-11.2144-6.883-16.82154-.172-.42151-.124-.42818-.287-.00584Z" clip-rule="evenodd" fill="#d9a523" fill-rule="evenodd"/><path d="M25.7745,8.92572L16.4802,33.1991c-.1326.3468-.2456.3015-1.0411.3165l-4.5359-.0858c-.3707-.007-.3532-.1287-.1856-.5599L21.9213,4.02902c.2626-.67575.4627-.99223,1.3588-.99362c1.8815-.00306,4.2629-.0125,6.0373.00084.1361.00111.1794.00777.2354.01861.173.00973.2685.10947.3387.28119l.6071,1.48238L39.0657,25.7973c.3979.9741.2085,1.6902-.131,2.6546-.559,1.5869-1.7063,3.5622-2.4443,4.204-.6106.5313-1.3943.8036-2.4434.805-4.6812.0066-7.1459-.0325-11.8268-.0261-.6389.0008-1.4244.0614-1.1963-.533l1.8298-4.7675c.1663-.4332.3027-.5132.802-.5137c3.8227-.0045,5.2167.0383,9.0397.0316.052.0003.5209.0881.495-.4506-.0293-.6113-.2281-1.1537-.3524-1.4485-2.3644-5.6072-4.4119-11.2144-6.7765-16.82155-.1727-.42151-.1243-.42984-.2868-.00528l-.0002-.00055Z" clip-rule="evenodd" fill="#d9a523" fill-rule="evenodd"/><path d="M17.6225,3.74944C13.7067,13.5181,10.1086,23.287,6.19306,33.056c-.13128.3976-.37152.3568-.51383.3837-1.71175-.0011-3.4235-.0019-5.134984-.0031-.482885-.0002-.64967-.3448-.479383-.7799L11.4962,3.43518c.0707-.18672.1525-.3904.5356-.38679c1.7037.01584,3.4073.00028,5.111.00028.0772-.02528.661.06336.4802.70049l-.0005.00028Z" clip-rule="evenodd" fill="#d9a523" fill-rule="evenodd"/><path d="M78.4741,3.39704c-.0743.18116-.1542.36566-.2263.55766L69.9791,25.9091c-.3874.96-.2193.9767-.6002.032C67.022,20.0385,62.763,9.31098,60.3542,3.42899c-.1286-.31342-.2147-.31926-.4043-.32037-1.7739-.01167-4.1558-.00389-6.0373-.00111-.8963.00139-1.0919.32009-1.3588.9939C48.7354,13.7339,45.1284,23.4759,41.31,33.1081c-.1813.4571-.0818.5305.1582.5305c1.8446.0008,3.4778.0025,5.3225.0033.1724,0,.2905-.0803.3962-.3626c2.9872-7.9745,5.9114-15.8635,9.0309-23.74021.1603-.40484.1071-.40984.2768-.0075C59.81,17.2652,62.3855,24.818,65.6998,32.551c.2303.5371.7183.8861,1.3198.8856c1.4239-.0023,3.6845.0375,5.1081.0397.6013.0008,1.1094-.3393,1.3198-.8855L82.3342,9.49964c.1697-.40234.1127-.39511.2768.0075L92.0761,32.7103c.4829,1.1839.414,1.0386.8304.003.7751-1.9264,1.429-3.6419,2.1809-5.5791.4501-1.1598.3855-.8711-.0782-2.0406L86.381,4.06918c-.2749-.66992-.4624-.99251-1.3588-.9939-1.8815-.00306-4.3694-.01001-6.143.00111-.1891.00111-.2757.00694-.4043.32037l-.0008.00028ZM98.3129,33.5519c.024-.0247.038-.0598.0399-.1087l-.0399.1087Z" clip-rule="evenodd" fill="#d9a523" fill-rule="evenodd"/><path d="M145.796,3.42105c-3.846,9.90425-7.587,19.80855-11.433,29.71275-.138.3671-.448.3132-.448.3132-1.695-.0022-3.39-.0045-5.085-.0067-.449-.0006-.61-.2867-.439-.7249c3.833-9.7876,7.624-19.5032,11.542-29.25461.066-.23202.163-.42957.563-.41512c1.621.00055,3.347.00055,4.968.0011.135.04502.334.04447.332.37428v0Z" clip-rule="evenodd" fill="#d9a523" fill-rule="evenodd"/><path d="M128.643,3.45426c3.846,9.90424,8.01,19.80854,11.856,29.71274.138.3671.448.3132.448.3132c1.695-.0022,3.178-.0045,4.873-.0067.449-.0005.611-.2867.439-.7249-3.832-9.7876-7.941-19.5032-11.859-29.2546-.066-.23202-.162-.42958-.563-.41513-1.621.00056-3.241.00056-4.862.00111-.135.04502-.335.04446-.332.37428Z" clip-rule="evenodd" fill="#d9a523" fill-rule="evenodd"/><path d="M16.379,0.320312L1.34935,38.5539h-.997788L15.3813,0.320312h.9977Z" clip-rule="evenodd" fill="#d9a523" fill-rule="evenodd"/></g></svg>
