<svg id="eZ3bJyrXQN41" xmlns="http://www.w3.org/2000/svg" xmlns:xlink="http://www.w3.org/1999/xlink" viewBox="1500 1400 5000 5000" shape-rendering="geometricPrecision" text-rendering="geometricPrecision">
<style><![CDATA[
#eZ3bJyrXQN4370_ts {animation: eZ3bJyrXQN4370_ts__ts 2000ms linear infinite normal forwards}@keyframes eZ3bJyrXQN4370_ts__ts { 0% {transform: translate(4092.280424px,3987.395147px) scale(0.888665,0.888665)} 50% {transform: translate(4092.280424px,3987.395147px) scale(1.445105,1.445105)} 100% {transform: translate(4092.280424px,3987.395147px) scale(0.888665,0.888665)}}
]]></style>
<defs><radialGradient id="eZ3bJyrXQN4370-fill" cx="0" cy="0" r="0.5" spreadMethod="pad" gradientUnits="objectBoundingBox" gradientTransform="translate(0.489752 0.504451)"><stop id="eZ3bJyrXQN4370-fill-0" offset="22%" stop-color="rgba(25,26,31,0)"/><stop id="eZ3bJyrXQN4370-fill-1" offset="38.4901%" stop-color="rgba(25,26,31,0.91)"/><stop id="eZ3bJyrXQN4370-fill-2" offset="54.7613%" stop-color="#191a1f"/></radialGradient></defs><rect width="8192" height="8192" rx="0" ry="0" transform="matrix(.645039 0 0 0.640466 1355.820256 1287.634757)" fill="#191a1f"/><g><g><line x1="3371.7" y1="3648.3" x2="3055.8" y2="3648.3" fill="none" stroke="#ebc429" stroke-width="8.48342" stroke-miterlimit="1.06425"/><line x1="3371.2" y1="3536.8" x2="3164.5" y2="3536.8" fill="none" stroke="#ebc429" stroke-width="8.48342" stroke-miterlimit="1.06425"/><polyline points="3371.9,3758.6 3171.9,3758.6 3110.9,3697.4 2857.5,3697.4" fill="none" stroke="#ebc429" stroke-width="8.48342" stroke-miterlimit="1.06425"/><polyline points="5099.2,3474.6 4899.1,3474.6 4838.1,3535.8 4584.7,3535.8" fill="none" stroke="#ebc429" stroke-width="8.48342" stroke-miterlimit="1.06425"/><polyline points="5196.3,3586.5 4886,3586.5 4824.9,3647.7 4571.5,3647.7" fill="none" stroke="#ebc429" stroke-width="8.48342" stroke-miterlimit="1.06425"/><polyline points="3372.2,3869.1 3149.1,3867.7 3085.5,3800.4 2872.4,3800.4" fill="none" stroke="#ebc429" stroke-width="8.48342" stroke-miterlimit="1.06425"/><polyline points="3373.3,4309.4 3222.3,4309.6 3153.3,4373.8 2940.3,4373.8" fill="none" stroke="#ebc429" stroke-width="8.48342" stroke-miterlimit="1.06425"/><polyline points="4636.4,4308.2 4787.5,4308.4 4859.6,4372.5 5203.8,4372.5" fill="none" stroke="#ebc429" stroke-width="8.48342" stroke-miterlimit="1.06425"/><polyline points="4641.4,4195.9 4769.8,4197.6 4841.9,4261.7 4936.5,4261.4 4980.3,4299.3 5334.6,4298.5" fill="none" stroke="#ebc429" stroke-width="8.48342" stroke-miterlimit="1.06425"/><polyline points="5189.3,3858.5 5060.9,3856.8 4988.8,3792.7 4894.2,3793 4850.4,3755.1 4551.2,3755.8" fill="none" stroke="#ebc429" stroke-width="8.48342" stroke-miterlimit="1.06425"/><line x1="3372.5" y1="3979.4" x2="3154.4" y2="3979.4" fill="none" stroke="#ebc429" stroke-width="8.48342" stroke-miterlimit="1.06425"/><line x1="3372.1" y1="4088.9" x2="3038.8" y2="4088.9" fill="none" stroke="#ebc429" stroke-width="8.48342" stroke-miterlimit="1.06425"/><line x1="4959" y1="4087.8" x2="4625.8" y2="4087.8" fill="none" stroke="#ebc429" stroke-width="8.48342" stroke-miterlimit="1.06425"/><line x1="5089.2" y1="3977.9" x2="4598.5" y2="3977.9" fill="none" stroke="#ebc429" stroke-width="8.48342" stroke-miterlimit="1.06425"/><line x1="4919.5" y1="3867.2" x2="4605.1" y2="3867.2" fill="none" stroke="#ebc429" stroke-width="8.48342" stroke-miterlimit="1.06425"/><polyline points="3373.6,4420.8 3180.3,4421.2 3127.9,4470.7 3127.3,4679.6" fill="none" stroke="#ebc429" stroke-width="8.48342" stroke-miterlimit="1.06425"/><polyline points="3373,4201.8 3282.7,4201.8 3219.1,4264.4 2951.8,4264.4" fill="none" stroke="#ebc429" stroke-width="8.48342" stroke-miterlimit="1.06425"/><polyline points="3373.3,4518.3 3227.7,4519 3186.8,4557.9 3183.9,4764.9" fill="none" stroke="#ebc429" stroke-width="8.48342" stroke-miterlimit="1.06425"/><polyline points="4641.2,4517.5 4787.7,4518.2 4827.6,4556.1 4826.5,4853.8" fill="none" stroke="#ebc429" stroke-width="8.48342" stroke-miterlimit="1.06425"/><circle r="11.8" transform="translate(3154.3 3536.4)" fill="none" stroke="#ebc429" stroke-width="5.65697" stroke-miterlimit="1.06425"/><circle r="11.8" transform="translate(3046.1 3646.4)" fill="none" stroke="#ebc429" stroke-width="5.65697" stroke-miterlimit="1.06425"/><circle r="11.8" transform="translate(2848.2 3696.6)" fill="none" stroke="#ebc429" stroke-width="5.65697" stroke-miterlimit="1.06425"/><circle r="11.8" transform="translate(2862.8 3800.4)" fill="none" stroke="#ebc429" stroke-width="5.65697" stroke-miterlimit="1.06425"/><circle r="11.8" transform="translate(3142.6 3979)" fill="none" stroke="#ebc429" stroke-width="5.65697" stroke-miterlimit="1.06425"/><circle r="11.8" transform="translate(3028.2 4088.9)" fill="none" stroke="#ebc429" stroke-width="5.65697" stroke-miterlimit="1.06425"/><circle r="11.8" transform="translate(2930.7 4374)" fill="none" stroke="#ebc429" stroke-width="5.65697" stroke-miterlimit="1.06425"/><circle r="11.8" transform="translate(2941.3 4265.9)" fill="none" stroke="#ebc429" stroke-width="5.65697" stroke-miterlimit="1.06425"/><circle r="11.8" transform="translate(3184.2 4775.4)" fill="none" stroke="#ebc429" stroke-width="5.65697" stroke-miterlimit="1.06425"/><circle r="11.8" transform="translate(3508.5 4974.3)" fill="none" stroke="#ebc429" stroke-width="5.65697" stroke-miterlimit="1.06425"/><circle r="11.8" transform="translate(3508.9 3051.3)" fill="none" stroke="#ebc429" stroke-width="5.65697" stroke-miterlimit="1.06425"/><circle r="11.8" transform="translate(3588.4 5075)" fill="none" stroke="#ebc429" stroke-width="5.65697" stroke-miterlimit="1.06425"/><circle r="11.8" transform="translate(3587.5 2931.6)" fill="none" stroke="#ebc429" stroke-width="5.65697" stroke-miterlimit="1.06425"/><circle r="11.8" transform="translate(3754.5 5117.5)" fill="none" stroke="#ebc429" stroke-width="5.65697" stroke-miterlimit="1.06425"/><circle r="11.8" transform="translate(3753.6 2989.9)" fill="none" stroke="#ebc429" stroke-width="5.65697" stroke-miterlimit="1.06425"/><circle r="11.8" transform="translate(3856.9 4976.6)" fill="none" stroke="#ebc429" stroke-width="5.65697" stroke-miterlimit="1.06425"/><circle r="11.8" transform="translate(3856 3130.8)" fill="none" stroke="#ebc429" stroke-width="5.65697" stroke-miterlimit="1.06425"/><circle r="11.8" transform="translate(3999.9 5057.6)" fill="none" stroke="#ebc429" stroke-width="5.65697" stroke-miterlimit="1.06425"/><circle r="11.8" transform="translate(4000.8 3049.8)" fill="none" stroke="#ebc429" stroke-width="5.65697" stroke-miterlimit="1.06425"/><circle r="11.8" transform="translate(4156.8 2946.4)" fill="none" stroke="#ebc429" stroke-width="5.65697" stroke-miterlimit="1.06425"/><circle r="11.8" transform="translate(4206.7 5239.6)" fill="none" stroke="#ebc429" stroke-width="5.65697" stroke-miterlimit="1.06425"/><circle r="11.8" transform="translate(4099.6 5324.2)" fill="none" stroke="#ebc429" stroke-width="5.65697" stroke-miterlimit="1.06425"/><circle r="11.8" transform="translate(4207.6 2867.8)" fill="none" stroke="#ebc429" stroke-width="5.65697" stroke-miterlimit="1.06425"/><circle r="11.8" transform="translate(4274.3 5116.1)" fill="none" stroke="#ebc429" stroke-width="5.65697" stroke-miterlimit="1.06425"/><circle r="11.8" transform="translate(4275.2 2991.4)" fill="none" stroke="#ebc429" stroke-width="5.65697" stroke-miterlimit="1.06425"/><circle r="11.8" transform="translate(4441.8 5175.4)" fill="none" stroke="#ebc429" stroke-width="5.65697" stroke-miterlimit="1.06425"/><circle r="11.8" transform="translate(4442.6 2932)" fill="none" stroke="#ebc429" stroke-width="5.65697" stroke-miterlimit="1.06425"/><circle r="11.8" transform="translate(4574.5 5159.2)" fill="none" stroke="#ebc429" stroke-width="5.65697" stroke-miterlimit="1.06425"/><circle r="11.8" transform="translate(4827.2 4863.2)" fill="none" stroke="#ebc429" stroke-width="5.65697" stroke-miterlimit="1.06425"/><circle r="11.8" transform="translate(4905.2 4680.3)" fill="none" stroke="#ebc429" stroke-width="5.65697" stroke-miterlimit="1.06425"/><circle r="11.8" transform="translate(4575.3 2948.2)" fill="none" stroke="#ebc429" stroke-width="5.65697" stroke-miterlimit="1.06425"/><circle r="11.8" transform="translate(5108.5 3475.1)" fill="none" stroke="#ebc429" stroke-width="5.65697" stroke-miterlimit="1.06425"/><circle r="11.8" transform="translate(5198.5 3857.5)" fill="none" stroke="#ebc429" stroke-width="5.65697" stroke-miterlimit="1.06425"/><circle r="11.8" transform="translate(4930.1 3868.1)" fill="none" stroke="#ebc429" stroke-width="5.65697" stroke-miterlimit="1.06425"/><circle r="11.8" transform="translate(5099.8 3978.4)" fill="none" stroke="#ebc429" stroke-width="5.65697" stroke-miterlimit="1.06425"/><circle r="11.8" transform="translate(4970.1 4087.9)" fill="none" stroke="#ebc429" stroke-width="5.65697" stroke-miterlimit="1.06425"/><circle r="11.8" transform="translate(5343.8 4300.2)" fill="none" stroke="#ebc429" stroke-width="5.65697" stroke-miterlimit="1.06425"/><circle r="11.8" transform="translate(5215.8 4373)" fill="none" stroke="#ebc429" stroke-width="5.65697" stroke-miterlimit="1.06425"/><circle r="11.8" transform="translate(5207.2 3586.9)" fill="none" stroke="#ebc429" stroke-width="5.65697" stroke-miterlimit="1.06425"/><circle r="11.8" transform="translate(3125.8 4690.5)" fill="none" stroke="#ebc429" stroke-width="5.65697" stroke-miterlimit="1.06425"/><polyline points="3548.1,4658.1 3548.1,4825.7 3507.7,4862.8 3508.7,4964.4" fill="none" stroke="#ebc429" stroke-width="8.48342" stroke-miterlimit="1.06425"/><polyline points="3547.2,3449.3 3547.2,3281.7 3506.8,3244.6 3507.9,3061.2" fill="none" stroke="#ebc429" stroke-width="8.48342" stroke-miterlimit="1.06425"/><polyline points="3960.1,4658.2 3960.1,4825.8 4000.6,4863 3999.5,5046.3" fill="none" stroke="#ebc429" stroke-width="8.48342" stroke-miterlimit="1.06425"/><polyline points="3959.2,3449.2 3959.2,3281.6 3999.7,3244.4 3998.6,3061.1" fill="none" stroke="#ebc429" stroke-width="8.48342" stroke-miterlimit="1.06425"/><polyline points="4167.9,4657 4167.9,4824.6 4208.4,4861.7 4207.3,5228.9" fill="none" stroke="#ebc429" stroke-width="8.48342" stroke-miterlimit="1.06425"/><polyline points="4168.8,3450.4 4168.8,3282.8 4209.2,3245.7 4208.2,2878.5" fill="none" stroke="#ebc429" stroke-width="8.48342" stroke-miterlimit="1.06425"/><polyline points="3651.3,4659.3 3651.3,4763.3 3588.3,4825.9 3588.3,5064.5" fill="none" stroke="#ebc429" stroke-width="8.48342" stroke-miterlimit="1.06425"/><polyline points="3650.4,3448.1 3650.4,3244.7 3587.4,3182.1 3587.4,2943.5" fill="none" stroke="#ebc429" stroke-width="8.48342" stroke-miterlimit="1.06425"/><polyline points="4378.1,4658.3 4378.1,4861.7 4441,4924.4 4441,5162.9" fill="none" stroke="#ebc429" stroke-width="8.48342" stroke-miterlimit="1.06425"/><polyline points="4378.9,3449.1 4378.9,3245.7 4441.9,3183 4441.9,2944.5" fill="none" stroke="#ebc429" stroke-width="8.48342" stroke-miterlimit="1.06425"/><line x1="3754.4" y1="4658.8" x2="3754.4" y2="5106.2" fill="none" stroke="#ebc429" stroke-width="8.48342" stroke-miterlimit="1.06425"/><line x1="3753.5" y1="3448.6" x2="3753.5" y2="3001.2" fill="none" stroke="#ebc429" stroke-width="8.48342" stroke-miterlimit="1.06425"/><line x1="4273.4" y1="4657.9" x2="4273.4" y2="5105.2" fill="none" stroke="#ebc429" stroke-width="8.48342" stroke-miterlimit="1.06425"/><line x1="4274.3" y1="3449.5" x2="4274.3" y2="3002.2" fill="none" stroke="#ebc429" stroke-width="8.48342" stroke-miterlimit="1.06425"/><line x1="3857.5" y1="4658.4" x2="3857.5" y2="4964.8" fill="none" stroke="#ebc429" stroke-width="8.48342" stroke-miterlimit="1.06425"/><line x1="3856.6" y1="3449" x2="3856.6" y2="3142.6" fill="none" stroke="#ebc429" stroke-width="8.48342" stroke-miterlimit="1.06425"/><polyline points="4063.8,4659.2 4063.9,4776.7 4103.5,4812.1 4100,5314" fill="none" stroke="#ebc429" stroke-width="8.48342" stroke-miterlimit="1.06425"/><polyline points="4064.6,3448.2 4064.8,3330.7 4104.4,3295.3 4105.8,3217.6 4156.7,3169.5 4156.7,2957.4" fill="none" stroke="#ebc429" stroke-width="8.48342" stroke-miterlimit="1.06425"/><polyline points="4482,4657.4 4482.2,4774.9 4521.8,4810.3 4523.2,4888.1 4574.1,4936.1 4574.1,5148.3" fill="none" stroke="#ebc429" stroke-width="8.48342" stroke-miterlimit="1.06425"/><polyline points="4482.9,3450 4483,3332.5 4522.6,3297.1 4524,3219.3 4575,3171.3 4575,2959.1" fill="none" stroke="#ebc429" stroke-width="8.48342" stroke-miterlimit="1.06425"/><path d="M4465.8,4679.2l.2-137.5c-.028048-.23898.040768-.479241.191083-.667134s.369609-.307771.608917-.332866h28.7c.457645.051157.80285.439514.8.9l-.3,137.6c.028246.212471-.029949.42739-.161541.596579s-.325573.278498-.538459.303421h-28.7c-.457645-.051157-.80285-.439514-.8-.9Z" fill="#d9b01f" fill-rule="evenodd"/><path d="M4363.5,4678.5l-.4-135.9c-.056493-.424941.059898-.854779.323082-1.193158s.651146-.556996,1.076918-.606842h27.4c.425772.049846.813734.268462,1.076918.606842s.379575.768217.323082,1.193158l.5,135.9c.064615.870432-.540446,1.648367-1.4,1.8h-27.5c-.859554-.151633-1.464615-.929568-1.4-1.8Z" fill="#d9b01f" fill-rule="evenodd"/><path d="M4258.6,4680l-.5-138c-.003594-.350692.252884-.649917.6-.7h29.1c.347116.050083.603594.349308.6.7l.4,138c.003594.350692-.252884.649917-.6.7h-29c-.4,0-.6-.3-.6-.7Z" fill="#d9b01f" fill-rule="evenodd"/><path d="M4153.6,4678.9l-.4-134.9c0-1.2.8-2.3,1.7-2.3h26.7c1.122181.155617,1.918636,1.173309,1.8,2.3l.4,134.9c0,1.3-.8,2.3-1.7,2.3h-26.7c-1.122181-.155617-1.918636-1.173309-1.8-2.3Z" fill="#d9b01f" fill-rule="evenodd"/><path d="M4048.6,4680.3l-.4-136.7c-.060579-.683929.421156-1.297046,1.1-1.4h28.1c.5,0,1,.6,1,1.4l.5,136.7c0,.7-.5,1.4-1.1,1.4h-28.1c-.6,0-1.1-.7-1.1-1.4Z" fill="#d9b01f" fill-rule="evenodd"/><path d="M3945.5,4678.7l-.4-135.8c0-1,.6-1.9,1.4-1.9h27.4c.8,0,1.4.9,1.4,1.9l.4,135.8c.056493.424941-.059898.854779-.323082,1.193158s-.651146.556996-1.076918.606842h-27.3c-.89967-.104611-1.55934-.896215-1.5-1.8Z" fill="#d9b01f" fill-rule="evenodd"/><path d="M3842.4,4678.5l-.4-134.6c-.085513-.557868.057124-1.126676.395755-1.578184s.844748-.747706,1.404245-.821816h26.5c1.177302.156042,2.01826,1.218305,1.9,2.4l.4,134.6c.11826,1.181695-.722698,2.243958-1.9,2.4h-26.4c-1.177302-.156042-2.01826-1.218305-1.9-2.4Z" fill="#d9b01f" fill-rule="evenodd"/><path d="M3739.3,4679.4l-.5-135.5c-.056096-.477961.081537-.958481.382166-1.334267s.739217-.615542,1.217834-.665733h27.1c.478617.050191.917205.289946,1.217834.665733s.438262.856306.382166,1.334267l.4,135.5c0,1.1-.7,2-1.5,2h-27.2c-.472465-.047975-.903326-.291387-1.188263-.671303s-.397971-.861697-.311737-1.328697Z" fill="#d9b01f" fill-rule="evenodd"/><path d="M3636.1,4681.1l-.4-138.1c0-.4.2-.7.5-.7h29.2c.3,0,.5.3.5.7l.5,138.1c.013281.320297-.192709.608683-.5.7h-29.3c-.307291-.091317-.513281-.379703-.5-.7Z" fill="#d9b01f" fill-rule="evenodd"/><path d="M3533,4679l-.4-136.2c0-.9.5-1.6,1.2-1.6h27.7c.789243.103885,1.359878.806204,1.3,1.6l.4,136.2c0,.9-.5,1.6-1.2,1.6h-27.7c-.789243-.103885-1.359878-.806204-1.3-1.6Z" fill="#d9b01f" fill-rule="evenodd"/><path d="M3373.9,4504.3h138.3c.276142,0,.5.223858.5.5v29.3c-.048237.236562-.25862.404868-.5.4h-138.3c-.4,0-.6-.2-.6-.4v-29.3c0-.3.2-.5.6-.5Z" fill="#d9b01f" fill-rule="evenodd"/><path d="M3375.2,4405.9h136.2c.793796-.059878,1.496115.510757,1.6,1.3v27.7c-.103885.789243-.806204,1.359878-1.6,1.3h-136.2c-.793796.059878-1.496115-.510757-1.6-1.3v-27.7c.103885-.789243.806204-1.359878,1.6-1.3Z" fill="#d9b01f" fill-rule="evenodd"/><path d="M3375,4295.5h136c.414272-.056439.833301.062587,1.156044.328375s.51991.654218.543956,1.071625v27.5c-.024046.417407-.221213.805836-.543956,1.071625s-.741772.384814-1.156044.328375h-136c-.848778.059592-1.595731-.555546-1.7-1.4v-27.5c.104269-.844454.851222-1.459592,1.7-1.4Z" fill="#d9b01f" fill-rule="evenodd"/><path d="M3374.5,4185.1h136.5c.738844-.060203,1.39655.465961,1.5,1.2v27.9c-.10345.734039-.761156,1.260203-1.5,1.2h-136.5c-.738844.060203-1.39655-.465961-1.5-1.2v-27.9c.10345-.734039.761156-1.260203,1.5-1.2Z" fill="#d9b01f" fill-rule="evenodd"/><path d="M3374.6,4074.7h135.8c.870432-.064615,1.648367.540446,1.8,1.4v27.5c-.151633.859554-.929568,1.464615-1.8,1.4h-135.8c-.870432.064615-1.648367-.540446-1.8-1.4v-27.5c.151633-.859554.929568-1.464615,1.8-1.4Z" fill="#d9b01f" fill-rule="evenodd"/><path d="M3374.1,3964.3h136.3c.371525-.02749.738686.09423,1.020211.338218s.454195.590121.479789.961782v27.7c-.025594.371661-.198264.717793-.479789.961782s-.648686.365708-1.020211.338218h-136.3c-.793796.059878-1.496115-.510757-1.6-1.3v-27.7c.103885-.789243.806204-1.359878,1.6-1.3Z" fill="#d9b01f" fill-rule="evenodd"/><path d="M3374.4,3853.9h135.1c1.071703-.11905,2.044848.632925,2.2,1.7v26.9c-.155152,1.067075-1.128297,1.81905-2.2,1.7h-135.1c-1.071703.11905-2.044848-.632925-2.2-1.7v-26.9c.155152-1.067075,1.128297-1.81905,2.2-1.7Z" fill="#d9b01f" fill-rule="evenodd"/><path d="M3373.4,3743.5h136.5c.738844-.060203,1.39655.465961,1.5,1.2v27.9c-.10345.734039-.761156,1.260203-1.5,1.2h-136.5c-.738844.060203-1.39655-.465961-1.5-1.2v-27.9c.10345-.734039.761156-1.260203,1.5-1.2Z" fill="#d9b01f" fill-rule="evenodd"/><path d="M3373.5,3633.1h135.9c.833205-.01306,1.553048.579752,1.7,1.4v27.5c-.146952.820248-.866795,1.41306-1.7,1.4h-135.9c-.870432.064615-1.648367-.540446-1.8-1.4v-27.5c.151633-.859554.929568-1.464615,1.8-1.4Z" fill="#d9b01f" fill-rule="evenodd"/><path d="M3373.3,3522.7h135.7c.925182-.064121,1.747652.585197,1.9,1.5v27.3c-.152348.914803-.974818,1.564121-1.9,1.5h-135.7c-.925182.064121-1.747652-.585197-1.9-1.5v-27.3c.152348-.914803.974818-1.564121,1.9-1.5Z" fill="#d9b01f" fill-rule="evenodd"/><rect width="160.5" height="29.27" rx="0" ry="0" transform="translate(3002.1 4249.8)" fill="#ebc429"/><rect width="160.5" height="29.27" rx="0" ry="0" transform="translate(4794.7 3963.8)" fill="#d9b01f"/><rect width="29.3" height="105.56" rx="0" ry="0" transform="translate(4559.6 3014.6)" fill="#ebc429"/><rect width="29.3" height="105.56" rx="0" ry="0" transform="translate(4427.1 2583.3)" fill="#ebc429"/><rect width="30.4" height="105.56" rx="0" ry="0" transform="translate(3841.7 3274.2)" fill="#d9b01f"/><rect width="29.3" height="180.93" rx="0" ry="0" transform="translate(4087.1 5010.3)" fill="#d9b01f"/><rect width="30.2" height="180.93" rx="0" ry="0" transform="translate(3739.3 4679.6)" fill="#d9b01f"/><rect width="29.3" height="105.56" rx="0" ry="0" transform="translate(3573.4 2967.7)" fill="#ebc429"/><rect width="79.6" height="30.3" rx="0" ry="0" transform="translate(4656.6 4502.2)" fill="#d9b01f"/><rect width="85.9" height="29.27" rx="0" ry="0" transform="translate(4965.5 3460)" fill="#ebc429"/><rect width="80.3" height="29.27" rx="0" ry="0" transform="translate(3149.7 3633.4)" fill="#d9b01f"/><rect width="96.2" height="29.2" rx="0" ry="0" transform="translate(3278.3 3965.4)" fill="#d9b01f"/><polyline points="4641.4,4419 4817.3,4419 4904.3,4501.5 4904.3,4668.7" fill="none" stroke="#ebc429" stroke-width="8.48342" stroke-miterlimit="1.06425"/><rect width="139.5" height="30.23" rx="0" ry="0" transform="matrix(.001745-.999998 0.999998 0.001745 4465.592481 3515.192928)" fill="#d9b01f"/><rect width="30.2" height="139.45" rx="0" ry="0" transform="matrix(.999994-.003491 0.003491 0.999994 4363.95868 3374.747146)" fill="#d9b01f"/><rect width="30.2" height="139.45" rx="0" ry="0" transform="matrix(.999994-.003491 0.003491 0.999994 4259.061065 3375.313349)" fill="#d9b01f"/><rect width="30.2" height="139.45" rx="0" ry="0" transform="matrix(.999994-.003491 0.003491 0.999994 4154.063101 3375.679902)" fill="#d9b01f"/><rect width="30.2" height="139.45" rx="0" ry="0" transform="translate(4037.33 3390.4)" fill="#d9b01f"/><rect width="30.2" height="139.45" rx="0" ry="0" transform="matrix(.999994-.003491 0.003491 0.999994 3945.961926 3375.106383)" fill="#d9b01f"/><rect width="30.2" height="139.45" rx="0" ry="0" transform="matrix(.999994-.003491 0.003491 0.999994 3842.86395 3375.466303)" fill="#d9b01f"/><rect width="30.2" height="139.45" rx="0" ry="0" transform="matrix(.999994-.003491 0.003491 0.999994 3739.666325 3376.026571)" fill="#d9b01f"/><rect width="30.2" height="139.45" rx="0" ry="0" transform="translate(3624.82 3389.17)" fill="#d9b01f"/><rect width="30.2" height="139.45" rx="0" ry="0" transform="matrix(.999994-.003491 0.003491 0.999994 3533.464788 3375.24642)" fill="#d9b01f"/><path d="M4520.7,4502.2h136.7c.683929-.060579,1.297046.421156,1.4,1.1v28.1c0,.6-.6,1-1.4,1h-136.7c-.8,0-1.4-.4-1.4-1v-28.1c.102954-.678844.716071-1.160579,1.4-1.1Z" fill="#d9b01f" fill-rule="evenodd"/><path d="M4520.9,4403.8h136.9c.318505-.027656.634879.072928.878937.279438s.395619.501872.421063.820562v28.2c-.102383.623662-.670942,1.061015-1.3,1h-136.9c-.629058.061015-1.197617-.376338-1.3-1v-28.2c.025444-.31869.177005-.614052.421063-.820562s.560432-.307094.878937-.279438Z" fill="#d9b01f" fill-rule="evenodd"/><path d="M4520.9,4293.4h136.3c.793796-.059878,1.496115.510757,1.6,1.3v27.7c-.103885.789243-.806204,1.359878-1.6,1.3h-136.3c-.793796.059878-1.496115-.510757-1.6-1.3v-27.7c.103885-.789243.806204-1.359878,1.6-1.3Z" fill="#d9b01f" fill-rule="evenodd"/><path d="M4521.5,4183h134.7c.557485-.055646,1.114093.11378,1.546029.470596s.703384.871437.753971,1.429404v26.5c-.050587.557967-.322035,1.072587-.753971,1.429404s-.988544.526242-1.546029.470596h-134.7c-1.181695.11826-2.243958-.722698-2.4-1.9v-26.5c.156042-1.177302,1.218305-2.01826,2.4-1.9Z" fill="#d9b01f" fill-rule="evenodd"/><path d="M4519.3,4072.6h138.5c.24138-.004868.451763.163438.5.4v29.5c-.048237.236562-.25862.404868-.5.4h-138.5c-.24138.004868-.451763-.163438-.5-.4v-29.5c.048237-.236562.25862-.404868.5-.4Z" fill="#d9b01f" fill-rule="evenodd"/><path d="M4521.6,3962.2h133.4c1.6,0,3,1.1,3,2.4v25.5c0,1.3-1.4,2.4-3,2.4h-133.4c-1.7,0-3.1-1.1-3.1-2.4v-25.5c0-1.3,1.4-2.4,3.1-2.4Z" fill="#d9b01f" fill-rule="evenodd"/><path d="M4520.5,3851.8h135c.530977-.055781,1.062216.103055,1.475431.44114s.674101.827352.724569,1.35886v26.7c-.050468.531508-.311354,1.020775-.724569,1.35886s-.944454.496921-1.475431.44114h-135c-.530977.055781-1.062216-.103055-1.475431-.44114s-.674101-.827352-.724569-1.35886v-26.7c.050468-.531508.311354-1.020775.724569-1.35886s.944454-.496921,1.475431-.44114Z" fill="#d9b01f" fill-rule="evenodd"/><path d="M4519.9,3741.4h135.7c.925182-.064121,1.747652.585197,1.9,1.5v27.3c-.152348.914803-.974818,1.564121-1.9,1.5h-135.7c-.451451.056282-.906626-.070735-1.263705-.35264s-.586267-.695173-.636295-1.14736v-27.3c.050028-.452187.279215-.865455.636295-1.14736s.812254-.408922,1.263705-.35264Z" fill="#d9b01f" fill-rule="evenodd"/><path d="M4519,3631.1h136.9c.7,0,1.3.4,1.3.9v28.3c-.102383.623662-.670942,1.061015-1.3,1h-136.9c-.629058.061015-1.197617-.376338-1.3-1v-28.3c0-.5.6-.9,1.3-.9Z" fill="#d9b01f" fill-rule="evenodd"/><path d="M4518.2,3520.7h138c.4,0,.7.2.7.5v29.1c-.050083.347116-.349308.603594-.7.6h-138c-.350692.003594-.649917-.252884-.7-.6v-29.1c0-.3.3-.5.7-.5Z" fill="#d9b01f" fill-rule="evenodd"/></g><rect width="8.5" height="235.62" rx="0" ry="0" transform="translate(4437.8 2687)" fill="#ebc429"/><rect width="231" height="8.55" rx="0" ry="0" transform="matrix(.730162-.683274 0.683274 0.730162 5117.547243 3472.04404)" fill="#ebc429"/><rect width="116.4" height="8.55" rx="0" ry="0" transform="matrix(.730162-.683274 0.683274 0.730162 5215.686534 3581.161109)" fill="#ebc429"/><rect width="116.4" height="8.55" rx="0" ry="0" transform="matrix(.730162-.683274 0.683274 0.730162 5394.791005 3984.273704)" fill="#ebc429"/><rect width="267.3" height="8.55" rx="0" ry="0" transform="matrix(.730162-.683274 0.683274 0.730162 5580.0099 3734.367633)" fill="#ebc429"/><rect width="267.3" height="8.55" rx="0" ry="0" transform="matrix(.730162-.683274 0.683274 0.730162 5400.24527 3506.562408)" fill="#ebc429"/><rect width="267.3" height="8.55" rx="0" ry="0" transform="matrix(.730162-.683274 0.683274 0.730162 5472.925494 3245.80347)" fill="#ebc429"/><rect width="267.3" height="8.55" rx="0" ry="0" transform="matrix(.730162-.683274 0.683274 0.730162 5880.080446 3065.954789)" fill="#ebc429"/><rect width="267.3" height="8.55" rx="0" ry="0" transform="matrix(.730162-.683274 0.683274 0.730162 6193.109066 3326.378181)" fill="#ebc429"/><rect width="8.5" height="267.31" rx="0" ry="0" transform="matrix(.819152-.573576 0.573576 0.819152 5982.678907 3548.339873)" fill="#ebc429"/><rect width="8.5" height="267.31" rx="0" ry="0" transform="matrix(.819152-.573576 0.573576 0.819152 5836.59691 4378.089959)" fill="#ebc429"/><rect width="8.5" height="138.82" rx="0" ry="0" transform="matrix(.819152-.573576 0.573576 0.819152 5654.536897 4543.763388)" fill="#ebc429"/><rect width="8.5" height="138.82" rx="0" ry="0" transform="matrix(.819152-.573576 0.573576 0.819152 5769.658784 4747.506082)" fill="#ebc429"/><rect width="8.5" height="267.31" rx="0" ry="0" transform="translate(4775.9 2498.9)" fill="#ebc429"/><rect width="267.3" height="8.55" rx="0" ry="0" transform="matrix(.730162-.683274 0.683274 0.730162 4583.923958 2944.806029)" fill="#ebc429"/><rect width="267.3" height="8.55" rx="0" ry="0" transform="matrix(.730162-.683274 0.683274 0.730162 4457.131741 1572.221809)" fill="#ebc429"/><rect width="8.5" height="116.42" rx="0" ry="0" transform="translate(5196.4 3733.2)" fill="#ebc429"/><rect width="285.1" height="8.55" rx="0" ry="0" transform="translate(5300.3 3729.6)" fill="#ebc429"/><rect width="285.1" height="8.55" rx="0" ry="0" transform="translate(5115.3 3979.3)" fill="#ebc429"/><rect width="285.1" height="8.55" rx="0" ry="0" transform="translate(4984.1 4088.7)" fill="#ebc429"/><rect width="8.5" height="107.63" rx="0" ry="0" transform="matrix(.667833-.744312 0.744312 0.667833 5263.413281 4095.983448)" fill="#ebc429"/><rect width="8.5" height="107.63" rx="0" ry="0" transform="matrix(.667833-.744312 0.744312 0.667833 5353.22658 4317.268921)" fill="#ebc429"/><rect width="275.9" height="8.55" rx="0" ry="0" transform="translate(4920.6 4681.8)" fill="#ebc429"/><rect width="275.9" height="8.55" rx="0" ry="0" transform="translate(5295.2 4681)" fill="#ebc429"/><rect width="178.1" height="8.55" rx="0" ry="0" transform="translate(5499.6 4747.8)" fill="#ebc429"/><rect width="275.9" height="8.55" rx="0" ry="0" transform="translate(5475.2 4378.1)" fill="#ebc429"/><rect width="275.9" height="8.55" rx="0" ry="0" transform="translate(5343.3 4158.4)" fill="#ebc429"/><rect width="119.4" height="8.55" rx="0" ry="0" transform="translate(5481.3 3902)" fill="#ebc429"/><rect width="119.4" height="8.55" rx="0" ry="0" transform="translate(5774.6 3549.1)" fill="#ebc429"/><rect width="119.4" height="8.55" rx="0" ry="0" transform="translate(5594.9 3321.4)" fill="#ebc429"/><rect width="119.4" height="8.55" rx="0" ry="0" transform="translate(5667.4 3060.7)" fill="#ebc429"/><rect width="385.3" height="8.55" rx="0" ry="0" transform="translate(5812.9 3321.4)" fill="#ebc429"/><rect width="385.3" height="8.55" rx="0" ry="0" transform="translate(6136.1 3758.8)" fill="#ebc429"/><rect width="548.5" height="8.55" rx="0" ry="0" transform="translate(5697.9 3902)" fill="#ebc429"/><rect width="713.6" height="8.55" rx="0" ry="0" transform="translate(5714.3 4158.4)" fill="#ebc429"/><rect width="713.6" height="8.55" rx="0" ry="0" transform="translate(5990 4588.4)" fill="#ebc429"/><rect width="713.6" height="8.55" rx="0" ry="0" transform="translate(5734.2 4649)" fill="#ebc429"/><rect width="713.6" height="8.55" rx="0" ry="0" transform="translate(5849.3 4852.7)" fill="#ebc429"/><rect width="385.3" height="8.55" rx="0" ry="0" transform="translate(6074.5 2880.8)" fill="#ebc429"/><rect width="119.4" height="8.55" rx="0" ry="0" transform="translate(5358.8 3241.1)" fill="#ebc429"/><rect width="163.3" height="8.55" rx="0" ry="0" transform="translate(5404.2 4541.3)" fill="#ebc429"/><rect width="275.9" height="8.55" rx="0" ry="0" transform="translate(4841.2 4864.5)" fill="#ebc429"/><rect width="167.3" height="8.55" rx="0" ry="0" transform="matrix(.707107-.707107 0.707107 0.707107 5381.293984 4866.092133)" fill="#ebc429"/><rect width="172" height="8.55" rx="0" ry="0" transform="translate(5215.3 4863.6)" fill="#ebc429"/><rect width="8.5" height="135.99" rx="0" ry="0" transform="matrix(.66262-.748956 0.748956 0.66262 4584.89424 5174.134926)" fill="#ebc429"/><rect width="8.5" height="135.99" rx="0" ry="0" transform="matrix(.66262-.748956 0.748956 0.66262 3728.855176 5752.650281)" fill="#ebc429"/><rect width="8.5" height="135.99" rx="0" ry="0" transform="matrix(.66262-.748956 0.748956 0.66262 3960.614963 5786.571385)" fill="#ebc429"/><rect width="8.5" height="135.99" rx="0" ry="0" transform="matrix(.66262-.748956 0.748956 0.66262 4154.159431 5656.001635)" fill="#ebc429"/><rect width="8.5" height="352.74" rx="0" ry="0" transform="matrix(.66262-.748956 0.748956 0.66262 4763.3 5584.772129)" fill="#ebc429"/><rect width="8.5" height="139.69" rx="0" ry="0" transform="matrix(.66262-.748956 0.748956 0.66262 4448.484781 5188.729281)" fill="#ebc429"/><rect width="8.5" height="135.99" rx="0" ry="0" transform="matrix(.66262-.748956 0.748956 0.66262 3598.795952 5491.479389)" fill="#ebc429"/><rect width="8.5" height="258.79" rx="0" ry="0" transform="translate(4272.3 5134.5)" fill="#ebc429"/><rect width="8.5" height="258.79" rx="0" ry="0" transform="translate(4272.3 5134.5)" fill="#ebc429"/><rect width="8.5" height="258.79" rx="0" ry="0" transform="translate(4550.2 5275.9)" fill="#ebc429"/><rect width="8.5" height="258.79" rx="0" ry="0" transform="translate(4763.3 5326.1)" fill="#ebc429"/><rect width="8.5" height="258.79" rx="0" ry="0" transform="translate(4550.2 5632.5)" fill="#ebc429"/><rect width="8.5" height="258.79" rx="0" ry="0" transform="translate(4253.1 5855.9)" fill="#ebc429"/><rect width="62.8" height="8.55" rx="0" ry="0" transform="matrix(.68962-.724172 0.724172 0.68962 4154.072337 5295.469524)" fill="#ebc429"/><rect width="187.3" height="8.55" rx="0" ry="0" transform="matrix(.68962-.724172 0.724172 0.68962 3960.018819 5471.685871)" fill="#ebc429"/><rect width="187.3" height="8.55" rx="0" ry="0" transform="matrix(.68962-.724172 0.724172 0.68962 3728.850099 5542.539445)" fill="#ebc429"/><rect width="187.3" height="8.55" rx="0" ry="0" transform="matrix(.68962-.724172 0.724172 0.68962 2372.970156 4508.504664)" fill="#ebc429"/><rect width="353.2" height="8.55" rx="0" ry="0" transform="matrix(.68962-.724172 0.724172 0.68962 1720.152343 4758.041556)" fill="#ebc429"/><rect width="8.5" height="197.32" rx="0" ry="0" transform="translate(3995.4 5069.5)" fill="#ebc429"/><rect width="105.6" height="8.55" rx="0" ry="0" transform="matrix(.687088-.726575 0.726575 0.687088 3925.079262 5338.349089)" fill="#ebc429"/><rect width="210.9" height="8.55" rx="0" ry="0" transform="matrix(.687088-.726575 0.726575 0.687088 3598.591928 5282.271996)" fill="#ebc429"/><rect width="8.5" height="210.95" rx="0" ry="0" transform="translate(3598.6 5281.6)" fill="#ebc429"/><rect width="8.5" height="210.95" rx="0" ry="0" transform="translate(3697.6 5576.2)" fill="#ebc429"/><rect width="8.5" height="210.95" rx="0" ry="0" transform="translate(3728.8 5542.7)" fill="#ebc429"/><rect width="8.5" height="210.95" rx="0" ry="0" transform="translate(3960.5 5576.7)" fill="#ebc429"/><rect width="8.5" height="210.95" rx="0" ry="0" transform="translate(4059.5 5871.3)" fill="#ebc429"/><rect width="8.5" height="143.43" rx="0" ry="0" transform="translate(4059.3 6136.8)" fill="#ebc429"/><rect width="8.5" height="210.95" rx="0" ry="0" transform="translate(4253.1 5740.9)" fill="#ebc429"/><rect width="8.5" height="361.33" rx="0" ry="0" transform="translate(4154.1 5295.7)" fill="#ebc429"/><rect width="8.5" height="101.78" rx="0" ry="0" transform="translate(3586.4 5093.9)" fill="#ebc429"/><rect width="8.5" height="102.1" rx="0" ry="0" transform="translate(3503.7 4986.6)" fill="#ebc429"/><rect width="219.8" height="8.55" rx="0" ry="0" transform="matrix(.707107-.707107 0.707107 0.707107 2555.630888 4932.820323)" fill="#ebc429"/><rect width="308.6" height="8.55" rx="0" ry="0" transform="matrix(.690882-.722967 0.722967 0.690882 3293.292874 5303.009326)" fill="#ebc429"/><rect width="361.4" height="8.55" rx="0" ry="0" transform="translate(2811.3 4777.5)" fill="#ebc429"/><rect width="219.8" height="8.55" rx="0" ry="0" transform="translate(2894.4 4690.8)" fill="#ebc429"/><rect width="313" height="8.55" rx="0" ry="0" transform="translate(2606.8 4374.9)" fill="#ebc429"/><rect width="313" height="8.55" rx="0" ry="0" transform="translate(2066.1 4506.1)" fill="#ebc429"/><rect width="313" height="8.55" rx="0" ry="0" transform="translate(2403.6 4549.5)" fill="#ebc429"/><rect width="215.8" height="8.55" rx="0" ry="0" transform="translate(2715.9 4266.8)" fill="#ebc429"/><rect width="215.8" height="8.55" rx="0" ry="0" transform="translate(2693 3992.9)" fill="#ebc429"/><rect width="215.8" height="8.55" rx="0" ry="0" transform="translate(2818.9 3647.3)" fill="#ebc429"/><rect width="215.8" height="8.55" rx="0" ry="0" transform="translate(2604 3271.5)" fill="#ebc429"/><rect width="215.8" height="8.55" rx="0" ry="0" transform="translate(2238.9 3419)" fill="#ebc429"/><rect width="8.5" height="215.82" rx="0" ry="0" transform="matrix(.819152-.573576 0.573576 0.819152 2010.152333 3254.543203)" fill="#ebc429"/><rect width="8.5" height="215.82" rx="0" ry="0" transform="matrix(.819152-.573576 0.573576 0.819152 1717.702657 3525.094911)" fill="#ebc429"/><rect width="215.8" height="8.55" rx="0" ry="0" transform="translate(1744.7 3163.3)" fill="#ebc429"/><rect width="215.8" height="8.55" rx="0" ry="0" transform="translate(2391.6 3479.8)" fill="#ebc429"/><rect width="215.8" height="8.55" rx="0" ry="0" transform="translate(1945.6 3688.8)" fill="#ebc429"/><rect width="358.1" height="8.55" rx="0" ry="0" transform="translate(1934.7 3482.1)" fill="#ebc429"/><rect width="471" height="8.55" rx="0" ry="0" transform="translate(2122.3 3992.9)" fill="#ebc429"/><rect width="263.6" height="8.55" rx="0" ry="0" transform="translate(1546.9 3824.4)" fill="#ebc429"/><rect width="471" height="8.55" rx="0" ry="0" transform="translate(2251.2 4266.8)" fill="#ebc429"/><rect width="215.8" height="8.55" rx="0" ry="0" transform="translate(2474.5 3855.1)" fill="#ebc429"/><rect width="215.8" height="8.55" rx="0" ry="0" transform="matrix(.71934-.694658 0.694658 0.71934 2684.838595 3855.136587)" fill="#ebc429"/><rect width="215.8" height="8.55" rx="0" ry="0" transform="matrix(.71934-.694658 0.694658 0.71934 2449.221682 3419.193822)" fill="#ebc429"/><rect width="219.7" height="8.55" rx="0" ry="0" transform="matrix(.692143-.72176 0.72176 0.692143 3436.958924 5346.828865)" fill="#ebc429"/><rect width="219.7" height="8.55" rx="0" ry="0" transform="matrix(.692143-.72176 0.72176 0.692143 3286.238997 6219.614279)" fill="#ebc429"/><rect width="505.8" height="8.55" rx="0" ry="0" transform="matrix(.692143-.72176 0.72176 0.692143 2953.060297 6255.750205)" fill="#ebc429"/><rect width="369.5" height="8.55" rx="0" ry="0" transform="matrix(.650774-.759271 0.759271 0.650774 3462.475611 6157.828636)" fill="#ebc429"/><rect width="8.5" height="387.14" rx="0" ry="0" transform="translate(3436.6 5348.4)" fill="#ebc429"/><rect width="500.2" height="8.55" rx="0" ry="0" transform="translate(2061.5 4930.4)" fill="#ebc429"/><rect width="8.5" height="500.16" rx="0" ry="0" transform="translate(3300.3 5398.1)" fill="#ebc429"/><rect width="8.5" height="195.87" rx="0" ry="0" transform="translate(3462.9 6155.2)" fill="#ebc429"/><rect width="8.5" height="195.87" rx="0" ry="0" transform="translate(3462.9 6351.1)" fill="#ebc429"/><rect width="8.5" height="265.76" rx="0" ry="0" transform="translate(3906.6 6283.5)" fill="#ebc429"/><rect width="8.5" height="236.37" rx="0" ry="0" transform="translate(2952.6 6257.3)" fill="#ebc429"/><rect width="8.5" height="236.37" rx="0" ry="0" transform="translate(3285.7 6221.3)" fill="#ebc429"/><rect width="8.5" height="195.87" rx="0" ry="0" transform="translate(3906.6 5902.7)" fill="#ebc429"/><rect width="8.5" height="195.87" rx="0" ry="0" transform="translate(3906.6 6096.3)" fill="#ebc429"/><rect width="8.5" height="451.55" rx="0" ry="0" transform="translate(4253.2 6082.3)" fill="#ebc429"/><rect width="8.5" height="195.87" rx="0" ry="0" transform="translate(4059.3 6277.1)" fill="#ebc429"/><rect width="8.5" height="284.29" rx="0" ry="0" transform="translate(3435.5 5784.4)" fill="#ebc429"/><rect width="8.5" height="241.4" rx="0" ry="0" transform="matrix(.667833-.744312 0.744312 0.667833 5224.665796 4389.645957)" fill="#ebc429"/><rect width="8.5" height="542.7" rx="0" ry="0" transform="translate(4273.1 2440.6)" fill="#ebc429"/><rect width="8.5" height="215.21" rx="0" ry="0" transform="matrix(.633381-.77384 0.77384 0.633381 4029.007843 2731.442349)" fill="#ebc429"/><rect width="8.5" height="215.21" rx="0" ry="0" transform="matrix(.63-.77 0.77 0.63 3537.196247 1438.657869)" fill="#ebc429"/><rect width="8.5" height="215.21" rx="0" ry="0" transform="matrix(.633381-.77384 0.77384 0.633381 3829.87124 1500.895489)" fill="#ebc429"/><rect width="8.5" height="215.21" rx="0" ry="0" transform="matrix(.633381-.77384 0.77384 0.633381 4005.987084 1549.971971)" fill="#ebc429"/><rect width="8.5" height="215.21" rx="0" ry="0" transform="matrix(.633381-.77384 0.77384 0.633381 4967.84892 1699.199939)" fill="#ebc429"/><rect width="8.5" height="221.75" rx="0" ry="0" transform="matrix(.633381-.77384 0.77384 0.633381 3978.110759 2810.142517)" fill="#ebc429"/><rect width="8.5" height="221.75" rx="0" ry="0" transform="translate(4027.7 2505.7)" fill="#ebc429"/><rect width="8.5" height="221.75" rx="0" ry="0" transform="translate(3895.1 2519.2)" fill="#ebc429"/><rect width="8.5" height="221.75" rx="0" ry="0" transform="translate(3815.6 2535.9)" fill="#ebc429"/><rect width="8.5" height="349.5" rx="0" ry="0" transform="translate(3751.4 2633.8)" fill="#ebc429"/><rect width="8.5" height="144.65" rx="0" ry="0" transform="translate(3585.3 2778)" fill="#ebc429"/><rect width="8.5" height="237.21" rx="0" ry="0" transform="translate(3300.3 2666.1)" fill="#ebc429"/><rect width="8.5" height="237.21" rx="0" ry="0" transform="translate(3474.7 2458.5)" fill="#ebc429"/><rect width="8.5" height="237.21" rx="0" ry="0" transform="translate(3193.1 2243.6)" fill="#ebc429"/><rect width="8.5" height="237.21" rx="0" ry="0" transform="translate(3193.1 1941.5)" fill="#ebc429"/><rect width="8.5" height="237.21" rx="0" ry="0" transform="translate(3358.2 1542.7)" fill="#ebc429"/><rect width="8.5" height="237.21" rx="0" ry="0" transform="translate(3553.2 1189.3)" fill="#ebc429"/><rect width="237.2" height="8.55" rx="0" ry="0" transform="matrix(.707107-.707107 0.707107 0.707107 3193.020407 1941.667072)" fill="#ebc429"/><rect width="237.2" height="8.55" rx="0" ry="0" transform="matrix(.722967-.690882 0.690882 0.722967 3472.450222 2356.100523)" fill="#ebc429"/><rect width="8.5" height="571.43" rx="0" ry="0" transform="translate(3716.7 1556.1)" fill="#ebc429"/><rect width="8.5" height="460.57" rx="0" ry="0" transform="translate(3991.6 1627.4)" fill="#ebc429"/><rect width="8.5" height="427.91" rx="0" ry="0" transform="translate(4167.7 1676.4)" fill="#ebc429"/><rect width="8.5" height="237.21" rx="0" ry="0" transform="translate(4246.5 1852.1)" fill="#ebc429"/><rect width="8.5" height="530.73" rx="0" ry="0" transform="translate(4456.4 1570.5)" fill="#ebc429"/><rect width="8.5" height="530.73" rx="0" ry="0" transform="translate(4246.5 1321.4)" fill="#ebc429"/><rect width="8.5" height="237.21" rx="0" ry="0" transform="translate(4624.5 1790.3)" fill="#ebc429"/><rect width="8.5" height="237.21" rx="0" ry="0" transform="translate(4784.5 1929.1)" fill="#ebc429"/><rect width="8.5" height="237.21" rx="0" ry="0" transform="translate(5128.1 1928.5)" fill="#ebc429"/><rect width="337.9" height="8.55" rx="0" ry="0" transform="matrix(.722967-.690882 0.690882 0.722967 3752.036976 2414.319626)" fill="#ebc429"/><rect width="491" height="8.55" rx="0" ry="0" transform="matrix(.722967-.690882 0.690882 0.722967 3816.022144 2538.105037)" fill="#ebc429"/><rect width="491" height="8.55" rx="0" ry="0" transform="matrix(.722967-.690882 0.690882 0.722967 3895.563517 2521.364957)" fill="#ebc429"/><rect width="491" height="8.55" rx="0" ry="0" transform="matrix(.722967-.690882 0.690882 0.722967 4028.271156 2507.966207)" fill="#ebc429"/><rect width="491" height="8.55" rx="0" ry="0" transform="matrix(.722967-.690882 0.690882 0.722967 4273.741802 2442.88623)" fill="#ebc429"/><rect width="491" height="8.55" rx="0" ry="0" transform="matrix(.722967-.690882 0.690882 0.722967 4436.808341 2590.902489)" fill="#ebc429"/><rect width="491" height="8.55" rx="0" ry="0" transform="matrix(.722967-.690882 0.690882 0.722967 4776.728186 2501.359616)" fill="#ebc429"/><rect width="8.5" height="118.43" rx="0" ry="0" transform="translate(3751.6 2412.2)" fill="#ebc429"/><rect width="8.5" height="144.65" rx="0" ry="0" transform="matrix(.615661-.788011 0.788011 0.615661 3384.055067 2962.336905)" fill="#ebc429"/><rect width="8.5" height="144.65" rx="0" ry="0" transform="matrix(.615661-.788011 0.788011 0.615661 3474.439063 2694.749803)" fill="#ebc429"/><rect width="8.5" height="144.65" rx="0" ry="0" transform="matrix(.615661-.788011 0.788011 0.615661 3192.904129 2480.009726)" fill="#ebc429"/><rect width="8.5" height="144.65" rx="0" ry="0" transform="matrix(.62-.79 0.79 0.62 2924.342966 4009.939002)" fill="#ebc429"/><rect width="8.5" height="418.27" rx="0" ry="0" transform="matrix(.615661-.788011 0.788011 0.615661 2814.53413 3277.43025)" fill="#ebc429"/><rect width="8.5" height="275.12" rx="0" ry="0" transform="matrix(.615661-.788011 0.788011 0.615661 2606.731886 3485.472523)" fill="#ebc429"/><rect width="8.5" height="232.4" rx="0" ry="0" transform="matrix(.615661-.788011 0.788011 0.615661 2711.462868 4555.067776)" fill="#ebc429"/><rect width="8.5" height="275.12" rx="0" ry="0" transform="matrix(.615661-.788011 0.788011 0.615661 2156.288128 3694.585042)" fill="#ebc429"/><rect width="8.5" height="275.12" rx="0" ry="0" transform="matrix(.62-.79 0.79 0.62 1921.87597 3843.527997)" fill="#ebc429"/><rect width="8.5" height="536.65" rx="0" ry="0" transform="matrix(.615661-.788011 0.788011 0.615661 1828.542092 3943.929248)" fill="#ebc429"/><rect width="8.5" height="81.71" rx="0" ry="0" transform="matrix(.630676-.776046 0.776046 0.630676 3814.751832 2862.951298)" fill="#ebc429"/><rect width="8.5" height="128.56" rx="0" ry="0" transform="translate(3997.9 2912.7)" fill="#ebc429"/><rect width="128.6" height="8.55" rx="0" ry="0" transform="translate(3877.9 2904.6)" fill="#ebc429"/><rect width="29.7" height="105.56" rx="0" ry="0" transform="matrix(.634731-.772734 0.772734 0.634731 3889.16589 2744.170042)" fill="#ebc429"/><rect width="29.7" height="105.56" rx="0" ry="0" transform="translate(3740.9 2528.6)" fill="#ebc429"/><rect width="29.7" height="105.56" rx="0" ry="0" transform="translate(3289.7 2561)" fill="#ebc429"/><rect width="29.7" height="105.56" rx="0" ry="0" transform="translate(3465 2353.3)" fill="#ebc429"/><rect width="29.7" height="105.56" rx="0" ry="0" transform="translate(3182.5 2138.9)" fill="#ebc429"/><rect width="105.6" height="29.74" rx="0" ry="0" transform="matrix(.73-.69 0.69 0.73 3651.689329 2170.59293)" fill="#ebc429"/><rect width="29.7" height="105.56" rx="0" ry="0" transform="translate(3981.7 2079.3)" fill="#ebc429"/><rect width="29.7" height="105.56" rx="0" ry="0" transform="translate(4157 2097.2)" fill="#ebc429"/><rect width="29.7" height="105.56" rx="0" ry="0" transform="translate(4235.9 2080.4)" fill="#ebc429"/><rect width="105.6" height="29.74" rx="0" ry="0" transform="matrix(.716911-.697165 0.697165 0.716911 4374.019799 2156.8127)" fill="#ebc429"/><rect width="29.7" height="105.56" rx="0" ry="0" transform="translate(4613.9 2001.8)" fill="#ebc429"/><rect width="29.7" height="105.56" rx="0" ry="0" transform="translate(4773.9 2152.2)" fill="#ebc429"/><rect width="29.7" height="105.56" rx="0" ry="0" transform="translate(5117.5 1823.6)" fill="#ebc429"/><rect width="105.6" height="29.74" rx="0" ry="0" transform="matrix(.738455-.674302 0.674302 0.738455 5277.996969 3310.545516)" fill="#ebc429"/><rect width="105.6" height="29.74" rx="0" ry="0" transform="translate(5300.3 3490.4)" fill="#ebc429"/><rect width="105.6" height="29.74" rx="0" ry="0" transform="translate(5433.2 4367.4)" fill="#ebc429"/><rect width="105.6" height="29.74" rx="0" ry="0" transform="translate(5195.9 4671)" fill="#ebc429"/><rect width="105.6" height="29.74" rx="0" ry="0" transform="translate(5115.3 4853.9)" fill="#ebc429"/><rect width="29.7" height="105.56" rx="0" ry="0" transform="translate(4261.6 5377.9)" fill="#ebc429"/><rect width="29.7" height="105.56" rx="0" ry="0" transform="translate(4539.6 5531.2)" fill="#ebc429"/><rect width="29.7" height="105.56" rx="0" ry="0" transform="matrix(.666532-.745476 0.745476 0.666532 4679.0139 5273.23401)" fill="#ebc429"/><rect width="29.7" height="105.56" rx="0" ry="0" transform="translate(4048.7 6079.4)" fill="#ebc429"/><rect width="29.7" height="105.56" rx="0" ry="0" transform="translate(4242.5 5849.9)" fill="#ebc429"/><rect width="29.7" height="105.56" rx="0" ry="0" transform="translate(3949.9 5471.9)" fill="#ebc429"/><rect width="105.6" height="29.74" rx="0" ry="0" transform="translate(1957.4 4919.8)" fill="#ebc429"/><rect width="29.7" height="105.56" rx="0" ry="0" transform="translate(3289.8 5296.4)" fill="#ebc429"/><rect width="105.6" height="29.74" rx="0" ry="0" transform="translate(2710.5 4766.9)" fill="#ebc429"/><rect width="29.7" height="105.56" rx="0" ry="0" transform="translate(3426.1 5712.5)" fill="#ebc429"/><rect width="29.7" height="105.56" rx="0" ry="0" transform="translate(3687 5780.8)" fill="#ebc429"/><rect width="29.7" height="105.56" rx="0" ry="0" transform="matrix(.656059-.75471 0.75471 0.656059 3820.882209 5854.078441)" fill="#ebc429"/><rect width="105.6" height="29.74" rx="0" ry="0" transform="translate(2587.9 3982.3)" fill="#ebc429"/><rect width="105.6" height="29.74" rx="0" ry="0" transform="translate(2133.4 3409.6)" fill="#ebc429"/><rect width="29.7" height="105.56" rx="0" ry="0" transform="matrix(.820152-.572146 0.572146 0.820152 1942.917723 3173.163626)" fill="#ebc429"/><rect width="105.6" height="29.74" rx="0" ry="0" transform="translate(2286.5 3471.5)" fill="#ebc429"/><rect width="105.6" height="29.74" rx="0" ry="0" transform="translate(2371.8 3844.2)" fill="#ebc429"/><rect width="105.6" height="29.74" rx="0" ry="0" transform="translate(1840.1 3678.2)" fill="#ebc429"/><rect width="105.6" height="29.74" rx="0" ry="0" transform="translate(1805.2 3813.8)" fill="#ebc429"/><rect width="105.6" height="29.74" rx="0" ry="0" transform="translate(1728.1 3928.3)" fill="#ebc429"/><rect width="105.6" height="29.74" rx="0" ry="0" transform="translate(2501.9 4364.3)" fill="#ebc429"/><rect width="105.6" height="29.74" rx="0" ry="0" transform="translate(1960.6 4495.5)" fill="#ebc429"/><rect width="105.6" height="29.74" rx="0" ry="0" transform="translate(2298.5 4538.9)" fill="#ebc429"/><rect width="105.6" height="29.74" rx="0" ry="0" transform="translate(2371.8 3844.2)" fill="#ebc429"/><rect width="105.6" height="29.74" rx="0" ry="0" transform="matrix(.681998-.731354 0.731354 0.681998 3847.99108 5405.900599)" fill="#ebc429"/><rect width="105.6" height="29.74" rx="0" ry="0" transform="translate(5300.3 3490.4)" fill="#ebc429"/><rect width="105.6" height="29.74" rx="0" ry="0" transform="translate(5781.6 3050.1)" fill="#ebc429"/><rect width="105.6" height="29.74" rx="0" ry="0" transform="translate(5710.3 3310.8)" fill="#ebc429"/><rect width="105.6" height="29.74" rx="0" ry="0" transform="translate(5887.1 3538.5)" fill="#ebc429"/><rect width="105.6" height="29.74" rx="0" ry="0" transform="translate(5594.9 3891.4)" fill="#ebc429"/><rect width="105.6" height="29.74" rx="0" ry="0" transform="translate(5613.1 4147.8)" fill="#ebc429"/><rect width="105.6" height="29.74" rx="0" ry="0" transform="translate(5738.4 4367.4)" fill="#ebc429"/><rect width="105.6" height="29.74" rx="0" ry="0" transform="translate(5556 4530.7)" fill="#ebc429"/><rect width="105.6" height="29.74" rx="0" ry="0" transform="translate(5560.4 4671.2)" fill="#ebc429"/><rect width="105.6" height="29.74" rx="0" ry="0" transform="translate(5673.3 4737.2)" fill="#ebc429"/><rect width="105.6" height="29.74" rx="0" ry="0" transform="translate(5196.4 3719)" fill="#ebc429"/><rect width="29.7" height="105.56" rx="0" ry="0" transform="translate(3805 2756.1)" fill="#ebc429"/><rect width="29.7" height="105.56" rx="0" ry="0" transform="matrix(.611527-.791224 0.791224 0.611527 3295.690594 2908.116533)" fill="#ebc429"/><rect width="267.3" height="8.55" rx="0" ry="0" transform="matrix(.730162-.683274 0.683274 0.730162 5400.24527 3506.562408)" fill="#ebc429"/><rect width="8.5" height="354.4" rx="0" ry="0" transform="translate(4550.2 5889.4)" fill="#ebc429"/><rect width="1119" height="1118.99" rx="23.6" ry="23.6" transform="translate(3455.2 3468.4)" fill="#cea71d"/><rect width="1119" height="1118.99" rx="23.6" ry="23.6" transform="translate(3455.2 3468.4)" opacity="0" fill="#cea71d"/></g><g id="eZ3bJyrXQN4370_ts" transform="translate(4092.280424,3987.395147) scale(0.888665,0.888665)"><ellipse rx="3000" ry="3000" transform="translate(0,0)" fill="url(#eZ3bJyrXQN4370-fill)" stroke-width="0"/></g></svg>
