<?xml version="1.0" encoding="UTF-8" standalone="no"?>
<svg
   width="128"
   height="59"
   viewBox="0 0 128 59"
   fill="none"
   version="1.1"
   id="svg4"
   sodipodi:docname="light-e.svg"
   inkscape:version="1.2.1 (9c6d41e410, 2022-07-14)"
   xml:space="preserve"
   xmlns:inkscape="http://www.inkscape.org/namespaces/inkscape"
   xmlns:sodipodi="http://sodipodi.sourceforge.net/DTD/sodipodi-0.dtd"
   xmlns="http://www.w3.org/2000/svg"
   xmlns:svg="http://www.w3.org/2000/svg"><defs
     id="defs8" /><sodipodi:namedview
     id="namedview6"
     pagecolor="#505050"
     bordercolor="#eeeeee"
     borderopacity="1"
     inkscape:showpageshadow="0"
     inkscape:pageopacity="0"
     inkscape:pagecheckerboard="0"
     inkscape:deskcolor="#505050"
     showgrid="false"
     inkscape:zoom="4"
     inkscape:cx="64"
     inkscape:cy="10.75"
     inkscape:window-width="1366"
     inkscape:window-height="699"
     inkscape:window-x="0"
     inkscape:window-y="0"
     inkscape:window-maximized="1"
     inkscape:current-layer="svg4" /><g
     aria-label="Lite"
     id="text345"
     style="font-size:72.9588px;line-height:1.25;font-family:Gilroy-Black;-inkscape-font-specification:Gilroy-Black;stroke-width:1.82397"><path
       d="m 22.330984,45.518288 h 19.48 v 9.630561 H 12.26267 V 4.0776886 h 10.068314 z"
       style="font-family:Gilroy-Bold;-inkscape-font-specification:Gilroy-Bold;fill:#ffffff"
       id="path440" /><path
       d="m 51.733366,14.291921 q -2.334681,0 -4.085693,-1.678053 -1.678052,-1.751011 -1.678052,-4.0856925 0,-2.3346817 1.678052,-4.0856929 1.751012,-1.7510112 4.085693,-1.7510112 2.407641,0 4.085693,1.7510112 1.751011,1.7510112 1.751011,4.0856929 0,2.3346815 -1.751011,4.0856925 -1.678052,1.678053 -4.085693,1.678053 z m -4.669363,40.856928 v -36.4794 h 9.411685 v 36.4794 z"
       style="font-family:Gilroy-Bold;-inkscape-font-specification:Gilroy-Bold;fill:#ffffff"
       id="path442" /><path
       d="m 85.951026,27.71634 h -8.244345 v 15.175431 q 0,1.896929 0.948464,2.772434 0.948465,0.875506 2.772435,1.021424 1.82397,0.07296 4.523446,-0.07296 v 8.536179 Q 76.247505,56.243232 72.234771,53.324879 68.294996,50.406527 68.294996,42.891771 V 27.71634 H 61.94758 v -9.046891 h 6.347416 V 11.30061 L 77.706681,8.4552167 V 18.669449 h 8.244345 z"
       style="font-family:Gilroy-Bold;-inkscape-font-specification:Gilroy-Bold;fill:#ffffff"
       id="path444" /><path
       d="m 99.44837,40.775966 q 1.89693,6.858127 10.28719,6.858127 5.39895,0 8.17139,-3.64794 l 7.58771,4.377528 q -5.39895,7.806592 -15.90502,7.806592 -9.04689,0 -14.518798,-5.47191 -5.47191,-5.47191 -5.47191,-13.789214 0,-8.244344 5.398952,-13.716254 5.398946,-5.544869 13.862176,-5.544869 8.02546,0 13.20554,5.544869 5.25303,5.544868 5.25303,13.716254 0,1.82397 -0.36479,3.866817 z m -0.145917,-7.29588 h 18.604497 q -0.80255,-3.720899 -3.35611,-5.544869 -2.4806,-1.82397 -5.69078,-1.82397 -3.79386,0 -6.27446,1.969887 -2.4806,1.896929 -3.283147,5.398952 z"
       style="font-family:Gilroy-Bold;-inkscape-font-specification:Gilroy-Bold;fill:#ffffff"
       id="path446" /></g><g
     style="fill:none"
     id="g2800"
     transform="matrix(1.3134322,0,0,1.3134322,0.49536545,0.9238281)"><rect
       x="0.5"
       y="7.76477"
       width="7.3225799"
       height="28.4706"
       rx="0.5"
       fill="#f5b938"
       id="rect2788" /><rect
       x="3.42871"
       width="1.46452"
       height="44"
       fill="#f5b938"
       id="rect2790"
       y="0" /></g></svg>
