<svg width="128" height="59" viewBox="0 0 128 59" fill="none" xmlns="http://www.w3.org/2000/svg">
<path d="M0.04 44H28.84V36.88H7.88V0H0.04V44ZM33.8062 44H40.4062V17.6H33.8062V44ZM37.1062 13.1313C35.9604 13.1313 34.975 12.7188 34.15 11.8937C33.325 11.0688 32.9125 10.0833 32.9125 8.9375C32.9125 7.74584 33.325 6.76042 34.15 5.98125C34.975 5.15625 35.9604 4.74375 37.1062 4.74375C38.2979 4.74375 39.2833 5.15625 40.0625 5.98125C40.8875 6.76042 41.3 7.74584 41.3 8.9375C41.3 10.0833 40.8875 11.0688 40.0625 11.8937C39.2833 12.7188 38.2979 13.1313 37.1062 13.1313ZM65.0016 43.3813C65.0016 45.5812 64.7724 47.3687 64.3141 48.7437C63.9016 50.1187 63.0766 51.1958 61.8391 51.975C60.6474 52.7542 58.8828 53.1437 56.5453 53.1437C54.712 53.1437 52.512 52.6854 49.9453 51.7687L48.8453 51.425L47.0578 56.2375L48.0891 56.65C51.0224 57.7958 54.0703 58.3687 57.2328 58.3687C62.3661 58.3687 66.0328 56.9937 68.2328 54.2438C70.4328 51.5396 71.5328 48.3312 71.5328 44.6187V17.6H66.9266L66.3078 19.3188C63.7411 17.8979 61.0828 17.1875 58.3328 17.1875C56.4078 17.1875 54.4828 17.6229 52.5578 18.4938C50.6786 19.3646 49.0745 20.8313 47.7453 22.8938C46.4161 24.9104 45.7516 27.5688 45.7516 30.8688C45.7516 35.0854 46.9432 38.4313 49.3266 40.9063C51.7557 43.3813 55.0557 44.6187 59.2266 44.6187C60.3266 44.6187 61.2891 44.5042 62.1141 44.275C62.9849 44.0458 63.9474 43.7021 65.0016 43.2438V43.3813ZM60.1891 22.4125C61.8849 22.4125 63.4661 22.7333 64.9328 23.375V38.1563C63.6036 39.0271 62.0911 39.4625 60.3953 39.4625C58.012 39.4625 56.1099 38.8208 54.6891 37.5375C53.2682 36.2542 52.5578 34.1458 52.5578 31.2125C52.5578 25.3458 55.1016 22.4125 60.1891 22.4125ZM91.5176 22.7563C93.3967 22.7563 94.6572 23.2604 95.2988 24.2688C95.9405 25.2313 96.2613 26.5146 96.2613 28.1188V44H102.861V29.0125C102.861 25.6667 102.243 22.8708 101.005 20.625C99.7676 18.3792 97.178 17.2563 93.2363 17.2563C90.6697 17.2563 88.0113 17.8292 85.2613 18.975V6.1875H78.6613V44H85.2613V24.2C87.7363 23.2375 89.8217 22.7563 91.5176 22.7563ZM126.939 38.4312C124.876 38.9813 123.181 39.2563 121.851 39.2563C118.964 39.2563 117.52 37.9729 117.52 35.4062V22.7563H126.664V17.6H117.52V10.0375H110.92V17.6H106.52V22.7563H110.92V35.5437C110.92 38.3854 111.539 40.6083 112.776 42.2125C114.06 43.8167 116.603 44.6187 120.408 44.6187C121.508 44.6187 122.608 44.4812 123.708 44.2062C124.853 43.9313 126.228 43.5646 127.833 43.1063L126.939 38.4312Z" fill="white"/>
</svg>
