<?xml version="1.0" encoding="UTF-8" standalone="no"?>
<svg
   width="106"
   height="45"
   viewBox="0 0 106 45"
   fill="none"
   version="1.1"
   id="svg3539"
   sodipodi:docname="plus-e.svg"
   inkscape:version="1.2.1 (9c6d41e410, 2022-07-14)"
   xmlns:inkscape="http://www.inkscape.org/namespaces/inkscape"
   xmlns:sodipodi="http://sodipodi.sourceforge.net/DTD/sodipodi-0.dtd"
   xmlns="http://www.w3.org/2000/svg"
   xmlns:svg="http://www.w3.org/2000/svg">
  <defs
     id="defs3543" />
  <sodipodi:namedview
     id="namedview3541"
     pagecolor="#505050"
     bordercolor="#eeeeee"
     borderopacity="1"
     inkscape:showpageshadow="0"
     inkscape:pageopacity="0"
     inkscape:pagecheckerboard="0"
     inkscape:deskcolor="#505050"
     showgrid="false"
     inkscape:zoom="5.2444444"
     inkscape:cx="40.805085"
     inkscape:cy="11.822034"
     inkscape:window-width="1366"
     inkscape:window-height="699"
     inkscape:window-x="0"
     inkscape:window-y="0"
     inkscape:window-maximized="1"
     inkscape:current-layer="svg3539" />
  <path
     d="M 8.7674473,42.353822 H 15.894255 V 26.718477 c 0.33937,0.04845 0.824192,0.09699 1.454452,0.145444 0.630231,0.04845 1.212011,0.07273 1.74534,0.07273 5.623906,-0.04845 10.229607,-0.921122 13.817282,-2.618012 3.636127,-1.745341 5.42992,-5.139028 5.381468,-10.181155 0,-7.8540339 -5.478462,-11.781051 -16.435293,-11.781051 H 8.7674473 Z M 21.130278,8.7560099 c 3.102799,0 5.526913,0.387856 7.272254,1.16356 1.793792,0.7272251 2.690734,2.1816761 2.690734,4.3633521 0,2.521018 -1.042386,4.193636 -3.12707,5.017856 -2.036231,0.775676 -4.89668,1.16356 -8.581258,1.16356 l -1.672619,-0.07272 c -0.775705,-0.09699 -1.381728,-0.145446 -1.818064,-0.145446 V 8.7560099 Z M 52.029357,38.229091 c -1.041568,0 -1.770702,-0.312435 -2.187311,-0.937485 -0.374976,-0.666593 -0.56251,-1.624803 -0.56251,-2.874722 V 7.9810599 H 43.404919 V 36.16677 c 0,4.499708 2.041594,6.74947 6.124601,6.74947 1.874878,0 3.666488,-0.395793 5.37465,-1.187377 v -3.937199 c -1.083202,0.291618 -2.041503,0.437427 -2.874813,0.437427 z m 27.670108,4.187182 V 18.355384 h -5.874618 v 17.998828 c -1.666527,0.958302 -3.416413,1.437452 -5.249657,1.437452 -1.666528,0 -2.812273,-0.499967 -3.437232,-1.499902 C 64.513,35.291828 64.200474,34.145993 64.200474,32.85444 V 18.355384 h -5.937068 v 13.686655 c 0,3.041438 0.541601,5.624633 1.624895,7.749496 1.124926,2.083137 3.499772,3.124705 7.124535,3.124705 1.416545,0 2.666463,-0.187442 3.749756,-0.562418 1.124927,-0.374976 2.47893,-0.937394 4.06219,-1.687344 l 0.749951,1.749795 z m 5.003583,-1.687346 c 3.124797,1.45827 6.228777,2.187313 9.31194,2.187313 3.999739,0 6.791012,-0.749861 8.374552,-2.249762 1.62444,-1.541628 2.43711,-3.24988 2.43711,-5.124758 0,-1.541536 -0.43725,-2.812271 -1.31265,-3.812206 -0.83266,-0.999936 -1.85351,-1.770703 -3.06161,-2.312304 -1.166928,-0.541693 -2.666829,-1.083294 -4.500074,-1.624895 -1.666528,-0.500058 -2.89563,-0.9583 -3.687215,-1.37491 -0.749951,-0.4167 -1.124927,-0.958301 -1.124927,-1.624894 0,-0.62505 0.312435,-1.10411 0.937394,-1.437452 0.62496,-0.333342 1.854061,-0.499968 3.687305,-0.499968 1.666528,0 3.79139,0.374976 6.374677,1.124927 l 1.4999,-4.624698 c -1.04174,-0.333343 -2.31257,-0.645777 -3.812475,-0.937394 -1.45818,-0.291708 -2.833091,-0.437517 -4.124643,-0.437517 -4.041373,0 -6.74956,0.687501 -8.124471,2.062411 -1.374911,1.333186 -2.062321,2.833089 -2.062321,4.499707 0,1.708162 0.458244,3.124796 1.374911,4.249723 0.916577,1.083202 1.99987,1.916512 3.249789,2.499837 1.249918,0.541602 2.791454,1.083203 4.624699,1.624895 1.541535,0.499967 2.645646,0.916576 3.312239,1.249919 0.666593,0.33325 0.999934,0.770767 0.999934,1.312368 0,0.791586 -0.354159,1.374911 -1.062385,1.749887 -0.708318,0.374975 -1.937419,0.562508 -3.687306,0.562508 -0.958301,0 -2.166494,-0.166716 -3.624764,-0.500058 -1.458268,-0.33325 -2.895629,-0.749861 -4.312173,-1.249828 z"
     fill="#ffffff"
     id="path3537"
     style="stroke-width:0.909031" />
  <g
     style="fill:none"
     id="g2800"
     transform="matrix(1.0082792,0,0,1.0082792,-0.24116166,0.12248081)">
    <rect
       x="0.5"
       y="7.76477"
       width="7.3225799"
       height="28.4706"
       rx="0.5"
       fill="#f5b938"
       id="rect2788" />
    <rect
       x="3.42871"
       width="1.46452"
       height="44"
       fill="#f5b938"
       id="rect2790"
       y="0" />
  </g>
</svg>
