<svg width="106" height="45" viewBox="0 0 106 45" fill="none" xmlns="http://www.w3.org/2000/svg">
<path d="M0.04 44H7.88V26.8C8.25333 26.8533 8.78667 26.9067 9.48 26.96C10.1733 27.0133 10.8133 27.04 11.4 27.04C17.5867 26.9867 22.6533 26.0267 26.6 24.16C30.6 22.24 32.5733 18.5067 32.52 12.96C32.52 4.32 26.4933 0 14.44 0H0.04V44ZM13.64 7.04C17.0533 7.04 19.72 7.46667 21.64 8.32C23.6133 9.12 24.6 10.72 24.6 13.12C24.6 15.8933 23.4533 17.7333 21.16 18.64C18.92 19.4933 15.7733 19.92 11.72 19.92L9.88 19.84C9.02667 19.7333 8.36 19.68 7.88 19.68V7.04H13.64ZM47.6312 39.4625C46.4854 39.4625 45.6833 39.1188 45.225 38.4312C44.8125 37.6979 44.6062 36.6438 44.6062 35.2688V6.1875H38.1437V37.1938C38.1437 42.1438 40.3896 44.6187 44.8812 44.6187C46.9437 44.6187 48.9146 44.1833 50.7937 43.3125V38.9813C49.6021 39.3021 48.5479 39.4625 47.6312 39.4625ZM78.0703 44.0687V17.6H71.6078V37.4C69.7745 38.4542 67.8495 38.9813 65.8328 38.9813C63.9995 38.9813 62.7391 38.4313 62.0516 37.3313C61.3641 36.2313 61.0203 34.9708 61.0203 33.55V17.6H54.4891V32.6563C54.4891 36.0021 55.0849 38.8438 56.2766 41.1813C57.5141 43.4729 60.1266 44.6187 64.1141 44.6187C65.6724 44.6187 67.0474 44.4125 68.2391 44C69.4766 43.5875 70.9661 42.9688 72.7078 42.1438L73.5328 44.0687H78.0703ZM83.5746 42.2125C87.0121 43.8167 90.4267 44.6187 93.8184 44.6187C98.2184 44.6187 101.289 43.7938 103.031 42.1438C104.818 40.4479 105.712 38.5687 105.712 36.5062C105.712 34.8104 105.231 33.4125 104.268 32.3125C103.352 31.2125 102.229 30.3646 100.9 29.7688C99.6163 29.1729 97.9663 28.5771 95.9496 27.9813C94.1163 27.4312 92.7642 26.9271 91.8934 26.4688C91.0684 26.0104 90.6559 25.4146 90.6559 24.6813C90.6559 23.9937 90.9996 23.4667 91.6871 23.1C92.3746 22.7333 93.7267 22.55 95.7434 22.55C97.5767 22.55 99.9142 22.9625 102.756 23.7875L104.406 18.7C103.26 18.3333 101.862 17.9896 100.212 17.6688C98.6079 17.3479 97.0954 17.1875 95.6746 17.1875C91.2288 17.1875 88.2496 17.9438 86.7371 19.4563C85.2246 20.9229 84.4684 22.5729 84.4684 24.4063C84.4684 26.2854 84.9725 27.8438 85.9809 29.0813C86.9892 30.2729 88.1809 31.1896 89.5559 31.8313C90.9309 32.4271 92.6267 33.0229 94.6434 33.6188C96.3392 34.1688 97.5538 34.6271 98.2871 34.9938C99.0204 35.3604 99.3871 35.8417 99.3871 36.4375C99.3871 37.3083 98.9975 37.95 98.2184 38.3625C97.4392 38.775 96.0871 38.9813 94.1621 38.9813C93.1079 38.9813 91.7788 38.7979 90.1746 38.4312C88.5704 38.0646 86.9892 37.6063 85.4309 37.0563L83.5746 42.2125Z" fill="white"/>
</svg>
