<?xml version="1.0" encoding="UTF-8" standalone="no"?>
<svg
   width="87"
   height="45"
   viewBox="0 0 87 45"
   fill="none"
   version="1.1"
   id="svg5213"
   sodipodi:docname="pro-e.svg"
   inkscape:version="1.2.1 (9c6d41e410, 2022-07-14)"
   xmlns:inkscape="http://www.inkscape.org/namespaces/inkscape"
   xmlns:sodipodi="http://sodipodi.sourceforge.net/DTD/sodipodi-0.dtd"
   xmlns="http://www.w3.org/2000/svg"
   xmlns:svg="http://www.w3.org/2000/svg">
  <defs
     id="defs5217" />
  <sodipodi:namedview
     id="namedview5215"
     pagecolor="#505050"
     bordercolor="#eeeeee"
     borderopacity="1"
     inkscape:showpageshadow="0"
     inkscape:pageopacity="0"
     inkscape:pagecheckerboard="0"
     inkscape:deskcolor="#505050"
     showgrid="false"
     inkscape:zoom="7.4167645"
     inkscape:cx="45.302773"
     inkscape:cy="9.4380778"
     inkscape:window-width="1366"
     inkscape:window-height="699"
     inkscape:window-x="0"
     inkscape:window-y="0"
     inkscape:window-maximized="1"
     inkscape:current-layer="svg5213" />
  <path
     d="M 9.1065895,41.911481 H 16.237739 V 26.266613 c 0.339576,0.04848 0.824693,0.09705 1.455337,0.145533 0.630615,0.04848 1.21275,0.07277 1.746404,0.07277 5.627332,-0.04848 10.235836,-0.921683 13.825696,-2.619605 3.638342,-1.746405 5.433227,-5.14216 5.384746,-10.187357 0,-7.858817 -5.481798,-11.7882256 -16.445303,-11.7882256 H 9.1065895 Z M 21.476951,8.2932061 c 3.104687,0 5.530278,0.3880929 7.276682,1.1642693 1.794885,0.7276676 2.692374,2.1830046 2.692374,4.3660096 0,2.522553 -1.043022,4.196191 -3.128974,5.02091 -2.037472,0.77615 -4.899665,1.16427 -8.586486,1.16427 L 18.05691,19.935895 C 17.280733,19.838849 16.67434,19.79036 16.237739,19.79036 V 8.2932061 Z m 21.913003,9.6052219 v 24.013053 h 5.940774 V 23.401419 c 1.25068,-0.458613 2.563848,-0.687829 3.939596,-0.687829 2.001087,0 3.71038,0.416864 5.127786,1.25068 l 0.250136,-0.06258 1.188192,-5.440411 c -1.375748,-0.62534 -2.834905,-0.938055 -4.37738,-0.938055 -2.501359,0 -4.856822,0.708748 -7.066386,2.126155 L 47.642264,17.89843 Z m 31.188862,24.575813 c 2.4597,0 4.627515,-0.521102 6.503535,-1.563305 1.876019,-1.083952 3.314347,-2.563848 4.314891,-4.439958 1.042202,-1.875929 1.563304,-4.043836 1.563304,-6.503445 0,-3.793789 -1.125612,-6.816251 -3.376835,-9.067474 -2.209565,-2.251223 -5.190277,-3.376835 -8.942317,-3.376835 -3.752038,0 -6.75367,1.125612 -9.004894,3.376835 -2.251224,2.209565 -3.376835,5.252855 -3.376835,9.129962 0,2.417951 0.500271,4.565028 1.500815,6.440957 1.042203,1.87611 2.48044,3.356006 4.3148,4.439958 1.876019,1.042203 4.043835,1.563305 6.503536,1.563305 z m 0,-20.260922 c 1.750952,0 3.210108,0.687827 4.377379,2.063575 1.209021,1.334089 1.813531,3.251768 1.813531,5.753127 0,2.459701 -0.583681,4.356552 -1.750952,5.69064 -1.125612,1.333998 -2.605598,2.001087 -4.439958,2.001087 -1.750952,0 -3.210109,-0.667089 -4.37738,-2.001087 -1.167271,-1.375749 -1.750952,-3.272689 -1.750952,-5.69064 0,-2.459701 0.583681,-4.377379 1.750952,-5.753127 1.209021,-1.375748 2.668087,-2.063575 4.37738,-2.063575 z"
     fill="#ffffff"
     id="path5211"
     style="stroke-width:0.909585" />
  <g
     style="fill:none"
     id="g2800"
     transform="matrix(1.0109112,0,0,1.0109112,0.14649786,0.44665042)">
    <rect
       x="0.5"
       y="7.76477"
       width="7.3225799"
       height="28.4706"
       rx="0.5"
       fill="#f5b938"
       id="rect2788" />
    <rect
       x="3.42871"
       width="1.46452"
       height="44"
       fill="#f5b938"
       id="rect2790"
       y="0" />
  </g>
</svg>
