<svg width="87" height="45" viewBox="0 0 87 45" fill="none" xmlns="http://www.w3.org/2000/svg">
<path d="M0.54 44H8.38V26.8C8.75333 26.8533 9.28667 26.9067 9.98 26.96C10.6733 27.0133 11.3133 27.04 11.9 27.04C18.0867 26.9867 23.1533 26.0267 27.1 24.16C31.1 22.24 33.0733 18.5067 33.02 12.96C33.02 4.32 26.9933 0 14.94 0H0.54V44ZM14.14 7.04C17.5533 7.04 20.22 7.46667 22.14 8.32C24.1133 9.12 25.1 10.72 25.1 13.12C25.1 15.8933 23.9533 17.7333 21.66 18.64C19.42 19.4933 16.2733 19.92 12.22 19.92L10.38 19.84C9.52667 19.7333 8.86 19.68 8.38 19.68V7.04H14.14ZM38.2312 17.6V44H44.7625V23.65C46.1375 23.1458 47.5812 22.8938 49.0937 22.8938C51.2937 22.8938 53.1729 23.3521 54.7312 24.2688L55.0062 24.2L56.3125 18.2188C54.8 17.5313 53.1958 17.1875 51.5 17.1875C48.75 17.1875 46.1604 17.9667 43.7312 19.525L42.9062 17.6H38.2312ZM72.5203 44.6187C75.2245 44.6187 77.6078 44.0458 79.6703 42.9C81.7328 41.7083 83.3141 40.0813 84.4141 38.0187C85.5599 35.9563 86.1328 33.5729 86.1328 30.8688C86.1328 26.6979 84.8953 23.375 82.4203 20.9C79.9911 18.425 76.7141 17.1875 72.5891 17.1875C68.4641 17.1875 65.1641 18.425 62.6891 20.9C60.2141 23.3292 58.9766 26.675 58.9766 30.9375C58.9766 33.5958 59.5266 35.9563 60.6266 38.0187C61.7724 40.0813 63.3536 41.7083 65.3703 42.9C67.4328 44.0458 69.8161 44.6187 72.5203 44.6187ZM72.5203 22.3438C74.4453 22.3438 76.0495 23.1 77.3328 24.6125C78.662 26.0792 79.3266 28.1875 79.3266 30.9375C79.3266 33.6417 78.6849 35.7271 77.4016 37.1938C76.1641 38.6604 74.537 39.3938 72.5203 39.3938C70.5953 39.3938 68.9911 38.6604 67.7078 37.1938C66.4245 35.6813 65.7828 33.5958 65.7828 30.9375C65.7828 28.2333 66.4245 26.125 67.7078 24.6125C69.037 23.1 70.6411 22.3438 72.5203 22.3438Z" fill="white"/>
</svg>
