<svg width="607" height="153" viewBox="0 0 607 153" fill="none" xmlns="http://www.w3.org/2000/svg">
<path fill-rule="evenodd" clip-rule="evenodd" d="M465.571 34.5427L427.571 129.99C427.263 130.765 426.868 132.319 426.086 132.324L404.224 132.481C402.693 132.491 402.87 130.805 403.571 129.084L450.051 14.9624C451.15 12.2648 451.967 10.9948 455.679 10.9893C463.471 10.977 473.333 10.9393 480.682 10.9926C481.246 10.997 481.425 11.0237 481.657 11.067C482.373 11.1059 482.769 11.5048 483.059 12.1914L485.574 18.1189L521.054 102.006C522.702 105.902 521.918 108.765 520.512 112.622C518.197 118.967 513.445 126.865 510.389 129.432C507.86 131.556 504.617 132.645 500.269 132.651C480.882 132.68 470.237 132.519 450.85 132.546C448.202 132.55 444.951 132.792 445.895 130.415L453.474 111.352C454.162 109.619 454.725 109.3 456.795 109.297C472.627 109.277 478.839 109.451 494.672 109.424C494.887 109.425 496.829 109.776 496.722 107.622C496.6 105.177 495.777 103.01 495.262 101.83C485.469 79.4086 476.553 56.9873 466.759 34.566C466.043 32.8805 466.243 32.8539 465.571 34.5427Z" fill="white"/>
<path fill-rule="evenodd" clip-rule="evenodd" d="M106.744 34.4072L68.2523 131.469C67.703 132.855 67.2351 132.674 63.9406 132.734L45.1553 132.391C43.6201 132.363 43.6925 131.876 44.3866 130.152L90.7866 14.8269C91.874 12.1248 92.7029 10.8593 96.414 10.8538C104.206 10.8415 114.069 10.8038 121.417 10.8571C121.981 10.8615 122.16 10.8882 122.392 10.9315C123.109 10.9704 123.504 11.3693 123.795 12.0559L126.309 17.9834L161.79 101.871C163.438 105.766 162.653 108.63 161.247 112.486C158.932 118.831 154.18 126.73 151.124 129.296C148.595 131.421 145.35 132.51 141.005 132.515C121.618 132.542 111.41 132.385 92.0244 132.411C89.3783 132.414 86.1251 132.656 87.0699 130.28L94.6481 111.216C95.3367 109.484 95.9015 109.164 97.9694 109.162C113.801 109.144 119.574 109.315 135.407 109.288C135.622 109.289 137.564 109.641 137.457 107.486C137.336 105.042 136.513 102.873 135.998 101.694C126.206 79.273 117.726 56.8518 107.933 34.4305C107.218 32.745 107.418 32.7117 106.745 34.4094L106.744 34.4072Z" fill="white"/>
<path fill-rule="evenodd" clip-rule="evenodd" d="M72.9831 13.7136C56.7659 52.7753 41.8645 91.838 25.6484 130.901C25.1047 132.491 24.1098 132.327 23.5204 132.435C16.4312 132.431 9.34205 132.427 2.25398 132.423C0.254127 132.422 -0.436612 131.044 0.26863 129.304L47.6112 12.457C47.9042 11.7103 48.2429 10.8959 49.8294 10.9104C56.8851 10.9737 63.9409 10.9115 70.9967 10.9115C71.3164 10.8104 73.7341 11.1648 72.9854 13.7125L72.9831 13.7136Z" fill="#D9A523"/>
<path fill-rule="evenodd" clip-rule="evenodd" d="M324.999 12.3062C324.692 13.0306 324.361 13.7684 324.062 14.5361L289.818 102.325C288.213 106.163 288.91 106.23 287.332 102.452C277.571 78.85 259.932 35.9541 249.956 12.434C249.424 11.1807 249.067 11.1574 248.282 11.1529C240.935 11.1063 231.071 11.1374 223.279 11.1485C219.566 11.154 218.756 12.4284 217.651 15.1228C201.837 53.64 186.899 92.595 171.085 131.111C170.334 132.939 170.747 133.232 171.74 133.232C179.38 133.235 186.144 133.242 193.783 133.245C194.497 133.245 194.987 132.924 195.424 131.796C207.796 99.908 219.906 68.3627 232.826 36.8663C233.49 35.2475 233.269 35.2275 233.972 36.8363C247.703 67.7605 258.369 97.9615 272.095 128.883C273.049 131.031 275.07 132.427 277.561 132.424C283.458 132.416 292.82 132.574 298.716 132.583C301.206 132.587 303.311 131.227 304.182 129.042L340.986 36.7085C341.689 35.0997 341.453 35.1286 342.132 36.7385L381.332 129.52C383.332 134.254 383.047 133.673 384.771 129.532C387.981 121.829 390.689 114.97 393.803 107.223C395.667 102.586 395.4 103.74 393.479 99.0636L357.746 14.9939C356.607 12.3151 355.831 11.0252 352.118 11.0196C344.326 11.0074 334.023 10.9796 326.677 11.024C325.894 11.0285 325.535 11.0518 325.003 12.3051L324.999 12.3062ZM407.162 132.886C407.261 132.787 407.319 132.647 407.327 132.451L407.162 132.886Z" fill="white"/>
<path fill-rule="evenodd" clip-rule="evenodd" d="M603.808 12.4069C587.879 52.0107 572.389 91.6146 556.46 131.218C555.888 132.686 554.603 132.471 554.603 132.471C547.584 132.462 540.565 132.453 533.546 132.444C531.686 132.442 531.017 131.297 531.726 129.545C547.598 90.408 563.3 51.5585 579.527 12.5657C579.801 11.638 580.2 10.848 581.86 10.9058C588.571 10.908 595.721 10.908 602.432 10.9102C602.992 11.0902 603.818 11.088 603.809 12.4069H603.808Z" fill="white"/>
<path fill-rule="evenodd" clip-rule="evenodd" d="M532.766 12.5324C548.694 52.1362 565.94 91.7401 581.869 131.344C582.44 132.812 583.726 132.596 583.726 132.596C590.745 132.587 596.887 132.578 603.906 132.569C605.765 132.567 606.435 131.423 605.725 129.671C589.853 90.5335 572.836 51.684 556.61 12.6913C556.335 11.7635 555.937 10.9735 554.277 11.0313C547.566 11.0335 540.854 11.0335 534.143 11.0358C533.585 11.2157 532.757 11.2135 532.766 12.5324Z" fill="white"/>
<path fill-rule="evenodd" clip-rule="evenodd" d="M67.8306 0L5.58543 152.883H1.45312L63.6983 0H67.8306Z" fill="#D9A523"/>
</svg>
