<?xml version="1.0" encoding="UTF-8" standalone="no"?>
<!-- Created with Inkscape (http://www.inkscape.org/) -->

<svg
   xmlns:dc="http://purl.org/dc/elements/1.1/"
   xmlns:cc="http://creativecommons.org/ns#"
   xmlns:rdf="http://www.w3.org/1999/02/22-rdf-syntax-ns#"
   xmlns:svg="http://www.w3.org/2000/svg"
   xmlns="http://www.w3.org/2000/svg"
   xmlns:sodipodi="http://sodipodi.sourceforge.net/DTD/sodipodi-0.dtd"
   xmlns:inkscape="http://www.inkscape.org/namespaces/inkscape"
   width="2.9778376mm"
   height="2.6562138mm"
   viewBox="0 0 2.9778376 2.6562138"
   version="1.1"
   id="svg4846"
   inkscape:version="0.92.5 (2060ec1f9f, 2020-04-08)"
   sodipodi:docname="amax-logo-small.svg">
  <defs
     id="defs4840" />
  <sodipodi:namedview
     id="base"
     pagecolor="#ffffff"
     bordercolor="#666666"
     borderopacity="1.0"
     inkscape:pageopacity="0.0"
     inkscape:pageshadow="2"
     inkscape:zoom="31.678384"
     inkscape:cx="-7.1850617"
     inkscape:cy="6.7479182"
     inkscape:document-units="mm"
     inkscape:current-layer="layer1"
     showgrid="false"
     inkscape:window-width="1366"
     inkscape:window-height="713"
     inkscape:window-x="0"
     inkscape:window-y="27"
     inkscape:window-maximized="1" />
  <metadata
     id="metadata4843">
    <rdf:RDF>
      <cc:Work
         rdf:about="">
        <dc:format>image/svg+xml</dc:format>
        <dc:type
           rdf:resource="http://purl.org/dc/dcmitype/StillImage" />
        <dc:title></dc:title>
      </cc:Work>
    </rdf:RDF>
  </metadata>
  <g
     inkscape:label="Layer 1"
     inkscape:groupmode="layer"
     id="layer1"
     transform="translate(-117.1956,-149.01713)">
    <g
       style="clip-rule:evenodd;fill-rule:evenodd;image-rendering:optimizeQuality;shape-rendering:geometricPrecision;text-rendering:geometricPrecision"
       id="_2009535950224"
       transform="matrix(0.0254,0,0,0.0254,-22.260901,92.739778)">
      <path
         style="fill:#faca2b"
         inkscape:connector-curvature="0"
         id="path2547"
         d="m 5528.04,2308.6 c 6.91,-0.04 5.29,0.79 8.62,-5.32 15.89,-29.16 28.67,-52.89 44.56,-82.04 3.48,-6.38 1.78,-5.54 8.98,-5.54 7.84,0 7.02,-1.05 3.27,5.93 -17.26,32.16 -31.42,58.89 -48.69,91.06 -4.32,8.05 -2.11,7.55 -10.94,7.51 -11.46,-0.04 -22.92,-0.09 -34.38,-0.13 -2.48,-0.01 -2.04,0.35 -3.23,-1.65 -0.89,-1.36 -1.79,-3.01 -2.68,-4.37 -3.37,-5.12 -4.28,-5.44 -0.66,-5.43 11.65,0.05 23.58,0.05 35.15,-0.03 z"
         class="fil2" />
      <path
         style="fill:#faca2b"
         inkscape:connector-curvature="0"
         id="path2549"
         d="m 5557.73,2229.81 c 15.41,27.99 31.29,55.52 46.7,83.52 4.07,7.38 5.38,6.62 -2.7,6.62 -7.83,0 -6.05,1.03 -9.9,-5.79 -12.48,-22.1 -25.66,-44.35 -37.3,-66.74 -5.46,-10.5 -9.04,-18.29 -9.91,-15.17 0.33,-5.86 -0.5,-9.7 4.24,-10.15 1.35,-0.13 3.4,-0.3 4.41,0.67 1.11,1.07 2.64,3.41 4.45,7.04 z"
         class="fil2" />
      <path
         style="fill:#faca2b"
         inkscape:connector-curvature="0"
         id="path2551"
         d="m 5547.72,2228.72 c 3.14,-5.19 4.5,-6.77 2.62,-6.74 l -10.62,0.17 c -1.86,0.03 -2.04,0.87 -4.15,4.69 l -42.43,76.65 c -3.42,6.18 -3.83,4.43 -0.04,10.19 4.98,7.58 3.18,8.17 7.04,1.17 l 45.48,-82.4 2.09,-3.72 z"
         class="fil2" />
    </g>
  </g>
</svg>
