<svg width="168" height="198" viewBox="0 0 168 198" fill="none" xmlns="http://www.w3.org/2000/svg">
<path fill-rule="evenodd" clip-rule="evenodd" d="M53.8618 133.763C63.7173 133.697 61.4124 134.897 66.1665 126.105C88.8487 84.1501 107.085 50.0001 129.767 8.04541C134.731 -1.13656 132.317 0.0808159 142.597 0.0808159C153.791 0.0808159 152.614 -1.43049 147.261 8.61789C122.614 54.8947 102.409 93.3684 77.7597 139.646C71.5892 151.231 74.7374 150.51 62.1381 150.459C45.7778 150.394 29.4188 150.329 13.0585 150.264C9.52491 150.25 10.1444 150.774 8.44462 147.895C7.17043 145.942 5.89742 143.564 4.62324 141.611C-0.185457 134.24 -1.48574 133.777 3.68197 133.8C20.3185 133.872 37.3463 133.872 53.862 133.763H53.8618Z" fill="url(#paint0_linear)"/>
<path fill-rule="evenodd" clip-rule="evenodd" d="M96.2447 20.3753C118.248 60.6563 140.909 100.277 162.91 140.557C168.71 151.176 170.59 150.087 159.049 150.087C147.875 150.087 150.411 151.57 144.916 141.758C127.104 109.952 108.289 77.943 91.673 45.7132C83.8803 30.5963 78.7689 19.3938 77.5341 23.8887C78.0051 15.4563 76.8239 9.92621 83.5946 9.28455C85.5244 9.1027 88.4426 8.85017 89.8955 10.2547C91.4864 11.7944 93.6632 15.1665 96.2447 20.3753Z" fill="url(#paint1_linear)"/>
<path fill-rule="evenodd" clip-rule="evenodd" d="M81.9451 18.8089C83.4906 16.234 84.7372 14.2765 85.5937 12.8193C87.2208 10.0521 87.4519 9.08403 85.6926 9.11242L70.5288 9.36051C68.731 9.38889 68.0329 9.9525 66.8327 12.0176C44.064 51.2735 23.8847 92.3617 0.808024 131.783C-0.0150324 133.192 -0.267289 134.027 0.322872 134.996L8.9591 149.199C10.113 151.095 10.6903 148.859 14.0403 142.74L78.9574 24.169L81.9451 18.8089Z" fill="#F5B938"/>
<path fill-rule="evenodd" clip-rule="evenodd" d="M115.97 170.134L107.022 192.609C106.949 192.792 106.857 193.158 106.672 193.159L101.524 193.196C101.164 193.198 101.206 192.801 101.371 192.396L112.316 165.523C112.574 164.888 112.767 164.589 113.641 164.588C115.475 164.585 117.798 164.576 119.528 164.589C119.661 164.59 119.703 164.596 119.758 164.606C119.926 164.615 120.02 164.709 120.088 164.871L120.68 166.267L129.035 186.02C129.423 186.937 129.238 187.611 128.907 188.519C128.362 190.014 127.243 191.874 126.523 192.478C125.928 192.978 125.164 193.235 124.141 193.236C119.575 193.243 117.069 193.205 112.504 193.211C111.88 193.212 111.114 193.269 111.337 192.709L113.121 188.22C113.284 187.813 113.416 187.737 113.903 187.737C117.631 187.732 119.094 187.773 122.823 187.767C122.873 187.767 123.33 187.849 123.305 187.342C123.277 186.767 123.083 186.256 122.962 185.978C120.656 180.699 118.556 175.419 116.25 170.139C116.081 169.743 116.128 169.736 115.97 170.134Z" fill="white"/>
<path fill-rule="evenodd" clip-rule="evenodd" d="M31.4712 170.1L22.4074 192.955C22.2781 193.281 22.1679 193.239 21.3921 193.253L16.9687 193.172C16.6072 193.166 16.6242 193.051 16.7877 192.645L27.7136 165.489C27.9697 164.853 28.1649 164.555 29.0387 164.553C30.8736 164.55 33.1959 164.542 34.9263 164.554C35.0591 164.555 35.1013 164.561 35.1559 164.572C35.3246 164.581 35.4177 164.675 35.4862 164.836L36.0783 166.232L44.433 185.985C44.821 186.903 44.6363 187.577 44.3052 188.485C43.7601 189.979 42.6412 191.839 41.9215 192.443C41.326 192.944 40.5618 193.2 39.5387 193.201C34.9735 193.208 32.5699 193.171 28.0051 193.177C27.382 193.178 26.616 193.235 26.8384 192.675L28.6229 188.186C28.785 187.778 28.9181 187.703 29.405 187.702C33.1329 187.698 34.4924 187.738 38.2206 187.732C38.2713 187.732 38.7285 187.815 38.7033 187.308C38.6747 186.732 38.4809 186.221 38.3597 185.944C36.0539 180.664 34.0572 175.385 31.7511 170.105C31.5827 169.708 31.6299 169.7 31.4715 170.1L31.4712 170.1Z" fill="white"/>
<path fill-rule="evenodd" clip-rule="evenodd" d="M23.5254 165.228C19.7067 174.426 16.1978 183.624 12.3794 192.823C12.2513 193.197 12.0171 193.159 11.8783 193.184C10.209 193.183 8.53965 193.182 6.8706 193.181C6.39968 193.181 6.23703 192.856 6.4031 192.447L17.551 164.932C17.62 164.756 17.6998 164.565 18.0733 164.568C19.7348 164.583 21.3962 164.568 23.0577 164.568C23.133 164.545 23.7023 164.628 23.526 165.228L23.5254 165.228Z" fill="#D9A523"/>
<path fill-rule="evenodd" clip-rule="evenodd" d="M82.8722 164.895C82.7998 165.066 82.7219 165.24 82.6515 165.42L74.5878 186.092C74.21 186.996 74.374 187.012 74.0025 186.122C71.7041 180.565 67.5506 170.464 65.2015 164.925C65.0761 164.63 64.9922 164.625 64.8072 164.624C63.0773 164.613 60.7545 164.62 58.9196 164.623C58.0455 164.624 57.8548 164.924 57.5945 165.559C53.8708 174.628 50.3532 183.801 46.6295 192.871C46.4526 193.301 46.5497 193.37 46.7837 193.37C48.5826 193.371 50.1753 193.373 51.9743 193.373C52.1424 193.373 52.2576 193.298 52.3607 193.032C55.2738 185.523 58.1255 178.095 61.1677 170.679C61.3241 170.297 61.2721 170.293 61.4376 170.672C64.6708 177.953 67.1825 185.065 70.4146 192.346C70.6392 192.852 71.1151 193.181 71.7017 193.18C73.0903 193.178 75.2948 193.215 76.6831 193.217C77.2695 193.218 77.7651 192.898 77.9702 192.384L86.6366 170.641C86.8021 170.263 86.7465 170.269 86.9065 170.649L96.137 192.496C96.6079 193.611 96.5407 193.474 96.9468 192.499C97.7027 190.685 98.3404 189.07 99.0737 187.246C99.5126 186.154 99.4496 186.426 98.9973 185.324L90.5831 165.528C90.315 164.898 90.1321 164.594 89.258 164.592C87.4231 164.59 84.9969 164.583 83.2673 164.593C83.0828 164.595 82.9984 164.6 82.873 164.895L82.8722 164.895ZM102.219 193.289C102.243 193.265 102.256 193.232 102.258 193.186L102.219 193.289Z" fill="white"/>
<path fill-rule="evenodd" clip-rule="evenodd" d="M148.519 164.925C144.768 174.25 141.121 183.576 137.37 192.902C137.235 193.247 136.933 193.197 136.933 193.197C135.28 193.194 133.627 193.192 131.974 193.19C131.536 193.19 131.379 192.92 131.546 192.508C135.283 183.292 138.98 174.144 142.801 164.962C142.866 164.744 142.96 164.558 143.351 164.571C144.931 164.572 146.615 164.572 148.195 164.572C148.327 164.615 148.521 164.614 148.519 164.925H148.519Z" fill="white"/>
<path fill-rule="evenodd" clip-rule="evenodd" d="M131.787 164.953C135.538 174.279 139.599 183.605 143.35 192.93C143.484 193.276 143.787 193.225 143.787 193.225C145.44 193.223 146.886 193.221 148.539 193.219C148.977 193.218 149.135 192.949 148.967 192.536C145.23 183.321 141.223 174.173 137.402 164.991C137.337 164.772 137.244 164.586 136.853 164.6C135.272 164.6 133.692 164.6 132.112 164.601C131.98 164.643 131.785 164.643 131.787 164.953Z" fill="white"/>
<path fill-rule="evenodd" clip-rule="evenodd" d="M22.3171 162L7.66006 198H6.68701L21.3441 162H22.3171Z" fill="#D9A523"/>
<defs>
<linearGradient id="paint0_linear" x1="35.497" y1="145.03" x2="155.89" y2="-14.2069" gradientUnits="userSpaceOnUse">
<stop stop-color="#BE9010"/>
<stop offset="0.529412" stop-color="#D9A424"/>
<stop offset="1" stop-color="#F5B938"/>
</linearGradient>
<linearGradient id="paint1_linear" x1="93.9893" y1="33.1949" x2="164.536" y2="160.897" gradientUnits="userSpaceOnUse">
<stop stop-color="#BE910F"/>
<stop offset="0.760784" stop-color="#D9A523"/>
<stop offset="1" stop-color="#F5B938"/>
</linearGradient>
</defs>
</svg>
