<svg width="24" height="47" viewBox="0 0 24 47" fill="none" xmlns="http://www.w3.org/2000/svg">
<path fill-rule="evenodd" clip-rule="evenodd" d="M22.8375 46.1412C22.6046 46.4134 22.3278 46.6294 22.0232 46.7768C21.7185 46.9242 21.3919 47.0001 21.0621 47.0001C20.7322 47.0001 20.4056 46.9242 20.101 46.7768C19.7963 46.6294 19.5196 46.4134 19.2866 46.1412L1.73294 25.6776C1.26207 25.1287 0.997537 24.3842 0.997537 23.6078C0.997538 22.8315 1.26207 22.087 1.73294 21.538C2.20382 20.9891 2.84246 20.6807 3.50838 20.6807C4.17429 20.6807 4.81293 20.9891 5.2838 21.538L22.8375 42.0016C23.071 42.2731 23.2563 42.5957 23.3827 42.9509C23.5091 43.3061 23.5742 43.6868 23.5742 44.0714C23.5742 44.4559 23.5091 44.8367 23.3827 45.1918C23.2563 45.547 23.071 45.8696 22.8375 46.1412Z" fill="#CEA71D"/>
<path fill-rule="evenodd" clip-rule="evenodd" d="M22.8482 0.846415C22.6186 0.578113 22.3459 0.365245 22.0456 0.220003C21.7454 0.0747608 21.4235 -9.401e-08 21.0985 -1.08219e-07C20.7734 -1.22428e-07 20.4515 0.0747608 20.1513 0.220003C19.851 0.365244 19.5783 0.578113 19.3487 0.846415L1.72229 21.3949C1.25824 21.9359 0.997535 22.6697 0.997535 23.4347C0.997535 24.1998 1.25824 24.9335 1.72229 25.4745C2.18634 26.0155 2.81573 26.3194 3.472 26.3194C4.12827 26.3194 4.75767 26.0155 5.22172 25.4745L22.8482 4.92598C23.0783 4.65835 23.2609 4.34043 23.3855 3.99041C23.5101 3.64039 23.5742 3.26515 23.5742 2.8862C23.5742 2.50724 23.5101 2.132 23.3855 1.78198C23.2609 1.43197 23.0783 1.11404 22.8482 0.846415Z" fill="#CEA71D"/>
</svg>
