<svg width="23" height="20" viewBox="0 0 23 20" fill="none" xmlns="http://www.w3.org/2000/svg">
<path d="M21.524 8.68887H5.03684L12.2398 2.25701C12.8155 1.74299 12.8155 0.899463 12.2398 0.385442C12.1033 0.263258 11.9411 0.166322 11.7625 0.100183C11.5839 0.0340437 11.3925 0 11.1992 0C11.0059 0 10.8145 0.0340437 10.6359 0.100183C10.4574 0.166322 10.2952 0.263258 10.1586 0.385442L0.431654 9.07109C0.294821 9.19302 0.186264 9.33785 0.112195 9.4973C0.0381259 9.65674 0 9.82766 0 10.0003C0 10.1729 0.0381259 10.3438 0.112195 10.5033C0.186264 10.6627 0.294821 10.8075 0.431654 10.9295L10.1586 19.6151C10.2953 19.7371 10.4575 19.8339 10.6361 19.9C10.8146 19.966 11.006 20 11.1992 20C11.3925 20 11.5838 19.966 11.7624 19.9C11.9409 19.8339 12.1032 19.7371 12.2398 19.6151C12.3765 19.4931 12.4849 19.3482 12.5588 19.1888C12.6328 19.0294 12.6708 18.8585 12.6708 18.6859C12.6708 18.5134 12.6328 18.3425 12.5588 18.183C12.4849 18.0236 12.3765 17.8788 12.2398 17.7567L5.03684 11.3249H21.524C22.3358 11.3249 23 10.7318 23 10.0069C23 9.28197 22.3358 8.68887 21.524 8.68887Z" fill="#CEA71D"/>
</svg>
