<svg width="216" height="24" viewBox="0 0 216 24" fill="none" xmlns="http://www.w3.org/2000/svg">
<path d="M20.5039 6.10547C20.5039 6.70443 20.2826 7.19922 19.8398 7.58984C19.4102 7.98047 18.8893 8.17578 18.2773 8.17578C16.6107 8.17578 15.7773 7.48568 15.7773 6.10547C15.7773 4.81641 16.5456 4.17188 18.082 4.17188C19.6966 4.17188 20.5039 4.81641 20.5039 6.10547ZM13.7266 6.10547C13.7266 6.70443 13.5052 7.19922 13.0625 7.58984C12.6328 7.98047 12.1185 8.17578 11.5195 8.17578C9.85286 8.17578 9.01953 7.48568 9.01953 6.10547C9.01953 4.81641 9.77474 4.17188 11.2852 4.17188C12.9128 4.17188 13.7266 4.81641 13.7266 6.10547ZM32.8672 23C30.0807 23 28.2188 22.5443 27.2812 21.6328C26.0833 22.5443 24.9505 23 23.8828 23H5.36719C3.90885 23 2.69141 22.401 1.71484 21.2031C0.803385 20.0833 0.347656 18.7747 0.347656 17.2773V11.9648H3.86328V16.7891C3.86328 17.7917 4.05859 18.4948 4.44922 18.8984C4.83984 19.2891 5.52344 19.4844 6.5 19.4844H22.8477C23.8242 19.4844 24.4948 19.2891 24.8594 18.8984C25.237 18.4948 25.4258 17.7917 25.4258 16.7891V11.9648H29V16.7891C29 18.5859 30.2891 19.4844 32.8672 19.4844V23ZM59.3906 17.3555C59.3906 19.1003 58.9935 20.5065 58.1992 21.5742C57.3138 22.7852 56.0247 23.3906 54.332 23.3906C52.6784 23.3906 51.0964 22.6029 49.5859 21.0273C48.2448 22.5768 46.819 23.3516 45.3086 23.3516C43.7201 23.3516 42.125 22.4271 40.5234 20.5781C39.1172 22.1927 37.5872 23 35.9336 23H31.4609V19.4844H35.6797C37.3073 19.4844 38.1211 18.612 38.1211 16.8672V11.9648H41.5781V17.1406C41.5781 17.974 41.8776 18.6576 42.4766 19.1914C43.0755 19.7253 43.7982 19.9922 44.6445 19.9922C46.2461 19.9922 47.0469 19.263 47.0469 17.8047V11.9648H50.4648V17.1406C50.4648 17.9609 50.7578 18.6445 51.3438 19.1914C51.9427 19.7253 52.6589 19.9922 53.4922 19.9922C55.1328 19.9922 55.9531 19.263 55.9531 17.8047V11.9648H59.3906V17.3555ZM130.484 6.10547C130.484 6.70443 130.263 7.21224 129.82 7.62891C129.391 8.03255 128.87 8.23438 128.258 8.23438C126.63 8.23438 125.816 7.52474 125.816 6.10547C125.816 4.82943 126.559 4.19141 128.043 4.19141C129.671 4.19141 130.484 4.82943 130.484 6.10547ZM123.746 6.10547C123.746 6.70443 123.531 7.21224 123.102 7.62891C122.672 8.03255 122.151 8.23438 121.539 8.23438C119.898 8.23438 119.078 7.52474 119.078 6.10547C119.078 4.82943 119.82 4.19141 121.305 4.19141C122.932 4.19141 123.746 4.82943 123.746 6.10547ZM139.801 17.2773C139.801 18.7617 139.332 20.0703 138.395 21.2031C137.405 22.401 136.181 23 134.723 23H116.168C114.671 23 113.44 22.4141 112.477 21.2422C111.578 20.1484 111.129 18.8268 111.129 17.2773V11.9648H114.645V16.7891C114.645 17.7786 114.827 18.4753 115.191 18.8789C115.569 19.2826 116.246 19.4844 117.223 19.4844H133.629C134.605 19.4844 135.283 19.2826 135.66 18.8789C136.051 18.4753 136.246 17.7786 136.246 16.7891V11.9648H139.801V17.2773ZM151.012 23C148.043 23 145.953 22.4271 144.742 21.2812C143.935 20.5391 143.531 19.3216 143.531 17.6289V1.00781H147.047V16.0859C147.047 17.7135 147.32 18.7096 147.867 19.0742C148.206 19.2956 149.254 19.4323 151.012 19.4844V23ZM167.145 23H149.469V19.4844H154.469C153.74 17.8047 153.375 16.3008 153.375 14.9727C153.375 13.6445 153.759 12.4596 154.527 11.418C155.309 10.3763 156.331 9.67969 157.594 9.32812C158.466 9.08073 159.443 8.95703 160.523 8.95703C162.398 8.95703 164.202 9.82292 165.934 11.5547L164.195 14.2891C162.346 12.8828 160.777 12.1797 159.488 12.1797C157.639 12.1797 156.715 13.306 156.715 15.5586C156.715 16.5352 156.943 17.401 157.398 18.1562C157.932 19.0417 158.661 19.4844 159.586 19.4844H166.578L167.145 23ZM215.055 23H211.637V0.460938H215.055V23Z" fill="white"/>
<path d="M81.8516 23C79.8073 23 78.2057 22.2318 77.0469 20.6953C75.875 22.2318 74.293 23 72.3008 23H69.0781C64.5078 23 62.2227 21.2096 62.2227 17.6289V0.460938H65.6602V16.0859C65.6602 17.6615 65.8815 18.6641 66.3242 19.0938C66.5846 19.3542 67.5026 19.4844 69.0781 19.4844H72.0859C73.1016 19.4844 73.7852 19.2044 74.1367 18.6445C74.3451 18.306 74.4492 17.4531 74.4492 16.0859V0.460938H77.9648V16.4375C77.9648 18.4688 79.2604 19.4844 81.8516 19.4844V23ZM93.5508 23H80.5625V19.4844H83.5703V0.460938H87.0859V13.0195C89.3385 10.3503 91.3438 9.01562 93.1016 9.01562C94.9115 9.01562 96.4089 9.81641 97.5938 11.418C98.6615 12.8633 99.1953 14.5365 99.1953 16.4375C99.1953 18.3385 98.7396 19.875 97.8281 21.0469C96.8255 22.349 95.3997 23 93.5508 23ZM93.3945 12.5312C92.2487 12.5312 90.9271 13.4232 89.4297 15.207C88.2318 16.6263 87.3268 18.0651 86.7148 19.5234H93.5508C94.9049 19.5234 95.582 18.4622 95.582 16.3398C95.582 13.8008 94.8529 12.5312 93.3945 12.5312ZM189.078 23C187.034 23 185.432 22.2318 184.273 20.6953C183.102 22.2318 181.52 23 179.527 23H176.305C171.734 23 169.449 21.2096 169.449 17.6289V0.460938H172.887V16.0859C172.887 17.6615 173.108 18.6641 173.551 19.0938C173.811 19.3542 174.729 19.4844 176.305 19.4844H179.312C180.328 19.4844 181.012 19.2044 181.363 18.6445C181.572 18.306 181.676 17.4531 181.676 16.0859V0.460938H185.191V16.4375C185.191 18.4688 186.487 19.4844 189.078 19.4844V23ZM200.777 23H187.789V19.4844H190.797V0.460938H194.312V13.0195C196.565 10.3503 198.57 9.01562 200.328 9.01562C202.138 9.01562 203.635 9.81641 204.82 11.418C205.888 12.8633 206.422 14.5365 206.422 16.4375C206.422 18.3385 205.966 19.875 205.055 21.0469C204.052 22.349 202.626 23 200.777 23ZM200.621 12.5312C199.475 12.5312 198.154 13.4232 196.656 15.207C195.458 16.6263 194.553 18.0651 193.941 19.5234H200.777C202.132 19.5234 202.809 18.4622 202.809 16.3398C202.809 13.8008 202.079 12.5312 200.621 12.5312Z" fill="#D9A523"/>
</svg>
